<?xml version="1.0" encoding="utf-8" standalone="no"?>
<!DOCTYPE svg PUBLIC "-//W3C//DTD SVG 1.1//EN"
  "http://www.w3.org/Graphics/SVG/1.1/DTD/svg11.dtd">
<!-- Created with matplotlib (http://matplotlib.org/) -->
<svg height="293pt" version="1.1" viewBox="0 0 393 293" width="393pt" xmlns="http://www.w3.org/2000/svg" xmlns:xlink="http://www.w3.org/1999/xlink">
 <defs>
  <style type="text/css">
*{stroke-linecap:butt;stroke-linejoin:round;stroke-miterlimit:100000;}
  </style>
 </defs>
 <g id="figure_1">
  <g id="patch_1">
   <path d="M 0 293.533625 
L 393.328125 293.533625 
L 393.328125 0 
L 0 0 
z
" style="fill:#ffffff;"/>
  </g>
  <g id="axes_1">
   <g id="patch_2">
    <path d="M 44.965625 257.9555 
L 379.765625 257.9555 
L 379.765625 34.7555 
L 44.965625 34.7555 
z
" style="fill:#ffffff;"/>
   </g>
   <g id="line2d_1">
    <defs>
     <path d="M 0 3 
C 0.795609 3 1.55874 2.683901 2.12132 2.12132 
C 2.683901 1.55874 3 0.795609 3 0 
C 3 -0.795609 2.683901 -1.55874 2.12132 -2.12132 
C 1.55874 -2.683901 0.795609 -3 0 -3 
C -0.795609 -3 -1.55874 -2.683901 -2.12132 -2.12132 
C -2.683901 -1.55874 -3 -0.795609 -3 0 
C -3 0.795609 -2.683901 1.55874 -2.12132 2.12132 
C -1.55874 2.683901 -0.795609 3 0 3 
z
" id="m00696814fd" style="stroke:#000000;stroke-width:0.5;"/>
    </defs>
    <g clip-path="url(#pc8e111137c)">
     <use style="fill:#ff0000;stroke:#000000;stroke-width:0.5;" x="-264.724375" xlink:href="#m00696814fd" y="257.9555"/>
     <use style="fill:#ff0000;stroke:#000000;stroke-width:0.5;" x="-1.0" xlink:href="#m00696814fd" y="257.9555"/>
     <use style="fill:#ff0000;stroke:#000000;stroke-width:0.5;" x="14.275625" xlink:href="#m00696814fd" y="257.9555"/>
     <use style="fill:#ff0000;stroke:#000000;stroke-width:0.5;" x="70.075625" xlink:href="#m00696814fd" y="257.9555"/>
     <use style="fill:#ff0000;stroke:#000000;stroke-width:0.5;" x="125.875625" xlink:href="#m00696814fd" y="257.9555"/>
     <use style="fill:#ff0000;stroke:#000000;stroke-width:0.5;" x="181.675625" xlink:href="#m00696814fd" y="257.9555"/>
     <use style="fill:#ff0000;stroke:#000000;stroke-width:0.5;" x="237.475625" xlink:href="#m00696814fd" y="236.3051"/>
     <use style="fill:#ff0000;stroke:#000000;stroke-width:0.5;" x="293.275625" xlink:href="#m00696814fd" y="161.5331"/>
     <use style="fill:#ff0000;stroke:#000000;stroke-width:0.5;" x="349.075625" xlink:href="#m00696814fd" y="69.7979"/>
     <use style="fill:#ff0000;stroke:#000000;stroke-width:0.5;" x="404.875625" xlink:href="#m00696814fd" y="38.1035"/>
    </g>
   </g>
   <g id="line2d_2">
    <path clip-path="url(#pc8e111137c)" d="M -264.724375 253.437467 
M -1 255.166904 
L 8.581747 256.818769 
L 22.247054 259.355649 
L 35.91236 261.94351 
L 49.577666 264.443101 
L 63.242972 266.708818 
L 76.908278 268.591566 
L 90.573584 269.941618 
L 104.23889 270.611477 
L 117.904196 270.45873 
L 131.569503 269.348915 
L 145.234809 267.158376 
L 158.900115 263.777124 
L 172.565421 259.111698 
L 186.230727 253.088024 
L 199.896033 245.654274 
L 213.561339 236.783727 
L 227.226645 226.477629 
L 240.891952 214.768053 
L 254.557258 201.720756 
L 268.222564 187.438043 
L 281.88787 172.061623 
L 295.553176 155.775473 
L 309.218482 138.808694 
L 322.883788 121.438373 
L 336.549094 103.99244 
L 350.214401 86.852534 
L 363.879707 70.456856 
L 377.545013 55.303032 
L 391.210319 41.950974 
L 394.328125 39.458328 
" style="fill:none;stroke:#ff0000;stroke-linecap:square;stroke-width:1.5;"/>
   </g>
   <g id="line2d_3">
    <defs>
     <path d="M 0 3 
C 0.795609 3 1.55874 2.683901 2.12132 2.12132 
C 2.683901 1.55874 3 0.795609 3 0 
C 3 -0.795609 2.683901 -1.55874 2.12132 -2.12132 
C 1.55874 -2.683901 0.795609 -3 0 -3 
C -0.795609 -3 -1.55874 -2.683901 -2.12132 -2.12132 
C -2.683901 -1.55874 -3 -0.795609 -3 0 
C -3 0.795609 -2.683901 1.55874 -2.12132 2.12132 
C -1.55874 2.683901 -0.795609 3 0 3 
z
" id="mbb6e028a2c" style="stroke:#000000;stroke-width:0.5;"/>
    </defs>
    <g clip-path="url(#pc8e111137c)">
     <use style="fill:#0000ff;stroke:#000000;stroke-width:0.5;" x="-264.724375" xlink:href="#mbb6e028a2c" y="34.7555"/>
     <use style="fill:#0000ff;stroke:#000000;stroke-width:0.5;" x="-1.0" xlink:href="#mbb6e028a2c" y="34.7555"/>
     <use style="fill:#0000ff;stroke:#000000;stroke-width:0.5;" x="14.275625" xlink:href="#mbb6e028a2c" y="34.7555"/>
     <use style="fill:#0000ff;stroke:#000000;stroke-width:0.5;" x="70.075625" xlink:href="#mbb6e028a2c" y="34.7555"/>
     <use style="fill:#0000ff;stroke:#000000;stroke-width:0.5;" x="125.875625" xlink:href="#mbb6e028a2c" y="34.7555"/>
     <use style="fill:#0000ff;stroke:#000000;stroke-width:0.5;" x="181.675625" xlink:href="#mbb6e028a2c" y="34.7555"/>
     <use style="fill:#0000ff;stroke:#000000;stroke-width:0.5;" x="237.475625" xlink:href="#mbb6e028a2c" y="56.4059"/>
     <use style="fill:#0000ff;stroke:#000000;stroke-width:0.5;" x="293.275625" xlink:href="#mbb6e028a2c" y="131.1779"/>
     <use style="fill:#0000ff;stroke:#000000;stroke-width:0.5;" x="349.075625" xlink:href="#mbb6e028a2c" y="222.9131"/>
     <use style="fill:#0000ff;stroke:#000000;stroke-width:0.5;" x="404.875625" xlink:href="#mbb6e028a2c" y="254.6075"/>
    </g>
   </g>
   <g id="line2d_4">
    <path clip-path="url(#pc8e111137c)" d="M -264.724375 39.273533 
M -1 37.544096 
L 8.581747 35.892231 
L 22.247054 33.355351 
L 35.91236 30.76749 
L 49.577666 28.267899 
L 63.242972 26.002182 
L 76.908278 24.119434 
L 90.573584 22.769382 
L 104.23889 22.099523 
L 117.904196 22.25227 
L 131.569503 23.362085 
L 145.234809 25.552624 
L 158.900115 28.933876 
L 172.565421 33.599302 
L 186.230727 39.622976 
L 199.896033 47.056726 
L 213.561339 55.927273 
L 227.226645 66.233371 
L 240.891952 77.942947 
L 254.557258 90.990244 
L 268.222564 105.272957 
L 281.88787 120.649377 
L 295.553176 136.935527 
L 309.218482 153.902306 
L 322.883788 171.272627 
L 336.549094 188.71856 
L 350.214401 205.858466 
L 363.879707 222.254144 
L 377.545013 237.407968 
L 391.210319 250.760026 
L 394.328125 253.252672 
" style="fill:none;stroke:#0000ff;stroke-linecap:square;stroke-width:1.5;"/>
   </g>
   <g id="line2d_5">
    <defs>
     <path d="M 0 3 
C 0.795609 3 1.55874 2.683901 2.12132 2.12132 
C 2.683901 1.55874 3 0.795609 3 0 
C 3 -0.795609 2.683901 -1.55874 2.12132 -2.12132 
C 1.55874 -2.683901 0.795609 -3 0 -3 
C -0.795609 -3 -1.55874 -2.683901 -2.12132 -2.12132 
C -2.683901 -1.55874 -3 -0.795609 -3 0 
C -3 0.795609 -2.683901 1.55874 -2.12132 2.12132 
C -1.55874 2.683901 -0.795609 3 0 3 
z
" id="m1592edb64a" style="stroke:#ff0000;stroke-width:0.5;"/>
    </defs>
    <g clip-path="url(#pc8e111137c)">
     <use style="fill:none;stroke:#ff0000;stroke-width:0.5;" x="-278.674375" xlink:href="#m1592edb64a" y="250.3667"/>
     <use style="fill:none;stroke:#ff0000;stroke-width:0.5;" x="-1.0" xlink:href="#m1592edb64a" y="243.27683"/>
     <use style="fill:none;stroke:#ff0000;stroke-width:0.5;" x="0.325625" xlink:href="#m1592edb64a" y="243.0011"/>
     <use style="fill:none;stroke:#ff0000;stroke-width:0.5;" x="28.225625" xlink:href="#m1592edb64a" y="226.7075"/>
     <use style="fill:none;stroke:#ff0000;stroke-width:0.5;" x="56.125625" xlink:href="#m1592edb64a" y="234.9659"/>
     <use style="fill:none;stroke:#ff0000;stroke-width:0.5;" x="84.025625" xlink:href="#m1592edb64a" y="218.0027"/>
     <use style="fill:none;stroke:#ff0000;stroke-width:0.5;" x="111.925625" xlink:href="#m1592edb64a" y="218.8955"/>
     <use style="fill:none;stroke:#ff0000;stroke-width:0.5;" x="139.825625" xlink:href="#m1592edb64a" y="244.3403"/>
     <use style="fill:none;stroke:#ff0000;stroke-width:0.5;" x="167.725625" xlink:href="#m1592edb64a" y="223.5827"/>
     <use style="fill:none;stroke:#ff0000;stroke-width:0.5;" x="195.625625" xlink:href="#m1592edb64a" y="198.3611"/>
     <use style="fill:none;stroke:#ff0000;stroke-width:0.5;" x="223.525625" xlink:href="#m1592edb64a" y="202.1555"/>
     <use style="fill:none;stroke:#ff0000;stroke-width:0.5;" x="251.425625" xlink:href="#m1592edb64a" y="151.0427"/>
     <use style="fill:none;stroke:#ff0000;stroke-width:0.5;" x="279.325625" xlink:href="#m1592edb64a" y="142.3379"/>
     <use style="fill:none;stroke:#ff0000;stroke-width:0.5;" x="307.225625" xlink:href="#m1592edb64a" y="79.3955"/>
     <use style="fill:none;stroke:#ff0000;stroke-width:0.5;" x="335.125625" xlink:href="#m1592edb64a" y="119.7947"/>
     <use style="fill:none;stroke:#ff0000;stroke-width:0.5;" x="363.025625" xlink:href="#m1592edb64a" y="86.7611"/>
     <use style="fill:none;stroke:#ff0000;stroke-width:0.5;" x="390.925625" xlink:href="#m1592edb64a" y="61.3163"/>
     <use style="fill:none;stroke:#ff0000;stroke-width:0.5;" x="418.825625" xlink:href="#m1592edb64a" y="42.1211"/>
    </g>
   </g>
   <g id="line2d_6">
    <path clip-path="url(#pc8e111137c)" d="M -278.674375 249.371326 
M -1 239.530027 
L 6.019503 239.367792 
L 20.254196 238.964489 
L 34.48889 238.413137 
L 48.723584 237.636725 
L 62.958278 236.556643 
L 77.192972 235.094366 
L 91.427666 233.173136 
L 105.66236 230.719639 
L 119.897054 227.665688 
L 134.131747 223.949905 
L 148.366441 219.519397 
L 162.601135 214.331444 
L 176.835829 208.355172 
L 191.070523 201.573239 
L 205.305217 193.983515 
L 219.539911 185.600759 
L 233.774605 176.458306 
L 248.009298 166.609741 
L 262.243992 156.130586 
L 276.478686 145.119976 
L 290.71338 133.702341 
L 304.948074 122.029088 
L 319.182768 110.280281 
L 333.417462 98.666323 
L 347.652156 87.429631 
L 361.886849 76.846327 
L 376.121543 67.227908 
L 390.356237 58.922934 
L 394.328125 57.080165 
" style="fill:none;stroke:#ff0000;stroke-dasharray:6.000000,6.000000;stroke-dashoffset:0.0;stroke-width:1.5;"/>
   </g>
   <g id="line2d_7">
    <defs>
     <path d="M 0 3 
C 0.795609 3 1.55874 2.683901 2.12132 2.12132 
C 2.683901 1.55874 3 0.795609 3 0 
C 3 -0.795609 2.683901 -1.55874 2.12132 -2.12132 
C 1.55874 -2.683901 0.795609 -3 0 -3 
C -0.795609 -3 -1.55874 -2.683901 -2.12132 -2.12132 
C -2.683901 -1.55874 -3 -0.795609 -3 0 
C -3 0.795609 -2.683901 1.55874 -2.12132 2.12132 
C -1.55874 2.683901 -0.795609 3 0 3 
z
" id="m52ecdcb3c7" style="stroke:#0000ff;stroke-width:0.5;"/>
    </defs>
    <g clip-path="url(#pc8e111137c)">
     <use style="fill:none;stroke:#0000ff;stroke-width:0.5;" x="-278.674375" xlink:href="#m52ecdcb3c7" y="42.3443"/>
     <use style="fill:none;stroke:#0000ff;stroke-width:0.5;" x="-1.0" xlink:href="#m52ecdcb3c7" y="49.43417"/>
     <use style="fill:none;stroke:#0000ff;stroke-width:0.5;" x="0.325625" xlink:href="#m52ecdcb3c7" y="49.7099"/>
     <use style="fill:none;stroke:#0000ff;stroke-width:0.5;" x="28.225625" xlink:href="#m52ecdcb3c7" y="66.0035"/>
     <use style="fill:none;stroke:#0000ff;stroke-width:0.5;" x="56.125625" xlink:href="#m52ecdcb3c7" y="57.7451"/>
     <use style="fill:none;stroke:#0000ff;stroke-width:0.5;" x="84.025625" xlink:href="#m52ecdcb3c7" y="74.7083"/>
     <use style="fill:none;stroke:#0000ff;stroke-width:0.5;" x="111.925625" xlink:href="#m52ecdcb3c7" y="73.8155"/>
     <use style="fill:none;stroke:#0000ff;stroke-width:0.5;" x="139.825625" xlink:href="#m52ecdcb3c7" y="48.3707"/>
     <use style="fill:none;stroke:#0000ff;stroke-width:0.5;" x="167.725625" xlink:href="#m52ecdcb3c7" y="69.1283"/>
     <use style="fill:none;stroke:#0000ff;stroke-width:0.5;" x="195.625625" xlink:href="#m52ecdcb3c7" y="94.3499"/>
     <use style="fill:none;stroke:#0000ff;stroke-width:0.5;" x="223.525625" xlink:href="#m52ecdcb3c7" y="90.5555"/>
     <use style="fill:none;stroke:#0000ff;stroke-width:0.5;" x="251.425625" xlink:href="#m52ecdcb3c7" y="141.6683"/>
     <use style="fill:none;stroke:#0000ff;stroke-width:0.5;" x="279.325625" xlink:href="#m52ecdcb3c7" y="150.3731"/>
     <use style="fill:none;stroke:#0000ff;stroke-width:0.5;" x="307.225625" xlink:href="#m52ecdcb3c7" y="213.3155"/>
     <use style="fill:none;stroke:#0000ff;stroke-width:0.5;" x="335.125625" xlink:href="#m52ecdcb3c7" y="172.9163"/>
     <use style="fill:none;stroke:#0000ff;stroke-width:0.5;" x="363.025625" xlink:href="#m52ecdcb3c7" y="205.9499"/>
     <use style="fill:none;stroke:#0000ff;stroke-width:0.5;" x="390.925625" xlink:href="#m52ecdcb3c7" y="231.3947"/>
     <use style="fill:none;stroke:#0000ff;stroke-width:0.5;" x="418.825625" xlink:href="#m52ecdcb3c7" y="250.5899"/>
    </g>
   </g>
   <g id="line2d_8">
    <path clip-path="url(#pc8e111137c)" d="M -278.674375 43.339674 
M -1 53.180973 
L 6.019503 53.343208 
L 20.254196 53.746511 
L 34.48889 54.297863 
L 48.723584 55.074275 
L 62.958278 56.154357 
L 77.192972 57.616634 
L 91.427666 59.537864 
L 105.66236 61.991361 
L 119.897054 65.045312 
L 134.131747 68.761095 
L 148.366441 73.191603 
L 162.601135 78.379556 
L 176.835829 84.355828 
L 191.070523 91.137761 
L 205.305217 98.727485 
L 219.539911 107.110241 
L 233.774605 116.252694 
L 248.009298 126.101259 
L 262.243992 136.580414 
L 276.478686 147.591024 
L 290.71338 159.008659 
L 304.948074 170.681912 
L 319.182768 182.430719 
L 333.417462 194.044677 
L 347.652156 205.281369 
L 361.886849 215.864673 
L 376.121543 225.483092 
L 390.356237 233.788066 
L 394.328125 235.630835 
" style="fill:none;stroke:#0000ff;stroke-dasharray:6.000000,6.000000;stroke-dashoffset:0.0;stroke-width:1.5;"/>
   </g>
   <g id="patch_3">
    <path d="M 44.965625 34.7555 
L 379.765625 34.7555 
" style="fill:none;stroke:#000000;stroke-linecap:square;stroke-linejoin:miter;"/>
   </g>
   <g id="patch_4">
    <path d="M 379.765625 257.9555 
L 379.765625 34.7555 
" style="fill:none;stroke:#000000;stroke-linecap:square;stroke-linejoin:miter;"/>
   </g>
   <g id="patch_5">
    <path d="M 44.965625 257.9555 
L 379.765625 257.9555 
" style="fill:none;stroke:#000000;stroke-linecap:square;stroke-linejoin:miter;"/>
   </g>
   <g id="patch_6">
    <path d="M 44.965625 257.9555 
L 44.965625 34.7555 
" style="fill:none;stroke:#000000;stroke-linecap:square;stroke-linejoin:miter;"/>
   </g>
   <g id="matplotlib.axis_1">
    <g id="xtick_1">
     <g id="line2d_9">
      <path clip-path="url(#pc8e111137c)" d="M 44.965625 257.9555 
L 44.965625 34.7555 
" style="fill:none;stroke:#000000;stroke-dasharray:1.000000,3.000000;stroke-dashoffset:0.0;stroke-width:0.5;"/>
     </g>
     <g id="line2d_10">
      <defs>
       <path d="M 0 0 
L 0 -4 
" id="m5ac351cba2" style="stroke:#000000;stroke-width:0.5;"/>
      </defs>
      <g>
       <use style="stroke:#000000;stroke-width:0.5;" x="44.965625" xlink:href="#m5ac351cba2" y="257.9555"/>
      </g>
     </g>
     <g id="line2d_11">
      <defs>
       <path d="M 0 0 
L 0 4 
" id="mb31b82d5ed" style="stroke:#000000;stroke-width:0.5;"/>
      </defs>
      <g>
       <use style="stroke:#000000;stroke-width:0.5;" x="44.965625" xlink:href="#mb31b82d5ed" y="34.7555"/>
      </g>
     </g>
     <g id="text_1">
      <text style="font-family:Bitstream Vera Sans;font-size:10.0px;font-style:normal;font-weight:400;text-anchor:middle;" transform="rotate(-0.000000, 44.965625, 269.553937)" x="44.965625" y="269.5539375">29</text>
     </g>
    </g>
    <g id="xtick_2">
     <g id="line2d_12">
      <path clip-path="url(#pc8e111137c)" d="M 100.765625 257.9555 
L 100.765625 34.7555 
" style="fill:none;stroke:#000000;stroke-dasharray:1.000000,3.000000;stroke-dashoffset:0.0;stroke-width:0.5;"/>
     </g>
     <g id="line2d_13">
      <g>
       <use style="stroke:#000000;stroke-width:0.5;" x="100.765625" xlink:href="#m5ac351cba2" y="257.9555"/>
      </g>
     </g>
     <g id="line2d_14">
      <g>
       <use style="stroke:#000000;stroke-width:0.5;" x="100.765625" xlink:href="#mb31b82d5ed" y="34.7555"/>
      </g>
     </g>
     <g id="text_2">
      <text style="font-family:Bitstream Vera Sans;font-size:10.0px;font-style:normal;font-weight:400;text-anchor:middle;" transform="rotate(-0.000000, 100.765625, 269.553937)" x="100.765625" y="269.5539375">30</text>
     </g>
    </g>
    <g id="xtick_3">
     <g id="line2d_15">
      <path clip-path="url(#pc8e111137c)" d="M 156.565625 257.9555 
L 156.565625 34.7555 
" style="fill:none;stroke:#000000;stroke-dasharray:1.000000,3.000000;stroke-dashoffset:0.0;stroke-width:0.5;"/>
     </g>
     <g id="line2d_16">
      <g>
       <use style="stroke:#000000;stroke-width:0.5;" x="156.565625" xlink:href="#m5ac351cba2" y="257.9555"/>
      </g>
     </g>
     <g id="line2d_17">
      <g>
       <use style="stroke:#000000;stroke-width:0.5;" x="156.565625" xlink:href="#mb31b82d5ed" y="34.7555"/>
      </g>
     </g>
     <g id="text_3">
      <text style="font-family:Bitstream Vera Sans;font-size:10.0px;font-style:normal;font-weight:400;text-anchor:middle;" transform="rotate(-0.000000, 156.565625, 269.553937)" x="156.565625" y="269.5539375">31</text>
     </g>
    </g>
    <g id="xtick_4">
     <g id="line2d_18">
      <path clip-path="url(#pc8e111137c)" d="M 212.365625 257.9555 
L 212.365625 34.7555 
" style="fill:none;stroke:#000000;stroke-dasharray:1.000000,3.000000;stroke-dashoffset:0.0;stroke-width:0.5;"/>
     </g>
     <g id="line2d_19">
      <g>
       <use style="stroke:#000000;stroke-width:0.5;" x="212.365625" xlink:href="#m5ac351cba2" y="257.9555"/>
      </g>
     </g>
     <g id="line2d_20">
      <g>
       <use style="stroke:#000000;stroke-width:0.5;" x="212.365625" xlink:href="#mb31b82d5ed" y="34.7555"/>
      </g>
     </g>
     <g id="text_4">
      <text style="font-family:Bitstream Vera Sans;font-size:10.0px;font-style:normal;font-weight:400;text-anchor:middle;" transform="rotate(-0.000000, 212.365625, 269.553937)" x="212.365625" y="269.5539375">32</text>
     </g>
    </g>
    <g id="xtick_5">
     <g id="line2d_21">
      <path clip-path="url(#pc8e111137c)" d="M 268.165625 257.9555 
L 268.165625 34.7555 
" style="fill:none;stroke:#000000;stroke-dasharray:1.000000,3.000000;stroke-dashoffset:0.0;stroke-width:0.5;"/>
     </g>
     <g id="line2d_22">
      <g>
       <use style="stroke:#000000;stroke-width:0.5;" x="268.165625" xlink:href="#m5ac351cba2" y="257.9555"/>
      </g>
     </g>
     <g id="line2d_23">
      <g>
       <use style="stroke:#000000;stroke-width:0.5;" x="268.165625" xlink:href="#mb31b82d5ed" y="34.7555"/>
      </g>
     </g>
     <g id="text_5">
      <text style="font-family:Bitstream Vera Sans;font-size:10.0px;font-style:normal;font-weight:400;text-anchor:middle;" transform="rotate(-0.000000, 268.165625, 269.553937)" x="268.165625" y="269.5539375">33</text>
     </g>
    </g>
    <g id="xtick_6">
     <g id="line2d_24">
      <path clip-path="url(#pc8e111137c)" d="M 323.965625 257.9555 
L 323.965625 34.7555 
" style="fill:none;stroke:#000000;stroke-dasharray:1.000000,3.000000;stroke-dashoffset:0.0;stroke-width:0.5;"/>
     </g>
     <g id="line2d_25">
      <g>
       <use style="stroke:#000000;stroke-width:0.5;" x="323.965625" xlink:href="#m5ac351cba2" y="257.9555"/>
      </g>
     </g>
     <g id="line2d_26">
      <g>
       <use style="stroke:#000000;stroke-width:0.5;" x="323.965625" xlink:href="#mb31b82d5ed" y="34.7555"/>
      </g>
     </g>
     <g id="text_6">
      <text style="font-family:Bitstream Vera Sans;font-size:10.0px;font-style:normal;font-weight:400;text-anchor:middle;" transform="rotate(-0.000000, 323.965625, 269.553937)" x="323.965625" y="269.5539375">34</text>
     </g>
    </g>
    <g id="xtick_7">
     <g id="line2d_27">
      <path clip-path="url(#pc8e111137c)" d="M 379.765625 257.9555 
L 379.765625 34.7555 
" style="fill:none;stroke:#000000;stroke-dasharray:1.000000,3.000000;stroke-dashoffset:0.0;stroke-width:0.5;"/>
     </g>
     <g id="line2d_28">
      <g>
       <use style="stroke:#000000;stroke-width:0.5;" x="379.765625" xlink:href="#m5ac351cba2" y="257.9555"/>
      </g>
     </g>
     <g id="line2d_29">
      <g>
       <use style="stroke:#000000;stroke-width:0.5;" x="379.765625" xlink:href="#mb31b82d5ed" y="34.7555"/>
      </g>
     </g>
     <g id="text_7">
      <text style="font-family:Bitstream Vera Sans;font-size:10.0px;font-style:normal;font-weight:400;text-anchor:middle;" transform="rotate(-0.000000, 379.765625, 269.553937)" x="379.765625" y="269.5539375">35</text>
     </g>
    </g>
    <g id="text_8">
     <!-- Temperature ($^o$F) -->
     <g transform="translate(169.115625 284.233625)">
      <text>
       <tspan style="font-family:cmmi10;font-size:7.0px;font-style:regular;font-weight:regular;" x="72.7901640625" y="-4.23265625">o</tspan>
       <tspan style="font-family:Bitstream Vera Sans;font-size:10.0px;font-style:roman;font-weight:roman;" x="0.0 6.1083984375 12.2607421875 22.001953125 28.349609375 34.501953125 38.61328125 44.7412109375 48.662109375 55.0 59.111328125 65.263671875 68.4423828125 76.8151054688 82.5670585938" y="-0.40625">Temperature (F)</tspan>
      </text>
     </g>
    </g>
   </g>
   <g id="matplotlib.axis_2">
    <g id="ytick_1">
     <g id="line2d_30">
      <path clip-path="url(#pc8e111137c)" d="M 44.965625 257.9555 
L 379.765625 257.9555 
" style="fill:none;stroke:#000000;stroke-dasharray:1.000000,3.000000;stroke-dashoffset:0.0;stroke-width:0.5;"/>
     </g>
     <g id="line2d_31">
      <defs>
       <path d="M 0 0 
L 4 0 
" id="m479e67d203" style="stroke:#000000;stroke-width:0.5;"/>
      </defs>
      <g>
       <use style="stroke:#000000;stroke-width:0.5;" x="44.965625" xlink:href="#m479e67d203" y="257.9555"/>
      </g>
     </g>
     <g id="line2d_32">
      <defs>
       <path d="M 0 0 
L -4 0 
" id="m45e047aae0" style="stroke:#000000;stroke-width:0.5;"/>
      </defs>
      <g>
       <use style="stroke:#000000;stroke-width:0.5;" x="379.765625" xlink:href="#m45e047aae0" y="257.9555"/>
      </g>
     </g>
     <g id="text_9">
      <text style="font-family:Bitstream Vera Sans;font-size:10.0px;font-style:normal;font-weight:400;text-anchor:end;" transform="rotate(-0.000000, 40.965625, 260.714875)" x="40.965625" y="260.714875">0</text>
     </g>
    </g>
    <g id="ytick_2">
     <g id="line2d_33">
      <path clip-path="url(#pc8e111137c)" d="M 44.965625 213.3155 
L 379.765625 213.3155 
" style="fill:none;stroke:#000000;stroke-dasharray:1.000000,3.000000;stroke-dashoffset:0.0;stroke-width:0.5;"/>
     </g>
     <g id="line2d_34">
      <g>
       <use style="stroke:#000000;stroke-width:0.5;" x="44.965625" xlink:href="#m479e67d203" y="213.3155"/>
      </g>
     </g>
     <g id="line2d_35">
      <g>
       <use style="stroke:#000000;stroke-width:0.5;" x="379.765625" xlink:href="#m45e047aae0" y="213.3155"/>
      </g>
     </g>
     <g id="text_10">
      <text style="font-family:Bitstream Vera Sans;font-size:10.0px;font-style:normal;font-weight:400;text-anchor:end;" transform="rotate(-0.000000, 40.965625, 216.074875)" x="40.965625" y="216.074875">20</text>
     </g>
    </g>
    <g id="ytick_3">
     <g id="line2d_36">
      <path clip-path="url(#pc8e111137c)" d="M 44.965625 168.6755 
L 379.765625 168.6755 
" style="fill:none;stroke:#000000;stroke-dasharray:1.000000,3.000000;stroke-dashoffset:0.0;stroke-width:0.5;"/>
     </g>
     <g id="line2d_37">
      <g>
       <use style="stroke:#000000;stroke-width:0.5;" x="44.965625" xlink:href="#m479e67d203" y="168.6755"/>
      </g>
     </g>
     <g id="line2d_38">
      <g>
       <use style="stroke:#000000;stroke-width:0.5;" x="379.765625" xlink:href="#m45e047aae0" y="168.6755"/>
      </g>
     </g>
     <g id="text_11">
      <text style="font-family:Bitstream Vera Sans;font-size:10.0px;font-style:normal;font-weight:400;text-anchor:end;" transform="rotate(-0.000000, 40.965625, 171.434875)" x="40.965625" y="171.434875">40</text>
     </g>
    </g>
    <g id="ytick_4">
     <g id="line2d_39">
      <path clip-path="url(#pc8e111137c)" d="M 44.965625 124.0355 
L 379.765625 124.0355 
" style="fill:none;stroke:#000000;stroke-dasharray:1.000000,3.000000;stroke-dashoffset:0.0;stroke-width:0.5;"/>
     </g>
     <g id="line2d_40">
      <g>
       <use style="stroke:#000000;stroke-width:0.5;" x="44.965625" xlink:href="#m479e67d203" y="124.0355"/>
      </g>
     </g>
     <g id="line2d_41">
      <g>
       <use style="stroke:#000000;stroke-width:0.5;" x="379.765625" xlink:href="#m45e047aae0" y="124.0355"/>
      </g>
     </g>
     <g id="text_12">
      <text style="font-family:Bitstream Vera Sans;font-size:10.0px;font-style:normal;font-weight:400;text-anchor:end;" transform="rotate(-0.000000, 40.965625, 126.794875)" x="40.965625" y="126.794875">60</text>
     </g>
    </g>
    <g id="ytick_5">
     <g id="line2d_42">
      <path clip-path="url(#pc8e111137c)" d="M 44.965625 79.3955 
L 379.765625 79.3955 
" style="fill:none;stroke:#000000;stroke-dasharray:1.000000,3.000000;stroke-dashoffset:0.0;stroke-width:0.5;"/>
     </g>
     <g id="line2d_43">
      <g>
       <use style="stroke:#000000;stroke-width:0.5;" x="44.965625" xlink:href="#m479e67d203" y="79.3955"/>
      </g>
     </g>
     <g id="line2d_44">
      <g>
       <use style="stroke:#000000;stroke-width:0.5;" x="379.765625" xlink:href="#m45e047aae0" y="79.3955"/>
      </g>
     </g>
     <g id="text_13">
      <text style="font-family:Bitstream Vera Sans;font-size:10.0px;font-style:normal;font-weight:400;text-anchor:end;" transform="rotate(-0.000000, 40.965625, 82.154875)" x="40.965625" y="82.154875">80</text>
     </g>
    </g>
    <g id="ytick_6">
     <g id="line2d_45">
      <path clip-path="url(#pc8e111137c)" d="M 44.965625 34.7555 
L 379.765625 34.7555 
" style="fill:none;stroke:#000000;stroke-dasharray:1.000000,3.000000;stroke-dashoffset:0.0;stroke-width:0.5;"/>
     </g>
     <g id="line2d_46">
      <g>
       <use style="stroke:#000000;stroke-width:0.5;" x="44.965625" xlink:href="#m479e67d203" y="34.7555"/>
      </g>
     </g>
     <g id="line2d_47">
      <g>
       <use style="stroke:#000000;stroke-width:0.5;" x="379.765625" xlink:href="#m45e047aae0" y="34.7555"/>
      </g>
     </g>
     <g id="text_14">
      <text style="font-family:Bitstream Vera Sans;font-size:10.0px;font-style:normal;font-weight:400;text-anchor:end;" transform="rotate(-0.000000, 40.965625, 37.514875)" x="40.965625" y="37.514875">100</text>
     </g>
    </g>
    <g id="text_15">
     <text style="font-family:Bitstream Vera Sans;font-size:10.0px;font-style:normal;font-weight:400;text-anchor:middle;" transform="rotate(-90.000000, 14.798438, 146.355500)" x="14.7984375" y="146.3555">Percent of ASOS Precipitation Observations</text>
    </g>
   </g>
   <g id="text_16">
    <text style="font-family:Bitstream Vera Sans;font-size:12.0px;font-style:normal;font-weight:400;" transform="translate(143.8475 16.318125)">DuPage Airport (KDPA)</text>
    <text style="font-family:Bitstream Vera Sans;font-size:12.0px;font-style:normal;font-weight:400;" transform="translate(148.6746875 29.7555)">1/1/2006 - 9/30/2013</text>
   </g>
   <g id="legend_1">
    <g id="patch_7">
     <path d="M 50.965625 183.383 
L 189.19625 183.383 
L 189.19625 109.328 
L 50.965625 109.328 
z
" style="fill:#ffffff;stroke:#000000;stroke-linejoin:miter;"/>
    </g>
    <g id="line2d_48">
     <path d="M 59.365625 119.046125 
L 76.165625 119.046125 
" style="fill:none;stroke:#ff0000;stroke-linecap:square;stroke-width:1.5;"/>
    </g>
    <g id="line2d_49"/>
    <g id="text_17">
     <text style="font-family:Bitstream Vera Sans;font-size:12.0px;font-style:normal;font-weight:400;text-anchor:start;" transform="rotate(-0.000000, 89.365625, 123.246125)" x="89.365625" y="123.246125">Rain - ASOS</text>
    </g>
    <g id="line2d_50">
     <path d="M 59.365625 136.659875 
L 76.165625 136.659875 
" style="fill:none;stroke:#0000ff;stroke-linecap:square;stroke-width:1.5;"/>
    </g>
    <g id="line2d_51"/>
    <g id="text_18">
     <text style="font-family:Bitstream Vera Sans;font-size:12.0px;font-style:normal;font-weight:400;text-anchor:start;" transform="rotate(-0.000000, 89.365625, 140.859875)" x="89.365625" y="140.859875">Snow - ASOS</text>
    </g>
    <g id="line2d_52">
     <path d="M 59.365625 154.273625 
L 76.165625 154.273625 
" style="fill:none;stroke:#ff0000;stroke-dasharray:6.000000,6.000000;stroke-dashoffset:0.0;stroke-width:1.5;"/>
    </g>
    <g id="line2d_53"/>
    <g id="text_19">
     <text style="font-family:Bitstream Vera Sans;font-size:12.0px;font-style:normal;font-weight:400;text-anchor:start;" transform="rotate(-0.000000, 89.365625, 158.473625)" x="89.365625" y="158.473625">Rain - Argonne</text>
    </g>
    <g id="line2d_54">
     <path d="M 59.365625 171.887375 
L 76.165625 171.887375 
" style="fill:none;stroke:#0000ff;stroke-dasharray:6.000000,6.000000;stroke-dashoffset:0.0;stroke-width:1.5;"/>
    </g>
    <g id="line2d_55"/>
    <g id="text_20">
     <text style="font-family:Bitstream Vera Sans;font-size:12.0px;font-style:normal;font-weight:400;text-anchor:start;" transform="rotate(-0.000000, 89.365625, 176.087375)" x="89.365625" y="176.087375">Snow - Argonne</text>
    </g>
   </g>
  </g>
 </g>
 <defs>
  <clipPath id="pc8e111137c">
   <rect height="223.2" width="334.8" x="44.965625" y="34.7555"/>
  </clipPath>
 </defs>
</svg>
