<?xml version="1.0" encoding="utf-8" standalone="no"?>
<!DOCTYPE svg PUBLIC "-//W3C//DTD SVG 1.1//EN"
  "http://www.w3.org/Graphics/SVG/1.1/DTD/svg11.dtd">
<!-- Created with matplotlib (http://matplotlib.org/) -->
<svg height="293pt" version="1.1" viewBox="0 0 393 293" width="393pt" xmlns="http://www.w3.org/2000/svg" xmlns:xlink="http://www.w3.org/1999/xlink">
 <defs>
  <style type="text/css">
*{stroke-linecap:butt;stroke-linejoin:round;stroke-miterlimit:100000;}
  </style>
 </defs>
 <g id="figure_1">
  <g id="patch_1">
   <path d="M 0 293.533625 
L 393.328125 293.533625 
L 393.328125 0 
L 0 0 
z
" style="fill:#ffffff;"/>
  </g>
  <g id="axes_1">
   <g id="patch_2">
    <path d="M 44.965625 257.9555 
L 379.765625 257.9555 
L 379.765625 34.7555 
L 44.965625 34.7555 
z
" style="fill:#ffffff;"/>
   </g>
   <g id="line2d_1">
    <defs>
     <path d="M 0 3 
C 0.795609 3 1.55874 2.683901 2.12132 2.12132 
C 2.683901 1.55874 3 0.795609 3 0 
C 3 -0.795609 2.683901 -1.55874 2.12132 -2.12132 
C 1.55874 -2.683901 0.795609 -3 0 -3 
C -0.795609 -3 -1.55874 -2.683901 -2.12132 -2.12132 
C -2.683901 -1.55874 -3 -0.795609 -3 0 
C -3 0.795609 -2.683901 1.55874 -2.12132 2.12132 
C -1.55874 2.683901 -0.795609 3 0 3 
z
" id="md630c182a9" style="stroke:#000000;stroke-width:0.5;"/>
    </defs>
    <g clip-path="url(#p7f0e0ccc45)">
     <use style="fill:#ff0000;stroke:#000000;stroke-width:0.5;" x="-264.724375" xlink:href="#md630c182a9" y="257.9555"/>
     <use style="fill:#ff0000;stroke:#000000;stroke-width:0.5;" x="-1.0" xlink:href="#md630c182a9" y="257.9555"/>
     <use style="fill:#ff0000;stroke:#000000;stroke-width:0.5;" x="14.275625" xlink:href="#md630c182a9" y="257.9555"/>
     <use style="fill:#ff0000;stroke:#000000;stroke-width:0.5;" x="70.075625" xlink:href="#md630c182a9" y="257.9555"/>
     <use style="fill:#ff0000;stroke:#000000;stroke-width:0.5;" x="125.875625" xlink:href="#md630c182a9" y="257.9555"/>
     <use style="fill:#ff0000;stroke:#000000;stroke-width:0.5;" x="181.675625" xlink:href="#md630c182a9" y="257.9555"/>
     <use style="fill:#ff0000;stroke:#000000;stroke-width:0.5;" x="237.475625" xlink:href="#md630c182a9" y="236.3051"/>
     <use style="fill:#ff0000;stroke:#000000;stroke-width:0.5;" x="293.275625" xlink:href="#md630c182a9" y="161.5331"/>
     <use style="fill:#ff0000;stroke:#000000;stroke-width:0.5;" x="349.075625" xlink:href="#md630c182a9" y="69.7979"/>
     <use style="fill:#ff0000;stroke:#000000;stroke-width:0.5;" x="404.875625" xlink:href="#md630c182a9" y="38.1035"/>
    </g>
   </g>
   <g id="line2d_2">
    <path clip-path="url(#p7f0e0ccc45)" d="M -264.724375 253.437467 
M -1 255.166904 
L 8.581747 256.818769 
L 22.247054 259.355649 
L 35.91236 261.94351 
L 49.577666 264.443101 
L 63.242972 266.708818 
L 76.908278 268.591566 
L 90.573584 269.941618 
L 104.23889 270.611477 
L 117.904196 270.45873 
L 131.569503 269.348915 
L 145.234809 267.158376 
L 158.900115 263.777124 
L 172.565421 259.111698 
L 186.230727 253.088024 
L 199.896033 245.654274 
L 213.561339 236.783727 
L 227.226645 226.477629 
L 240.891952 214.768053 
L 254.557258 201.720756 
L 268.222564 187.438043 
L 281.88787 172.061623 
L 295.553176 155.775473 
L 309.218482 138.808694 
L 322.883788 121.438373 
L 336.549094 103.99244 
L 350.214401 86.852534 
L 363.879707 70.456856 
L 377.545013 55.303032 
L 391.210319 41.950974 
L 394.328125 39.458328 
" style="fill:none;stroke:#ff0000;stroke-linecap:square;stroke-width:1.5;"/>
   </g>
   <g id="line2d_3">
    <defs>
     <path d="M 0 3 
C 0.795609 3 1.55874 2.683901 2.12132 2.12132 
C 2.683901 1.55874 3 0.795609 3 0 
C 3 -0.795609 2.683901 -1.55874 2.12132 -2.12132 
C 1.55874 -2.683901 0.795609 -3 0 -3 
C -0.795609 -3 -1.55874 -2.683901 -2.12132 -2.12132 
C -2.683901 -1.55874 -3 -0.795609 -3 0 
C -3 0.795609 -2.683901 1.55874 -2.12132 2.12132 
C -1.55874 2.683901 -0.795609 3 0 3 
z
" id="mc335e2ecbb" style="stroke:#000000;stroke-width:0.5;"/>
    </defs>
    <g clip-path="url(#p7f0e0ccc45)">
     <use style="fill:#0000ff;stroke:#000000;stroke-width:0.5;" x="-264.724375" xlink:href="#mc335e2ecbb" y="34.7555"/>
     <use style="fill:#0000ff;stroke:#000000;stroke-width:0.5;" x="-1.0" xlink:href="#mc335e2ecbb" y="34.7555"/>
     <use style="fill:#0000ff;stroke:#000000;stroke-width:0.5;" x="14.275625" xlink:href="#mc335e2ecbb" y="34.7555"/>
     <use style="fill:#0000ff;stroke:#000000;stroke-width:0.5;" x="70.075625" xlink:href="#mc335e2ecbb" y="34.7555"/>
     <use style="fill:#0000ff;stroke:#000000;stroke-width:0.5;" x="125.875625" xlink:href="#mc335e2ecbb" y="34.7555"/>
     <use style="fill:#0000ff;stroke:#000000;stroke-width:0.5;" x="181.675625" xlink:href="#mc335e2ecbb" y="34.7555"/>
     <use style="fill:#0000ff;stroke:#000000;stroke-width:0.5;" x="237.475625" xlink:href="#mc335e2ecbb" y="56.4059"/>
     <use style="fill:#0000ff;stroke:#000000;stroke-width:0.5;" x="293.275625" xlink:href="#mc335e2ecbb" y="131.1779"/>
     <use style="fill:#0000ff;stroke:#000000;stroke-width:0.5;" x="349.075625" xlink:href="#mc335e2ecbb" y="222.9131"/>
     <use style="fill:#0000ff;stroke:#000000;stroke-width:0.5;" x="404.875625" xlink:href="#mc335e2ecbb" y="254.6075"/>
    </g>
   </g>
   <g id="line2d_4">
    <path clip-path="url(#p7f0e0ccc45)" d="M -264.724375 39.273533 
M -1 37.544096 
L 8.581747 35.892231 
L 22.247054 33.355351 
L 35.91236 30.76749 
L 49.577666 28.267899 
L 63.242972 26.002182 
L 76.908278 24.119434 
L 90.573584 22.769382 
L 104.23889 22.099523 
L 117.904196 22.25227 
L 131.569503 23.362085 
L 145.234809 25.552624 
L 158.900115 28.933876 
L 172.565421 33.599302 
L 186.230727 39.622976 
L 199.896033 47.056726 
L 213.561339 55.927273 
L 227.226645 66.233371 
L 240.891952 77.942947 
L 254.557258 90.990244 
L 268.222564 105.272957 
L 281.88787 120.649377 
L 295.553176 136.935527 
L 309.218482 153.902306 
L 322.883788 171.272627 
L 336.549094 188.71856 
L 350.214401 205.858466 
L 363.879707 222.254144 
L 377.545013 237.407968 
L 391.210319 250.760026 
L 394.328125 253.252672 
" style="fill:none;stroke:#0000ff;stroke-linecap:square;stroke-width:1.5;"/>
   </g>
   <g id="line2d_5">
    <defs>
     <path d="M 0 3 
C 0.795609 3 1.55874 2.683901 2.12132 2.12132 
C 2.683901 1.55874 3 0.795609 3 0 
C 3 -0.795609 2.683901 -1.55874 2.12132 -2.12132 
C 1.55874 -2.683901 0.795609 -3 0 -3 
C -0.795609 -3 -1.55874 -2.683901 -2.12132 -2.12132 
C -2.683901 -1.55874 -3 -0.795609 -3 0 
C -3 0.795609 -2.683901 1.55874 -2.12132 2.12132 
C -1.55874 2.683901 -0.795609 3 0 3 
z
" id="m83c436b889" style="stroke:#ff0000;stroke-width:0.5;"/>
    </defs>
    <g clip-path="url(#p7f0e0ccc45)">
     <use style="fill:none;stroke:#ff0000;stroke-width:0.5;" x="-278.674375" xlink:href="#m83c436b889" y="250.3667"/>
     <use style="fill:none;stroke:#ff0000;stroke-width:0.5;" x="-1.0" xlink:href="#m83c436b889" y="243.27683"/>
     <use style="fill:none;stroke:#ff0000;stroke-width:0.5;" x="0.325625" xlink:href="#m83c436b889" y="243.0011"/>
     <use style="fill:none;stroke:#ff0000;stroke-width:0.5;" x="28.225625" xlink:href="#m83c436b889" y="226.7075"/>
     <use style="fill:none;stroke:#ff0000;stroke-width:0.5;" x="56.125625" xlink:href="#m83c436b889" y="234.9659"/>
     <use style="fill:none;stroke:#ff0000;stroke-width:0.5;" x="84.025625" xlink:href="#m83c436b889" y="218.0027"/>
     <use style="fill:none;stroke:#ff0000;stroke-width:0.5;" x="111.925625" xlink:href="#m83c436b889" y="218.8955"/>
     <use style="fill:none;stroke:#ff0000;stroke-width:0.5;" x="139.825625" xlink:href="#m83c436b889" y="244.3403"/>
     <use style="fill:none;stroke:#ff0000;stroke-width:0.5;" x="167.725625" xlink:href="#m83c436b889" y="223.5827"/>
     <use style="fill:none;stroke:#ff0000;stroke-width:0.5;" x="195.625625" xlink:href="#m83c436b889" y="198.3611"/>
     <use style="fill:none;stroke:#ff0000;stroke-width:0.5;" x="223.525625" xlink:href="#m83c436b889" y="202.1555"/>
     <use style="fill:none;stroke:#ff0000;stroke-width:0.5;" x="251.425625" xlink:href="#m83c436b889" y="151.0427"/>
     <use style="fill:none;stroke:#ff0000;stroke-width:0.5;" x="279.325625" xlink:href="#m83c436b889" y="142.3379"/>
     <use style="fill:none;stroke:#ff0000;stroke-width:0.5;" x="307.225625" xlink:href="#m83c436b889" y="79.3955"/>
     <use style="fill:none;stroke:#ff0000;stroke-width:0.5;" x="335.125625" xlink:href="#m83c436b889" y="119.7947"/>
     <use style="fill:none;stroke:#ff0000;stroke-width:0.5;" x="363.025625" xlink:href="#m83c436b889" y="86.7611"/>
     <use style="fill:none;stroke:#ff0000;stroke-width:0.5;" x="390.925625" xlink:href="#m83c436b889" y="61.3163"/>
     <use style="fill:none;stroke:#ff0000;stroke-width:0.5;" x="418.825625" xlink:href="#m83c436b889" y="42.1211"/>
    </g>
   </g>
   <g id="line2d_6">
    <path clip-path="url(#p7f0e0ccc45)" d="M -278.674375 249.371326 
M -1 239.530027 
L 6.019503 239.367792 
L 20.254196 238.964489 
L 34.48889 238.413137 
L 48.723584 237.636725 
L 62.958278 236.556643 
L 77.192972 235.094366 
L 91.427666 233.173136 
L 105.66236 230.719639 
L 119.897054 227.665688 
L 134.131747 223.949905 
L 148.366441 219.519397 
L 162.601135 214.331444 
L 176.835829 208.355172 
L 191.070523 201.573239 
L 205.305217 193.983515 
L 219.539911 185.600759 
L 233.774605 176.458306 
L 248.009298 166.609741 
L 262.243992 156.130586 
L 276.478686 145.119976 
L 290.71338 133.702341 
L 304.948074 122.029088 
L 319.182768 110.280281 
L 333.417462 98.666323 
L 347.652156 87.429631 
L 361.886849 76.846327 
L 376.121543 67.227908 
L 390.356237 58.922934 
L 394.328125 57.080165 
" style="fill:none;stroke:#ff0000;stroke-dasharray:6.000000,6.000000;stroke-dashoffset:0.0;stroke-width:1.5;"/>
   </g>
   <g id="line2d_7">
    <defs>
     <path d="M 0 3 
C 0.795609 3 1.55874 2.683901 2.12132 2.12132 
C 2.683901 1.55874 3 0.795609 3 0 
C 3 -0.795609 2.683901 -1.55874 2.12132 -2.12132 
C 1.55874 -2.683901 0.795609 -3 0 -3 
C -0.795609 -3 -1.55874 -2.683901 -2.12132 -2.12132 
C -2.683901 -1.55874 -3 -0.795609 -3 0 
C -3 0.795609 -2.683901 1.55874 -2.12132 2.12132 
C -1.55874 2.683901 -0.795609 3 0 3 
z
" id="m65c15d2259" style="stroke:#0000ff;stroke-width:0.5;"/>
    </defs>
    <g clip-path="url(#p7f0e0ccc45)">
     <use style="fill:none;stroke:#0000ff;stroke-width:0.5;" x="-278.674375" xlink:href="#m65c15d2259" y="42.3443"/>
     <use style="fill:none;stroke:#0000ff;stroke-width:0.5;" x="-1.0" xlink:href="#m65c15d2259" y="49.43417"/>
     <use style="fill:none;stroke:#0000ff;stroke-width:0.5;" x="0.325625" xlink:href="#m65c15d2259" y="49.7099"/>
     <use style="fill:none;stroke:#0000ff;stroke-width:0.5;" x="28.225625" xlink:href="#m65c15d2259" y="66.0035"/>
     <use style="fill:none;stroke:#0000ff;stroke-width:0.5;" x="56.125625" xlink:href="#m65c15d2259" y="57.7451"/>
     <use style="fill:none;stroke:#0000ff;stroke-width:0.5;" x="84.025625" xlink:href="#m65c15d2259" y="74.7083"/>
     <use style="fill:none;stroke:#0000ff;stroke-width:0.5;" x="111.925625" xlink:href="#m65c15d2259" y="73.8155"/>
     <use style="fill:none;stroke:#0000ff;stroke-width:0.5;" x="139.825625" xlink:href="#m65c15d2259" y="48.3707"/>
     <use style="fill:none;stroke:#0000ff;stroke-width:0.5;" x="167.725625" xlink:href="#m65c15d2259" y="69.1283"/>
     <use style="fill:none;stroke:#0000ff;stroke-width:0.5;" x="195.625625" xlink:href="#m65c15d2259" y="94.3499"/>
     <use style="fill:none;stroke:#0000ff;stroke-width:0.5;" x="223.525625" xlink:href="#m65c15d2259" y="90.5555"/>
     <use style="fill:none;stroke:#0000ff;stroke-width:0.5;" x="251.425625" xlink:href="#m65c15d2259" y="141.6683"/>
     <use style="fill:none;stroke:#0000ff;stroke-width:0.5;" x="279.325625" xlink:href="#m65c15d2259" y="150.3731"/>
     <use style="fill:none;stroke:#0000ff;stroke-width:0.5;" x="307.225625" xlink:href="#m65c15d2259" y="213.3155"/>
     <use style="fill:none;stroke:#0000ff;stroke-width:0.5;" x="335.125625" xlink:href="#m65c15d2259" y="172.9163"/>
     <use style="fill:none;stroke:#0000ff;stroke-width:0.5;" x="363.025625" xlink:href="#m65c15d2259" y="205.9499"/>
     <use style="fill:none;stroke:#0000ff;stroke-width:0.5;" x="390.925625" xlink:href="#m65c15d2259" y="231.3947"/>
     <use style="fill:none;stroke:#0000ff;stroke-width:0.5;" x="418.825625" xlink:href="#m65c15d2259" y="250.5899"/>
    </g>
   </g>
   <g id="line2d_8">
    <path clip-path="url(#p7f0e0ccc45)" d="M -278.674375 43.339674 
M -1 53.180973 
L 6.019503 53.343208 
L 20.254196 53.746511 
L 34.48889 54.297863 
L 48.723584 55.074275 
L 62.958278 56.154357 
L 77.192972 57.616634 
L 91.427666 59.537864 
L 105.66236 61.991361 
L 119.897054 65.045312 
L 134.131747 68.761095 
L 148.366441 73.191603 
L 162.601135 78.379556 
L 176.835829 84.355828 
L 191.070523 91.137761 
L 205.305217 98.727485 
L 219.539911 107.110241 
L 233.774605 116.252694 
L 248.009298 126.101259 
L 262.243992 136.580414 
L 276.478686 147.591024 
L 290.71338 159.008659 
L 304.948074 170.681912 
L 319.182768 182.430719 
L 333.417462 194.044677 
L 347.652156 205.281369 
L 361.886849 215.864673 
L 376.121543 225.483092 
L 390.356237 233.788066 
L 394.328125 235.630835 
" style="fill:none;stroke:#0000ff;stroke-dasharray:6.000000,6.000000;stroke-dashoffset:0.0;stroke-width:1.5;"/>
   </g>
   <g id="patch_3">
    <path d="M 44.965625 34.7555 
L 379.765625 34.7555 
" style="fill:none;stroke:#000000;stroke-linecap:square;stroke-linejoin:miter;"/>
   </g>
   <g id="patch_4">
    <path d="M 379.765625 257.9555 
L 379.765625 34.7555 
" style="fill:none;stroke:#000000;stroke-linecap:square;stroke-linejoin:miter;"/>
   </g>
   <g id="patch_5">
    <path d="M 44.965625 257.9555 
L 379.765625 257.9555 
" style="fill:none;stroke:#000000;stroke-linecap:square;stroke-linejoin:miter;"/>
   </g>
   <g id="patch_6">
    <path d="M 44.965625 257.9555 
L 44.965625 34.7555 
" style="fill:none;stroke:#000000;stroke-linecap:square;stroke-linejoin:miter;"/>
   </g>
   <g id="matplotlib.axis_1">
    <g id="xtick_1">
     <g id="line2d_9">
      <path clip-path="url(#p7f0e0ccc45)" d="M 44.965625 257.9555 
L 44.965625 34.7555 
" style="fill:none;stroke:#000000;stroke-dasharray:1.000000,3.000000;stroke-dashoffset:0.0;stroke-width:0.5;"/>
     </g>
     <g id="line2d_10">
      <defs>
       <path d="M 0 0 
L 0 -4 
" id="m75ceec1617" style="stroke:#000000;stroke-width:0.5;"/>
      </defs>
      <g>
       <use style="stroke:#000000;stroke-width:0.5;" x="44.965625" xlink:href="#m75ceec1617" y="257.9555"/>
      </g>
     </g>
     <g id="line2d_11">
      <defs>
       <path d="M 0 0 
L 0 4 
" id="m3944f21c91" style="stroke:#000000;stroke-width:0.5;"/>
      </defs>
      <g>
       <use style="stroke:#000000;stroke-width:0.5;" x="44.965625" xlink:href="#m3944f21c91" y="34.7555"/>
      </g>
     </g>
     <g id="text_1">
      <!-- 29 -->
      <defs>
       <path d="M 19.1875 8.296875 
L 53.609375 8.296875 
L 53.609375 0 
L 7.328125 0 
L 7.328125 8.296875 
Q 12.9375 14.109375 22.625 23.890625 
Q 32.328125 33.6875 34.8125 36.53125 
Q 39.546875 41.84375 41.421875 45.53125 
Q 43.3125 49.21875 43.3125 52.78125 
Q 43.3125 58.59375 39.234375 62.25 
Q 35.15625 65.921875 28.609375 65.921875 
Q 23.96875 65.921875 18.8125 64.3125 
Q 13.671875 62.703125 7.8125 59.421875 
L 7.8125 69.390625 
Q 13.765625 71.78125 18.9375 73 
Q 24.125 74.21875 28.421875 74.21875 
Q 39.75 74.21875 46.484375 68.546875 
Q 53.21875 62.890625 53.21875 53.421875 
Q 53.21875 48.921875 51.53125 44.890625 
Q 49.859375 40.875 45.40625 35.40625 
Q 44.1875 33.984375 37.640625 27.21875 
Q 31.109375 20.453125 19.1875 8.296875 
" id="BitstreamVeraSans-Roman-32"/>
       <path d="M 10.984375 1.515625 
L 10.984375 10.5 
Q 14.703125 8.734375 18.5 7.8125 
Q 22.3125 6.890625 25.984375 6.890625 
Q 35.75 6.890625 40.890625 13.453125 
Q 46.046875 20.015625 46.78125 33.40625 
Q 43.953125 29.203125 39.59375 26.953125 
Q 35.25 24.703125 29.984375 24.703125 
Q 19.046875 24.703125 12.671875 31.3125 
Q 6.296875 37.9375 6.296875 49.421875 
Q 6.296875 60.640625 12.9375 67.421875 
Q 19.578125 74.21875 30.609375 74.21875 
Q 43.265625 74.21875 49.921875 64.515625 
Q 56.59375 54.828125 56.59375 36.375 
Q 56.59375 19.140625 48.40625 8.859375 
Q 40.234375 -1.421875 26.421875 -1.421875 
Q 22.703125 -1.421875 18.890625 -0.6875 
Q 15.09375 0.046875 10.984375 1.515625 
M 30.609375 32.421875 
Q 37.25 32.421875 41.125 36.953125 
Q 45.015625 41.5 45.015625 49.421875 
Q 45.015625 57.28125 41.125 61.84375 
Q 37.25 66.40625 30.609375 66.40625 
Q 23.96875 66.40625 20.09375 61.84375 
Q 16.21875 57.28125 16.21875 49.421875 
Q 16.21875 41.5 20.09375 36.953125 
Q 23.96875 32.421875 30.609375 32.421875 
" id="BitstreamVeraSans-Roman-39"/>
      </defs>
      <g transform="translate(38.603125 269.5539375)scale(0.1 -0.1)">
       <use xlink:href="#BitstreamVeraSans-Roman-32"/>
       <use x="63.623046875" xlink:href="#BitstreamVeraSans-Roman-39"/>
      </g>
     </g>
    </g>
    <g id="xtick_2">
     <g id="line2d_12">
      <path clip-path="url(#p7f0e0ccc45)" d="M 100.765625 257.9555 
L 100.765625 34.7555 
" style="fill:none;stroke:#000000;stroke-dasharray:1.000000,3.000000;stroke-dashoffset:0.0;stroke-width:0.5;"/>
     </g>
     <g id="line2d_13">
      <g>
       <use style="stroke:#000000;stroke-width:0.5;" x="100.765625" xlink:href="#m75ceec1617" y="257.9555"/>
      </g>
     </g>
     <g id="line2d_14">
      <g>
       <use style="stroke:#000000;stroke-width:0.5;" x="100.765625" xlink:href="#m3944f21c91" y="34.7555"/>
      </g>
     </g>
     <g id="text_2">
      <!-- 30 -->
      <defs>
       <path d="M 40.578125 39.3125 
Q 47.65625 37.796875 51.625 33 
Q 55.609375 28.21875 55.609375 21.1875 
Q 55.609375 10.40625 48.1875 4.484375 
Q 40.765625 -1.421875 27.09375 -1.421875 
Q 22.515625 -1.421875 17.65625 -0.515625 
Q 12.796875 0.390625 7.625 2.203125 
L 7.625 11.71875 
Q 11.71875 9.328125 16.59375 8.109375 
Q 21.484375 6.890625 26.8125 6.890625 
Q 36.078125 6.890625 40.9375 10.546875 
Q 45.796875 14.203125 45.796875 21.1875 
Q 45.796875 27.640625 41.28125 31.265625 
Q 36.765625 34.90625 28.71875 34.90625 
L 20.21875 34.90625 
L 20.21875 43.015625 
L 29.109375 43.015625 
Q 36.375 43.015625 40.234375 45.921875 
Q 44.09375 48.828125 44.09375 54.296875 
Q 44.09375 59.90625 40.109375 62.90625 
Q 36.140625 65.921875 28.71875 65.921875 
Q 24.65625 65.921875 20.015625 65.03125 
Q 15.375 64.15625 9.8125 62.3125 
L 9.8125 71.09375 
Q 15.4375 72.65625 20.34375 73.4375 
Q 25.25 74.21875 29.59375 74.21875 
Q 40.828125 74.21875 47.359375 69.109375 
Q 53.90625 64.015625 53.90625 55.328125 
Q 53.90625 49.265625 50.4375 45.09375 
Q 46.96875 40.921875 40.578125 39.3125 
" id="BitstreamVeraSans-Roman-33"/>
       <path d="M 31.78125 66.40625 
Q 24.171875 66.40625 20.328125 58.90625 
Q 16.5 51.421875 16.5 36.375 
Q 16.5 21.390625 20.328125 13.890625 
Q 24.171875 6.390625 31.78125 6.390625 
Q 39.453125 6.390625 43.28125 13.890625 
Q 47.125 21.390625 47.125 36.375 
Q 47.125 51.421875 43.28125 58.90625 
Q 39.453125 66.40625 31.78125 66.40625 
M 31.78125 74.21875 
Q 44.046875 74.21875 50.515625 64.515625 
Q 56.984375 54.828125 56.984375 36.375 
Q 56.984375 17.96875 50.515625 8.265625 
Q 44.046875 -1.421875 31.78125 -1.421875 
Q 19.53125 -1.421875 13.0625 8.265625 
Q 6.59375 17.96875 6.59375 36.375 
Q 6.59375 54.828125 13.0625 64.515625 
Q 19.53125 74.21875 31.78125 74.21875 
" id="BitstreamVeraSans-Roman-30"/>
      </defs>
      <g transform="translate(94.403125 269.5539375)scale(0.1 -0.1)">
       <use xlink:href="#BitstreamVeraSans-Roman-33"/>
       <use x="63.623046875" xlink:href="#BitstreamVeraSans-Roman-30"/>
      </g>
     </g>
    </g>
    <g id="xtick_3">
     <g id="line2d_15">
      <path clip-path="url(#p7f0e0ccc45)" d="M 156.565625 257.9555 
L 156.565625 34.7555 
" style="fill:none;stroke:#000000;stroke-dasharray:1.000000,3.000000;stroke-dashoffset:0.0;stroke-width:0.5;"/>
     </g>
     <g id="line2d_16">
      <g>
       <use style="stroke:#000000;stroke-width:0.5;" x="156.565625" xlink:href="#m75ceec1617" y="257.9555"/>
      </g>
     </g>
     <g id="line2d_17">
      <g>
       <use style="stroke:#000000;stroke-width:0.5;" x="156.565625" xlink:href="#m3944f21c91" y="34.7555"/>
      </g>
     </g>
     <g id="text_3">
      <!-- 31 -->
      <defs>
       <path d="M 12.40625 8.296875 
L 28.515625 8.296875 
L 28.515625 63.921875 
L 10.984375 60.40625 
L 10.984375 69.390625 
L 28.421875 72.90625 
L 38.28125 72.90625 
L 38.28125 8.296875 
L 54.390625 8.296875 
L 54.390625 0 
L 12.40625 0 
z
" id="BitstreamVeraSans-Roman-31"/>
      </defs>
      <g transform="translate(150.203125 269.5539375)scale(0.1 -0.1)">
       <use xlink:href="#BitstreamVeraSans-Roman-33"/>
       <use x="63.623046875" xlink:href="#BitstreamVeraSans-Roman-31"/>
      </g>
     </g>
    </g>
    <g id="xtick_4">
     <g id="line2d_18">
      <path clip-path="url(#p7f0e0ccc45)" d="M 212.365625 257.9555 
L 212.365625 34.7555 
" style="fill:none;stroke:#000000;stroke-dasharray:1.000000,3.000000;stroke-dashoffset:0.0;stroke-width:0.5;"/>
     </g>
     <g id="line2d_19">
      <g>
       <use style="stroke:#000000;stroke-width:0.5;" x="212.365625" xlink:href="#m75ceec1617" y="257.9555"/>
      </g>
     </g>
     <g id="line2d_20">
      <g>
       <use style="stroke:#000000;stroke-width:0.5;" x="212.365625" xlink:href="#m3944f21c91" y="34.7555"/>
      </g>
     </g>
     <g id="text_4">
      <!-- 32 -->
      <g transform="translate(206.003125 269.5539375)scale(0.1 -0.1)">
       <use xlink:href="#BitstreamVeraSans-Roman-33"/>
       <use x="63.623046875" xlink:href="#BitstreamVeraSans-Roman-32"/>
      </g>
     </g>
    </g>
    <g id="xtick_5">
     <g id="line2d_21">
      <path clip-path="url(#p7f0e0ccc45)" d="M 268.165625 257.9555 
L 268.165625 34.7555 
" style="fill:none;stroke:#000000;stroke-dasharray:1.000000,3.000000;stroke-dashoffset:0.0;stroke-width:0.5;"/>
     </g>
     <g id="line2d_22">
      <g>
       <use style="stroke:#000000;stroke-width:0.5;" x="268.165625" xlink:href="#m75ceec1617" y="257.9555"/>
      </g>
     </g>
     <g id="line2d_23">
      <g>
       <use style="stroke:#000000;stroke-width:0.5;" x="268.165625" xlink:href="#m3944f21c91" y="34.7555"/>
      </g>
     </g>
     <g id="text_5">
      <!-- 33 -->
      <g transform="translate(261.803125 269.5539375)scale(0.1 -0.1)">
       <use xlink:href="#BitstreamVeraSans-Roman-33"/>
       <use x="63.623046875" xlink:href="#BitstreamVeraSans-Roman-33"/>
      </g>
     </g>
    </g>
    <g id="xtick_6">
     <g id="line2d_24">
      <path clip-path="url(#p7f0e0ccc45)" d="M 323.965625 257.9555 
L 323.965625 34.7555 
" style="fill:none;stroke:#000000;stroke-dasharray:1.000000,3.000000;stroke-dashoffset:0.0;stroke-width:0.5;"/>
     </g>
     <g id="line2d_25">
      <g>
       <use style="stroke:#000000;stroke-width:0.5;" x="323.965625" xlink:href="#m75ceec1617" y="257.9555"/>
      </g>
     </g>
     <g id="line2d_26">
      <g>
       <use style="stroke:#000000;stroke-width:0.5;" x="323.965625" xlink:href="#m3944f21c91" y="34.7555"/>
      </g>
     </g>
     <g id="text_6">
      <!-- 34 -->
      <defs>
       <path d="M 37.796875 64.3125 
L 12.890625 25.390625 
L 37.796875 25.390625 
z
M 35.203125 72.90625 
L 47.609375 72.90625 
L 47.609375 25.390625 
L 58.015625 25.390625 
L 58.015625 17.1875 
L 47.609375 17.1875 
L 47.609375 0 
L 37.796875 0 
L 37.796875 17.1875 
L 4.890625 17.1875 
L 4.890625 26.703125 
z
" id="BitstreamVeraSans-Roman-34"/>
      </defs>
      <g transform="translate(317.603125 269.5539375)scale(0.1 -0.1)">
       <use xlink:href="#BitstreamVeraSans-Roman-33"/>
       <use x="63.623046875" xlink:href="#BitstreamVeraSans-Roman-34"/>
      </g>
     </g>
    </g>
    <g id="xtick_7">
     <g id="line2d_27">
      <path clip-path="url(#p7f0e0ccc45)" d="M 379.765625 257.9555 
L 379.765625 34.7555 
" style="fill:none;stroke:#000000;stroke-dasharray:1.000000,3.000000;stroke-dashoffset:0.0;stroke-width:0.5;"/>
     </g>
     <g id="line2d_28">
      <g>
       <use style="stroke:#000000;stroke-width:0.5;" x="379.765625" xlink:href="#m75ceec1617" y="257.9555"/>
      </g>
     </g>
     <g id="line2d_29">
      <g>
       <use style="stroke:#000000;stroke-width:0.5;" x="379.765625" xlink:href="#m3944f21c91" y="34.7555"/>
      </g>
     </g>
     <g id="text_7">
      <!-- 35 -->
      <defs>
       <path d="M 10.796875 72.90625 
L 49.515625 72.90625 
L 49.515625 64.59375 
L 19.828125 64.59375 
L 19.828125 46.734375 
Q 21.96875 47.46875 24.109375 47.828125 
Q 26.265625 48.1875 28.421875 48.1875 
Q 40.625 48.1875 47.75 41.5 
Q 54.890625 34.8125 54.890625 23.390625 
Q 54.890625 11.625 47.5625 5.09375 
Q 40.234375 -1.421875 26.90625 -1.421875 
Q 22.3125 -1.421875 17.546875 -0.640625 
Q 12.796875 0.140625 7.71875 1.703125 
L 7.71875 11.625 
Q 12.109375 9.234375 16.796875 8.0625 
Q 21.484375 6.890625 26.703125 6.890625 
Q 35.15625 6.890625 40.078125 11.328125 
Q 45.015625 15.765625 45.015625 23.390625 
Q 45.015625 31 40.078125 35.4375 
Q 35.15625 39.890625 26.703125 39.890625 
Q 22.75 39.890625 18.8125 39.015625 
Q 14.890625 38.140625 10.796875 36.28125 
z
" id="BitstreamVeraSans-Roman-35"/>
      </defs>
      <g transform="translate(373.403125 269.5539375)scale(0.1 -0.1)">
       <use xlink:href="#BitstreamVeraSans-Roman-33"/>
       <use x="63.623046875" xlink:href="#BitstreamVeraSans-Roman-35"/>
      </g>
     </g>
    </g>
    <g id="text_8">
     <!-- Temperature ($^o$F) -->
     <defs>
      <path id="BitstreamVeraSans-Roman-20"/>
      <path d="M 20.125 -1.125 
Q 15.375 -1.125 11.6875 1.125 
Q 8.015625 3.375 6 7.171875 
Q 4 10.984375 4 15.828125 
Q 4 22.609375 7.78125 29.25 
Q 11.578125 35.890625 17.84375 40.03125 
Q 24.125 44.1875 31 44.1875 
Q 34.71875 44.1875 37.625 42.921875 
Q 40.53125 41.65625 42.671875 39.359375 
Q 44.828125 37.0625 45.96875 33.984375 
Q 47.125 30.90625 47.125 27.296875 
Q 47.125 22.078125 44.921875 17.015625 
Q 42.71875 11.96875 38.890625 7.84375 
Q 35.0625 3.71875 30.125 1.296875 
Q 25.203125 -1.125 20.125 -1.125 
M 20.3125 1.515625 
Q 24.75 1.515625 28.4375 4.53125 
Q 32.125 7.5625 34.484375 12.171875 
Q 36.859375 16.796875 38.125 21.921875 
Q 39.40625 27.046875 39.40625 31.203125 
Q 39.40625 35.546875 37.234375 38.578125 
Q 35.0625 41.609375 30.8125 41.609375 
Q 24.953125 41.609375 20.546875 36.59375 
Q 16.15625 31.59375 13.9375 24.625 
Q 11.71875 17.671875 11.71875 11.921875 
Q 11.71875 7.5625 13.9375 4.53125 
Q 16.15625 1.515625 20.3125 1.515625 
" id="Cmmi10-6f"/>
      <path d="M 41.109375 46.296875 
Q 39.59375 47.171875 37.8125 47.578125 
Q 36.03125 48 33.890625 48 
Q 26.265625 48 22.1875 43.046875 
Q 18.109375 38.09375 18.109375 28.8125 
L 18.109375 0 
L 9.078125 0 
L 9.078125 54.6875 
L 18.109375 54.6875 
L 18.109375 46.1875 
Q 20.953125 51.171875 25.484375 53.578125 
Q 30.03125 56 36.53125 56 
Q 37.453125 56 38.578125 55.875 
Q 39.703125 55.765625 41.0625 55.515625 
z
" id="BitstreamVeraSans-Roman-72"/>
      <path d="M 52 44.1875 
Q 55.375 50.25 60.0625 53.125 
Q 64.75 56 71.09375 56 
Q 79.640625 56 84.28125 50.015625 
Q 88.921875 44.046875 88.921875 33.015625 
L 88.921875 0 
L 79.890625 0 
L 79.890625 32.71875 
Q 79.890625 40.578125 77.09375 44.375 
Q 74.3125 48.1875 68.609375 48.1875 
Q 61.625 48.1875 57.5625 43.546875 
Q 53.515625 38.921875 53.515625 30.90625 
L 53.515625 0 
L 44.484375 0 
L 44.484375 32.71875 
Q 44.484375 40.625 41.703125 44.40625 
Q 38.921875 48.1875 33.109375 48.1875 
Q 26.21875 48.1875 22.15625 43.53125 
Q 18.109375 38.875 18.109375 30.90625 
L 18.109375 0 
L 9.078125 0 
L 9.078125 54.6875 
L 18.109375 54.6875 
L 18.109375 46.1875 
Q 21.1875 51.21875 25.484375 53.609375 
Q 29.78125 56 35.6875 56 
Q 41.65625 56 45.828125 52.96875 
Q 50 49.953125 52 44.1875 
" id="BitstreamVeraSans-Roman-6d"/>
      <path d="M 9.8125 72.90625 
L 51.703125 72.90625 
L 51.703125 64.59375 
L 19.671875 64.59375 
L 19.671875 43.109375 
L 48.578125 43.109375 
L 48.578125 34.8125 
L 19.671875 34.8125 
L 19.671875 0 
L 9.8125 0 
z
" id="BitstreamVeraSans-Roman-46"/>
      <path d="M -0.296875 72.90625 
L 61.375 72.90625 
L 61.375 64.59375 
L 35.5 64.59375 
L 35.5 0 
L 25.59375 0 
L 25.59375 64.59375 
L -0.296875 64.59375 
z
" id="BitstreamVeraSans-Roman-54"/>
      <path d="M 31 75.875 
Q 24.46875 64.65625 21.28125 53.65625 
Q 18.109375 42.671875 18.109375 31.390625 
Q 18.109375 20.125 21.3125 9.0625 
Q 24.515625 -2 31 -13.1875 
L 23.1875 -13.1875 
Q 15.875 -1.703125 12.234375 9.375 
Q 8.59375 20.453125 8.59375 31.390625 
Q 8.59375 42.28125 12.203125 53.3125 
Q 15.828125 64.359375 23.1875 75.875 
z
" id="BitstreamVeraSans-Roman-28"/>
      <path d="M 56.203125 29.59375 
L 56.203125 25.203125 
L 14.890625 25.203125 
Q 15.484375 15.921875 20.484375 11.0625 
Q 25.484375 6.203125 34.421875 6.203125 
Q 39.59375 6.203125 44.453125 7.46875 
Q 49.3125 8.734375 54.109375 11.28125 
L 54.109375 2.78125 
Q 49.265625 0.734375 44.1875 -0.34375 
Q 39.109375 -1.421875 33.890625 -1.421875 
Q 20.796875 -1.421875 13.15625 6.1875 
Q 5.515625 13.8125 5.515625 26.8125 
Q 5.515625 40.234375 12.765625 48.109375 
Q 20.015625 56 32.328125 56 
Q 43.359375 56 49.78125 48.890625 
Q 56.203125 41.796875 56.203125 29.59375 
M 47.21875 32.234375 
Q 47.125 39.59375 43.09375 43.984375 
Q 39.0625 48.390625 32.421875 48.390625 
Q 24.90625 48.390625 20.390625 44.140625 
Q 15.875 39.890625 15.1875 32.171875 
z
" id="BitstreamVeraSans-Roman-65"/>
      <path d="M 18.3125 70.21875 
L 18.3125 54.6875 
L 36.8125 54.6875 
L 36.8125 47.703125 
L 18.3125 47.703125 
L 18.3125 18.015625 
Q 18.3125 11.328125 20.140625 9.421875 
Q 21.96875 7.515625 27.59375 7.515625 
L 36.8125 7.515625 
L 36.8125 0 
L 27.59375 0 
Q 17.1875 0 13.234375 3.875 
Q 9.28125 7.765625 9.28125 18.015625 
L 9.28125 47.703125 
L 2.6875 47.703125 
L 2.6875 54.6875 
L 9.28125 54.6875 
L 9.28125 70.21875 
z
" id="BitstreamVeraSans-Roman-74"/>
      <path d="M 8.5 21.578125 
L 8.5 54.6875 
L 17.484375 54.6875 
L 17.484375 21.921875 
Q 17.484375 14.15625 20.5 10.265625 
Q 23.53125 6.390625 29.59375 6.390625 
Q 36.859375 6.390625 41.078125 11.03125 
Q 45.3125 15.671875 45.3125 23.6875 
L 45.3125 54.6875 
L 54.296875 54.6875 
L 54.296875 0 
L 45.3125 0 
L 45.3125 8.40625 
Q 42.046875 3.421875 37.71875 1 
Q 33.40625 -1.421875 27.6875 -1.421875 
Q 18.265625 -1.421875 13.375 4.4375 
Q 8.5 10.296875 8.5 21.578125 
" id="BitstreamVeraSans-Roman-75"/>
      <path d="M 34.28125 27.484375 
Q 23.390625 27.484375 19.1875 25 
Q 14.984375 22.515625 14.984375 16.5 
Q 14.984375 11.71875 18.140625 8.90625 
Q 21.296875 6.109375 26.703125 6.109375 
Q 34.1875 6.109375 38.703125 11.40625 
Q 43.21875 16.703125 43.21875 25.484375 
L 43.21875 27.484375 
z
M 52.203125 31.203125 
L 52.203125 0 
L 43.21875 0 
L 43.21875 8.296875 
Q 40.140625 3.328125 35.546875 0.953125 
Q 30.953125 -1.421875 24.3125 -1.421875 
Q 15.921875 -1.421875 10.953125 3.296875 
Q 6 8.015625 6 15.921875 
Q 6 25.140625 12.171875 29.828125 
Q 18.359375 34.515625 30.609375 34.515625 
L 43.21875 34.515625 
L 43.21875 35.40625 
Q 43.21875 41.609375 39.140625 45 
Q 35.0625 48.390625 27.6875 48.390625 
Q 23 48.390625 18.546875 47.265625 
Q 14.109375 46.140625 10.015625 43.890625 
L 10.015625 52.203125 
Q 14.9375 54.109375 19.578125 55.046875 
Q 24.21875 56 28.609375 56 
Q 40.484375 56 46.34375 49.84375 
Q 52.203125 43.703125 52.203125 31.203125 
" id="BitstreamVeraSans-Roman-61"/>
      <path d="M 18.109375 8.203125 
L 18.109375 -20.796875 
L 9.078125 -20.796875 
L 9.078125 54.6875 
L 18.109375 54.6875 
L 18.109375 46.390625 
Q 20.953125 51.265625 25.265625 53.625 
Q 29.59375 56 35.59375 56 
Q 45.5625 56 51.78125 48.09375 
Q 58.015625 40.1875 58.015625 27.296875 
Q 58.015625 14.40625 51.78125 6.484375 
Q 45.5625 -1.421875 35.59375 -1.421875 
Q 29.59375 -1.421875 25.265625 0.953125 
Q 20.953125 3.328125 18.109375 8.203125 
M 48.6875 27.296875 
Q 48.6875 37.203125 44.609375 42.84375 
Q 40.53125 48.484375 33.40625 48.484375 
Q 26.265625 48.484375 22.1875 42.84375 
Q 18.109375 37.203125 18.109375 27.296875 
Q 18.109375 17.390625 22.1875 11.75 
Q 26.265625 6.109375 33.40625 6.109375 
Q 40.53125 6.109375 44.609375 11.75 
Q 48.6875 17.390625 48.6875 27.296875 
" id="BitstreamVeraSans-Roman-70"/>
      <path d="M 8.015625 75.875 
L 15.828125 75.875 
Q 23.140625 64.359375 26.78125 53.3125 
Q 30.421875 42.28125 30.421875 31.390625 
Q 30.421875 20.453125 26.78125 9.375 
Q 23.140625 -1.703125 15.828125 -13.1875 
L 8.015625 -13.1875 
Q 14.5 -2 17.703125 9.0625 
Q 20.90625 20.125 20.90625 31.390625 
Q 20.90625 42.671875 17.703125 53.65625 
Q 14.5 64.65625 8.015625 75.875 
" id="BitstreamVeraSans-Roman-29"/>
     </defs>
     <g transform="translate(169.115625 284.233625)scale(0.1 -0.1)">
      <use transform="translate(0.0 0.125)" xlink:href="#BitstreamVeraSans-Roman-54"/>
      <use transform="translate(61.083984375 0.125)" xlink:href="#BitstreamVeraSans-Roman-65"/>
      <use transform="translate(122.607421875 0.125)" xlink:href="#BitstreamVeraSans-Roman-6d"/>
      <use transform="translate(220.01953125 0.125)" xlink:href="#BitstreamVeraSans-Roman-70"/>
      <use transform="translate(283.49609375 0.125)" xlink:href="#BitstreamVeraSans-Roman-65"/>
      <use transform="translate(345.01953125 0.125)" xlink:href="#BitstreamVeraSans-Roman-72"/>
      <use transform="translate(386.1328125 0.125)" xlink:href="#BitstreamVeraSans-Roman-61"/>
      <use transform="translate(447.412109375 0.125)" xlink:href="#BitstreamVeraSans-Roman-74"/>
      <use transform="translate(486.62109375 0.125)" xlink:href="#BitstreamVeraSans-Roman-75"/>
      <use transform="translate(550.0 0.125)" xlink:href="#BitstreamVeraSans-Roman-72"/>
      <use transform="translate(591.11328125 0.125)" xlink:href="#BitstreamVeraSans-Roman-65"/>
      <use transform="translate(652.63671875 0.125)" xlink:href="#BitstreamVeraSans-Roman-20"/>
      <use transform="translate(684.423828125 0.125)" xlink:href="#BitstreamVeraSans-Roman-28"/>
      <use transform="translate(727.901640625 38.3890625)scale(0.7)" xlink:href="#Cmmi10-6f"/>
      <use transform="translate(768.151054688 0.125)" xlink:href="#BitstreamVeraSans-Roman-46"/>
      <use transform="translate(825.670585938 0.125)" xlink:href="#BitstreamVeraSans-Roman-29"/>
     </g>
    </g>
   </g>
   <g id="matplotlib.axis_2">
    <g id="ytick_1">
     <g id="line2d_30">
      <path clip-path="url(#p7f0e0ccc45)" d="M 44.965625 257.9555 
L 379.765625 257.9555 
" style="fill:none;stroke:#000000;stroke-dasharray:1.000000,3.000000;stroke-dashoffset:0.0;stroke-width:0.5;"/>
     </g>
     <g id="line2d_31">
      <defs>
       <path d="M 0 0 
L 4 0 
" id="mbb31e01741" style="stroke:#000000;stroke-width:0.5;"/>
      </defs>
      <g>
       <use style="stroke:#000000;stroke-width:0.5;" x="44.965625" xlink:href="#mbb31e01741" y="257.9555"/>
      </g>
     </g>
     <g id="line2d_32">
      <defs>
       <path d="M 0 0 
L -4 0 
" id="mf967f1d6b1" style="stroke:#000000;stroke-width:0.5;"/>
      </defs>
      <g>
       <use style="stroke:#000000;stroke-width:0.5;" x="379.765625" xlink:href="#mf967f1d6b1" y="257.9555"/>
      </g>
     </g>
     <g id="text_9">
      <!-- 0 -->
      <g transform="translate(34.603125 260.714875)scale(0.1 -0.1)">
       <use xlink:href="#BitstreamVeraSans-Roman-30"/>
      </g>
     </g>
    </g>
    <g id="ytick_2">
     <g id="line2d_33">
      <path clip-path="url(#p7f0e0ccc45)" d="M 44.965625 213.3155 
L 379.765625 213.3155 
" style="fill:none;stroke:#000000;stroke-dasharray:1.000000,3.000000;stroke-dashoffset:0.0;stroke-width:0.5;"/>
     </g>
     <g id="line2d_34">
      <g>
       <use style="stroke:#000000;stroke-width:0.5;" x="44.965625" xlink:href="#mbb31e01741" y="213.3155"/>
      </g>
     </g>
     <g id="line2d_35">
      <g>
       <use style="stroke:#000000;stroke-width:0.5;" x="379.765625" xlink:href="#mf967f1d6b1" y="213.3155"/>
      </g>
     </g>
     <g id="text_10">
      <!-- 20 -->
      <g transform="translate(28.240625 216.074875)scale(0.1 -0.1)">
       <use xlink:href="#BitstreamVeraSans-Roman-32"/>
       <use x="63.623046875" xlink:href="#BitstreamVeraSans-Roman-30"/>
      </g>
     </g>
    </g>
    <g id="ytick_3">
     <g id="line2d_36">
      <path clip-path="url(#p7f0e0ccc45)" d="M 44.965625 168.6755 
L 379.765625 168.6755 
" style="fill:none;stroke:#000000;stroke-dasharray:1.000000,3.000000;stroke-dashoffset:0.0;stroke-width:0.5;"/>
     </g>
     <g id="line2d_37">
      <g>
       <use style="stroke:#000000;stroke-width:0.5;" x="44.965625" xlink:href="#mbb31e01741" y="168.6755"/>
      </g>
     </g>
     <g id="line2d_38">
      <g>
       <use style="stroke:#000000;stroke-width:0.5;" x="379.765625" xlink:href="#mf967f1d6b1" y="168.6755"/>
      </g>
     </g>
     <g id="text_11">
      <!-- 40 -->
      <g transform="translate(28.240625 171.434875)scale(0.1 -0.1)">
       <use xlink:href="#BitstreamVeraSans-Roman-34"/>
       <use x="63.623046875" xlink:href="#BitstreamVeraSans-Roman-30"/>
      </g>
     </g>
    </g>
    <g id="ytick_4">
     <g id="line2d_39">
      <path clip-path="url(#p7f0e0ccc45)" d="M 44.965625 124.0355 
L 379.765625 124.0355 
" style="fill:none;stroke:#000000;stroke-dasharray:1.000000,3.000000;stroke-dashoffset:0.0;stroke-width:0.5;"/>
     </g>
     <g id="line2d_40">
      <g>
       <use style="stroke:#000000;stroke-width:0.5;" x="44.965625" xlink:href="#mbb31e01741" y="124.0355"/>
      </g>
     </g>
     <g id="line2d_41">
      <g>
       <use style="stroke:#000000;stroke-width:0.5;" x="379.765625" xlink:href="#mf967f1d6b1" y="124.0355"/>
      </g>
     </g>
     <g id="text_12">
      <!-- 60 -->
      <defs>
       <path d="M 33.015625 40.375 
Q 26.375 40.375 22.484375 35.828125 
Q 18.609375 31.296875 18.609375 23.390625 
Q 18.609375 15.53125 22.484375 10.953125 
Q 26.375 6.390625 33.015625 6.390625 
Q 39.65625 6.390625 43.53125 10.953125 
Q 47.40625 15.53125 47.40625 23.390625 
Q 47.40625 31.296875 43.53125 35.828125 
Q 39.65625 40.375 33.015625 40.375 
M 52.59375 71.296875 
L 52.59375 62.3125 
Q 48.875 64.0625 45.09375 64.984375 
Q 41.3125 65.921875 37.59375 65.921875 
Q 27.828125 65.921875 22.671875 59.328125 
Q 17.53125 52.734375 16.796875 39.40625 
Q 19.671875 43.65625 24.015625 45.921875 
Q 28.375 48.1875 33.59375 48.1875 
Q 44.578125 48.1875 50.953125 41.515625 
Q 57.328125 34.859375 57.328125 23.390625 
Q 57.328125 12.15625 50.6875 5.359375 
Q 44.046875 -1.421875 33.015625 -1.421875 
Q 20.359375 -1.421875 13.671875 8.265625 
Q 6.984375 17.96875 6.984375 36.375 
Q 6.984375 53.65625 15.1875 63.9375 
Q 23.390625 74.21875 37.203125 74.21875 
Q 40.921875 74.21875 44.703125 73.484375 
Q 48.484375 72.75 52.59375 71.296875 
" id="BitstreamVeraSans-Roman-36"/>
      </defs>
      <g transform="translate(28.240625 126.794875)scale(0.1 -0.1)">
       <use xlink:href="#BitstreamVeraSans-Roman-36"/>
       <use x="63.623046875" xlink:href="#BitstreamVeraSans-Roman-30"/>
      </g>
     </g>
    </g>
    <g id="ytick_5">
     <g id="line2d_42">
      <path clip-path="url(#p7f0e0ccc45)" d="M 44.965625 79.3955 
L 379.765625 79.3955 
" style="fill:none;stroke:#000000;stroke-dasharray:1.000000,3.000000;stroke-dashoffset:0.0;stroke-width:0.5;"/>
     </g>
     <g id="line2d_43">
      <g>
       <use style="stroke:#000000;stroke-width:0.5;" x="44.965625" xlink:href="#mbb31e01741" y="79.3955"/>
      </g>
     </g>
     <g id="line2d_44">
      <g>
       <use style="stroke:#000000;stroke-width:0.5;" x="379.765625" xlink:href="#mf967f1d6b1" y="79.3955"/>
      </g>
     </g>
     <g id="text_13">
      <!-- 80 -->
      <defs>
       <path d="M 31.78125 34.625 
Q 24.75 34.625 20.71875 30.859375 
Q 16.703125 27.09375 16.703125 20.515625 
Q 16.703125 13.921875 20.71875 10.15625 
Q 24.75 6.390625 31.78125 6.390625 
Q 38.8125 6.390625 42.859375 10.171875 
Q 46.921875 13.96875 46.921875 20.515625 
Q 46.921875 27.09375 42.890625 30.859375 
Q 38.875 34.625 31.78125 34.625 
M 21.921875 38.8125 
Q 15.578125 40.375 12.03125 44.71875 
Q 8.5 49.078125 8.5 55.328125 
Q 8.5 64.0625 14.71875 69.140625 
Q 20.953125 74.21875 31.78125 74.21875 
Q 42.671875 74.21875 48.875 69.140625 
Q 55.078125 64.0625 55.078125 55.328125 
Q 55.078125 49.078125 51.53125 44.71875 
Q 48 40.375 41.703125 38.8125 
Q 48.828125 37.15625 52.796875 32.3125 
Q 56.78125 27.484375 56.78125 20.515625 
Q 56.78125 9.90625 50.3125 4.234375 
Q 43.84375 -1.421875 31.78125 -1.421875 
Q 19.734375 -1.421875 13.25 4.234375 
Q 6.78125 9.90625 6.78125 20.515625 
Q 6.78125 27.484375 10.78125 32.3125 
Q 14.796875 37.15625 21.921875 38.8125 
M 18.3125 54.390625 
Q 18.3125 48.734375 21.84375 45.5625 
Q 25.390625 42.390625 31.78125 42.390625 
Q 38.140625 42.390625 41.71875 45.5625 
Q 45.3125 48.734375 45.3125 54.390625 
Q 45.3125 60.0625 41.71875 63.234375 
Q 38.140625 66.40625 31.78125 66.40625 
Q 25.390625 66.40625 21.84375 63.234375 
Q 18.3125 60.0625 18.3125 54.390625 
" id="BitstreamVeraSans-Roman-38"/>
      </defs>
      <g transform="translate(28.240625 82.154875)scale(0.1 -0.1)">
       <use xlink:href="#BitstreamVeraSans-Roman-38"/>
       <use x="63.623046875" xlink:href="#BitstreamVeraSans-Roman-30"/>
      </g>
     </g>
    </g>
    <g id="ytick_6">
     <g id="line2d_45">
      <path clip-path="url(#p7f0e0ccc45)" d="M 44.965625 34.7555 
L 379.765625 34.7555 
" style="fill:none;stroke:#000000;stroke-dasharray:1.000000,3.000000;stroke-dashoffset:0.0;stroke-width:0.5;"/>
     </g>
     <g id="line2d_46">
      <g>
       <use style="stroke:#000000;stroke-width:0.5;" x="44.965625" xlink:href="#mbb31e01741" y="34.7555"/>
      </g>
     </g>
     <g id="line2d_47">
      <g>
       <use style="stroke:#000000;stroke-width:0.5;" x="379.765625" xlink:href="#mf967f1d6b1" y="34.7555"/>
      </g>
     </g>
     <g id="text_14">
      <!-- 100 -->
      <g transform="translate(21.878125 37.514875)scale(0.1 -0.1)">
       <use xlink:href="#BitstreamVeraSans-Roman-31"/>
       <use x="63.623046875" xlink:href="#BitstreamVeraSans-Roman-30"/>
       <use x="127.24609375" xlink:href="#BitstreamVeraSans-Roman-30"/>
      </g>
     </g>
    </g>
    <g id="text_15">
     <!-- Percent of ASOS Precipitation Observations -->
     <defs>
      <path d="M 39.40625 66.21875 
Q 28.65625 66.21875 22.328125 58.203125 
Q 16.015625 50.203125 16.015625 36.375 
Q 16.015625 22.609375 22.328125 14.59375 
Q 28.65625 6.59375 39.40625 6.59375 
Q 50.140625 6.59375 56.421875 14.59375 
Q 62.703125 22.609375 62.703125 36.375 
Q 62.703125 50.203125 56.421875 58.203125 
Q 50.140625 66.21875 39.40625 66.21875 
M 39.40625 74.21875 
Q 54.734375 74.21875 63.90625 63.9375 
Q 73.09375 53.65625 73.09375 36.375 
Q 73.09375 19.140625 63.90625 8.859375 
Q 54.734375 -1.421875 39.40625 -1.421875 
Q 24.03125 -1.421875 14.8125 8.828125 
Q 5.609375 19.09375 5.609375 36.375 
Q 5.609375 53.65625 14.8125 63.9375 
Q 24.03125 74.21875 39.40625 74.21875 
" id="BitstreamVeraSans-Roman-4f"/>
      <path d="M 54.890625 33.015625 
L 54.890625 0 
L 45.90625 0 
L 45.90625 32.71875 
Q 45.90625 40.484375 42.875 44.328125 
Q 39.84375 48.1875 33.796875 48.1875 
Q 26.515625 48.1875 22.3125 43.546875 
Q 18.109375 38.921875 18.109375 30.90625 
L 18.109375 0 
L 9.078125 0 
L 9.078125 54.6875 
L 18.109375 54.6875 
L 18.109375 46.1875 
Q 21.34375 51.125 25.703125 53.5625 
Q 30.078125 56 35.796875 56 
Q 45.21875 56 50.046875 50.171875 
Q 54.890625 44.34375 54.890625 33.015625 
" id="BitstreamVeraSans-Roman-6e"/>
      <path d="M 30.609375 48.390625 
Q 23.390625 48.390625 19.1875 42.75 
Q 14.984375 37.109375 14.984375 27.296875 
Q 14.984375 17.484375 19.15625 11.84375 
Q 23.34375 6.203125 30.609375 6.203125 
Q 37.796875 6.203125 41.984375 11.859375 
Q 46.1875 17.53125 46.1875 27.296875 
Q 46.1875 37.015625 41.984375 42.703125 
Q 37.796875 48.390625 30.609375 48.390625 
M 30.609375 56 
Q 42.328125 56 49.015625 48.375 
Q 55.71875 40.765625 55.71875 27.296875 
Q 55.71875 13.875 49.015625 6.21875 
Q 42.328125 -1.421875 30.609375 -1.421875 
Q 18.84375 -1.421875 12.171875 6.21875 
Q 5.515625 13.875 5.515625 27.296875 
Q 5.515625 40.765625 12.171875 48.375 
Q 18.84375 56 30.609375 56 
" id="BitstreamVeraSans-Roman-6f"/>
      <path d="M 19.671875 64.796875 
L 19.671875 37.40625 
L 32.078125 37.40625 
Q 38.96875 37.40625 42.71875 40.96875 
Q 46.484375 44.53125 46.484375 51.125 
Q 46.484375 57.671875 42.71875 61.234375 
Q 38.96875 64.796875 32.078125 64.796875 
z
M 9.8125 72.90625 
L 32.078125 72.90625 
Q 44.34375 72.90625 50.609375 67.359375 
Q 56.890625 61.8125 56.890625 51.125 
Q 56.890625 40.328125 50.609375 34.8125 
Q 44.34375 29.296875 32.078125 29.296875 
L 19.671875 29.296875 
L 19.671875 0 
L 9.8125 0 
z
" id="BitstreamVeraSans-Roman-50"/>
      <path d="M 53.515625 70.515625 
L 53.515625 60.890625 
Q 47.90625 63.578125 42.921875 64.890625 
Q 37.9375 66.21875 33.296875 66.21875 
Q 25.25 66.21875 20.875 63.09375 
Q 16.5 59.96875 16.5 54.203125 
Q 16.5 49.359375 19.40625 46.890625 
Q 22.3125 44.4375 30.421875 42.921875 
L 36.375 41.703125 
Q 47.40625 39.59375 52.65625 34.296875 
Q 57.90625 29 57.90625 20.125 
Q 57.90625 9.515625 50.796875 4.046875 
Q 43.703125 -1.421875 29.984375 -1.421875 
Q 24.8125 -1.421875 18.96875 -0.25 
Q 13.140625 0.921875 6.890625 3.21875 
L 6.890625 13.375 
Q 12.890625 10.015625 18.65625 8.296875 
Q 24.421875 6.59375 29.984375 6.59375 
Q 38.421875 6.59375 43.015625 9.90625 
Q 47.609375 13.234375 47.609375 19.390625 
Q 47.609375 24.75 44.3125 27.78125 
Q 41.015625 30.8125 33.5 32.328125 
L 27.484375 33.5 
Q 16.453125 35.6875 11.515625 40.375 
Q 6.59375 45.0625 6.59375 53.421875 
Q 6.59375 63.09375 13.40625 68.65625 
Q 20.21875 74.21875 32.171875 74.21875 
Q 37.3125 74.21875 42.625 73.28125 
Q 47.953125 72.359375 53.515625 70.515625 
" id="BitstreamVeraSans-Roman-53"/>
      <path d="M 9.421875 54.6875 
L 18.40625 54.6875 
L 18.40625 0 
L 9.421875 0 
z
M 9.421875 75.984375 
L 18.40625 75.984375 
L 18.40625 64.59375 
L 9.421875 64.59375 
z
" id="BitstreamVeraSans-Roman-69"/>
      <path d="M 34.1875 63.1875 
L 20.796875 26.90625 
L 47.609375 26.90625 
z
M 28.609375 72.90625 
L 39.796875 72.90625 
L 67.578125 0 
L 57.328125 0 
L 50.6875 18.703125 
L 17.828125 18.703125 
L 11.1875 0 
L 0.78125 0 
z
" id="BitstreamVeraSans-Roman-41"/>
      <path d="M 2.984375 54.6875 
L 12.5 54.6875 
L 29.59375 8.796875 
L 46.6875 54.6875 
L 56.203125 54.6875 
L 35.6875 0 
L 23.484375 0 
z
" id="BitstreamVeraSans-Roman-76"/>
      <path d="M 37.109375 75.984375 
L 37.109375 68.5 
L 28.515625 68.5 
Q 23.6875 68.5 21.796875 66.546875 
Q 19.921875 64.59375 19.921875 59.515625 
L 19.921875 54.6875 
L 34.71875 54.6875 
L 34.71875 47.703125 
L 19.921875 47.703125 
L 19.921875 0 
L 10.890625 0 
L 10.890625 47.703125 
L 2.296875 47.703125 
L 2.296875 54.6875 
L 10.890625 54.6875 
L 10.890625 58.5 
Q 10.890625 67.625 15.140625 71.796875 
Q 19.390625 75.984375 28.609375 75.984375 
z
" id="BitstreamVeraSans-Roman-66"/>
      <path d="M 44.28125 53.078125 
L 44.28125 44.578125 
Q 40.484375 46.53125 36.375 47.5 
Q 32.28125 48.484375 27.875 48.484375 
Q 21.1875 48.484375 17.84375 46.4375 
Q 14.5 44.390625 14.5 40.28125 
Q 14.5 37.15625 16.890625 35.375 
Q 19.28125 33.59375 26.515625 31.984375 
L 29.59375 31.296875 
Q 39.15625 29.25 43.1875 25.515625 
Q 47.21875 21.78125 47.21875 15.09375 
Q 47.21875 7.46875 41.1875 3.015625 
Q 35.15625 -1.421875 24.609375 -1.421875 
Q 20.21875 -1.421875 15.453125 -0.5625 
Q 10.6875 0.296875 5.421875 2 
L 5.421875 11.28125 
Q 10.40625 8.6875 15.234375 7.390625 
Q 20.0625 6.109375 24.8125 6.109375 
Q 31.15625 6.109375 34.5625 8.28125 
Q 37.984375 10.453125 37.984375 14.40625 
Q 37.984375 18.0625 35.515625 20.015625 
Q 33.0625 21.96875 24.703125 23.78125 
L 21.578125 24.515625 
Q 13.234375 26.265625 9.515625 29.90625 
Q 5.8125 33.546875 5.8125 39.890625 
Q 5.8125 47.609375 11.28125 51.796875 
Q 16.75 56 26.8125 56 
Q 31.78125 56 36.171875 55.265625 
Q 40.578125 54.546875 44.28125 53.078125 
" id="BitstreamVeraSans-Roman-73"/>
      <path d="M 48.78125 52.59375 
L 48.78125 44.1875 
Q 44.96875 46.296875 41.140625 47.34375 
Q 37.3125 48.390625 33.40625 48.390625 
Q 24.65625 48.390625 19.8125 42.84375 
Q 14.984375 37.3125 14.984375 27.296875 
Q 14.984375 17.28125 19.8125 11.734375 
Q 24.65625 6.203125 33.40625 6.203125 
Q 37.3125 6.203125 41.140625 7.25 
Q 44.96875 8.296875 48.78125 10.40625 
L 48.78125 2.09375 
Q 45.015625 0.34375 40.984375 -0.53125 
Q 36.96875 -1.421875 32.421875 -1.421875 
Q 20.0625 -1.421875 12.78125 6.34375 
Q 5.515625 14.109375 5.515625 27.296875 
Q 5.515625 40.671875 12.859375 48.328125 
Q 20.21875 56 33.015625 56 
Q 37.15625 56 41.109375 55.140625 
Q 45.0625 54.296875 48.78125 52.59375 
" id="BitstreamVeraSans-Roman-63"/>
      <path d="M 48.6875 27.296875 
Q 48.6875 37.203125 44.609375 42.84375 
Q 40.53125 48.484375 33.40625 48.484375 
Q 26.265625 48.484375 22.1875 42.84375 
Q 18.109375 37.203125 18.109375 27.296875 
Q 18.109375 17.390625 22.1875 11.75 
Q 26.265625 6.109375 33.40625 6.109375 
Q 40.53125 6.109375 44.609375 11.75 
Q 48.6875 17.390625 48.6875 27.296875 
M 18.109375 46.390625 
Q 20.953125 51.265625 25.265625 53.625 
Q 29.59375 56 35.59375 56 
Q 45.5625 56 51.78125 48.09375 
Q 58.015625 40.1875 58.015625 27.296875 
Q 58.015625 14.40625 51.78125 6.484375 
Q 45.5625 -1.421875 35.59375 -1.421875 
Q 29.59375 -1.421875 25.265625 0.953125 
Q 20.953125 3.328125 18.109375 8.203125 
L 18.109375 0 
L 9.078125 0 
L 9.078125 75.984375 
L 18.109375 75.984375 
z
" id="BitstreamVeraSans-Roman-62"/>
     </defs>
     <g transform="translate(14.7984375 254.833625)rotate(-90.0)scale(0.1 -0.1)">
      <use xlink:href="#BitstreamVeraSans-Roman-50"/>
      <use x="60.255859375" xlink:href="#BitstreamVeraSans-Roman-65"/>
      <use x="121.779296875" xlink:href="#BitstreamVeraSans-Roman-72"/>
      <use x="162.861328125" xlink:href="#BitstreamVeraSans-Roman-63"/>
      <use x="217.841796875" xlink:href="#BitstreamVeraSans-Roman-65"/>
      <use x="279.365234375" xlink:href="#BitstreamVeraSans-Roman-6e"/>
      <use x="342.744140625" xlink:href="#BitstreamVeraSans-Roman-74"/>
      <use x="381.953125" xlink:href="#BitstreamVeraSans-Roman-20"/>
      <use x="413.740234375" xlink:href="#BitstreamVeraSans-Roman-6f"/>
      <use x="474.921875" xlink:href="#BitstreamVeraSans-Roman-66"/>
      <use x="510.126953125" xlink:href="#BitstreamVeraSans-Roman-20"/>
      <use x="541.9140625" xlink:href="#BitstreamVeraSans-Roman-41"/>
      <use x="610.322265625" xlink:href="#BitstreamVeraSans-Roman-53"/>
      <use x="673.798828125" xlink:href="#BitstreamVeraSans-Roman-4f"/>
      <use x="752.509765625" xlink:href="#BitstreamVeraSans-Roman-53"/>
      <use x="815.986328125" xlink:href="#BitstreamVeraSans-Roman-20"/>
      <use x="847.7734375" xlink:href="#BitstreamVeraSans-Roman-50"/>
      <use x="908.060546875" xlink:href="#BitstreamVeraSans-Roman-72"/>
      <use x="949.142578125" xlink:href="#BitstreamVeraSans-Roman-65"/>
      <use x="1010.66601562" xlink:href="#BitstreamVeraSans-Roman-63"/>
      <use x="1065.64648438" xlink:href="#BitstreamVeraSans-Roman-69"/>
      <use x="1093.4296875" xlink:href="#BitstreamVeraSans-Roman-70"/>
      <use x="1156.90625" xlink:href="#BitstreamVeraSans-Roman-69"/>
      <use x="1184.68945312" xlink:href="#BitstreamVeraSans-Roman-74"/>
      <use x="1223.8984375" xlink:href="#BitstreamVeraSans-Roman-61"/>
      <use x="1285.17773438" xlink:href="#BitstreamVeraSans-Roman-74"/>
      <use x="1324.38671875" xlink:href="#BitstreamVeraSans-Roman-69"/>
      <use x="1352.16992188" xlink:href="#BitstreamVeraSans-Roman-6f"/>
      <use x="1413.3515625" xlink:href="#BitstreamVeraSans-Roman-6e"/>
      <use x="1476.73046875" xlink:href="#BitstreamVeraSans-Roman-20"/>
      <use x="1508.51757812" xlink:href="#BitstreamVeraSans-Roman-4f"/>
      <use x="1587.22851562" xlink:href="#BitstreamVeraSans-Roman-62"/>
      <use x="1650.70507812" xlink:href="#BitstreamVeraSans-Roman-73"/>
      <use x="1702.8046875" xlink:href="#BitstreamVeraSans-Roman-65"/>
      <use x="1764.328125" xlink:href="#BitstreamVeraSans-Roman-72"/>
      <use x="1805.44140625" xlink:href="#BitstreamVeraSans-Roman-76"/>
      <use x="1864.62109375" xlink:href="#BitstreamVeraSans-Roman-61"/>
      <use x="1925.90039062" xlink:href="#BitstreamVeraSans-Roman-74"/>
      <use x="1965.109375" xlink:href="#BitstreamVeraSans-Roman-69"/>
      <use x="1992.89257812" xlink:href="#BitstreamVeraSans-Roman-6f"/>
      <use x="2054.07421875" xlink:href="#BitstreamVeraSans-Roman-6e"/>
      <use x="2117.453125" xlink:href="#BitstreamVeraSans-Roman-73"/>
     </g>
    </g>
   </g>
   <g id="text_16">
    <!-- DuPage Airport (KDPA) -->
    <defs>
     <path d="M 45.40625 27.984375 
Q 45.40625 37.75 41.375 43.109375 
Q 37.359375 48.484375 30.078125 48.484375 
Q 22.859375 48.484375 18.828125 43.109375 
Q 14.796875 37.75 14.796875 27.984375 
Q 14.796875 18.265625 18.828125 12.890625 
Q 22.859375 7.515625 30.078125 7.515625 
Q 37.359375 7.515625 41.375 12.890625 
Q 45.40625 18.265625 45.40625 27.984375 
M 54.390625 6.78125 
Q 54.390625 -7.171875 48.1875 -13.984375 
Q 42 -20.796875 29.203125 -20.796875 
Q 24.46875 -20.796875 20.265625 -20.09375 
Q 16.0625 -19.390625 12.109375 -17.921875 
L 12.109375 -9.1875 
Q 16.0625 -11.328125 19.921875 -12.34375 
Q 23.78125 -13.375 27.78125 -13.375 
Q 36.625 -13.375 41.015625 -8.765625 
Q 45.40625 -4.15625 45.40625 5.171875 
L 45.40625 9.625 
Q 42.625 4.78125 38.28125 2.390625 
Q 33.9375 0 27.875 0 
Q 17.828125 0 11.671875 7.65625 
Q 5.515625 15.328125 5.515625 27.984375 
Q 5.515625 40.671875 11.671875 48.328125 
Q 17.828125 56 27.875 56 
Q 33.9375 56 38.28125 53.609375 
Q 42.625 51.21875 45.40625 46.390625 
L 45.40625 54.6875 
L 54.390625 54.6875 
z
" id="BitstreamVeraSans-Roman-67"/>
     <path d="M 19.671875 64.796875 
L 19.671875 8.109375 
L 31.59375 8.109375 
Q 46.6875 8.109375 53.6875 14.9375 
Q 60.6875 21.78125 60.6875 36.53125 
Q 60.6875 51.171875 53.6875 57.984375 
Q 46.6875 64.796875 31.59375 64.796875 
z
M 9.8125 72.90625 
L 30.078125 72.90625 
Q 51.265625 72.90625 61.171875 64.09375 
Q 71.09375 55.28125 71.09375 36.53125 
Q 71.09375 17.671875 61.125 8.828125 
Q 51.171875 0 30.078125 0 
L 9.8125 0 
z
" id="BitstreamVeraSans-Roman-44"/>
     <path d="M 9.8125 72.90625 
L 19.671875 72.90625 
L 19.671875 42.09375 
L 52.390625 72.90625 
L 65.09375 72.90625 
L 28.90625 38.921875 
L 67.671875 0 
L 54.6875 0 
L 19.671875 35.109375 
L 19.671875 0 
L 9.8125 0 
z
" id="BitstreamVeraSans-Roman-4b"/>
    </defs>
    <g transform="translate(143.8475 16.318125)scale(0.12 -0.12)">
     <use xlink:href="#BitstreamVeraSans-Roman-44"/>
     <use x="77.001953125" xlink:href="#BitstreamVeraSans-Roman-75"/>
     <use x="140.380859375" xlink:href="#BitstreamVeraSans-Roman-50"/>
     <use x="200.62109375" xlink:href="#BitstreamVeraSans-Roman-61"/>
     <use x="261.900390625" xlink:href="#BitstreamVeraSans-Roman-67"/>
     <use x="325.376953125" xlink:href="#BitstreamVeraSans-Roman-65"/>
     <use x="386.900390625" xlink:href="#BitstreamVeraSans-Roman-20"/>
     <use x="418.6875" xlink:href="#BitstreamVeraSans-Roman-41"/>
     <use x="487.095703125" xlink:href="#BitstreamVeraSans-Roman-69"/>
     <use x="514.87890625" xlink:href="#BitstreamVeraSans-Roman-72"/>
     <use x="555.9921875" xlink:href="#BitstreamVeraSans-Roman-70"/>
     <use x="619.46875" xlink:href="#BitstreamVeraSans-Roman-6f"/>
     <use x="680.650390625" xlink:href="#BitstreamVeraSans-Roman-72"/>
     <use x="721.763671875" xlink:href="#BitstreamVeraSans-Roman-74"/>
     <use x="760.97265625" xlink:href="#BitstreamVeraSans-Roman-20"/>
     <use x="792.759765625" xlink:href="#BitstreamVeraSans-Roman-28"/>
     <use x="831.7734375" xlink:href="#BitstreamVeraSans-Roman-4b"/>
     <use x="897.349609375" xlink:href="#BitstreamVeraSans-Roman-44"/>
     <use x="974.3515625" xlink:href="#BitstreamVeraSans-Roman-50"/>
     <use x="1034.56054688" xlink:href="#BitstreamVeraSans-Roman-41"/>
     <use x="1102.96875" xlink:href="#BitstreamVeraSans-Roman-29"/>
    </g>
    <!-- 1/1/2006 - 9/30/2013 -->
    <defs>
     <path d="M 4.890625 31.390625 
L 31.203125 31.390625 
L 31.203125 23.390625 
L 4.890625 23.390625 
z
" id="BitstreamVeraSans-Roman-2d"/>
     <path d="M 25.390625 72.90625 
L 33.6875 72.90625 
L 8.296875 -9.28125 
L 0 -9.28125 
z
" id="BitstreamVeraSans-Roman-2f"/>
    </defs>
    <g transform="translate(148.6746875 29.7555)scale(0.12 -0.12)">
     <use xlink:href="#BitstreamVeraSans-Roman-31"/>
     <use x="63.623046875" xlink:href="#BitstreamVeraSans-Roman-2f"/>
     <use x="97.314453125" xlink:href="#BitstreamVeraSans-Roman-31"/>
     <use x="160.9375" xlink:href="#BitstreamVeraSans-Roman-2f"/>
     <use x="194.62890625" xlink:href="#BitstreamVeraSans-Roman-32"/>
     <use x="258.251953125" xlink:href="#BitstreamVeraSans-Roman-30"/>
     <use x="321.875" xlink:href="#BitstreamVeraSans-Roman-30"/>
     <use x="385.498046875" xlink:href="#BitstreamVeraSans-Roman-36"/>
     <use x="449.12109375" xlink:href="#BitstreamVeraSans-Roman-20"/>
     <use x="480.908203125" xlink:href="#BitstreamVeraSans-Roman-2d"/>
     <use x="516.9921875" xlink:href="#BitstreamVeraSans-Roman-20"/>
     <use x="548.779296875" xlink:href="#BitstreamVeraSans-Roman-39"/>
     <use x="612.40234375" xlink:href="#BitstreamVeraSans-Roman-2f"/>
     <use x="646.09375" xlink:href="#BitstreamVeraSans-Roman-33"/>
     <use x="709.716796875" xlink:href="#BitstreamVeraSans-Roman-30"/>
     <use x="773.33984375" xlink:href="#BitstreamVeraSans-Roman-2f"/>
     <use x="807.03125" xlink:href="#BitstreamVeraSans-Roman-32"/>
     <use x="870.654296875" xlink:href="#BitstreamVeraSans-Roman-30"/>
     <use x="934.27734375" xlink:href="#BitstreamVeraSans-Roman-31"/>
     <use x="997.900390625" xlink:href="#BitstreamVeraSans-Roman-33"/>
    </g>
   </g>
   <g id="legend_1">
    <g id="patch_7">
     <path d="M 50.965625 183.383 
L 189.19625 183.383 
L 189.19625 109.328 
L 50.965625 109.328 
z
" style="fill:#ffffff;stroke:#000000;stroke-linejoin:miter;"/>
    </g>
    <g id="line2d_48">
     <path d="M 59.365625 119.046125 
L 76.165625 119.046125 
" style="fill:none;stroke:#ff0000;stroke-linecap:square;stroke-width:1.5;"/>
    </g>
    <g id="line2d_49"/>
    <g id="text_17">
     <!-- Rain - ASOS -->
     <defs>
      <path d="M 44.390625 34.1875 
Q 47.5625 33.109375 50.5625 29.59375 
Q 53.5625 26.078125 56.59375 19.921875 
L 66.609375 0 
L 56 0 
L 46.6875 18.703125 
Q 43.0625 26.03125 39.671875 28.421875 
Q 36.28125 30.8125 30.421875 30.8125 
L 19.671875 30.8125 
L 19.671875 0 
L 9.8125 0 
L 9.8125 72.90625 
L 32.078125 72.90625 
Q 44.578125 72.90625 50.734375 67.671875 
Q 56.890625 62.453125 56.890625 51.90625 
Q 56.890625 45.015625 53.6875 40.46875 
Q 50.484375 35.9375 44.390625 34.1875 
M 19.671875 64.796875 
L 19.671875 38.921875 
L 32.078125 38.921875 
Q 39.203125 38.921875 42.84375 42.21875 
Q 46.484375 45.515625 46.484375 51.90625 
Q 46.484375 58.296875 42.84375 61.546875 
Q 39.203125 64.796875 32.078125 64.796875 
z
" id="BitstreamVeraSans-Roman-52"/>
     </defs>
     <g transform="translate(89.365625 123.246125)scale(0.12 -0.12)">
      <use xlink:href="#BitstreamVeraSans-Roman-52"/>
      <use x="69.451171875" xlink:href="#BitstreamVeraSans-Roman-61"/>
      <use x="130.73046875" xlink:href="#BitstreamVeraSans-Roman-69"/>
      <use x="158.513671875" xlink:href="#BitstreamVeraSans-Roman-6e"/>
      <use x="221.892578125" xlink:href="#BitstreamVeraSans-Roman-20"/>
      <use x="253.6796875" xlink:href="#BitstreamVeraSans-Roman-2d"/>
      <use x="289.763671875" xlink:href="#BitstreamVeraSans-Roman-20"/>
      <use x="321.55078125" xlink:href="#BitstreamVeraSans-Roman-41"/>
      <use x="389.958984375" xlink:href="#BitstreamVeraSans-Roman-53"/>
      <use x="453.435546875" xlink:href="#BitstreamVeraSans-Roman-4f"/>
      <use x="532.146484375" xlink:href="#BitstreamVeraSans-Roman-53"/>
     </g>
    </g>
    <g id="line2d_50">
     <path d="M 59.365625 136.659875 
L 76.165625 136.659875 
" style="fill:none;stroke:#0000ff;stroke-linecap:square;stroke-width:1.5;"/>
    </g>
    <g id="line2d_51"/>
    <g id="text_18">
     <!-- Snow - ASOS -->
     <defs>
      <path d="M 4.203125 54.6875 
L 13.1875 54.6875 
L 24.421875 12.015625 
L 35.59375 54.6875 
L 46.1875 54.6875 
L 57.421875 12.015625 
L 68.609375 54.6875 
L 77.59375 54.6875 
L 63.28125 0 
L 52.6875 0 
L 40.921875 44.828125 
L 29.109375 0 
L 18.5 0 
z
" id="BitstreamVeraSans-Roman-77"/>
     </defs>
     <g transform="translate(89.365625 140.859875)scale(0.12 -0.12)">
      <use xlink:href="#BitstreamVeraSans-Roman-53"/>
      <use x="63.4765625" xlink:href="#BitstreamVeraSans-Roman-6e"/>
      <use x="126.85546875" xlink:href="#BitstreamVeraSans-Roman-6f"/>
      <use x="188.037109375" xlink:href="#BitstreamVeraSans-Roman-77"/>
      <use x="269.82421875" xlink:href="#BitstreamVeraSans-Roman-20"/>
      <use x="301.611328125" xlink:href="#BitstreamVeraSans-Roman-2d"/>
      <use x="337.6953125" xlink:href="#BitstreamVeraSans-Roman-20"/>
      <use x="369.482421875" xlink:href="#BitstreamVeraSans-Roman-41"/>
      <use x="437.890625" xlink:href="#BitstreamVeraSans-Roman-53"/>
      <use x="501.3671875" xlink:href="#BitstreamVeraSans-Roman-4f"/>
      <use x="580.078125" xlink:href="#BitstreamVeraSans-Roman-53"/>
     </g>
    </g>
    <g id="line2d_52">
     <path d="M 59.365625 154.273625 
L 76.165625 154.273625 
" style="fill:none;stroke:#ff0000;stroke-dasharray:6.000000,6.000000;stroke-dashoffset:0.0;stroke-width:1.5;"/>
    </g>
    <g id="line2d_53"/>
    <g id="text_19">
     <!-- Rain - Argonne -->
     <g transform="translate(89.365625 158.473625)scale(0.12 -0.12)">
      <use xlink:href="#BitstreamVeraSans-Roman-52"/>
      <use x="69.451171875" xlink:href="#BitstreamVeraSans-Roman-61"/>
      <use x="130.73046875" xlink:href="#BitstreamVeraSans-Roman-69"/>
      <use x="158.513671875" xlink:href="#BitstreamVeraSans-Roman-6e"/>
      <use x="221.892578125" xlink:href="#BitstreamVeraSans-Roman-20"/>
      <use x="253.6796875" xlink:href="#BitstreamVeraSans-Roman-2d"/>
      <use x="289.763671875" xlink:href="#BitstreamVeraSans-Roman-20"/>
      <use x="321.55078125" xlink:href="#BitstreamVeraSans-Roman-41"/>
      <use x="389.958984375" xlink:href="#BitstreamVeraSans-Roman-72"/>
      <use x="431.056640625" xlink:href="#BitstreamVeraSans-Roman-67"/>
      <use x="494.533203125" xlink:href="#BitstreamVeraSans-Roman-6f"/>
      <use x="555.71484375" xlink:href="#BitstreamVeraSans-Roman-6e"/>
      <use x="619.09375" xlink:href="#BitstreamVeraSans-Roman-6e"/>
      <use x="682.47265625" xlink:href="#BitstreamVeraSans-Roman-65"/>
     </g>
    </g>
    <g id="line2d_54">
     <path d="M 59.365625 171.887375 
L 76.165625 171.887375 
" style="fill:none;stroke:#0000ff;stroke-dasharray:6.000000,6.000000;stroke-dashoffset:0.0;stroke-width:1.5;"/>
    </g>
    <g id="line2d_55"/>
    <g id="text_20">
     <!-- Snow - Argonne -->
     <g transform="translate(89.365625 176.087375)scale(0.12 -0.12)">
      <use xlink:href="#BitstreamVeraSans-Roman-53"/>
      <use x="63.4765625" xlink:href="#BitstreamVeraSans-Roman-6e"/>
      <use x="126.85546875" xlink:href="#BitstreamVeraSans-Roman-6f"/>
      <use x="188.037109375" xlink:href="#BitstreamVeraSans-Roman-77"/>
      <use x="269.82421875" xlink:href="#BitstreamVeraSans-Roman-20"/>
      <use x="301.611328125" xlink:href="#BitstreamVeraSans-Roman-2d"/>
      <use x="337.6953125" xlink:href="#BitstreamVeraSans-Roman-20"/>
      <use x="369.482421875" xlink:href="#BitstreamVeraSans-Roman-41"/>
      <use x="437.890625" xlink:href="#BitstreamVeraSans-Roman-72"/>
      <use x="478.98828125" xlink:href="#BitstreamVeraSans-Roman-67"/>
      <use x="542.46484375" xlink:href="#BitstreamVeraSans-Roman-6f"/>
      <use x="603.646484375" xlink:href="#BitstreamVeraSans-Roman-6e"/>
      <use x="667.025390625" xlink:href="#BitstreamVeraSans-Roman-6e"/>
      <use x="730.404296875" xlink:href="#BitstreamVeraSans-Roman-65"/>
     </g>
    </g>
   </g>
  </g>
 </g>
 <defs>
  <clipPath id="p7f0e0ccc45">
   <rect height="223.2" width="334.8" x="44.965625" y="34.7555"/>
  </clipPath>
 </defs>
</svg>
