<?xml version="1.0" encoding="utf-8" standalone="no"?>
<!DOCTYPE svg PUBLIC "-//W3C//DTD SVG 1.1//EN"
  "http://www.w3.org/Graphics/SVG/1.1/DTD/svg11.dtd">
<!-- Created with matplotlib (http://matplotlib.org/) -->
<svg height="293pt" version="1.1" viewBox="0 0 393 293" width="393pt" xmlns="http://www.w3.org/2000/svg" xmlns:xlink="http://www.w3.org/1999/xlink">
 <defs>
  <style type="text/css">
*{stroke-linecap:butt;stroke-linejoin:round;stroke-miterlimit:100000;}
  </style>
 </defs>
 <g id="figure_1">
  <g id="patch_1">
   <path d="M 0 293.533625 
L 393.328125 293.533625 
L 393.328125 0 
L 0 0 
z
" style="fill:#ffffff;"/>
  </g>
  <g id="axes_1">
   <g id="patch_2">
    <path d="M 44.965625 257.9555 
L 379.765625 257.9555 
L 379.765625 34.7555 
L 44.965625 34.7555 
z
" style="fill:#ffffff;"/>
   </g>
   <g id="line2d_1">
    <defs>
     <path d="M 0 3 
C 0.795609 3 1.55874 2.683901 2.12132 2.12132 
C 2.683901 1.55874 3 0.795609 3 0 
C 3 -0.795609 2.683901 -1.55874 2.12132 -2.12132 
C 1.55874 -2.683901 0.795609 -3 0 -3 
C -0.795609 -3 -1.55874 -2.683901 -2.12132 -2.12132 
C -2.683901 -1.55874 -3 -0.795609 -3 0 
C -3 0.795609 -2.683901 1.55874 -2.12132 2.12132 
C -1.55874 2.683901 -0.795609 3 0 3 
z
" id="m784d0ba075" style="stroke:#000000;stroke-width:0.5;"/>
    </defs>
    <g clip-path="url(#pc29f138864)">
     <use style="fill:#ff0000;stroke:#000000;stroke-width:0.5;" x="-264.724375" xlink:href="#m784d0ba075" y="257.9555"/>
     <use style="fill:#ff0000;stroke:#000000;stroke-width:0.5;" x="-1.0" xlink:href="#m784d0ba075" y="257.9555"/>
     <use style="fill:#ff0000;stroke:#000000;stroke-width:0.5;" x="14.275625" xlink:href="#m784d0ba075" y="257.9555"/>
     <use style="fill:#ff0000;stroke:#000000;stroke-width:0.5;" x="70.075625" xlink:href="#m784d0ba075" y="257.9555"/>
     <use style="fill:#ff0000;stroke:#000000;stroke-width:0.5;" x="125.875625" xlink:href="#m784d0ba075" y="252.3755"/>
     <use style="fill:#ff0000;stroke:#000000;stroke-width:0.5;" x="181.675625" xlink:href="#m784d0ba075" y="237.6443"/>
     <use style="fill:#ff0000;stroke:#000000;stroke-width:0.5;" x="237.475625" xlink:href="#m784d0ba075" y="202.6019"/>
     <use style="fill:#ff0000;stroke:#000000;stroke-width:0.5;" x="293.275625" xlink:href="#m784d0ba075" y="129.6155"/>
     <use style="fill:#ff0000;stroke:#000000;stroke-width:0.5;" x="349.075625" xlink:href="#m784d0ba075" y="67.1195"/>
     <use style="fill:#ff0000;stroke:#000000;stroke-width:0.5;" x="404.875625" xlink:href="#m784d0ba075" y="45.9155"/>
    </g>
   </g>
   <g id="line2d_2">
    <path clip-path="url(#pc29f138864)" d="M -264.724375 255.080664 
M -1 257.822129 
L 8.581747 258.962187 
L 22.247054 260.540524 
L 35.91236 261.949098 
L 49.577666 263.061026 
L 63.242972 263.747397 
L 76.908278 263.879958 
L 90.573584 263.333799 
L 104.23889 261.990037 
L 117.904196 259.738501 
L 131.569503 256.480416 
L 145.234809 252.13109 
L 158.900115 246.622596 
L 172.565421 239.906459 
L 186.230727 231.956341 
L 199.896033 222.770722 
L 213.561339 212.375591 
L 227.226645 200.827125 
L 240.891952 188.214376 
L 254.557258 174.661958 
L 268.222564 160.332729 
L 281.88787 145.430475 
L 295.553176 130.202598 
L 309.218482 114.942798 
L 322.883788 99.993761 
L 336.549094 85.749839 
L 350.214401 72.65974 
L 363.879707 61.229208 
L 377.545013 52.023712 
L 391.210319 45.671129 
L 394.328125 45.030766 
" style="fill:none;stroke:#ff0000;stroke-linecap:square;stroke-width:1.5;"/>
   </g>
   <g id="line2d_3">
    <defs>
     <path d="M 0 3 
C 0.795609 3 1.55874 2.683901 2.12132 2.12132 
C 2.683901 1.55874 3 0.795609 3 0 
C 3 -0.795609 2.683901 -1.55874 2.12132 -2.12132 
C 1.55874 -2.683901 0.795609 -3 0 -3 
C -0.795609 -3 -1.55874 -2.683901 -2.12132 -2.12132 
C -2.683901 -1.55874 -3 -0.795609 -3 0 
C -3 0.795609 -2.683901 1.55874 -2.12132 2.12132 
C -1.55874 2.683901 -0.795609 3 0 3 
z
" id="m3b6cbd7224" style="stroke:#000000;stroke-width:0.5;"/>
    </defs>
    <g clip-path="url(#pc29f138864)">
     <use style="fill:#0000ff;stroke:#000000;stroke-width:0.5;" x="-264.724375" xlink:href="#m3b6cbd7224" y="34.7555"/>
     <use style="fill:#0000ff;stroke:#000000;stroke-width:0.5;" x="-1.0" xlink:href="#m3b6cbd7224" y="34.7555"/>
     <use style="fill:#0000ff;stroke:#000000;stroke-width:0.5;" x="14.275625" xlink:href="#m3b6cbd7224" y="34.7555"/>
     <use style="fill:#0000ff;stroke:#000000;stroke-width:0.5;" x="70.075625" xlink:href="#m3b6cbd7224" y="34.7555"/>
     <use style="fill:#0000ff;stroke:#000000;stroke-width:0.5;" x="125.875625" xlink:href="#m3b6cbd7224" y="40.3355"/>
     <use style="fill:#0000ff;stroke:#000000;stroke-width:0.5;" x="181.675625" xlink:href="#m3b6cbd7224" y="55.0667"/>
     <use style="fill:#0000ff;stroke:#000000;stroke-width:0.5;" x="237.475625" xlink:href="#m3b6cbd7224" y="90.1091"/>
     <use style="fill:#0000ff;stroke:#000000;stroke-width:0.5;" x="293.275625" xlink:href="#m3b6cbd7224" y="163.0955"/>
     <use style="fill:#0000ff;stroke:#000000;stroke-width:0.5;" x="349.075625" xlink:href="#m3b6cbd7224" y="225.5915"/>
     <use style="fill:#0000ff;stroke:#000000;stroke-width:0.5;" x="404.875625" xlink:href="#m3b6cbd7224" y="246.7955"/>
    </g>
   </g>
   <g id="line2d_4">
    <path clip-path="url(#pc29f138864)" d="M -264.724375 37.630336 
M -1 34.888871 
L 8.581747 33.748813 
L 22.247054 32.170476 
L 35.91236 30.761902 
L 49.577666 29.649974 
L 63.242972 28.963603 
L 76.908278 28.831042 
L 90.573584 29.377201 
L 104.23889 30.720963 
L 117.904196 32.972499 
L 131.569503 36.230584 
L 145.234809 40.57991 
L 158.900115 46.088404 
L 172.565421 52.804541 
L 186.230727 60.754659 
L 199.896033 69.940278 
L 213.561339 80.335409 
L 227.226645 91.883875 
L 240.891952 104.496624 
L 254.557258 118.049042 
L 268.222564 132.378271 
L 281.88787 147.280525 
L 295.553176 162.508402 
L 309.218482 177.768202 
L 322.883788 192.717239 
L 336.549094 206.961161 
L 350.214401 220.05126 
L 363.879707 231.481792 
L 377.545013 240.687288 
L 391.210319 247.039871 
L 394.328125 247.680234 
" style="fill:none;stroke:#0000ff;stroke-linecap:square;stroke-width:1.5;"/>
   </g>
   <g id="line2d_5">
    <defs>
     <path d="M 0 3 
C 0.795609 3 1.55874 2.683901 2.12132 2.12132 
C 2.683901 1.55874 3 0.795609 3 0 
C 3 -0.795609 2.683901 -1.55874 2.12132 -2.12132 
C 1.55874 -2.683901 0.795609 -3 0 -3 
C -0.795609 -3 -1.55874 -2.683901 -2.12132 -2.12132 
C -2.683901 -1.55874 -3 -0.795609 -3 0 
C -3 0.795609 -2.683901 1.55874 -2.12132 2.12132 
C -1.55874 2.683901 -0.795609 3 0 3 
z
" id="mbfcd2a1c0f" style="stroke:#ff0000;stroke-width:0.5;"/>
    </defs>
    <g clip-path="url(#pc29f138864)">
     <use style="fill:none;stroke:#ff0000;stroke-width:0.5;" x="-278.674375" xlink:href="#mbfcd2a1c0f" y="239.6531"/>
     <use style="fill:none;stroke:#ff0000;stroke-width:0.5;" x="-1.0" xlink:href="#mbfcd2a1c0f" y="235.91123"/>
     <use style="fill:none;stroke:#ff0000;stroke-width:0.5;" x="0.325625" xlink:href="#mbfcd2a1c0f" y="235.6355"/>
     <use style="fill:none;stroke:#ff0000;stroke-width:0.5;" x="28.225625" xlink:href="#mbfcd2a1c0f" y="216.4403"/>
     <use style="fill:none;stroke:#ff0000;stroke-width:0.5;" x="56.125625" xlink:href="#mbfcd2a1c0f" y="218.2259"/>
     <use style="fill:none;stroke:#ff0000;stroke-width:0.5;" x="84.025625" xlink:href="#mbfcd2a1c0f" y="223.5827"/>
     <use style="fill:none;stroke:#ff0000;stroke-width:0.5;" x="111.925625" xlink:href="#mbfcd2a1c0f" y="225.1451"/>
     <use style="fill:none;stroke:#ff0000;stroke-width:0.5;" x="139.825625" xlink:href="#mbfcd2a1c0f" y="230.5019"/>
     <use style="fill:none;stroke:#ff0000;stroke-width:0.5;" x="167.725625" xlink:href="#mbfcd2a1c0f" y="174.7019"/>
     <use style="fill:none;stroke:#ff0000;stroke-width:0.5;" x="195.625625" xlink:href="#mbfcd2a1c0f" y="185.4155"/>
     <use style="fill:none;stroke:#ff0000;stroke-width:0.5;" x="223.525625" xlink:href="#mbfcd2a1c0f" y="165.1043"/>
     <use style="fill:none;stroke:#ff0000;stroke-width:0.5;" x="251.425625" xlink:href="#mbfcd2a1c0f" y="129.8387"/>
     <use style="fill:none;stroke:#ff0000;stroke-width:0.5;" x="279.325625" xlink:href="#mbfcd2a1c0f" y="128.9459"/>
     <use style="fill:none;stroke:#ff0000;stroke-width:0.5;" x="307.225625" xlink:href="#mbfcd2a1c0f" y="105.9563"/>
     <use style="fill:none;stroke:#ff0000;stroke-width:0.5;" x="335.125625" xlink:href="#mbfcd2a1c0f" y="108.4115"/>
     <use style="fill:none;stroke:#ff0000;stroke-width:0.5;" x="363.025625" xlink:href="#mbfcd2a1c0f" y="88.3235"/>
     <use style="fill:none;stroke:#ff0000;stroke-width:0.5;" x="390.925625" xlink:href="#mbfcd2a1c0f" y="87.6539"/>
     <use style="fill:none;stroke:#ff0000;stroke-width:0.5;" x="418.825625" xlink:href="#mbfcd2a1c0f" y="51.0491"/>
    </g>
   </g>
   <g id="line2d_6">
    <path clip-path="url(#pc29f138864)" d="M -278.674375 245.136627 
M -1 234.471707 
L 6.019503 233.575313 
L 20.254196 231.589882 
L 34.48889 229.399426 
L 48.723584 226.965339 
L 62.958278 224.248781 
L 77.192972 221.211674 
L 91.427666 217.817704 
L 105.66236 214.033321 
L 119.897054 209.828734 
L 134.131747 205.178913 
L 148.366441 200.064586 
L 162.601135 194.473241 
L 176.835829 188.400123 
L 191.070523 181.849233 
L 205.305217 174.834328 
L 219.539911 167.379917 
L 233.774605 159.522267 
L 248.009298 151.310394 
L 262.243992 142.807067 
L 276.478686 134.089805 
L 290.71338 125.251877 
L 304.948074 116.403302 
L 319.182768 107.671846 
L 333.417462 99.20402 
L 347.652156 91.166084 
L 361.886849 83.745041 
L 376.121543 77.149639 
L 390.356237 71.611368 
L 394.328125 70.432219 
" style="fill:none;stroke:#ff0000;stroke-dasharray:6.000000,6.000000;stroke-dashoffset:0.0;stroke-width:1.5;"/>
   </g>
   <g id="line2d_7">
    <defs>
     <path d="M 0 3 
C 0.795609 3 1.55874 2.683901 2.12132 2.12132 
C 2.683901 1.55874 3 0.795609 3 0 
C 3 -0.795609 2.683901 -1.55874 2.12132 -2.12132 
C 1.55874 -2.683901 0.795609 -3 0 -3 
C -0.795609 -3 -1.55874 -2.683901 -2.12132 -2.12132 
C -2.683901 -1.55874 -3 -0.795609 -3 0 
C -3 0.795609 -2.683901 1.55874 -2.12132 2.12132 
C -1.55874 2.683901 -0.795609 3 0 3 
z
" id="m6c679ed888" style="stroke:#0000ff;stroke-width:0.5;"/>
    </defs>
    <g clip-path="url(#pc29f138864)">
     <use style="fill:none;stroke:#0000ff;stroke-width:0.5;" x="-278.674375" xlink:href="#m6c679ed888" y="53.0579"/>
     <use style="fill:none;stroke:#0000ff;stroke-width:0.5;" x="-1.0" xlink:href="#m6c679ed888" y="56.79977"/>
     <use style="fill:none;stroke:#0000ff;stroke-width:0.5;" x="0.325625" xlink:href="#m6c679ed888" y="57.0755"/>
     <use style="fill:none;stroke:#0000ff;stroke-width:0.5;" x="28.225625" xlink:href="#m6c679ed888" y="76.2707"/>
     <use style="fill:none;stroke:#0000ff;stroke-width:0.5;" x="56.125625" xlink:href="#m6c679ed888" y="74.4851"/>
     <use style="fill:none;stroke:#0000ff;stroke-width:0.5;" x="84.025625" xlink:href="#m6c679ed888" y="69.1283"/>
     <use style="fill:none;stroke:#0000ff;stroke-width:0.5;" x="111.925625" xlink:href="#m6c679ed888" y="67.5659"/>
     <use style="fill:none;stroke:#0000ff;stroke-width:0.5;" x="139.825625" xlink:href="#m6c679ed888" y="62.2091"/>
     <use style="fill:none;stroke:#0000ff;stroke-width:0.5;" x="167.725625" xlink:href="#m6c679ed888" y="118.0091"/>
     <use style="fill:none;stroke:#0000ff;stroke-width:0.5;" x="195.625625" xlink:href="#m6c679ed888" y="107.2955"/>
     <use style="fill:none;stroke:#0000ff;stroke-width:0.5;" x="223.525625" xlink:href="#m6c679ed888" y="127.6067"/>
     <use style="fill:none;stroke:#0000ff;stroke-width:0.5;" x="251.425625" xlink:href="#m6c679ed888" y="162.8723"/>
     <use style="fill:none;stroke:#0000ff;stroke-width:0.5;" x="279.325625" xlink:href="#m6c679ed888" y="163.7651"/>
     <use style="fill:none;stroke:#0000ff;stroke-width:0.5;" x="307.225625" xlink:href="#m6c679ed888" y="186.7547"/>
     <use style="fill:none;stroke:#0000ff;stroke-width:0.5;" x="335.125625" xlink:href="#m6c679ed888" y="184.2995"/>
     <use style="fill:none;stroke:#0000ff;stroke-width:0.5;" x="363.025625" xlink:href="#m6c679ed888" y="204.3875"/>
     <use style="fill:none;stroke:#0000ff;stroke-width:0.5;" x="390.925625" xlink:href="#m6c679ed888" y="205.0571"/>
     <use style="fill:none;stroke:#0000ff;stroke-width:0.5;" x="418.825625" xlink:href="#m6c679ed888" y="241.6619"/>
    </g>
   </g>
   <g id="line2d_8">
    <path clip-path="url(#pc29f138864)" d="M -278.674375 47.574373 
M -1 58.239293 
L 6.019503 59.135687 
L 20.254196 61.121118 
L 34.48889 63.311574 
L 48.723584 65.745661 
L 62.958278 68.462219 
L 77.192972 71.499326 
L 91.427666 74.893296 
L 105.66236 78.677679 
L 119.897054 82.882266 
L 134.131747 87.532087 
L 148.366441 92.646414 
L 162.601135 98.237759 
L 176.835829 104.310877 
L 191.070523 110.861767 
L 205.305217 117.876672 
L 219.539911 125.331083 
L 233.774605 133.188733 
L 248.009298 141.400606 
L 262.243992 149.903933 
L 276.478686 158.621195 
L 290.71338 167.459123 
L 304.948074 176.307698 
L 319.182768 185.039154 
L 333.417462 193.50698 
L 347.652156 201.544916 
L 361.886849 208.965959 
L 376.121543 215.561361 
L 390.356237 221.099632 
L 394.328125 222.278781 
" style="fill:none;stroke:#0000ff;stroke-dasharray:6.000000,6.000000;stroke-dashoffset:0.0;stroke-width:1.5;"/>
   </g>
   <g id="patch_3">
    <path d="M 44.965625 34.7555 
L 379.765625 34.7555 
" style="fill:none;stroke:#000000;stroke-linecap:square;stroke-linejoin:miter;"/>
   </g>
   <g id="patch_4">
    <path d="M 379.765625 257.9555 
L 379.765625 34.7555 
" style="fill:none;stroke:#000000;stroke-linecap:square;stroke-linejoin:miter;"/>
   </g>
   <g id="patch_5">
    <path d="M 44.965625 257.9555 
L 379.765625 257.9555 
" style="fill:none;stroke:#000000;stroke-linecap:square;stroke-linejoin:miter;"/>
   </g>
   <g id="patch_6">
    <path d="M 44.965625 257.9555 
L 44.965625 34.7555 
" style="fill:none;stroke:#000000;stroke-linecap:square;stroke-linejoin:miter;"/>
   </g>
   <g id="matplotlib.axis_1">
    <g id="xtick_1">
     <g id="line2d_9">
      <path clip-path="url(#pc29f138864)" d="M 44.965625 257.9555 
L 44.965625 34.7555 
" style="fill:none;stroke:#000000;stroke-dasharray:1.000000,3.000000;stroke-dashoffset:0.0;stroke-width:0.5;"/>
     </g>
     <g id="line2d_10">
      <defs>
       <path d="M 0 0 
L 0 -4 
" id="me2c6f2350f" style="stroke:#000000;stroke-width:0.5;"/>
      </defs>
      <g>
       <use style="stroke:#000000;stroke-width:0.5;" x="44.965625" xlink:href="#me2c6f2350f" y="257.9555"/>
      </g>
     </g>
     <g id="line2d_11">
      <defs>
       <path d="M 0 0 
L 0 4 
" id="m4f6dc2444d" style="stroke:#000000;stroke-width:0.5;"/>
      </defs>
      <g>
       <use style="stroke:#000000;stroke-width:0.5;" x="44.965625" xlink:href="#m4f6dc2444d" y="34.7555"/>
      </g>
     </g>
     <g id="text_1">
      <text style="font-family:Bitstream Vera Sans;font-size:10.0px;font-style:normal;font-weight:400;text-anchor:middle;" transform="rotate(-0.000000, 44.965625, 269.553937)" x="44.965625" y="269.5539375">29</text>
     </g>
    </g>
    <g id="xtick_2">
     <g id="line2d_12">
      <path clip-path="url(#pc29f138864)" d="M 100.765625 257.9555 
L 100.765625 34.7555 
" style="fill:none;stroke:#000000;stroke-dasharray:1.000000,3.000000;stroke-dashoffset:0.0;stroke-width:0.5;"/>
     </g>
     <g id="line2d_13">
      <g>
       <use style="stroke:#000000;stroke-width:0.5;" x="100.765625" xlink:href="#me2c6f2350f" y="257.9555"/>
      </g>
     </g>
     <g id="line2d_14">
      <g>
       <use style="stroke:#000000;stroke-width:0.5;" x="100.765625" xlink:href="#m4f6dc2444d" y="34.7555"/>
      </g>
     </g>
     <g id="text_2">
      <text style="font-family:Bitstream Vera Sans;font-size:10.0px;font-style:normal;font-weight:400;text-anchor:middle;" transform="rotate(-0.000000, 100.765625, 269.553937)" x="100.765625" y="269.5539375">30</text>
     </g>
    </g>
    <g id="xtick_3">
     <g id="line2d_15">
      <path clip-path="url(#pc29f138864)" d="M 156.565625 257.9555 
L 156.565625 34.7555 
" style="fill:none;stroke:#000000;stroke-dasharray:1.000000,3.000000;stroke-dashoffset:0.0;stroke-width:0.5;"/>
     </g>
     <g id="line2d_16">
      <g>
       <use style="stroke:#000000;stroke-width:0.5;" x="156.565625" xlink:href="#me2c6f2350f" y="257.9555"/>
      </g>
     </g>
     <g id="line2d_17">
      <g>
       <use style="stroke:#000000;stroke-width:0.5;" x="156.565625" xlink:href="#m4f6dc2444d" y="34.7555"/>
      </g>
     </g>
     <g id="text_3">
      <text style="font-family:Bitstream Vera Sans;font-size:10.0px;font-style:normal;font-weight:400;text-anchor:middle;" transform="rotate(-0.000000, 156.565625, 269.553937)" x="156.565625" y="269.5539375">31</text>
     </g>
    </g>
    <g id="xtick_4">
     <g id="line2d_18">
      <path clip-path="url(#pc29f138864)" d="M 212.365625 257.9555 
L 212.365625 34.7555 
" style="fill:none;stroke:#000000;stroke-dasharray:1.000000,3.000000;stroke-dashoffset:0.0;stroke-width:0.5;"/>
     </g>
     <g id="line2d_19">
      <g>
       <use style="stroke:#000000;stroke-width:0.5;" x="212.365625" xlink:href="#me2c6f2350f" y="257.9555"/>
      </g>
     </g>
     <g id="line2d_20">
      <g>
       <use style="stroke:#000000;stroke-width:0.5;" x="212.365625" xlink:href="#m4f6dc2444d" y="34.7555"/>
      </g>
     </g>
     <g id="text_4">
      <text style="font-family:Bitstream Vera Sans;font-size:10.0px;font-style:normal;font-weight:400;text-anchor:middle;" transform="rotate(-0.000000, 212.365625, 269.553937)" x="212.365625" y="269.5539375">32</text>
     </g>
    </g>
    <g id="xtick_5">
     <g id="line2d_21">
      <path clip-path="url(#pc29f138864)" d="M 268.165625 257.9555 
L 268.165625 34.7555 
" style="fill:none;stroke:#000000;stroke-dasharray:1.000000,3.000000;stroke-dashoffset:0.0;stroke-width:0.5;"/>
     </g>
     <g id="line2d_22">
      <g>
       <use style="stroke:#000000;stroke-width:0.5;" x="268.165625" xlink:href="#me2c6f2350f" y="257.9555"/>
      </g>
     </g>
     <g id="line2d_23">
      <g>
       <use style="stroke:#000000;stroke-width:0.5;" x="268.165625" xlink:href="#m4f6dc2444d" y="34.7555"/>
      </g>
     </g>
     <g id="text_5">
      <text style="font-family:Bitstream Vera Sans;font-size:10.0px;font-style:normal;font-weight:400;text-anchor:middle;" transform="rotate(-0.000000, 268.165625, 269.553937)" x="268.165625" y="269.5539375">33</text>
     </g>
    </g>
    <g id="xtick_6">
     <g id="line2d_24">
      <path clip-path="url(#pc29f138864)" d="M 323.965625 257.9555 
L 323.965625 34.7555 
" style="fill:none;stroke:#000000;stroke-dasharray:1.000000,3.000000;stroke-dashoffset:0.0;stroke-width:0.5;"/>
     </g>
     <g id="line2d_25">
      <g>
       <use style="stroke:#000000;stroke-width:0.5;" x="323.965625" xlink:href="#me2c6f2350f" y="257.9555"/>
      </g>
     </g>
     <g id="line2d_26">
      <g>
       <use style="stroke:#000000;stroke-width:0.5;" x="323.965625" xlink:href="#m4f6dc2444d" y="34.7555"/>
      </g>
     </g>
     <g id="text_6">
      <text style="font-family:Bitstream Vera Sans;font-size:10.0px;font-style:normal;font-weight:400;text-anchor:middle;" transform="rotate(-0.000000, 323.965625, 269.553937)" x="323.965625" y="269.5539375">34</text>
     </g>
    </g>
    <g id="xtick_7">
     <g id="line2d_27">
      <path clip-path="url(#pc29f138864)" d="M 379.765625 257.9555 
L 379.765625 34.7555 
" style="fill:none;stroke:#000000;stroke-dasharray:1.000000,3.000000;stroke-dashoffset:0.0;stroke-width:0.5;"/>
     </g>
     <g id="line2d_28">
      <g>
       <use style="stroke:#000000;stroke-width:0.5;" x="379.765625" xlink:href="#me2c6f2350f" y="257.9555"/>
      </g>
     </g>
     <g id="line2d_29">
      <g>
       <use style="stroke:#000000;stroke-width:0.5;" x="379.765625" xlink:href="#m4f6dc2444d" y="34.7555"/>
      </g>
     </g>
     <g id="text_7">
      <text style="font-family:Bitstream Vera Sans;font-size:10.0px;font-style:normal;font-weight:400;text-anchor:middle;" transform="rotate(-0.000000, 379.765625, 269.553937)" x="379.765625" y="269.5539375">35</text>
     </g>
    </g>
    <g id="text_8">
     <!-- Temperature ($^o$F) -->
     <g transform="translate(169.115625 284.233625)">
      <text>
       <tspan style="font-family:cmmi10;font-size:7.0px;font-style:regular;font-weight:regular;" x="72.7901640625" y="-4.23265625">o</tspan>
       <tspan style="font-family:Bitstream Vera Sans;font-size:10.0px;font-style:roman;font-weight:roman;" x="0.0 6.1083984375 12.2607421875 22.001953125 28.349609375 34.501953125 38.61328125 44.7412109375 48.662109375 55.0 59.111328125 65.263671875 68.4423828125 76.8151054688 82.5670585938" y="-0.40625">Temperature (F)</tspan>
      </text>
     </g>
    </g>
   </g>
   <g id="matplotlib.axis_2">
    <g id="ytick_1">
     <g id="line2d_30">
      <path clip-path="url(#pc29f138864)" d="M 44.965625 257.9555 
L 379.765625 257.9555 
" style="fill:none;stroke:#000000;stroke-dasharray:1.000000,3.000000;stroke-dashoffset:0.0;stroke-width:0.5;"/>
     </g>
     <g id="line2d_31">
      <defs>
       <path d="M 0 0 
L 4 0 
" id="m03137b11d0" style="stroke:#000000;stroke-width:0.5;"/>
      </defs>
      <g>
       <use style="stroke:#000000;stroke-width:0.5;" x="44.965625" xlink:href="#m03137b11d0" y="257.9555"/>
      </g>
     </g>
     <g id="line2d_32">
      <defs>
       <path d="M 0 0 
L -4 0 
" id="maf49f19f4c" style="stroke:#000000;stroke-width:0.5;"/>
      </defs>
      <g>
       <use style="stroke:#000000;stroke-width:0.5;" x="379.765625" xlink:href="#maf49f19f4c" y="257.9555"/>
      </g>
     </g>
     <g id="text_9">
      <text style="font-family:Bitstream Vera Sans;font-size:10.0px;font-style:normal;font-weight:400;text-anchor:end;" transform="rotate(-0.000000, 40.965625, 260.714875)" x="40.965625" y="260.714875">0</text>
     </g>
    </g>
    <g id="ytick_2">
     <g id="line2d_33">
      <path clip-path="url(#pc29f138864)" d="M 44.965625 213.3155 
L 379.765625 213.3155 
" style="fill:none;stroke:#000000;stroke-dasharray:1.000000,3.000000;stroke-dashoffset:0.0;stroke-width:0.5;"/>
     </g>
     <g id="line2d_34">
      <g>
       <use style="stroke:#000000;stroke-width:0.5;" x="44.965625" xlink:href="#m03137b11d0" y="213.3155"/>
      </g>
     </g>
     <g id="line2d_35">
      <g>
       <use style="stroke:#000000;stroke-width:0.5;" x="379.765625" xlink:href="#maf49f19f4c" y="213.3155"/>
      </g>
     </g>
     <g id="text_10">
      <text style="font-family:Bitstream Vera Sans;font-size:10.0px;font-style:normal;font-weight:400;text-anchor:end;" transform="rotate(-0.000000, 40.965625, 216.074875)" x="40.965625" y="216.074875">20</text>
     </g>
    </g>
    <g id="ytick_3">
     <g id="line2d_36">
      <path clip-path="url(#pc29f138864)" d="M 44.965625 168.6755 
L 379.765625 168.6755 
" style="fill:none;stroke:#000000;stroke-dasharray:1.000000,3.000000;stroke-dashoffset:0.0;stroke-width:0.5;"/>
     </g>
     <g id="line2d_37">
      <g>
       <use style="stroke:#000000;stroke-width:0.5;" x="44.965625" xlink:href="#m03137b11d0" y="168.6755"/>
      </g>
     </g>
     <g id="line2d_38">
      <g>
       <use style="stroke:#000000;stroke-width:0.5;" x="379.765625" xlink:href="#maf49f19f4c" y="168.6755"/>
      </g>
     </g>
     <g id="text_11">
      <text style="font-family:Bitstream Vera Sans;font-size:10.0px;font-style:normal;font-weight:400;text-anchor:end;" transform="rotate(-0.000000, 40.965625, 171.434875)" x="40.965625" y="171.434875">40</text>
     </g>
    </g>
    <g id="ytick_4">
     <g id="line2d_39">
      <path clip-path="url(#pc29f138864)" d="M 44.965625 124.0355 
L 379.765625 124.0355 
" style="fill:none;stroke:#000000;stroke-dasharray:1.000000,3.000000;stroke-dashoffset:0.0;stroke-width:0.5;"/>
     </g>
     <g id="line2d_40">
      <g>
       <use style="stroke:#000000;stroke-width:0.5;" x="44.965625" xlink:href="#m03137b11d0" y="124.0355"/>
      </g>
     </g>
     <g id="line2d_41">
      <g>
       <use style="stroke:#000000;stroke-width:0.5;" x="379.765625" xlink:href="#maf49f19f4c" y="124.0355"/>
      </g>
     </g>
     <g id="text_12">
      <text style="font-family:Bitstream Vera Sans;font-size:10.0px;font-style:normal;font-weight:400;text-anchor:end;" transform="rotate(-0.000000, 40.965625, 126.794875)" x="40.965625" y="126.794875">60</text>
     </g>
    </g>
    <g id="ytick_5">
     <g id="line2d_42">
      <path clip-path="url(#pc29f138864)" d="M 44.965625 79.3955 
L 379.765625 79.3955 
" style="fill:none;stroke:#000000;stroke-dasharray:1.000000,3.000000;stroke-dashoffset:0.0;stroke-width:0.5;"/>
     </g>
     <g id="line2d_43">
      <g>
       <use style="stroke:#000000;stroke-width:0.5;" x="44.965625" xlink:href="#m03137b11d0" y="79.3955"/>
      </g>
     </g>
     <g id="line2d_44">
      <g>
       <use style="stroke:#000000;stroke-width:0.5;" x="379.765625" xlink:href="#maf49f19f4c" y="79.3955"/>
      </g>
     </g>
     <g id="text_13">
      <text style="font-family:Bitstream Vera Sans;font-size:10.0px;font-style:normal;font-weight:400;text-anchor:end;" transform="rotate(-0.000000, 40.965625, 82.154875)" x="40.965625" y="82.154875">80</text>
     </g>
    </g>
    <g id="ytick_6">
     <g id="line2d_45">
      <path clip-path="url(#pc29f138864)" d="M 44.965625 34.7555 
L 379.765625 34.7555 
" style="fill:none;stroke:#000000;stroke-dasharray:1.000000,3.000000;stroke-dashoffset:0.0;stroke-width:0.5;"/>
     </g>
     <g id="line2d_46">
      <g>
       <use style="stroke:#000000;stroke-width:0.5;" x="44.965625" xlink:href="#m03137b11d0" y="34.7555"/>
      </g>
     </g>
     <g id="line2d_47">
      <g>
       <use style="stroke:#000000;stroke-width:0.5;" x="379.765625" xlink:href="#maf49f19f4c" y="34.7555"/>
      </g>
     </g>
     <g id="text_14">
      <text style="font-family:Bitstream Vera Sans;font-size:10.0px;font-style:normal;font-weight:400;text-anchor:end;" transform="rotate(-0.000000, 40.965625, 37.514875)" x="40.965625" y="37.514875">100</text>
     </g>
    </g>
    <g id="text_15">
     <text style="font-family:Bitstream Vera Sans;font-size:10.0px;font-style:normal;font-weight:400;text-anchor:middle;" transform="rotate(-90.000000, 14.798438, 146.355500)" x="14.7984375" y="146.3555">Percent of ASOS Precipitation Observations</text>
    </g>
   </g>
   <g id="text_16">
    <text style="font-family:Bitstream Vera Sans;font-size:12.0px;font-style:normal;font-weight:400;" transform="translate(105.8984375 16.318125)">Romeoville/Lewis University (KLOT)</text>
    <text style="font-family:Bitstream Vera Sans;font-size:12.0px;font-style:normal;font-weight:400;" transform="translate(148.6746875 29.7555)">1/1/2006 - 9/30/2013</text>
   </g>
   <g id="legend_1">
    <g id="patch_7">
     <path d="M 50.965625 183.383 
L 189.19625 183.383 
L 189.19625 109.328 
L 50.965625 109.328 
z
" style="fill:#ffffff;stroke:#000000;stroke-linejoin:miter;"/>
    </g>
    <g id="line2d_48">
     <path d="M 59.365625 119.046125 
L 76.165625 119.046125 
" style="fill:none;stroke:#ff0000;stroke-linecap:square;stroke-width:1.5;"/>
    </g>
    <g id="line2d_49"/>
    <g id="text_17">
     <text style="font-family:Bitstream Vera Sans;font-size:12.0px;font-style:normal;font-weight:400;text-anchor:start;" transform="rotate(-0.000000, 89.365625, 123.246125)" x="89.365625" y="123.246125">Rain - ASOS</text>
    </g>
    <g id="line2d_50">
     <path d="M 59.365625 136.659875 
L 76.165625 136.659875 
" style="fill:none;stroke:#0000ff;stroke-linecap:square;stroke-width:1.5;"/>
    </g>
    <g id="line2d_51"/>
    <g id="text_18">
     <text style="font-family:Bitstream Vera Sans;font-size:12.0px;font-style:normal;font-weight:400;text-anchor:start;" transform="rotate(-0.000000, 89.365625, 140.859875)" x="89.365625" y="140.859875">Snow - ASOS</text>
    </g>
    <g id="line2d_52">
     <path d="M 59.365625 154.273625 
L 76.165625 154.273625 
" style="fill:none;stroke:#ff0000;stroke-dasharray:6.000000,6.000000;stroke-dashoffset:0.0;stroke-width:1.5;"/>
    </g>
    <g id="line2d_53"/>
    <g id="text_19">
     <text style="font-family:Bitstream Vera Sans;font-size:12.0px;font-style:normal;font-weight:400;text-anchor:start;" transform="rotate(-0.000000, 89.365625, 158.473625)" x="89.365625" y="158.473625">Rain - Argonne</text>
    </g>
    <g id="line2d_54">
     <path d="M 59.365625 171.887375 
L 76.165625 171.887375 
" style="fill:none;stroke:#0000ff;stroke-dasharray:6.000000,6.000000;stroke-dashoffset:0.0;stroke-width:1.5;"/>
    </g>
    <g id="line2d_55"/>
    <g id="text_20">
     <text style="font-family:Bitstream Vera Sans;font-size:12.0px;font-style:normal;font-weight:400;text-anchor:start;" transform="rotate(-0.000000, 89.365625, 176.087375)" x="89.365625" y="176.087375">Snow - Argonne</text>
    </g>
   </g>
  </g>
 </g>
 <defs>
  <clipPath id="pc29f138864">
   <rect height="223.2" width="334.8" x="44.965625" y="34.7555"/>
  </clipPath>
 </defs>
</svg>
