<?xml version="1.0" encoding="utf-8" standalone="no"?>
<!DOCTYPE svg PUBLIC "-//W3C//DTD SVG 1.1//EN"
  "http://www.w3.org/Graphics/SVG/1.1/DTD/svg11.dtd">
<!-- Created with matplotlib (http://matplotlib.org/) -->
<svg height="293pt" version="1.1" viewBox="0 0 393 293" width="393pt" xmlns="http://www.w3.org/2000/svg" xmlns:xlink="http://www.w3.org/1999/xlink">
 <defs>
  <style type="text/css">
*{stroke-linecap:butt;stroke-linejoin:round;stroke-miterlimit:100000;}
  </style>
 </defs>
 <g id="figure_1">
  <g id="patch_1">
   <path d="M 0 293.533625 
L 393.328125 293.533625 
L 393.328125 0 
L 0 0 
z
" style="fill:#ffffff;"/>
  </g>
  <g id="axes_1">
   <g id="patch_2">
    <path d="M 44.965625 257.9555 
L 379.765625 257.9555 
L 379.765625 34.7555 
L 44.965625 34.7555 
z
" style="fill:#ffffff;"/>
   </g>
   <g id="line2d_1">
    <defs>
     <path d="M 0 3 
C 0.795609 3 1.55874 2.683901 2.12132 2.12132 
C 2.683901 1.55874 3 0.795609 3 0 
C 3 -0.795609 2.683901 -1.55874 2.12132 -2.12132 
C 1.55874 -2.683901 0.795609 -3 0 -3 
C -0.795609 -3 -1.55874 -2.683901 -2.12132 -2.12132 
C -2.683901 -1.55874 -3 -0.795609 -3 0 
C -3 0.795609 -2.683901 1.55874 -2.12132 2.12132 
C -1.55874 2.683901 -0.795609 3 0 3 
z
" id="m39c40fc032" style="stroke:#000000;stroke-width:0.5;"/>
    </defs>
    <g clip-path="url(#pd2af251bc1)">
     <use style="fill:#ff0000;stroke:#000000;stroke-width:0.5;" x="-264.724375" xlink:href="#m39c40fc032" y="257.9555"/>
     <use style="fill:#ff0000;stroke:#000000;stroke-width:0.5;" x="-1.0" xlink:href="#m39c40fc032" y="257.9555"/>
     <use style="fill:#ff0000;stroke:#000000;stroke-width:0.5;" x="14.275625" xlink:href="#m39c40fc032" y="257.9555"/>
     <use style="fill:#ff0000;stroke:#000000;stroke-width:0.5;" x="70.075625" xlink:href="#m39c40fc032" y="257.9555"/>
     <use style="fill:#ff0000;stroke:#000000;stroke-width:0.5;" x="125.875625" xlink:href="#m39c40fc032" y="257.2859"/>
     <use style="fill:#ff0000;stroke:#000000;stroke-width:0.5;" x="181.675625" xlink:href="#m39c40fc032" y="252.1523"/>
     <use style="fill:#ff0000;stroke:#000000;stroke-width:0.5;" x="237.475625" xlink:href="#m39c40fc032" y="226.0379"/>
     <use style="fill:#ff0000;stroke:#000000;stroke-width:0.5;" x="293.275625" xlink:href="#m39c40fc032" y="149.4803"/>
     <use style="fill:#ff0000;stroke:#000000;stroke-width:0.5;" x="349.075625" xlink:href="#m39c40fc032" y="65.5571"/>
     <use style="fill:#ff0000;stroke:#000000;stroke-width:0.5;" x="404.875625" xlink:href="#m39c40fc032" y="45.9155"/>
    </g>
   </g>
   <g id="line2d_2">
    <path clip-path="url(#pd2af251bc1)" d="M -264.724375 253.585426 
M -1 255.866961 
L 8.581747 257.508583 
L 22.247054 259.973282 
L 35.91236 262.423443 
L 49.577666 264.712953 
L 63.242972 266.690691 
L 76.908278 268.203631 
L 90.573584 269.099959 
L 104.23889 269.23218 
L 117.904196 268.46023 
L 131.569503 266.654584 
L 145.234809 263.699371 
L 158.900115 259.49548 
L 172.565421 253.963672 
L 186.230727 247.047692 
L 199.896033 238.717378 
L 213.561339 228.971771 
L 227.226645 217.842227 
L 240.891952 205.395528 
L 254.557258 191.736989 
L 268.222564 177.013572 
L 281.88787 161.416995 
L 295.553176 145.186844 
L 309.218482 128.613681 
L 322.883788 112.042155 
L 336.549094 95.874117 
L 350.214401 80.571722 
L 363.879707 66.660548 
L 377.545013 54.732701 
L 391.210319 45.449927 
L 394.328125 44.103083 
" style="fill:none;stroke:#ff0000;stroke-linecap:square;stroke-width:1.5;"/>
   </g>
   <g id="line2d_3">
    <defs>
     <path d="M 0 3 
C 0.795609 3 1.55874 2.683901 2.12132 2.12132 
C 2.683901 1.55874 3 0.795609 3 0 
C 3 -0.795609 2.683901 -1.55874 2.12132 -2.12132 
C 1.55874 -2.683901 0.795609 -3 0 -3 
C -0.795609 -3 -1.55874 -2.683901 -2.12132 -2.12132 
C -2.683901 -1.55874 -3 -0.795609 -3 0 
C -3 0.795609 -2.683901 1.55874 -2.12132 2.12132 
C -1.55874 2.683901 -0.795609 3 0 3 
z
" id="m39754f6788" style="stroke:#000000;stroke-width:0.5;"/>
    </defs>
    <g clip-path="url(#pd2af251bc1)">
     <use style="fill:#0000ff;stroke:#000000;stroke-width:0.5;" x="-264.724375" xlink:href="#m39754f6788" y="34.7555"/>
     <use style="fill:#0000ff;stroke:#000000;stroke-width:0.5;" x="-1.0" xlink:href="#m39754f6788" y="34.7555"/>
     <use style="fill:#0000ff;stroke:#000000;stroke-width:0.5;" x="14.275625" xlink:href="#m39754f6788" y="34.7555"/>
     <use style="fill:#0000ff;stroke:#000000;stroke-width:0.5;" x="70.075625" xlink:href="#m39754f6788" y="34.7555"/>
     <use style="fill:#0000ff;stroke:#000000;stroke-width:0.5;" x="125.875625" xlink:href="#m39754f6788" y="35.4251"/>
     <use style="fill:#0000ff;stroke:#000000;stroke-width:0.5;" x="181.675625" xlink:href="#m39754f6788" y="40.5587"/>
     <use style="fill:#0000ff;stroke:#000000;stroke-width:0.5;" x="237.475625" xlink:href="#m39754f6788" y="66.6731"/>
     <use style="fill:#0000ff;stroke:#000000;stroke-width:0.5;" x="293.275625" xlink:href="#m39754f6788" y="143.2307"/>
     <use style="fill:#0000ff;stroke:#000000;stroke-width:0.5;" x="349.075625" xlink:href="#m39754f6788" y="227.1539"/>
     <use style="fill:#0000ff;stroke:#000000;stroke-width:0.5;" x="404.875625" xlink:href="#m39754f6788" y="246.7955"/>
    </g>
   </g>
   <g id="line2d_4">
    <path clip-path="url(#pd2af251bc1)" d="M -264.724375 39.125574 
M -1 36.844039 
L 8.581747 35.202417 
L 22.247054 32.737718 
L 35.91236 30.287557 
L 49.577666 27.998047 
L 63.242972 26.020309 
L 76.908278 24.507369 
L 90.573584 23.611041 
L 104.23889 23.47882 
L 117.904196 24.25077 
L 131.569503 26.056416 
L 145.234809 29.011629 
L 158.900115 33.21552 
L 172.565421 38.747328 
L 186.230727 45.663308 
L 199.896033 53.993622 
L 213.561339 63.739229 
L 227.226645 74.868773 
L 240.891952 87.315472 
L 254.557258 100.974011 
L 268.222564 115.697428 
L 281.88787 131.294005 
L 295.553176 147.524156 
L 309.218482 164.097319 
L 322.883788 180.668845 
L 336.549094 196.836883 
L 350.214401 212.139278 
L 363.879707 226.050452 
L 377.545013 237.978299 
L 391.210319 247.261073 
L 394.328125 248.607917 
" style="fill:none;stroke:#0000ff;stroke-linecap:square;stroke-width:1.5;"/>
   </g>
   <g id="line2d_5">
    <defs>
     <path d="M 0 3 
C 0.795609 3 1.55874 2.683901 2.12132 2.12132 
C 2.683901 1.55874 3 0.795609 3 0 
C 3 -0.795609 2.683901 -1.55874 2.12132 -2.12132 
C 1.55874 -2.683901 0.795609 -3 0 -3 
C -0.795609 -3 -1.55874 -2.683901 -2.12132 -2.12132 
C -2.683901 -1.55874 -3 -0.795609 -3 0 
C -3 0.795609 -2.683901 1.55874 -2.12132 2.12132 
C -1.55874 2.683901 -0.795609 3 0 3 
z
" id="mc1c3dab9ca" style="stroke:#ff0000;stroke-width:0.5;"/>
    </defs>
    <g clip-path="url(#pd2af251bc1)">
     <use style="fill:none;stroke:#ff0000;stroke-width:0.5;" x="-278.674375" xlink:href="#mc1c3dab9ca" y="248.8043"/>
     <use style="fill:none;stroke:#ff0000;stroke-width:0.5;" x="-1.0" xlink:href="#mc1c3dab9ca" y="240.83174"/>
     <use style="fill:none;stroke:#ff0000;stroke-width:0.5;" x="0.325625" xlink:href="#mc1c3dab9ca" y="240.3227"/>
     <use style="fill:none;stroke:#ff0000;stroke-width:0.5;" x="28.225625" xlink:href="#mc1c3dab9ca" y="238.5371"/>
     <use style="fill:none;stroke:#ff0000;stroke-width:0.5;" x="56.125625" xlink:href="#mc1c3dab9ca" y="243.0011"/>
     <use style="fill:none;stroke:#ff0000;stroke-width:0.5;" x="84.025625" xlink:href="#mc1c3dab9ca" y="230.2787"/>
     <use style="fill:none;stroke:#ff0000;stroke-width:0.5;" x="111.925625" xlink:href="#mc1c3dab9ca" y="235.4123"/>
     <use style="fill:none;stroke:#ff0000;stroke-width:0.5;" x="139.825625" xlink:href="#mc1c3dab9ca" y="242.3315"/>
     <use style="fill:none;stroke:#ff0000;stroke-width:0.5;" x="167.725625" xlink:href="#mc1c3dab9ca" y="218.4491"/>
     <use style="fill:none;stroke:#ff0000;stroke-width:0.5;" x="195.625625" xlink:href="#mc1c3dab9ca" y="199.0307"/>
     <use style="fill:none;stroke:#ff0000;stroke-width:0.5;" x="223.525625" xlink:href="#mc1c3dab9ca" y="200.8163"/>
     <use style="fill:none;stroke:#ff0000;stroke-width:0.5;" x="251.425625" xlink:href="#mc1c3dab9ca" y="159.5243"/>
     <use style="fill:none;stroke:#ff0000;stroke-width:0.5;" x="279.325625" xlink:href="#mc1c3dab9ca" y="158.4083"/>
     <use style="fill:none;stroke:#ff0000;stroke-width:0.5;" x="307.225625" xlink:href="#mc1c3dab9ca" y="98.5907"/>
     <use style="fill:none;stroke:#ff0000;stroke-width:0.5;" x="335.125625" xlink:href="#mc1c3dab9ca" y="124.7051"/>
     <use style="fill:none;stroke:#ff0000;stroke-width:0.5;" x="363.025625" xlink:href="#mc1c3dab9ca" y="99.2603"/>
     <use style="fill:none;stroke:#ff0000;stroke-width:0.5;" x="390.925625" xlink:href="#mc1c3dab9ca" y="84.7523"/>
     <use style="fill:none;stroke:#ff0000;stroke-width:0.5;" x="418.825625" xlink:href="#mc1c3dab9ca" y="67.3427"/>
    </g>
   </g>
   <g id="line2d_6">
    <path clip-path="url(#pd2af251bc1)" d="M -278.674375 249.158868 
M -1 243.577337 
L 6.019503 243.489194 
L 20.254196 243.2253 
L 34.48889 242.801882 
L 48.723584 242.141713 
L 62.958278 241.166493 
L 77.192972 239.798622 
L 91.427666 237.962979 
L 105.66236 235.588697 
L 119.897054 232.610938 
L 134.131747 228.972675 
L 148.366441 224.626463 
L 162.601135 219.536219 
L 176.835829 213.678998 
L 191.070523 207.046768 
L 205.305217 199.648187 
L 219.539911 191.510383 
L 233.774605 182.680726 
L 248.009298 173.228607 
L 262.243992 163.247214 
L 276.478686 152.855309 
L 290.71338 142.199005 
L 304.948074 131.453542 
L 319.182768 120.825062 
L 333.417462 110.552388 
L 347.652156 100.908802 
L 361.886849 92.203816 
L 376.121543 84.784954 
L 390.356237 79.039528 
L 394.328125 78.022993 
" style="fill:none;stroke:#ff0000;stroke-dasharray:6.000000,6.000000;stroke-dashoffset:0.0;stroke-width:1.5;"/>
   </g>
   <g id="line2d_7">
    <defs>
     <path d="M 0 3 
C 0.795609 3 1.55874 2.683901 2.12132 2.12132 
C 2.683901 1.55874 3 0.795609 3 0 
C 3 -0.795609 2.683901 -1.55874 2.12132 -2.12132 
C 1.55874 -2.683901 0.795609 -3 0 -3 
C -0.795609 -3 -1.55874 -2.683901 -2.12132 -2.12132 
C -2.683901 -1.55874 -3 -0.795609 -3 0 
C -3 0.795609 -2.683901 1.55874 -2.12132 2.12132 
C -1.55874 2.683901 -0.795609 3 0 3 
z
" id="mf0d05032d5" style="stroke:#0000ff;stroke-width:0.5;"/>
    </defs>
    <g clip-path="url(#pd2af251bc1)">
     <use style="fill:none;stroke:#0000ff;stroke-width:0.5;" x="-278.674375" xlink:href="#mf0d05032d5" y="43.9067"/>
     <use style="fill:none;stroke:#0000ff;stroke-width:0.5;" x="-1.0" xlink:href="#mf0d05032d5" y="51.87926"/>
     <use style="fill:none;stroke:#0000ff;stroke-width:0.5;" x="0.325625" xlink:href="#mf0d05032d5" y="52.3883"/>
     <use style="fill:none;stroke:#0000ff;stroke-width:0.5;" x="28.225625" xlink:href="#mf0d05032d5" y="54.1739"/>
     <use style="fill:none;stroke:#0000ff;stroke-width:0.5;" x="56.125625" xlink:href="#mf0d05032d5" y="49.7099"/>
     <use style="fill:none;stroke:#0000ff;stroke-width:0.5;" x="84.025625" xlink:href="#mf0d05032d5" y="62.4323"/>
     <use style="fill:none;stroke:#0000ff;stroke-width:0.5;" x="111.925625" xlink:href="#mf0d05032d5" y="57.2987"/>
     <use style="fill:none;stroke:#0000ff;stroke-width:0.5;" x="139.825625" xlink:href="#mf0d05032d5" y="50.3795"/>
     <use style="fill:none;stroke:#0000ff;stroke-width:0.5;" x="167.725625" xlink:href="#mf0d05032d5" y="74.2619"/>
     <use style="fill:none;stroke:#0000ff;stroke-width:0.5;" x="195.625625" xlink:href="#mf0d05032d5" y="93.6803"/>
     <use style="fill:none;stroke:#0000ff;stroke-width:0.5;" x="223.525625" xlink:href="#mf0d05032d5" y="91.8947"/>
     <use style="fill:none;stroke:#0000ff;stroke-width:0.5;" x="251.425625" xlink:href="#mf0d05032d5" y="133.1867"/>
     <use style="fill:none;stroke:#0000ff;stroke-width:0.5;" x="279.325625" xlink:href="#mf0d05032d5" y="134.3027"/>
     <use style="fill:none;stroke:#0000ff;stroke-width:0.5;" x="307.225625" xlink:href="#mf0d05032d5" y="194.1203"/>
     <use style="fill:none;stroke:#0000ff;stroke-width:0.5;" x="335.125625" xlink:href="#mf0d05032d5" y="168.0059"/>
     <use style="fill:none;stroke:#0000ff;stroke-width:0.5;" x="363.025625" xlink:href="#mf0d05032d5" y="193.4507"/>
     <use style="fill:none;stroke:#0000ff;stroke-width:0.5;" x="390.925625" xlink:href="#mf0d05032d5" y="207.9587"/>
     <use style="fill:none;stroke:#0000ff;stroke-width:0.5;" x="418.825625" xlink:href="#mf0d05032d5" y="225.3683"/>
    </g>
   </g>
   <g id="line2d_8">
    <path clip-path="url(#pd2af251bc1)" d="M -278.674375 43.552132 
M -1 49.133663 
L 6.019503 49.221806 
L 20.254196 49.4857 
L 34.48889 49.909118 
L 48.723584 50.569287 
L 62.958278 51.544507 
L 77.192972 52.912378 
L 91.427666 54.748021 
L 105.66236 57.122303 
L 119.897054 60.100062 
L 134.131747 63.738325 
L 148.366441 68.084537 
L 162.601135 73.174781 
L 176.835829 79.032002 
L 191.070523 85.664232 
L 205.305217 93.062813 
L 219.539911 101.200617 
L 233.774605 110.030274 
L 248.009298 119.482393 
L 262.243992 129.463786 
L 276.478686 139.855691 
L 290.71338 150.511995 
L 304.948074 161.257458 
L 319.182768 171.885938 
L 333.417462 182.158612 
L 347.652156 191.802198 
L 361.886849 200.507184 
L 376.121543 207.926046 
L 390.356237 213.671472 
L 394.328125 214.688007 
" style="fill:none;stroke:#0000ff;stroke-dasharray:6.000000,6.000000;stroke-dashoffset:0.0;stroke-width:1.5;"/>
   </g>
   <g id="patch_3">
    <path d="M 44.965625 34.7555 
L 379.765625 34.7555 
" style="fill:none;stroke:#000000;stroke-linecap:square;stroke-linejoin:miter;"/>
   </g>
   <g id="patch_4">
    <path d="M 379.765625 257.9555 
L 379.765625 34.7555 
" style="fill:none;stroke:#000000;stroke-linecap:square;stroke-linejoin:miter;"/>
   </g>
   <g id="patch_5">
    <path d="M 44.965625 257.9555 
L 379.765625 257.9555 
" style="fill:none;stroke:#000000;stroke-linecap:square;stroke-linejoin:miter;"/>
   </g>
   <g id="patch_6">
    <path d="M 44.965625 257.9555 
L 44.965625 34.7555 
" style="fill:none;stroke:#000000;stroke-linecap:square;stroke-linejoin:miter;"/>
   </g>
   <g id="matplotlib.axis_1">
    <g id="xtick_1">
     <g id="line2d_9">
      <path clip-path="url(#pd2af251bc1)" d="M 44.965625 257.9555 
L 44.965625 34.7555 
" style="fill:none;stroke:#000000;stroke-dasharray:1.000000,3.000000;stroke-dashoffset:0.0;stroke-width:0.5;"/>
     </g>
     <g id="line2d_10">
      <defs>
       <path d="M 0 0 
L 0 -4 
" id="mfffa6312ec" style="stroke:#000000;stroke-width:0.5;"/>
      </defs>
      <g>
       <use style="stroke:#000000;stroke-width:0.5;" x="44.965625" xlink:href="#mfffa6312ec" y="257.9555"/>
      </g>
     </g>
     <g id="line2d_11">
      <defs>
       <path d="M 0 0 
L 0 4 
" id="m57a4d6846c" style="stroke:#000000;stroke-width:0.5;"/>
      </defs>
      <g>
       <use style="stroke:#000000;stroke-width:0.5;" x="44.965625" xlink:href="#m57a4d6846c" y="34.7555"/>
      </g>
     </g>
     <g id="text_1">
      <text style="font-family:Bitstream Vera Sans;font-size:10.0px;font-style:normal;font-weight:400;text-anchor:middle;" transform="rotate(-0.000000, 44.965625, 269.553937)" x="44.965625" y="269.5539375">29</text>
     </g>
    </g>
    <g id="xtick_2">
     <g id="line2d_12">
      <path clip-path="url(#pd2af251bc1)" d="M 100.765625 257.9555 
L 100.765625 34.7555 
" style="fill:none;stroke:#000000;stroke-dasharray:1.000000,3.000000;stroke-dashoffset:0.0;stroke-width:0.5;"/>
     </g>
     <g id="line2d_13">
      <g>
       <use style="stroke:#000000;stroke-width:0.5;" x="100.765625" xlink:href="#mfffa6312ec" y="257.9555"/>
      </g>
     </g>
     <g id="line2d_14">
      <g>
       <use style="stroke:#000000;stroke-width:0.5;" x="100.765625" xlink:href="#m57a4d6846c" y="34.7555"/>
      </g>
     </g>
     <g id="text_2">
      <text style="font-family:Bitstream Vera Sans;font-size:10.0px;font-style:normal;font-weight:400;text-anchor:middle;" transform="rotate(-0.000000, 100.765625, 269.553937)" x="100.765625" y="269.5539375">30</text>
     </g>
    </g>
    <g id="xtick_3">
     <g id="line2d_15">
      <path clip-path="url(#pd2af251bc1)" d="M 156.565625 257.9555 
L 156.565625 34.7555 
" style="fill:none;stroke:#000000;stroke-dasharray:1.000000,3.000000;stroke-dashoffset:0.0;stroke-width:0.5;"/>
     </g>
     <g id="line2d_16">
      <g>
       <use style="stroke:#000000;stroke-width:0.5;" x="156.565625" xlink:href="#mfffa6312ec" y="257.9555"/>
      </g>
     </g>
     <g id="line2d_17">
      <g>
       <use style="stroke:#000000;stroke-width:0.5;" x="156.565625" xlink:href="#m57a4d6846c" y="34.7555"/>
      </g>
     </g>
     <g id="text_3">
      <text style="font-family:Bitstream Vera Sans;font-size:10.0px;font-style:normal;font-weight:400;text-anchor:middle;" transform="rotate(-0.000000, 156.565625, 269.553937)" x="156.565625" y="269.5539375">31</text>
     </g>
    </g>
    <g id="xtick_4">
     <g id="line2d_18">
      <path clip-path="url(#pd2af251bc1)" d="M 212.365625 257.9555 
L 212.365625 34.7555 
" style="fill:none;stroke:#000000;stroke-dasharray:1.000000,3.000000;stroke-dashoffset:0.0;stroke-width:0.5;"/>
     </g>
     <g id="line2d_19">
      <g>
       <use style="stroke:#000000;stroke-width:0.5;" x="212.365625" xlink:href="#mfffa6312ec" y="257.9555"/>
      </g>
     </g>
     <g id="line2d_20">
      <g>
       <use style="stroke:#000000;stroke-width:0.5;" x="212.365625" xlink:href="#m57a4d6846c" y="34.7555"/>
      </g>
     </g>
     <g id="text_4">
      <text style="font-family:Bitstream Vera Sans;font-size:10.0px;font-style:normal;font-weight:400;text-anchor:middle;" transform="rotate(-0.000000, 212.365625, 269.553937)" x="212.365625" y="269.5539375">32</text>
     </g>
    </g>
    <g id="xtick_5">
     <g id="line2d_21">
      <path clip-path="url(#pd2af251bc1)" d="M 268.165625 257.9555 
L 268.165625 34.7555 
" style="fill:none;stroke:#000000;stroke-dasharray:1.000000,3.000000;stroke-dashoffset:0.0;stroke-width:0.5;"/>
     </g>
     <g id="line2d_22">
      <g>
       <use style="stroke:#000000;stroke-width:0.5;" x="268.165625" xlink:href="#mfffa6312ec" y="257.9555"/>
      </g>
     </g>
     <g id="line2d_23">
      <g>
       <use style="stroke:#000000;stroke-width:0.5;" x="268.165625" xlink:href="#m57a4d6846c" y="34.7555"/>
      </g>
     </g>
     <g id="text_5">
      <text style="font-family:Bitstream Vera Sans;font-size:10.0px;font-style:normal;font-weight:400;text-anchor:middle;" transform="rotate(-0.000000, 268.165625, 269.553937)" x="268.165625" y="269.5539375">33</text>
     </g>
    </g>
    <g id="xtick_6">
     <g id="line2d_24">
      <path clip-path="url(#pd2af251bc1)" d="M 323.965625 257.9555 
L 323.965625 34.7555 
" style="fill:none;stroke:#000000;stroke-dasharray:1.000000,3.000000;stroke-dashoffset:0.0;stroke-width:0.5;"/>
     </g>
     <g id="line2d_25">
      <g>
       <use style="stroke:#000000;stroke-width:0.5;" x="323.965625" xlink:href="#mfffa6312ec" y="257.9555"/>
      </g>
     </g>
     <g id="line2d_26">
      <g>
       <use style="stroke:#000000;stroke-width:0.5;" x="323.965625" xlink:href="#m57a4d6846c" y="34.7555"/>
      </g>
     </g>
     <g id="text_6">
      <text style="font-family:Bitstream Vera Sans;font-size:10.0px;font-style:normal;font-weight:400;text-anchor:middle;" transform="rotate(-0.000000, 323.965625, 269.553937)" x="323.965625" y="269.5539375">34</text>
     </g>
    </g>
    <g id="xtick_7">
     <g id="line2d_27">
      <path clip-path="url(#pd2af251bc1)" d="M 379.765625 257.9555 
L 379.765625 34.7555 
" style="fill:none;stroke:#000000;stroke-dasharray:1.000000,3.000000;stroke-dashoffset:0.0;stroke-width:0.5;"/>
     </g>
     <g id="line2d_28">
      <g>
       <use style="stroke:#000000;stroke-width:0.5;" x="379.765625" xlink:href="#mfffa6312ec" y="257.9555"/>
      </g>
     </g>
     <g id="line2d_29">
      <g>
       <use style="stroke:#000000;stroke-width:0.5;" x="379.765625" xlink:href="#m57a4d6846c" y="34.7555"/>
      </g>
     </g>
     <g id="text_7">
      <text style="font-family:Bitstream Vera Sans;font-size:10.0px;font-style:normal;font-weight:400;text-anchor:middle;" transform="rotate(-0.000000, 379.765625, 269.553937)" x="379.765625" y="269.5539375">35</text>
     </g>
    </g>
    <g id="text_8">
     <!-- Temperature ($^o$F) -->
     <g transform="translate(169.115625 284.233625)">
      <text>
       <tspan style="font-family:cmmi10;font-size:7.0px;font-style:regular;font-weight:regular;" x="72.7901640625" y="-4.23265625">o</tspan>
       <tspan style="font-family:Bitstream Vera Sans;font-size:10.0px;font-style:roman;font-weight:roman;" x="0.0 6.1083984375 12.2607421875 22.001953125 28.349609375 34.501953125 38.61328125 44.7412109375 48.662109375 55.0 59.111328125 65.263671875 68.4423828125 76.8151054688 82.5670585938" y="-0.40625">Temperature (F)</tspan>
      </text>
     </g>
    </g>
   </g>
   <g id="matplotlib.axis_2">
    <g id="ytick_1">
     <g id="line2d_30">
      <path clip-path="url(#pd2af251bc1)" d="M 44.965625 257.9555 
L 379.765625 257.9555 
" style="fill:none;stroke:#000000;stroke-dasharray:1.000000,3.000000;stroke-dashoffset:0.0;stroke-width:0.5;"/>
     </g>
     <g id="line2d_31">
      <defs>
       <path d="M 0 0 
L 4 0 
" id="m794f3417c2" style="stroke:#000000;stroke-width:0.5;"/>
      </defs>
      <g>
       <use style="stroke:#000000;stroke-width:0.5;" x="44.965625" xlink:href="#m794f3417c2" y="257.9555"/>
      </g>
     </g>
     <g id="line2d_32">
      <defs>
       <path d="M 0 0 
L -4 0 
" id="mc05f45294d" style="stroke:#000000;stroke-width:0.5;"/>
      </defs>
      <g>
       <use style="stroke:#000000;stroke-width:0.5;" x="379.765625" xlink:href="#mc05f45294d" y="257.9555"/>
      </g>
     </g>
     <g id="text_9">
      <text style="font-family:Bitstream Vera Sans;font-size:10.0px;font-style:normal;font-weight:400;text-anchor:end;" transform="rotate(-0.000000, 40.965625, 260.714875)" x="40.965625" y="260.714875">0</text>
     </g>
    </g>
    <g id="ytick_2">
     <g id="line2d_33">
      <path clip-path="url(#pd2af251bc1)" d="M 44.965625 213.3155 
L 379.765625 213.3155 
" style="fill:none;stroke:#000000;stroke-dasharray:1.000000,3.000000;stroke-dashoffset:0.0;stroke-width:0.5;"/>
     </g>
     <g id="line2d_34">
      <g>
       <use style="stroke:#000000;stroke-width:0.5;" x="44.965625" xlink:href="#m794f3417c2" y="213.3155"/>
      </g>
     </g>
     <g id="line2d_35">
      <g>
       <use style="stroke:#000000;stroke-width:0.5;" x="379.765625" xlink:href="#mc05f45294d" y="213.3155"/>
      </g>
     </g>
     <g id="text_10">
      <text style="font-family:Bitstream Vera Sans;font-size:10.0px;font-style:normal;font-weight:400;text-anchor:end;" transform="rotate(-0.000000, 40.965625, 216.074875)" x="40.965625" y="216.074875">20</text>
     </g>
    </g>
    <g id="ytick_3">
     <g id="line2d_36">
      <path clip-path="url(#pd2af251bc1)" d="M 44.965625 168.6755 
L 379.765625 168.6755 
" style="fill:none;stroke:#000000;stroke-dasharray:1.000000,3.000000;stroke-dashoffset:0.0;stroke-width:0.5;"/>
     </g>
     <g id="line2d_37">
      <g>
       <use style="stroke:#000000;stroke-width:0.5;" x="44.965625" xlink:href="#m794f3417c2" y="168.6755"/>
      </g>
     </g>
     <g id="line2d_38">
      <g>
       <use style="stroke:#000000;stroke-width:0.5;" x="379.765625" xlink:href="#mc05f45294d" y="168.6755"/>
      </g>
     </g>
     <g id="text_11">
      <text style="font-family:Bitstream Vera Sans;font-size:10.0px;font-style:normal;font-weight:400;text-anchor:end;" transform="rotate(-0.000000, 40.965625, 171.434875)" x="40.965625" y="171.434875">40</text>
     </g>
    </g>
    <g id="ytick_4">
     <g id="line2d_39">
      <path clip-path="url(#pd2af251bc1)" d="M 44.965625 124.0355 
L 379.765625 124.0355 
" style="fill:none;stroke:#000000;stroke-dasharray:1.000000,3.000000;stroke-dashoffset:0.0;stroke-width:0.5;"/>
     </g>
     <g id="line2d_40">
      <g>
       <use style="stroke:#000000;stroke-width:0.5;" x="44.965625" xlink:href="#m794f3417c2" y="124.0355"/>
      </g>
     </g>
     <g id="line2d_41">
      <g>
       <use style="stroke:#000000;stroke-width:0.5;" x="379.765625" xlink:href="#mc05f45294d" y="124.0355"/>
      </g>
     </g>
     <g id="text_12">
      <text style="font-family:Bitstream Vera Sans;font-size:10.0px;font-style:normal;font-weight:400;text-anchor:end;" transform="rotate(-0.000000, 40.965625, 126.794875)" x="40.965625" y="126.794875">60</text>
     </g>
    </g>
    <g id="ytick_5">
     <g id="line2d_42">
      <path clip-path="url(#pd2af251bc1)" d="M 44.965625 79.3955 
L 379.765625 79.3955 
" style="fill:none;stroke:#000000;stroke-dasharray:1.000000,3.000000;stroke-dashoffset:0.0;stroke-width:0.5;"/>
     </g>
     <g id="line2d_43">
      <g>
       <use style="stroke:#000000;stroke-width:0.5;" x="44.965625" xlink:href="#m794f3417c2" y="79.3955"/>
      </g>
     </g>
     <g id="line2d_44">
      <g>
       <use style="stroke:#000000;stroke-width:0.5;" x="379.765625" xlink:href="#mc05f45294d" y="79.3955"/>
      </g>
     </g>
     <g id="text_13">
      <text style="font-family:Bitstream Vera Sans;font-size:10.0px;font-style:normal;font-weight:400;text-anchor:end;" transform="rotate(-0.000000, 40.965625, 82.154875)" x="40.965625" y="82.154875">80</text>
     </g>
    </g>
    <g id="ytick_6">
     <g id="line2d_45">
      <path clip-path="url(#pd2af251bc1)" d="M 44.965625 34.7555 
L 379.765625 34.7555 
" style="fill:none;stroke:#000000;stroke-dasharray:1.000000,3.000000;stroke-dashoffset:0.0;stroke-width:0.5;"/>
     </g>
     <g id="line2d_46">
      <g>
       <use style="stroke:#000000;stroke-width:0.5;" x="44.965625" xlink:href="#m794f3417c2" y="34.7555"/>
      </g>
     </g>
     <g id="line2d_47">
      <g>
       <use style="stroke:#000000;stroke-width:0.5;" x="379.765625" xlink:href="#mc05f45294d" y="34.7555"/>
      </g>
     </g>
     <g id="text_14">
      <text style="font-family:Bitstream Vera Sans;font-size:10.0px;font-style:normal;font-weight:400;text-anchor:end;" transform="rotate(-0.000000, 40.965625, 37.514875)" x="40.965625" y="37.514875">100</text>
     </g>
    </g>
    <g id="text_15">
     <text style="font-family:Bitstream Vera Sans;font-size:10.0px;font-style:normal;font-weight:400;text-anchor:middle;" transform="rotate(-90.000000, 14.798438, 146.355500)" x="14.7984375" y="146.3555">Percent of ASOS Precipitation Observations</text>
    </g>
   </g>
   <g id="text_16">
    <text style="font-family:Bitstream Vera Sans;font-size:12.0px;font-style:normal;font-weight:400;" transform="translate(141.5946875 16.318125)">Chicago O'Hare (KORD)</text>
    <text style="font-family:Bitstream Vera Sans;font-size:12.0px;font-style:normal;font-weight:400;" transform="translate(148.6746875 29.7555)">1/1/2006 - 9/30/2013</text>
   </g>
   <g id="legend_1">
    <g id="patch_7">
     <path d="M 50.965625 183.383 
L 189.19625 183.383 
L 189.19625 109.328 
L 50.965625 109.328 
z
" style="fill:#ffffff;stroke:#000000;stroke-linejoin:miter;"/>
    </g>
    <g id="line2d_48">
     <path d="M 59.365625 119.046125 
L 76.165625 119.046125 
" style="fill:none;stroke:#ff0000;stroke-linecap:square;stroke-width:1.5;"/>
    </g>
    <g id="line2d_49"/>
    <g id="text_17">
     <text style="font-family:Bitstream Vera Sans;font-size:12.0px;font-style:normal;font-weight:400;text-anchor:start;" transform="rotate(-0.000000, 89.365625, 123.246125)" x="89.365625" y="123.246125">Rain - ASOS</text>
    </g>
    <g id="line2d_50">
     <path d="M 59.365625 136.659875 
L 76.165625 136.659875 
" style="fill:none;stroke:#0000ff;stroke-linecap:square;stroke-width:1.5;"/>
    </g>
    <g id="line2d_51"/>
    <g id="text_18">
     <text style="font-family:Bitstream Vera Sans;font-size:12.0px;font-style:normal;font-weight:400;text-anchor:start;" transform="rotate(-0.000000, 89.365625, 140.859875)" x="89.365625" y="140.859875">Snow - ASOS</text>
    </g>
    <g id="line2d_52">
     <path d="M 59.365625 154.273625 
L 76.165625 154.273625 
" style="fill:none;stroke:#ff0000;stroke-dasharray:6.000000,6.000000;stroke-dashoffset:0.0;stroke-width:1.5;"/>
    </g>
    <g id="line2d_53"/>
    <g id="text_19">
     <text style="font-family:Bitstream Vera Sans;font-size:12.0px;font-style:normal;font-weight:400;text-anchor:start;" transform="rotate(-0.000000, 89.365625, 158.473625)" x="89.365625" y="158.473625">Rain - Argonne</text>
    </g>
    <g id="line2d_54">
     <path d="M 59.365625 171.887375 
L 76.165625 171.887375 
" style="fill:none;stroke:#0000ff;stroke-dasharray:6.000000,6.000000;stroke-dashoffset:0.0;stroke-width:1.5;"/>
    </g>
    <g id="line2d_55"/>
    <g id="text_20">
     <text style="font-family:Bitstream Vera Sans;font-size:12.0px;font-style:normal;font-weight:400;text-anchor:start;" transform="rotate(-0.000000, 89.365625, 176.087375)" x="89.365625" y="176.087375">Snow - Argonne</text>
    </g>
   </g>
  </g>
 </g>
 <defs>
  <clipPath id="pd2af251bc1">
   <rect height="223.2" width="334.8" x="44.965625" y="34.7555"/>
  </clipPath>
 </defs>
</svg>
