<?xml version="1.0" encoding="utf-8" standalone="no"?>
<!DOCTYPE svg PUBLIC "-//W3C//DTD SVG 1.1//EN"
  "http://www.w3.org/Graphics/SVG/1.1/DTD/svg11.dtd">
<!-- Created with matplotlib (http://matplotlib.org/) -->
<svg height="293pt" version="1.1" viewBox="0 0 393 293" width="393pt" xmlns="http://www.w3.org/2000/svg" xmlns:xlink="http://www.w3.org/1999/xlink">
 <defs>
  <style type="text/css">
*{stroke-linecap:butt;stroke-linejoin:round;stroke-miterlimit:100000;}
  </style>
 </defs>
 <g id="figure_1">
  <g id="patch_1">
   <path d="M 0 293.533625 
L 393.328125 293.533625 
L 393.328125 0 
L 0 0 
z
" style="fill:#ffffff;"/>
  </g>
  <g id="axes_1">
   <g id="patch_2">
    <path d="M 44.965625 257.9555 
L 379.765625 257.9555 
L 379.765625 34.7555 
L 44.965625 34.7555 
z
" style="fill:#ffffff;"/>
   </g>
   <g id="line2d_1">
    <defs>
     <path d="M 0 3 
C 0.795609 3 1.55874 2.683901 2.12132 2.12132 
C 2.683901 1.55874 3 0.795609 3 0 
C 3 -0.795609 2.683901 -1.55874 2.12132 -2.12132 
C 1.55874 -2.683901 0.795609 -3 0 -3 
C -0.795609 -3 -1.55874 -2.683901 -2.12132 -2.12132 
C -2.683901 -1.55874 -3 -0.795609 -3 0 
C -3 0.795609 -2.683901 1.55874 -2.12132 2.12132 
C -1.55874 2.683901 -0.795609 3 0 3 
z
" id="m1a72131e22" style="stroke:#000000;stroke-width:0.5;"/>
    </defs>
    <g clip-path="url(#p1ff60dea95)">
     <use style="fill:#ff0000;stroke:#000000;stroke-width:0.5;" x="-264.724375" xlink:href="#m1a72131e22" y="257.9555"/>
     <use style="fill:#ff0000;stroke:#000000;stroke-width:0.5;" x="-1.0" xlink:href="#m1a72131e22" y="257.9555"/>
     <use style="fill:#ff0000;stroke:#000000;stroke-width:0.5;" x="14.275625" xlink:href="#m1a72131e22" y="257.9555"/>
     <use style="fill:#ff0000;stroke:#000000;stroke-width:0.5;" x="70.075625" xlink:href="#m1a72131e22" y="257.9555"/>
     <use style="fill:#ff0000;stroke:#000000;stroke-width:0.5;" x="125.875625" xlink:href="#m1a72131e22" y="257.9555"/>
     <use style="fill:#ff0000;stroke:#000000;stroke-width:0.5;" x="181.675625" xlink:href="#m1a72131e22" y="257.9555"/>
     <use style="fill:#ff0000;stroke:#000000;stroke-width:0.5;" x="237.475625" xlink:href="#m1a72131e22" y="234.2963"/>
     <use style="fill:#ff0000;stroke:#000000;stroke-width:0.5;" x="293.275625" xlink:href="#m1a72131e22" y="154.6139"/>
     <use style="fill:#ff0000;stroke:#000000;stroke-width:0.5;" x="349.075625" xlink:href="#m1a72131e22" y="51.9419"/>
     <use style="fill:#ff0000;stroke:#000000;stroke-width:0.5;" x="404.875625" xlink:href="#m1a72131e22" y="35.6483"/>
    </g>
   </g>
   <g id="line2d_2">
    <path clip-path="url(#p1ff60dea95)" d="M -264.724375 252.563857 
M -1 254.608199 
L 8.581747 256.552288 
L 22.247054 259.535496 
L 35.91236 262.576304 
L 49.577666 265.511552 
L 63.242972 268.171408 
L 76.908278 270.382856 
L 90.573584 271.973194 
L 104.23889 272.77353 
L 117.904196 272.622279 
L 131.569503 271.368651 
L 145.234809 268.876157 
L 158.900115 265.026093 
L 172.565421 259.721046 
L 186.230727 252.88838 
L 199.896033 244.483737 
L 213.561339 234.494532 
L 227.226645 222.943444 
L 240.891952 209.891918 
L 254.557258 195.443653 
L 268.222564 179.748102 
L 281.88787 163.003967 
L 295.553176 145.462693 
L 309.218482 127.431962 
L 322.883788 109.279193 
L 336.549094 91.435031 
L 350.214401 74.396848 
L 363.879707 58.732234 
L 377.545013 45.082495 
L 391.210319 34.166147 
L 394.328125 32.481512 
" style="fill:none;stroke:#ff0000;stroke-linecap:square;stroke-width:1.5;"/>
   </g>
   <g id="line2d_3">
    <defs>
     <path d="M 0 3 
C 0.795609 3 1.55874 2.683901 2.12132 2.12132 
C 2.683901 1.55874 3 0.795609 3 0 
C 3 -0.795609 2.683901 -1.55874 2.12132 -2.12132 
C 1.55874 -2.683901 0.795609 -3 0 -3 
C -0.795609 -3 -1.55874 -2.683901 -2.12132 -2.12132 
C -2.683901 -1.55874 -3 -0.795609 -3 0 
C -3 0.795609 -2.683901 1.55874 -2.12132 2.12132 
C -1.55874 2.683901 -0.795609 3 0 3 
z
" id="m5cb9ec3406" style="stroke:#000000;stroke-width:0.5;"/>
    </defs>
    <g clip-path="url(#p1ff60dea95)">
     <use style="fill:#0000ff;stroke:#000000;stroke-width:0.5;" x="-264.724375" xlink:href="#m5cb9ec3406" y="34.7555"/>
     <use style="fill:#0000ff;stroke:#000000;stroke-width:0.5;" x="-1.0" xlink:href="#m5cb9ec3406" y="34.7555"/>
     <use style="fill:#0000ff;stroke:#000000;stroke-width:0.5;" x="14.275625" xlink:href="#m5cb9ec3406" y="34.7555"/>
     <use style="fill:#0000ff;stroke:#000000;stroke-width:0.5;" x="70.075625" xlink:href="#m5cb9ec3406" y="34.7555"/>
     <use style="fill:#0000ff;stroke:#000000;stroke-width:0.5;" x="125.875625" xlink:href="#m5cb9ec3406" y="34.7555"/>
     <use style="fill:#0000ff;stroke:#000000;stroke-width:0.5;" x="181.675625" xlink:href="#m5cb9ec3406" y="34.7555"/>
     <use style="fill:#0000ff;stroke:#000000;stroke-width:0.5;" x="237.475625" xlink:href="#m5cb9ec3406" y="58.4147"/>
     <use style="fill:#0000ff;stroke:#000000;stroke-width:0.5;" x="293.275625" xlink:href="#m5cb9ec3406" y="138.0971"/>
     <use style="fill:#0000ff;stroke:#000000;stroke-width:0.5;" x="349.075625" xlink:href="#m5cb9ec3406" y="240.7691"/>
     <use style="fill:#0000ff;stroke:#000000;stroke-width:0.5;" x="404.875625" xlink:href="#m5cb9ec3406" y="257.0627"/>
    </g>
   </g>
   <g id="line2d_4">
    <path clip-path="url(#p1ff60dea95)" d="M -264.724375 40.147143 
M -1 38.102801 
L 8.581747 36.158712 
L 22.247054 33.175504 
L 35.91236 30.134696 
L 49.577666 27.199448 
L 63.242972 24.539592 
L 76.908278 22.328144 
L 90.573584 20.737806 
L 104.23889 19.93747 
L 117.904196 20.088721 
L 131.569503 21.342349 
L 145.234809 23.834843 
L 158.900115 27.684907 
L 172.565421 32.989954 
L 186.230727 39.82262 
L 199.896033 48.227263 
L 213.561339 58.216468 
L 227.226645 69.767556 
L 240.891952 82.819082 
L 254.557258 97.267347 
L 268.222564 112.962898 
L 281.88787 129.707033 
L 295.553176 147.248307 
L 309.218482 165.279038 
L 322.883788 183.431807 
L 336.549094 201.275969 
L 350.214401 218.314152 
L 363.879707 233.978766 
L 377.545013 247.628505 
L 391.210319 258.544853 
L 394.328125 260.229488 
" style="fill:none;stroke:#0000ff;stroke-linecap:square;stroke-width:1.5;"/>
   </g>
   <g id="line2d_5">
    <defs>
     <path d="M 0 3 
C 0.795609 3 1.55874 2.683901 2.12132 2.12132 
C 2.683901 1.55874 3 0.795609 3 0 
C 3 -0.795609 2.683901 -1.55874 2.12132 -2.12132 
C 1.55874 -2.683901 0.795609 -3 0 -3 
C -0.795609 -3 -1.55874 -2.683901 -2.12132 -2.12132 
C -2.683901 -1.55874 -3 -0.795609 -3 0 
C -3 0.795609 -2.683901 1.55874 -2.12132 2.12132 
C -1.55874 2.683901 -0.795609 3 0 3 
z
" id="m53036b0bc3" style="stroke:#ff0000;stroke-width:0.5;"/>
    </defs>
    <g clip-path="url(#p1ff60dea95)">
     <use style="fill:none;stroke:#ff0000;stroke-width:0.5;" x="-278.674375" xlink:href="#m53036b0bc3" y="234.0731"/>
     <use style="fill:none;stroke:#ff0000;stroke-width:0.5;" x="-1.0" xlink:href="#m53036b0bc3" y="237.473135"/>
     <use style="fill:none;stroke:#ff0000;stroke-width:0.5;" x="0.325625" xlink:href="#m53036b0bc3" y="236.9747"/>
     <use style="fill:none;stroke:#ff0000;stroke-width:0.5;" x="28.225625" xlink:href="#m53036b0bc3" y="226.0379"/>
     <use style="fill:none;stroke:#ff0000;stroke-width:0.5;" x="56.125625" xlink:href="#m53036b0bc3" y="231.3947"/>
     <use style="fill:none;stroke:#ff0000;stroke-width:0.5;" x="84.025625" xlink:href="#m53036b0bc3" y="209.2979"/>
     <use style="fill:none;stroke:#ff0000;stroke-width:0.5;" x="111.925625" xlink:href="#m53036b0bc3" y="235.6355"/>
     <use style="fill:none;stroke:#ff0000;stroke-width:0.5;" x="139.825625" xlink:href="#m53036b0bc3" y="239.6531"/>
     <use style="fill:none;stroke:#ff0000;stroke-width:0.5;" x="167.725625" xlink:href="#m53036b0bc3" y="217.3331"/>
     <use style="fill:none;stroke:#ff0000;stroke-width:0.5;" x="195.625625" xlink:href="#m53036b0bc3" y="206.3963"/>
     <use style="fill:none;stroke:#ff0000;stroke-width:0.5;" x="223.525625" xlink:href="#m53036b0bc3" y="185.4155"/>
     <use style="fill:none;stroke:#ff0000;stroke-width:0.5;" x="251.425625" xlink:href="#m53036b0bc3" y="147.6947"/>
     <use style="fill:none;stroke:#ff0000;stroke-width:0.5;" x="279.325625" xlink:href="#m53036b0bc3" y="163.3187"/>
     <use style="fill:none;stroke:#ff0000;stroke-width:0.5;" x="307.225625" xlink:href="#m53036b0bc3" y="100.3763"/>
     <use style="fill:none;stroke:#ff0000;stroke-width:0.5;" x="335.125625" xlink:href="#m53036b0bc3" y="112.4291"/>
     <use style="fill:none;stroke:#ff0000;stroke-width:0.5;" x="363.025625" xlink:href="#m53036b0bc3" y="70.9139"/>
     <use style="fill:none;stroke:#ff0000;stroke-width:0.5;" x="390.925625" xlink:href="#m53036b0bc3" y="67.3427"/>
     <use style="fill:none;stroke:#ff0000;stroke-width:0.5;" x="418.825625" xlink:href="#m53036b0bc3" y="53.2811"/>
    </g>
   </g>
   <g id="line2d_6">
    <path clip-path="url(#p1ff60dea95)" d="M -278.674375 235.705448 
M -1 235.892233 
L 6.019503 235.664751 
L 20.254196 235.289983 
L 34.48889 234.916099 
L 48.723584 234.449782 
L 62.958278 233.792523 
L 77.192972 232.843108 
L 91.427666 231.500092 
L 105.66236 229.664285 
L 119.897054 227.241227 
L 134.131747 224.143673 
L 148.366441 220.294066 
L 162.601135 215.627026 
L 176.835829 210.091822 
L 191.070523 203.654858 
L 205.305217 196.302147 
L 219.539911 188.041798 
L 233.774605 178.906492 
L 248.009298 168.95596 
L 262.243992 158.27947 
L 276.478686 146.998298 
L 290.71338 135.268217 
L 304.948074 123.281971 
L 319.182768 111.271756 
L 333.417462 99.511704 
L 347.652156 88.320356 
L 361.886849 78.063149 
L 376.121543 69.154892 
L 390.356237 62.062249 
L 394.328125 60.735179 
" style="fill:none;stroke:#ff0000;stroke-dasharray:6.000000,6.000000;stroke-dashoffset:0.0;stroke-width:1.5;"/>
   </g>
   <g id="line2d_7">
    <defs>
     <path d="M 0 3 
C 0.795609 3 1.55874 2.683901 2.12132 2.12132 
C 2.683901 1.55874 3 0.795609 3 0 
C 3 -0.795609 2.683901 -1.55874 2.12132 -2.12132 
C 1.55874 -2.683901 0.795609 -3 0 -3 
C -0.795609 -3 -1.55874 -2.683901 -2.12132 -2.12132 
C -2.683901 -1.55874 -3 -0.795609 -3 0 
C -3 0.795609 -2.683901 1.55874 -2.12132 2.12132 
C -1.55874 2.683901 -0.795609 3 0 3 
z
" id="md72f575a43" style="stroke:#0000ff;stroke-width:0.5;"/>
    </defs>
    <g clip-path="url(#p1ff60dea95)">
     <use style="fill:none;stroke:#0000ff;stroke-width:0.5;" x="-278.674375" xlink:href="#md72f575a43" y="58.6379"/>
     <use style="fill:none;stroke:#0000ff;stroke-width:0.5;" x="-1.0" xlink:href="#md72f575a43" y="55.237865"/>
     <use style="fill:none;stroke:#0000ff;stroke-width:0.5;" x="0.325625" xlink:href="#md72f575a43" y="55.7363"/>
     <use style="fill:none;stroke:#0000ff;stroke-width:0.5;" x="28.225625" xlink:href="#md72f575a43" y="66.6731"/>
     <use style="fill:none;stroke:#0000ff;stroke-width:0.5;" x="56.125625" xlink:href="#md72f575a43" y="61.3163"/>
     <use style="fill:none;stroke:#0000ff;stroke-width:0.5;" x="84.025625" xlink:href="#md72f575a43" y="83.4131"/>
     <use style="fill:none;stroke:#0000ff;stroke-width:0.5;" x="111.925625" xlink:href="#md72f575a43" y="57.0755"/>
     <use style="fill:none;stroke:#0000ff;stroke-width:0.5;" x="139.825625" xlink:href="#md72f575a43" y="53.0579"/>
     <use style="fill:none;stroke:#0000ff;stroke-width:0.5;" x="167.725625" xlink:href="#md72f575a43" y="75.3779"/>
     <use style="fill:none;stroke:#0000ff;stroke-width:0.5;" x="195.625625" xlink:href="#md72f575a43" y="86.3147"/>
     <use style="fill:none;stroke:#0000ff;stroke-width:0.5;" x="223.525625" xlink:href="#md72f575a43" y="107.2955"/>
     <use style="fill:none;stroke:#0000ff;stroke-width:0.5;" x="251.425625" xlink:href="#md72f575a43" y="145.0163"/>
     <use style="fill:none;stroke:#0000ff;stroke-width:0.5;" x="279.325625" xlink:href="#md72f575a43" y="129.3923"/>
     <use style="fill:none;stroke:#0000ff;stroke-width:0.5;" x="307.225625" xlink:href="#md72f575a43" y="192.3347"/>
     <use style="fill:none;stroke:#0000ff;stroke-width:0.5;" x="335.125625" xlink:href="#md72f575a43" y="180.2819"/>
     <use style="fill:none;stroke:#0000ff;stroke-width:0.5;" x="363.025625" xlink:href="#md72f575a43" y="221.7971"/>
     <use style="fill:none;stroke:#0000ff;stroke-width:0.5;" x="390.925625" xlink:href="#md72f575a43" y="225.3683"/>
     <use style="fill:none;stroke:#0000ff;stroke-width:0.5;" x="418.825625" xlink:href="#md72f575a43" y="239.4299"/>
    </g>
   </g>
   <g id="line2d_8">
    <path clip-path="url(#p1ff60dea95)" d="M -278.674375 57.005552 
M -1 56.818767 
L 6.019503 57.046249 
L 20.254196 57.421017 
L 34.48889 57.794901 
L 48.723584 58.261218 
L 62.958278 58.918477 
L 77.192972 59.867892 
L 91.427666 61.210908 
L 105.66236 63.046715 
L 119.897054 65.469773 
L 134.131747 68.567327 
L 148.366441 72.416934 
L 162.601135 77.083974 
L 176.835829 82.619178 
L 191.070523 89.056142 
L 205.305217 96.408853 
L 219.539911 104.669202 
L 233.774605 113.804508 
L 248.009298 123.75504 
L 262.243992 134.43153 
L 276.478686 145.712702 
L 290.71338 157.442783 
L 304.948074 169.429029 
L 319.182768 181.439244 
L 333.417462 193.199296 
L 347.652156 204.390644 
L 361.886849 214.647851 
L 376.121543 223.556108 
L 390.356237 230.648751 
L 394.328125 231.975821 
" style="fill:none;stroke:#0000ff;stroke-dasharray:6.000000,6.000000;stroke-dashoffset:0.0;stroke-width:1.5;"/>
   </g>
   <g id="patch_3">
    <path d="M 44.965625 34.7555 
L 379.765625 34.7555 
" style="fill:none;stroke:#000000;stroke-linecap:square;stroke-linejoin:miter;"/>
   </g>
   <g id="patch_4">
    <path d="M 379.765625 257.9555 
L 379.765625 34.7555 
" style="fill:none;stroke:#000000;stroke-linecap:square;stroke-linejoin:miter;"/>
   </g>
   <g id="patch_5">
    <path d="M 44.965625 257.9555 
L 379.765625 257.9555 
" style="fill:none;stroke:#000000;stroke-linecap:square;stroke-linejoin:miter;"/>
   </g>
   <g id="patch_6">
    <path d="M 44.965625 257.9555 
L 44.965625 34.7555 
" style="fill:none;stroke:#000000;stroke-linecap:square;stroke-linejoin:miter;"/>
   </g>
   <g id="matplotlib.axis_1">
    <g id="xtick_1">
     <g id="line2d_9">
      <path clip-path="url(#p1ff60dea95)" d="M 44.965625 257.9555 
L 44.965625 34.7555 
" style="fill:none;stroke:#000000;stroke-dasharray:1.000000,3.000000;stroke-dashoffset:0.0;stroke-width:0.5;"/>
     </g>
     <g id="line2d_10">
      <defs>
       <path d="M 0 0 
L 0 -4 
" id="m46fc4565c2" style="stroke:#000000;stroke-width:0.5;"/>
      </defs>
      <g>
       <use style="stroke:#000000;stroke-width:0.5;" x="44.965625" xlink:href="#m46fc4565c2" y="257.9555"/>
      </g>
     </g>
     <g id="line2d_11">
      <defs>
       <path d="M 0 0 
L 0 4 
" id="m79000d9480" style="stroke:#000000;stroke-width:0.5;"/>
      </defs>
      <g>
       <use style="stroke:#000000;stroke-width:0.5;" x="44.965625" xlink:href="#m79000d9480" y="34.7555"/>
      </g>
     </g>
     <g id="text_1">
      <text style="font-family:Bitstream Vera Sans;font-size:10.0px;font-style:normal;font-weight:400;text-anchor:middle;" transform="rotate(-0.000000, 44.965625, 269.553937)" x="44.965625" y="269.5539375">29</text>
     </g>
    </g>
    <g id="xtick_2">
     <g id="line2d_12">
      <path clip-path="url(#p1ff60dea95)" d="M 100.765625 257.9555 
L 100.765625 34.7555 
" style="fill:none;stroke:#000000;stroke-dasharray:1.000000,3.000000;stroke-dashoffset:0.0;stroke-width:0.5;"/>
     </g>
     <g id="line2d_13">
      <g>
       <use style="stroke:#000000;stroke-width:0.5;" x="100.765625" xlink:href="#m46fc4565c2" y="257.9555"/>
      </g>
     </g>
     <g id="line2d_14">
      <g>
       <use style="stroke:#000000;stroke-width:0.5;" x="100.765625" xlink:href="#m79000d9480" y="34.7555"/>
      </g>
     </g>
     <g id="text_2">
      <text style="font-family:Bitstream Vera Sans;font-size:10.0px;font-style:normal;font-weight:400;text-anchor:middle;" transform="rotate(-0.000000, 100.765625, 269.553937)" x="100.765625" y="269.5539375">30</text>
     </g>
    </g>
    <g id="xtick_3">
     <g id="line2d_15">
      <path clip-path="url(#p1ff60dea95)" d="M 156.565625 257.9555 
L 156.565625 34.7555 
" style="fill:none;stroke:#000000;stroke-dasharray:1.000000,3.000000;stroke-dashoffset:0.0;stroke-width:0.5;"/>
     </g>
     <g id="line2d_16">
      <g>
       <use style="stroke:#000000;stroke-width:0.5;" x="156.565625" xlink:href="#m46fc4565c2" y="257.9555"/>
      </g>
     </g>
     <g id="line2d_17">
      <g>
       <use style="stroke:#000000;stroke-width:0.5;" x="156.565625" xlink:href="#m79000d9480" y="34.7555"/>
      </g>
     </g>
     <g id="text_3">
      <text style="font-family:Bitstream Vera Sans;font-size:10.0px;font-style:normal;font-weight:400;text-anchor:middle;" transform="rotate(-0.000000, 156.565625, 269.553937)" x="156.565625" y="269.5539375">31</text>
     </g>
    </g>
    <g id="xtick_4">
     <g id="line2d_18">
      <path clip-path="url(#p1ff60dea95)" d="M 212.365625 257.9555 
L 212.365625 34.7555 
" style="fill:none;stroke:#000000;stroke-dasharray:1.000000,3.000000;stroke-dashoffset:0.0;stroke-width:0.5;"/>
     </g>
     <g id="line2d_19">
      <g>
       <use style="stroke:#000000;stroke-width:0.5;" x="212.365625" xlink:href="#m46fc4565c2" y="257.9555"/>
      </g>
     </g>
     <g id="line2d_20">
      <g>
       <use style="stroke:#000000;stroke-width:0.5;" x="212.365625" xlink:href="#m79000d9480" y="34.7555"/>
      </g>
     </g>
     <g id="text_4">
      <text style="font-family:Bitstream Vera Sans;font-size:10.0px;font-style:normal;font-weight:400;text-anchor:middle;" transform="rotate(-0.000000, 212.365625, 269.553937)" x="212.365625" y="269.5539375">32</text>
     </g>
    </g>
    <g id="xtick_5">
     <g id="line2d_21">
      <path clip-path="url(#p1ff60dea95)" d="M 268.165625 257.9555 
L 268.165625 34.7555 
" style="fill:none;stroke:#000000;stroke-dasharray:1.000000,3.000000;stroke-dashoffset:0.0;stroke-width:0.5;"/>
     </g>
     <g id="line2d_22">
      <g>
       <use style="stroke:#000000;stroke-width:0.5;" x="268.165625" xlink:href="#m46fc4565c2" y="257.9555"/>
      </g>
     </g>
     <g id="line2d_23">
      <g>
       <use style="stroke:#000000;stroke-width:0.5;" x="268.165625" xlink:href="#m79000d9480" y="34.7555"/>
      </g>
     </g>
     <g id="text_5">
      <text style="font-family:Bitstream Vera Sans;font-size:10.0px;font-style:normal;font-weight:400;text-anchor:middle;" transform="rotate(-0.000000, 268.165625, 269.553937)" x="268.165625" y="269.5539375">33</text>
     </g>
    </g>
    <g id="xtick_6">
     <g id="line2d_24">
      <path clip-path="url(#p1ff60dea95)" d="M 323.965625 257.9555 
L 323.965625 34.7555 
" style="fill:none;stroke:#000000;stroke-dasharray:1.000000,3.000000;stroke-dashoffset:0.0;stroke-width:0.5;"/>
     </g>
     <g id="line2d_25">
      <g>
       <use style="stroke:#000000;stroke-width:0.5;" x="323.965625" xlink:href="#m46fc4565c2" y="257.9555"/>
      </g>
     </g>
     <g id="line2d_26">
      <g>
       <use style="stroke:#000000;stroke-width:0.5;" x="323.965625" xlink:href="#m79000d9480" y="34.7555"/>
      </g>
     </g>
     <g id="text_6">
      <text style="font-family:Bitstream Vera Sans;font-size:10.0px;font-style:normal;font-weight:400;text-anchor:middle;" transform="rotate(-0.000000, 323.965625, 269.553937)" x="323.965625" y="269.5539375">34</text>
     </g>
    </g>
    <g id="xtick_7">
     <g id="line2d_27">
      <path clip-path="url(#p1ff60dea95)" d="M 379.765625 257.9555 
L 379.765625 34.7555 
" style="fill:none;stroke:#000000;stroke-dasharray:1.000000,3.000000;stroke-dashoffset:0.0;stroke-width:0.5;"/>
     </g>
     <g id="line2d_28">
      <g>
       <use style="stroke:#000000;stroke-width:0.5;" x="379.765625" xlink:href="#m46fc4565c2" y="257.9555"/>
      </g>
     </g>
     <g id="line2d_29">
      <g>
       <use style="stroke:#000000;stroke-width:0.5;" x="379.765625" xlink:href="#m79000d9480" y="34.7555"/>
      </g>
     </g>
     <g id="text_7">
      <text style="font-family:Bitstream Vera Sans;font-size:10.0px;font-style:normal;font-weight:400;text-anchor:middle;" transform="rotate(-0.000000, 379.765625, 269.553937)" x="379.765625" y="269.5539375">35</text>
     </g>
    </g>
    <g id="text_8">
     <!-- Temperature ($^o$F) -->
     <g transform="translate(169.115625 284.233625)">
      <text>
       <tspan style="font-family:cmmi10;font-size:7.0px;font-style:regular;font-weight:regular;" x="72.7901640625" y="-4.23265625">o</tspan>
       <tspan style="font-family:Bitstream Vera Sans;font-size:10.0px;font-style:roman;font-weight:roman;" x="0.0 6.1083984375 12.2607421875 22.001953125 28.349609375 34.501953125 38.61328125 44.7412109375 48.662109375 55.0 59.111328125 65.263671875 68.4423828125 76.8151054688 82.5670585938" y="-0.40625">Temperature (F)</tspan>
      </text>
     </g>
    </g>
   </g>
   <g id="matplotlib.axis_2">
    <g id="ytick_1">
     <g id="line2d_30">
      <path clip-path="url(#p1ff60dea95)" d="M 44.965625 257.9555 
L 379.765625 257.9555 
" style="fill:none;stroke:#000000;stroke-dasharray:1.000000,3.000000;stroke-dashoffset:0.0;stroke-width:0.5;"/>
     </g>
     <g id="line2d_31">
      <defs>
       <path d="M 0 0 
L 4 0 
" id="m007e512aef" style="stroke:#000000;stroke-width:0.5;"/>
      </defs>
      <g>
       <use style="stroke:#000000;stroke-width:0.5;" x="44.965625" xlink:href="#m007e512aef" y="257.9555"/>
      </g>
     </g>
     <g id="line2d_32">
      <defs>
       <path d="M 0 0 
L -4 0 
" id="m5cde4fa7b8" style="stroke:#000000;stroke-width:0.5;"/>
      </defs>
      <g>
       <use style="stroke:#000000;stroke-width:0.5;" x="379.765625" xlink:href="#m5cde4fa7b8" y="257.9555"/>
      </g>
     </g>
     <g id="text_9">
      <text style="font-family:Bitstream Vera Sans;font-size:10.0px;font-style:normal;font-weight:400;text-anchor:end;" transform="rotate(-0.000000, 40.965625, 260.714875)" x="40.965625" y="260.714875">0</text>
     </g>
    </g>
    <g id="ytick_2">
     <g id="line2d_33">
      <path clip-path="url(#p1ff60dea95)" d="M 44.965625 213.3155 
L 379.765625 213.3155 
" style="fill:none;stroke:#000000;stroke-dasharray:1.000000,3.000000;stroke-dashoffset:0.0;stroke-width:0.5;"/>
     </g>
     <g id="line2d_34">
      <g>
       <use style="stroke:#000000;stroke-width:0.5;" x="44.965625" xlink:href="#m007e512aef" y="213.3155"/>
      </g>
     </g>
     <g id="line2d_35">
      <g>
       <use style="stroke:#000000;stroke-width:0.5;" x="379.765625" xlink:href="#m5cde4fa7b8" y="213.3155"/>
      </g>
     </g>
     <g id="text_10">
      <text style="font-family:Bitstream Vera Sans;font-size:10.0px;font-style:normal;font-weight:400;text-anchor:end;" transform="rotate(-0.000000, 40.965625, 216.074875)" x="40.965625" y="216.074875">20</text>
     </g>
    </g>
    <g id="ytick_3">
     <g id="line2d_36">
      <path clip-path="url(#p1ff60dea95)" d="M 44.965625 168.6755 
L 379.765625 168.6755 
" style="fill:none;stroke:#000000;stroke-dasharray:1.000000,3.000000;stroke-dashoffset:0.0;stroke-width:0.5;"/>
     </g>
     <g id="line2d_37">
      <g>
       <use style="stroke:#000000;stroke-width:0.5;" x="44.965625" xlink:href="#m007e512aef" y="168.6755"/>
      </g>
     </g>
     <g id="line2d_38">
      <g>
       <use style="stroke:#000000;stroke-width:0.5;" x="379.765625" xlink:href="#m5cde4fa7b8" y="168.6755"/>
      </g>
     </g>
     <g id="text_11">
      <text style="font-family:Bitstream Vera Sans;font-size:10.0px;font-style:normal;font-weight:400;text-anchor:end;" transform="rotate(-0.000000, 40.965625, 171.434875)" x="40.965625" y="171.434875">40</text>
     </g>
    </g>
    <g id="ytick_4">
     <g id="line2d_39">
      <path clip-path="url(#p1ff60dea95)" d="M 44.965625 124.0355 
L 379.765625 124.0355 
" style="fill:none;stroke:#000000;stroke-dasharray:1.000000,3.000000;stroke-dashoffset:0.0;stroke-width:0.5;"/>
     </g>
     <g id="line2d_40">
      <g>
       <use style="stroke:#000000;stroke-width:0.5;" x="44.965625" xlink:href="#m007e512aef" y="124.0355"/>
      </g>
     </g>
     <g id="line2d_41">
      <g>
       <use style="stroke:#000000;stroke-width:0.5;" x="379.765625" xlink:href="#m5cde4fa7b8" y="124.0355"/>
      </g>
     </g>
     <g id="text_12">
      <text style="font-family:Bitstream Vera Sans;font-size:10.0px;font-style:normal;font-weight:400;text-anchor:end;" transform="rotate(-0.000000, 40.965625, 126.794875)" x="40.965625" y="126.794875">60</text>
     </g>
    </g>
    <g id="ytick_5">
     <g id="line2d_42">
      <path clip-path="url(#p1ff60dea95)" d="M 44.965625 79.3955 
L 379.765625 79.3955 
" style="fill:none;stroke:#000000;stroke-dasharray:1.000000,3.000000;stroke-dashoffset:0.0;stroke-width:0.5;"/>
     </g>
     <g id="line2d_43">
      <g>
       <use style="stroke:#000000;stroke-width:0.5;" x="44.965625" xlink:href="#m007e512aef" y="79.3955"/>
      </g>
     </g>
     <g id="line2d_44">
      <g>
       <use style="stroke:#000000;stroke-width:0.5;" x="379.765625" xlink:href="#m5cde4fa7b8" y="79.3955"/>
      </g>
     </g>
     <g id="text_13">
      <text style="font-family:Bitstream Vera Sans;font-size:10.0px;font-style:normal;font-weight:400;text-anchor:end;" transform="rotate(-0.000000, 40.965625, 82.154875)" x="40.965625" y="82.154875">80</text>
     </g>
    </g>
    <g id="ytick_6">
     <g id="line2d_45">
      <path clip-path="url(#p1ff60dea95)" d="M 44.965625 34.7555 
L 379.765625 34.7555 
" style="fill:none;stroke:#000000;stroke-dasharray:1.000000,3.000000;stroke-dashoffset:0.0;stroke-width:0.5;"/>
     </g>
     <g id="line2d_46">
      <g>
       <use style="stroke:#000000;stroke-width:0.5;" x="44.965625" xlink:href="#m007e512aef" y="34.7555"/>
      </g>
     </g>
     <g id="line2d_47">
      <g>
       <use style="stroke:#000000;stroke-width:0.5;" x="379.765625" xlink:href="#m5cde4fa7b8" y="34.7555"/>
      </g>
     </g>
     <g id="text_14">
      <text style="font-family:Bitstream Vera Sans;font-size:10.0px;font-style:normal;font-weight:400;text-anchor:end;" transform="rotate(-0.000000, 40.965625, 37.514875)" x="40.965625" y="37.514875">100</text>
     </g>
    </g>
    <g id="text_15">
     <text style="font-family:Bitstream Vera Sans;font-size:10.0px;font-style:normal;font-weight:400;text-anchor:middle;" transform="rotate(-90.000000, 14.798438, 146.355500)" x="14.7984375" y="146.3555">Percent of ASOS Precipitation Observations</text>
    </g>
   </g>
   <g id="text_16">
    <text style="font-family:Bitstream Vera Sans;font-size:12.0px;font-style:normal;font-weight:400;" transform="translate(156.1578125 16.318125)">Palwaukee (KPWK)</text>
    <text style="font-family:Bitstream Vera Sans;font-size:12.0px;font-style:normal;font-weight:400;" transform="translate(148.6746875 29.7555)">1/1/2006 - 9/30/2013</text>
   </g>
   <g id="legend_1">
    <g id="patch_7">
     <path d="M 50.965625 183.383 
L 189.19625 183.383 
L 189.19625 109.328 
L 50.965625 109.328 
z
" style="fill:#ffffff;stroke:#000000;stroke-linejoin:miter;"/>
    </g>
    <g id="line2d_48">
     <path d="M 59.365625 119.046125 
L 76.165625 119.046125 
" style="fill:none;stroke:#ff0000;stroke-linecap:square;stroke-width:1.5;"/>
    </g>
    <g id="line2d_49"/>
    <g id="text_17">
     <text style="font-family:Bitstream Vera Sans;font-size:12.0px;font-style:normal;font-weight:400;text-anchor:start;" transform="rotate(-0.000000, 89.365625, 123.246125)" x="89.365625" y="123.246125">Rain - ASOS</text>
    </g>
    <g id="line2d_50">
     <path d="M 59.365625 136.659875 
L 76.165625 136.659875 
" style="fill:none;stroke:#0000ff;stroke-linecap:square;stroke-width:1.5;"/>
    </g>
    <g id="line2d_51"/>
    <g id="text_18">
     <text style="font-family:Bitstream Vera Sans;font-size:12.0px;font-style:normal;font-weight:400;text-anchor:start;" transform="rotate(-0.000000, 89.365625, 140.859875)" x="89.365625" y="140.859875">Snow - ASOS</text>
    </g>
    <g id="line2d_52">
     <path d="M 59.365625 154.273625 
L 76.165625 154.273625 
" style="fill:none;stroke:#ff0000;stroke-dasharray:6.000000,6.000000;stroke-dashoffset:0.0;stroke-width:1.5;"/>
    </g>
    <g id="line2d_53"/>
    <g id="text_19">
     <text style="font-family:Bitstream Vera Sans;font-size:12.0px;font-style:normal;font-weight:400;text-anchor:start;" transform="rotate(-0.000000, 89.365625, 158.473625)" x="89.365625" y="158.473625">Rain - Argonne</text>
    </g>
    <g id="line2d_54">
     <path d="M 59.365625 171.887375 
L 76.165625 171.887375 
" style="fill:none;stroke:#0000ff;stroke-dasharray:6.000000,6.000000;stroke-dashoffset:0.0;stroke-width:1.5;"/>
    </g>
    <g id="line2d_55"/>
    <g id="text_20">
     <text style="font-family:Bitstream Vera Sans;font-size:12.0px;font-style:normal;font-weight:400;text-anchor:start;" transform="rotate(-0.000000, 89.365625, 176.087375)" x="89.365625" y="176.087375">Snow - Argonne</text>
    </g>
   </g>
  </g>
 </g>
 <defs>
  <clipPath id="p1ff60dea95">
   <rect height="223.2" width="334.8" x="44.965625" y="34.7555"/>
  </clipPath>
 </defs>
</svg>
