<?xml version="1.0" encoding="utf-8" standalone="no"?>
<!DOCTYPE svg PUBLIC "-//W3C//DTD SVG 1.1//EN"
  "http://www.w3.org/Graphics/SVG/1.1/DTD/svg11.dtd">
<!-- Created with matplotlib (http://matplotlib.org/) -->
<svg height="385pt" version="1.1" viewBox="0 0 492 385" width="492pt" xmlns="http://www.w3.org/2000/svg" xmlns:xlink="http://www.w3.org/1999/xlink">
 <defs>
  <style type="text/css">
*{stroke-linecap:butt;stroke-linejoin:round;stroke-miterlimit:100000;}
  </style>
 </defs>
 <g id="figure_1">
  <g id="patch_1">
   <path d="M 0 385.059598 
L 492.203125 385.059598 
L 492.203125 0 
L 0 0 
z
" style="fill:#ffffff;"/>
  </g>
  <g id="axes_1">
   <g id="patch_2">
    <path d="M 38.603125 313.782125 
L 485.003125 313.782125 
L 485.003125 34.782125 
L 38.603125 34.782125 
z
" style="fill:#ffffff;"/>
   </g>
   <g id="patch_3">
    <path clip-path="url(#pc03831c4d7)" d="M 38.603125 313.782125 
L 50.049279 313.782125 
L 50.049279 164.982125 
L 38.603125 164.982125 
z
" style="fill:url(#h5492faaa12);opacity:0.35;stroke:#000000;stroke-linejoin:miter;"/>
   </g>
   <g id="patch_4">
    <path clip-path="url(#pc03831c4d7)" d="M 50.049279 313.782125 
L 61.495433 313.782125 
L 61.495433 189.782125 
L 50.049279 189.782125 
z
" style="fill:#0000ff;stroke:#000000;stroke-linejoin:miter;"/>
   </g>
   <g id="patch_5">
    <path clip-path="url(#pc03831c4d7)" d="M 95.833894 313.782125 
L 107.280048 313.782125 
L 107.280048 37.882125 
L 95.833894 37.882125 
z
" style="fill:url(#h5492faaa12);opacity:0.35;stroke:#000000;stroke-linejoin:miter;"/>
   </g>
   <g id="patch_6">
    <path clip-path="url(#pc03831c4d7)" d="M 107.280048 313.782125 
L 118.726202 313.782125 
L 118.726202 115.382125 
L 107.280048 115.382125 
z
" style="fill:#0000ff;stroke:#000000;stroke-linejoin:miter;"/>
   </g>
   <g id="patch_7">
    <path clip-path="url(#pc03831c4d7)" d="M 153.064663 313.782125 
L 164.510817 313.782125 
L 164.510817 171.182125 
L 153.064663 171.182125 
z
" style="fill:url(#h5492faaa12);opacity:0.35;stroke:#000000;stroke-linejoin:miter;"/>
   </g>
   <g id="patch_8">
    <path clip-path="url(#pc03831c4d7)" d="M 164.510817 313.782125 
L 175.956971 313.782125 
L 175.956971 177.382125 
L 164.510817 177.382125 
z
" style="fill:#0000ff;stroke:#000000;stroke-linejoin:miter;"/>
   </g>
   <g id="patch_9">
    <path clip-path="url(#pc03831c4d7)" d="M 210.295433 313.782125 
L 221.741587 313.782125 
L 221.741587 248.682125 
L 210.295433 248.682125 
z
" style="fill:url(#h5492faaa12);opacity:0.35;stroke:#000000;stroke-linejoin:miter;"/>
   </g>
   <g id="patch_10">
    <path clip-path="url(#pc03831c4d7)" d="M 221.741587 313.782125 
L 233.18774 313.782125 
L 233.18774 211.482125 
L 221.741587 211.482125 
z
" style="fill:#0000ff;stroke:#000000;stroke-linejoin:miter;"/>
   </g>
   <g id="patch_11">
    <path clip-path="url(#pc03831c4d7)" d="M 267.526202 313.782125 
L 278.972356 313.782125 
L 278.972356 313.782125 
L 267.526202 313.782125 
z
" style="fill:url(#h5492faaa12);opacity:0.35;stroke:#000000;stroke-linejoin:miter;"/>
   </g>
   <g id="patch_12">
    <path clip-path="url(#pc03831c4d7)" d="M 278.972356 313.782125 
L 290.41851 313.782125 
L 290.41851 236.282125 
L 278.972356 236.282125 
z
" style="fill:#0000ff;stroke:#000000;stroke-linejoin:miter;"/>
   </g>
   <g id="patch_13">
    <path clip-path="url(#pc03831c4d7)" d="M 324.756971 313.782125 
L 336.203125 313.782125 
L 336.203125 313.782125 
L 324.756971 313.782125 
z
" style="fill:url(#h5492faaa12);opacity:0.35;stroke:#000000;stroke-linejoin:miter;"/>
   </g>
   <g id="patch_14">
    <path clip-path="url(#pc03831c4d7)" d="M 336.203125 313.782125 
L 347.649279 313.782125 
L 347.649279 301.382125 
L 336.203125 301.382125 
z
" style="fill:#0000ff;stroke:#000000;stroke-linejoin:miter;"/>
   </g>
   <g id="patch_15">
    <path clip-path="url(#pc03831c4d7)" d="M 381.98774 313.782125 
L 393.433894 313.782125 
L 393.433894 313.782125 
L 381.98774 313.782125 
z
" style="fill:url(#h5492faaa12);opacity:0.35;stroke:#000000;stroke-linejoin:miter;"/>
   </g>
   <g id="patch_16">
    <path clip-path="url(#pc03831c4d7)" d="M 393.433894 313.782125 
L 404.880048 313.782125 
L 404.880048 273.482125 
L 393.433894 273.482125 
z
" style="fill:#0000ff;stroke:#000000;stroke-linejoin:miter;"/>
   </g>
   <g id="patch_17">
    <path clip-path="url(#pc03831c4d7)" d="M 439.21851 313.782125 
L 450.664663 313.782125 
L 450.664663 313.782125 
L 439.21851 313.782125 
z
" style="fill:url(#h5492faaa12);opacity:0.35;stroke:#000000;stroke-linejoin:miter;"/>
   </g>
   <g id="patch_18">
    <path clip-path="url(#pc03831c4d7)" d="M 450.664663 313.782125 
L 462.110817 313.782125 
L 462.110817 288.982125 
L 450.664663 288.982125 
z
" style="fill:#0000ff;stroke:#000000;stroke-linejoin:miter;"/>
   </g>
   <g id="patch_19">
    <path clip-path="url(#pc03831c4d7)" d="M 61.495433 313.782125 
L 72.941587 313.782125 
L 72.941587 313.782125 
L 61.495433 313.782125 
z
" style="fill:url(#h6d3252f479);opacity:0.35;stroke:#000000;stroke-linejoin:miter;"/>
   </g>
   <g id="patch_20">
    <path clip-path="url(#pc03831c4d7)" d="M 72.941587 313.782125 
L 84.38774 313.782125 
L 84.38774 288.982125 
L 72.941587 288.982125 
z
" style="fill:#ff0000;stroke:#000000;stroke-linejoin:miter;"/>
   </g>
   <g id="patch_21">
    <path clip-path="url(#pc03831c4d7)" d="M 118.726202 313.782125 
L 130.172356 313.782125 
L 130.172356 313.782125 
L 118.726202 313.782125 
z
" style="fill:url(#h6d3252f479);opacity:0.35;stroke:#000000;stroke-linejoin:miter;"/>
   </g>
   <g id="patch_22">
    <path clip-path="url(#pc03831c4d7)" d="M 130.172356 313.782125 
L 141.61851 313.782125 
L 141.61851 236.282125 
L 130.172356 236.282125 
z
" style="fill:#ff0000;stroke:#000000;stroke-linejoin:miter;"/>
   </g>
   <g id="patch_23">
    <path clip-path="url(#pc03831c4d7)" d="M 175.956971 313.782125 
L 187.403125 313.782125 
L 187.403125 251.782125 
L 175.956971 251.782125 
z
" style="fill:url(#h6d3252f479);opacity:0.35;stroke:#000000;stroke-linejoin:miter;"/>
   </g>
   <g id="patch_24">
    <path clip-path="url(#pc03831c4d7)" d="M 187.403125 313.782125 
L 198.849279 313.782125 
L 198.849279 245.582125 
L 187.403125 245.582125 
z
" style="fill:#ff0000;stroke:#000000;stroke-linejoin:miter;"/>
   </g>
   <g id="patch_25">
    <path clip-path="url(#pc03831c4d7)" d="M 233.18774 313.782125 
L 244.633894 313.782125 
L 244.633894 180.482125 
L 233.18774 180.482125 
z
" style="fill:url(#h6d3252f479);opacity:0.35;stroke:#000000;stroke-linejoin:miter;"/>
   </g>
   <g id="patch_26">
    <path clip-path="url(#pc03831c4d7)" d="M 244.633894 313.782125 
L 256.080048 313.782125 
L 256.080048 217.682125 
L 244.633894 217.682125 
z
" style="fill:#ff0000;stroke:#000000;stroke-linejoin:miter;"/>
   </g>
   <g id="patch_27">
    <path clip-path="url(#pc03831c4d7)" d="M 290.41851 313.782125 
L 301.864663 313.782125 
L 301.864663 149.482125 
L 290.41851 149.482125 
z
" style="fill:url(#h6d3252f479);opacity:0.35;stroke:#000000;stroke-linejoin:miter;"/>
   </g>
   <g id="patch_28">
    <path clip-path="url(#pc03831c4d7)" d="M 301.864663 313.782125 
L 313.310817 313.782125 
L 313.310817 226.982125 
L 301.864663 226.982125 
z
" style="fill:#ff0000;stroke:#000000;stroke-linejoin:miter;"/>
   </g>
   <g id="patch_29">
    <path clip-path="url(#pc03831c4d7)" d="M 347.649279 313.782125 
L 359.095433 313.782125 
L 359.095433 230.082125 
L 347.649279 230.082125 
z
" style="fill:url(#h6d3252f479);opacity:0.35;stroke:#000000;stroke-linejoin:miter;"/>
   </g>
   <g id="patch_30">
    <path clip-path="url(#pc03831c4d7)" d="M 359.095433 313.782125 
L 370.541587 313.782125 
L 370.541587 242.482125 
L 359.095433 242.482125 
z
" style="fill:#ff0000;stroke:#000000;stroke-linejoin:miter;"/>
   </g>
   <g id="patch_31">
    <path clip-path="url(#pc03831c4d7)" d="M 404.880048 313.782125 
L 416.326202 313.782125 
L 416.326202 211.482125 
L 404.880048 211.482125 
z
" style="fill:url(#h6d3252f479);opacity:0.35;stroke:#000000;stroke-linejoin:miter;"/>
   </g>
   <g id="patch_32">
    <path clip-path="url(#pc03831c4d7)" d="M 416.326202 313.782125 
L 427.772356 313.782125 
L 427.772356 251.782125 
L 416.326202 251.782125 
z
" style="fill:#ff0000;stroke:#000000;stroke-linejoin:miter;"/>
   </g>
   <g id="patch_33">
    <path clip-path="url(#pc03831c4d7)" d="M 462.110817 313.782125 
L 473.556971 313.782125 
L 473.556971 205.282125 
L 462.110817 205.282125 
z
" style="fill:url(#h6d3252f479);opacity:0.35;stroke:#000000;stroke-linejoin:miter;"/>
   </g>
   <g id="patch_34">
    <path clip-path="url(#pc03831c4d7)" d="M 473.556971 313.782125 
L 485.003125 313.782125 
L 485.003125 230.082125 
L 473.556971 230.082125 
z
" style="fill:#ff0000;stroke:#000000;stroke-linejoin:miter;"/>
   </g>
   <g id="patch_35">
    <path d="M 38.603125 34.782125 
L 485.003125 34.782125 
" style="fill:none;stroke:#000000;stroke-linecap:square;stroke-linejoin:miter;"/>
   </g>
   <g id="patch_36">
    <path d="M 485.003125 313.782125 
L 485.003125 34.782125 
" style="fill:none;stroke:#000000;stroke-linecap:square;stroke-linejoin:miter;"/>
   </g>
   <g id="patch_37">
    <path d="M 38.603125 313.782125 
L 485.003125 313.782125 
" style="fill:none;stroke:#000000;stroke-linecap:square;stroke-linejoin:miter;"/>
   </g>
   <g id="patch_38">
    <path d="M 38.603125 313.782125 
L 38.603125 34.782125 
" style="fill:none;stroke:#000000;stroke-linecap:square;stroke-linejoin:miter;"/>
   </g>
   <g id="matplotlib.axis_1">
    <g id="xtick_1">
     <g id="line2d_1">
      <defs>
       <path d="M 0 0 
L 0 -4 
" id="m546ff31952" style="stroke:#000000;stroke-width:0.5;"/>
      </defs>
      <g>
       <use style="stroke:#000000;stroke-width:0.5;" x="61.4954326923" xlink:href="#m546ff31952" y="313.782125"/>
      </g>
     </g>
     <g id="line2d_2">
      <defs>
       <path d="M 0 0 
L 0 4 
" id="me1a0c1f472" style="stroke:#000000;stroke-width:0.5;"/>
      </defs>
      <g>
       <use style="stroke:#000000;stroke-width:0.5;" x="61.4954326923" xlink:href="#me1a0c1f472" y="34.782125"/>
      </g>
     </g>
     <g id="text_1">
      <text style="font-family:Bitstream Vera Sans;font-size:10.0px;font-style:normal;font-weight:400;" transform="translate(44.1796029608 361.689036694)rotate(-45.0)">31.0 - 31.4</text>
     </g>
    </g>
    <g id="xtick_2">
     <g id="line2d_3">
      <g>
       <use style="stroke:#000000;stroke-width:0.5;" x="118.726201923" xlink:href="#m546ff31952" y="313.782125"/>
      </g>
     </g>
     <g id="line2d_4">
      <g>
       <use style="stroke:#000000;stroke-width:0.5;" x="118.726201923" xlink:href="#me1a0c1f472" y="34.782125"/>
      </g>
     </g>
     <g id="text_2">
      <text style="font-family:Bitstream Vera Sans;font-size:10.0px;font-style:normal;font-weight:400;" transform="translate(101.410372192 361.689036694)rotate(-45.0)">31.5 - 31.9</text>
     </g>
    </g>
    <g id="xtick_3">
     <g id="line2d_5">
      <g>
       <use style="stroke:#000000;stroke-width:0.5;" x="175.956971154" xlink:href="#m546ff31952" y="313.782125"/>
      </g>
     </g>
     <g id="line2d_6">
      <g>
       <use style="stroke:#000000;stroke-width:0.5;" x="175.956971154" xlink:href="#me1a0c1f472" y="34.782125"/>
      </g>
     </g>
     <g id="text_3">
      <text style="font-family:Bitstream Vera Sans;font-size:10.0px;font-style:normal;font-weight:400;" transform="translate(158.641141422 361.689036694)rotate(-45.0)">32.0 - 32.4</text>
     </g>
    </g>
    <g id="xtick_4">
     <g id="line2d_7">
      <g>
       <use style="stroke:#000000;stroke-width:0.5;" x="233.187740385" xlink:href="#m546ff31952" y="313.782125"/>
      </g>
     </g>
     <g id="line2d_8">
      <g>
       <use style="stroke:#000000;stroke-width:0.5;" x="233.187740385" xlink:href="#me1a0c1f472" y="34.782125"/>
      </g>
     </g>
     <g id="text_4">
      <text style="font-family:Bitstream Vera Sans;font-size:10.0px;font-style:normal;font-weight:400;" transform="translate(215.871910653 361.689036694)rotate(-45.0)">32.5 - 32.9</text>
     </g>
    </g>
    <g id="xtick_5">
     <g id="line2d_9">
      <g>
       <use style="stroke:#000000;stroke-width:0.5;" x="290.418509615" xlink:href="#m546ff31952" y="313.782125"/>
      </g>
     </g>
     <g id="line2d_10">
      <g>
       <use style="stroke:#000000;stroke-width:0.5;" x="290.418509615" xlink:href="#me1a0c1f472" y="34.782125"/>
      </g>
     </g>
     <g id="text_5">
      <text style="font-family:Bitstream Vera Sans;font-size:10.0px;font-style:normal;font-weight:400;" transform="translate(273.102679884 361.689036694)rotate(-45.0)">33.0 - 33.4</text>
     </g>
    </g>
    <g id="xtick_6">
     <g id="line2d_11">
      <g>
       <use style="stroke:#000000;stroke-width:0.5;" x="347.649278846" xlink:href="#m546ff31952" y="313.782125"/>
      </g>
     </g>
     <g id="line2d_12">
      <g>
       <use style="stroke:#000000;stroke-width:0.5;" x="347.649278846" xlink:href="#me1a0c1f472" y="34.782125"/>
      </g>
     </g>
     <g id="text_6">
      <text style="font-family:Bitstream Vera Sans;font-size:10.0px;font-style:normal;font-weight:400;" transform="translate(330.333449115 361.689036694)rotate(-45.0)">33.5 - 33.9</text>
     </g>
    </g>
    <g id="xtick_7">
     <g id="line2d_13">
      <g>
       <use style="stroke:#000000;stroke-width:0.5;" x="404.880048077" xlink:href="#m546ff31952" y="313.782125"/>
      </g>
     </g>
     <g id="line2d_14">
      <g>
       <use style="stroke:#000000;stroke-width:0.5;" x="404.880048077" xlink:href="#me1a0c1f472" y="34.782125"/>
      </g>
     </g>
     <g id="text_7">
      <text style="font-family:Bitstream Vera Sans;font-size:10.0px;font-style:normal;font-weight:400;" transform="translate(387.564218345 361.689036694)rotate(-45.0)">34.0 - 34.4</text>
     </g>
    </g>
    <g id="xtick_8">
     <g id="line2d_15">
      <g>
       <use style="stroke:#000000;stroke-width:0.5;" x="462.110817308" xlink:href="#m546ff31952" y="313.782125"/>
      </g>
     </g>
     <g id="line2d_16">
      <g>
       <use style="stroke:#000000;stroke-width:0.5;" x="462.110817308" xlink:href="#me1a0c1f472" y="34.782125"/>
      </g>
     </g>
     <g id="text_8">
      <text style="font-family:Bitstream Vera Sans;font-size:10.0px;font-style:normal;font-weight:400;" transform="translate(444.794987576 361.689036694)rotate(-45.0)">34.5 - 34.9</text>
     </g>
    </g>
    <g id="text_9">
     <!-- ANL Temperature ($^o$F) -->
     <g transform="translate(207.003125 375.759597828)">
      <text>
       <tspan style="font-family:cmmi10;font-size:7.0px;font-style:regular;font-weight:regular;" x="95.861453125" y="-4.23265625">o</tspan>
       <tspan style="font-family:Bitstream Vera Sans;font-size:10.0px;font-style:roman;font-weight:roman;" x="0.0 6.8408203125 14.3212890625 19.892578125 23.0712890625 29.1796875 35.33203125 45.0732421875 51.4208984375 57.5732421875 61.6845703125 67.8125 71.7333984375 78.0712890625 82.1826171875 88.3349609375 91.513671875 99.8863945313 105.638347656" y="-0.40625">ANL Temperature (F)</tspan>
      </text>
     </g>
    </g>
   </g>
   <g id="matplotlib.axis_2">
    <g id="ytick_1">
     <g id="line2d_17">
      <defs>
       <path d="M 0 0 
L 4 0 
" id="m19739bc70c" style="stroke:#000000;stroke-width:0.5;"/>
      </defs>
      <g>
       <use style="stroke:#000000;stroke-width:0.5;" x="38.603125" xlink:href="#m19739bc70c" y="313.782125"/>
      </g>
     </g>
     <g id="line2d_18">
      <defs>
       <path d="M 0 0 
L -4 0 
" id="mf3285b07d2" style="stroke:#000000;stroke-width:0.5;"/>
      </defs>
      <g>
       <use style="stroke:#000000;stroke-width:0.5;" x="485.003125" xlink:href="#mf3285b07d2" y="313.782125"/>
      </g>
     </g>
     <g id="text_10">
      <text style="font-family:Bitstream Vera Sans;font-size:10.0px;font-style:normal;font-weight:400;text-anchor:end;" transform="rotate(-0.000000, 34.603125, 316.541500)" x="34.603125" y="316.5415">0</text>
     </g>
    </g>
    <g id="ytick_2">
     <g id="line2d_19">
      <g>
       <use style="stroke:#000000;stroke-width:0.5;" x="38.603125" xlink:href="#m19739bc70c" y="282.782125"/>
      </g>
     </g>
     <g id="line2d_20">
      <g>
       <use style="stroke:#000000;stroke-width:0.5;" x="485.003125" xlink:href="#mf3285b07d2" y="282.782125"/>
      </g>
     </g>
     <g id="text_11">
      <text style="font-family:Bitstream Vera Sans;font-size:10.0px;font-style:normal;font-weight:400;text-anchor:end;" transform="rotate(-0.000000, 34.603125, 285.541500)" x="34.603125" y="285.5415">10</text>
     </g>
    </g>
    <g id="ytick_3">
     <g id="line2d_21">
      <g>
       <use style="stroke:#000000;stroke-width:0.5;" x="38.603125" xlink:href="#m19739bc70c" y="251.782125"/>
      </g>
     </g>
     <g id="line2d_22">
      <g>
       <use style="stroke:#000000;stroke-width:0.5;" x="485.003125" xlink:href="#mf3285b07d2" y="251.782125"/>
      </g>
     </g>
     <g id="text_12">
      <text style="font-family:Bitstream Vera Sans;font-size:10.0px;font-style:normal;font-weight:400;text-anchor:end;" transform="rotate(-0.000000, 34.603125, 254.541500)" x="34.603125" y="254.5415">20</text>
     </g>
    </g>
    <g id="ytick_4">
     <g id="line2d_23">
      <g>
       <use style="stroke:#000000;stroke-width:0.5;" x="38.603125" xlink:href="#m19739bc70c" y="220.782125"/>
      </g>
     </g>
     <g id="line2d_24">
      <g>
       <use style="stroke:#000000;stroke-width:0.5;" x="485.003125" xlink:href="#mf3285b07d2" y="220.782125"/>
      </g>
     </g>
     <g id="text_13">
      <text style="font-family:Bitstream Vera Sans;font-size:10.0px;font-style:normal;font-weight:400;text-anchor:end;" transform="rotate(-0.000000, 34.603125, 223.541500)" x="34.603125" y="223.5415">30</text>
     </g>
    </g>
    <g id="ytick_5">
     <g id="line2d_25">
      <g>
       <use style="stroke:#000000;stroke-width:0.5;" x="38.603125" xlink:href="#m19739bc70c" y="189.782125"/>
      </g>
     </g>
     <g id="line2d_26">
      <g>
       <use style="stroke:#000000;stroke-width:0.5;" x="485.003125" xlink:href="#mf3285b07d2" y="189.782125"/>
      </g>
     </g>
     <g id="text_14">
      <text style="font-family:Bitstream Vera Sans;font-size:10.0px;font-style:normal;font-weight:400;text-anchor:end;" transform="rotate(-0.000000, 34.603125, 192.541500)" x="34.603125" y="192.5415">40</text>
     </g>
    </g>
    <g id="ytick_6">
     <g id="line2d_27">
      <g>
       <use style="stroke:#000000;stroke-width:0.5;" x="38.603125" xlink:href="#m19739bc70c" y="158.782125"/>
      </g>
     </g>
     <g id="line2d_28">
      <g>
       <use style="stroke:#000000;stroke-width:0.5;" x="485.003125" xlink:href="#mf3285b07d2" y="158.782125"/>
      </g>
     </g>
     <g id="text_15">
      <text style="font-family:Bitstream Vera Sans;font-size:10.0px;font-style:normal;font-weight:400;text-anchor:end;" transform="rotate(-0.000000, 34.603125, 161.541500)" x="34.603125" y="161.5415">50</text>
     </g>
    </g>
    <g id="ytick_7">
     <g id="line2d_29">
      <g>
       <use style="stroke:#000000;stroke-width:0.5;" x="38.603125" xlink:href="#m19739bc70c" y="127.782125"/>
      </g>
     </g>
     <g id="line2d_30">
      <g>
       <use style="stroke:#000000;stroke-width:0.5;" x="485.003125" xlink:href="#mf3285b07d2" y="127.782125"/>
      </g>
     </g>
     <g id="text_16">
      <text style="font-family:Bitstream Vera Sans;font-size:10.0px;font-style:normal;font-weight:400;text-anchor:end;" transform="rotate(-0.000000, 34.603125, 130.541500)" x="34.603125" y="130.5415">60</text>
     </g>
    </g>
    <g id="ytick_8">
     <g id="line2d_31">
      <g>
       <use style="stroke:#000000;stroke-width:0.5;" x="38.603125" xlink:href="#m19739bc70c" y="96.782125"/>
      </g>
     </g>
     <g id="line2d_32">
      <g>
       <use style="stroke:#000000;stroke-width:0.5;" x="485.003125" xlink:href="#mf3285b07d2" y="96.782125"/>
      </g>
     </g>
     <g id="text_17">
      <text style="font-family:Bitstream Vera Sans;font-size:10.0px;font-style:normal;font-weight:400;text-anchor:end;" transform="rotate(-0.000000, 34.603125, 99.541500)" x="34.603125" y="99.5415">70</text>
     </g>
    </g>
    <g id="ytick_9">
     <g id="line2d_33">
      <g>
       <use style="stroke:#000000;stroke-width:0.5;" x="38.603125" xlink:href="#m19739bc70c" y="65.782125"/>
      </g>
     </g>
     <g id="line2d_34">
      <g>
       <use style="stroke:#000000;stroke-width:0.5;" x="485.003125" xlink:href="#mf3285b07d2" y="65.782125"/>
      </g>
     </g>
     <g id="text_18">
      <text style="font-family:Bitstream Vera Sans;font-size:10.0px;font-style:normal;font-weight:400;text-anchor:end;" transform="rotate(-0.000000, 34.603125, 68.541500)" x="34.603125" y="68.5415">80</text>
     </g>
    </g>
    <g id="ytick_10">
     <g id="line2d_35">
      <g>
       <use style="stroke:#000000;stroke-width:0.5;" x="38.603125" xlink:href="#m19739bc70c" y="34.782125"/>
      </g>
     </g>
     <g id="line2d_36">
      <g>
       <use style="stroke:#000000;stroke-width:0.5;" x="485.003125" xlink:href="#mf3285b07d2" y="34.782125"/>
      </g>
     </g>
     <g id="text_19">
      <text style="font-family:Bitstream Vera Sans;font-size:10.0px;font-style:normal;font-weight:400;text-anchor:end;" transform="rotate(-0.000000, 34.603125, 37.541500)" x="34.603125" y="37.5415">90</text>
     </g>
    </g>
    <g id="text_20">
     <text style="font-family:Bitstream Vera Sans;font-size:10.0px;font-style:normal;font-weight:400;text-anchor:middle;" transform="rotate(-90.000000, 14.798438, 174.282125)" x="14.7984375" y="174.282125">Number of ASOS and HSPF Rain-Snow Reports</text>
    </g>
   </g>
   <g id="text_21">
    <g id="patch_39">
     <path d="M 127.883125 72.205656 
L 323.4425 72.205656 
Q 326.7425 72.205656 326.7425 68.905656 
L 326.7425 45.942125 
Q 326.7425 42.642125 323.4425 42.642125 
L 127.883125 42.642125 
Q 124.583125 42.642125 124.583125 45.942125 
L 124.583125 68.905656 
Q 124.583125 72.205656 127.883125 72.205656 
z
" style="fill:#cccccc;opacity:0.5;stroke:#000000;stroke-linejoin:miter;"/>
    </g>
    <text style="font-family:Bitstream Vera Sans;font-size:11.0px;font-style:normal;font-weight:400;" transform="translate(127.883125 54.30040625)">HSPF Rain/Snow Report Ratio: 1.03</text>
    <text style="font-family:Bitstream Vera Sans;font-size:11.0px;font-style:normal;font-weight:400;" transform="translate(127.883125 66.618)">ASOS Rain/Snow Report Ratio: 0.80</text>
   </g>
   <g id="text_22">
    <!-- DuPage Airport (KDPA): TSNOW=32.0$^o$F -->
    <g transform="translate(142.163125 16.344375)">
     <text>
      <tspan style="font-family:cmmi10;font-size:8.4px;font-style:regular;font-weight:regular;" x="227.457571875" y="-5.4666875">o</tspan>
      <tspan style="font-family:Bitstream Vera Sans;font-size:12.0px;font-style:roman;font-weight:roman;" x="0.0 9.240234375 16.845703125 24.08203125 31.435546875 39.052734375 46.435546875 50.25 58.458984375 61.79296875 66.7265625 74.34375 81.685546875 86.619140625 91.32421875 95.138671875 99.8203125 107.689453125 116.9296875 124.166015625 132.375 137.056640625 141.099609375 144.9140625 152.244140625 159.861328125 168.837890625 178.283203125 190.1484375 200.203125 207.837890625 215.47265625 219.287109375 232.287501563" y="-0.875">DuPage Airport (KDPA): TSNOW=32.0F</tspan>
     </text>
    </g>
    <text style="font-family:Bitstream Vera Sans;font-size:12.0px;font-style:normal;font-weight:400;" transform="translate(198.1121875 29.806125)">1/1/2006 - 9/30/2013</text>
   </g>
   <g id="legend_1">
    <g id="patch_40">
     <path d="M 366.71875 114.837125 
L 479.003125 114.837125 
L 479.003125 40.782125 
L 366.71875 40.782125 
z
" style="fill:#ffffff;stroke:#000000;stroke-linejoin:miter;"/>
    </g>
    <g id="patch_41">
     <path d="M 371.51875 54.70025 
L 395.51875 54.70025 
L 395.51875 46.30025 
L 371.51875 46.30025 
z
" style="fill:url(#h5492faaa12);opacity:0.35;stroke:#000000;stroke-linejoin:miter;"/>
    </g>
    <g id="text_23">
     <text style="font-family:Bitstream Vera Sans;font-size:12.0px;font-style:normal;font-weight:400;text-anchor:start;" transform="rotate(-0.000000, 405.118750, 54.700250)" x="405.11875" y="54.70025">HSPF Snow</text>
    </g>
    <g id="patch_42">
     <path d="M 371.51875 72.314 
L 395.51875 72.314 
L 395.51875 63.914 
L 371.51875 63.914 
z
" style="fill:#0000ff;stroke:#000000;stroke-linejoin:miter;"/>
    </g>
    <g id="text_24">
     <text style="font-family:Bitstream Vera Sans;font-size:12.0px;font-style:normal;font-weight:400;text-anchor:start;" transform="rotate(-0.000000, 405.118750, 72.314000)" x="405.11875" y="72.314">ASOS Snow</text>
    </g>
    <g id="patch_43">
     <path d="M 371.51875 89.92775 
L 395.51875 89.92775 
L 395.51875 81.52775 
L 371.51875 81.52775 
z
" style="fill:url(#h6d3252f479);opacity:0.35;stroke:#000000;stroke-linejoin:miter;"/>
    </g>
    <g id="text_25">
     <text style="font-family:Bitstream Vera Sans;font-size:12.0px;font-style:normal;font-weight:400;text-anchor:start;" transform="rotate(-0.000000, 405.118750, 89.927750)" x="405.11875" y="89.92775">HSPF Rain</text>
    </g>
    <g id="patch_44">
     <path d="M 371.51875 107.5415 
L 395.51875 107.5415 
L 395.51875 99.1415 
L 371.51875 99.1415 
z
" style="fill:#ff0000;stroke:#000000;stroke-linejoin:miter;"/>
    </g>
    <g id="text_26">
     <text style="font-family:Bitstream Vera Sans;font-size:12.0px;font-style:normal;font-weight:400;text-anchor:start;" transform="rotate(-0.000000, 405.118750, 107.541500)" x="405.11875" y="107.5415">ASOS Rain</text>
    </g>
   </g>
  </g>
 </g>
 <defs>
  <clipPath id="pc03831c4d7">
   <rect height="279.0" width="446.4" x="38.603125" y="34.782125"/>
  </clipPath>
 </defs>
 <defs>
  <pattern height="72" id="h6d3252f479" patternUnits="userSpaceOnUse" width="72" x="0" y="0">
   <rect fill="#ff0000" height="73" width="73" x="0" y="0"/>
   <path d="M -36 36 
L 36 -36 
M -30 42 
L 42 -30 
M -24 48 
L 48 -24 
M -18 54 
L 54 -18 
M -12 60 
L 60 -12 
M -6 66 
L 66 -6 
M 0 72 
L 72 0 
M 6 78 
L 78 6 
M 12 84 
L 84 12 
M 18 90 
L 90 18 
M 24 96 
L 96 24 
M 30 102 
L 102 30 
M 36 108 
L 108 36 
" style="fill:#000000;stroke:#000000;stroke-linecap:butt;stroke-linejoin:miter;stroke-width:1.0;"/>
  </pattern>
  <pattern height="72" id="h5492faaa12" patternUnits="userSpaceOnUse" width="72" x="0" y="0">
   <rect fill="#0000ff" height="73" width="73" x="0" y="0"/>
   <path d="M -36 36 
L 36 -36 
M -30 42 
L 42 -30 
M -24 48 
L 48 -24 
M -18 54 
L 54 -18 
M -12 60 
L 60 -12 
M -6 66 
L 66 -6 
M 0 72 
L 72 0 
M 6 78 
L 78 6 
M 12 84 
L 84 12 
M 18 90 
L 90 18 
M 24 96 
L 96 24 
M 30 102 
L 102 30 
M 36 108 
L 108 36 
" style="fill:#000000;stroke:#000000;stroke-linecap:butt;stroke-linejoin:miter;stroke-width:1.0;"/>
  </pattern>
 </defs>
</svg>
