<?xml version="1.0" encoding="utf-8" standalone="no"?>
<!DOCTYPE svg PUBLIC "-//W3C//DTD SVG 1.1//EN"
  "http://www.w3.org/Graphics/SVG/1.1/DTD/svg11.dtd">
<!-- Created with matplotlib (http://matplotlib.org/) -->
<svg height="385pt" version="1.1" viewBox="0 0 495 385" width="495pt" xmlns="http://www.w3.org/2000/svg" xmlns:xlink="http://www.w3.org/1999/xlink">
 <defs>
  <style type="text/css">
*{stroke-linecap:butt;stroke-linejoin:round;stroke-miterlimit:100000;}
  </style>
 </defs>
 <g id="figure_1">
  <g id="patch_1">
   <path d="M 0 385.059598 
L 495.38125 385.059598 
L 495.38125 0 
L 0 0 
z
" style="fill:#ffffff;"/>
  </g>
  <g id="axes_1">
   <g id="patch_2">
    <path d="M 41.78125 313.782125 
L 488.18125 313.782125 
L 488.18125 34.782125 
L 41.78125 34.782125 
z
" style="fill:#ffffff;"/>
   </g>
   <g id="patch_3">
    <path clip-path="url(#p39e860946b)" d="M 41.78125 313.782125 
L 53.227404 313.782125 
L 53.227404 197.074448 
L 41.78125 197.074448 
z
" style="fill:url(#h29cfe627ae);opacity:0.35;stroke:#000000;stroke-linejoin:miter;"/>
   </g>
   <g id="patch_4">
    <path clip-path="url(#p39e860946b)" d="M 53.227404 313.782125 
L 64.673558 313.782125 
L 64.673558 240.32494 
L 53.227404 240.32494 
z
" style="fill:#0000ff;stroke:#000000;stroke-linejoin:miter;"/>
   </g>
   <g id="patch_5">
    <path clip-path="url(#p39e860946b)" d="M 99.012019 313.782125 
L 110.458173 313.782125 
L 110.458173 61.14433 
L 99.012019 61.14433 
z
" style="fill:url(#h29cfe627ae);opacity:0.35;stroke:#000000;stroke-linejoin:miter;"/>
   </g>
   <g id="patch_6">
    <path clip-path="url(#p39e860946b)" d="M 110.458173 313.782125 
L 121.904327 313.782125 
L 121.904327 154.510471 
L 110.458173 154.510471 
z
" style="fill:#0000ff;stroke:#000000;stroke-linejoin:miter;"/>
   </g>
   <g id="patch_7">
    <path clip-path="url(#p39e860946b)" d="M 156.242788 313.782125 
L 167.688942 313.782125 
L 167.688942 186.776712 
L 156.242788 186.776712 
z
" style="fill:url(#h29cfe627ae);opacity:0.35;stroke:#000000;stroke-linejoin:miter;"/>
   </g>
   <g id="patch_8">
    <path clip-path="url(#p39e860946b)" d="M 167.688942 313.782125 
L 179.135096 313.782125 
L 179.135096 242.384487 
L 167.688942 242.384487 
z
" style="fill:#0000ff;stroke:#000000;stroke-linejoin:miter;"/>
   </g>
   <g id="patch_9">
    <path clip-path="url(#p39e860946b)" d="M 213.473558 313.782125 
L 224.919712 313.782125 
L 224.919712 286.321495 
L 213.473558 286.321495 
z
" style="fill:url(#h29cfe627ae);opacity:0.35;stroke:#000000;stroke-linejoin:miter;"/>
   </g>
   <g id="patch_10">
    <path clip-path="url(#p39e860946b)" d="M 224.919712 313.782125 
L 236.365865 313.782125 
L 236.365865 254.741771 
L 224.919712 254.741771 
z
" style="fill:#0000ff;stroke:#000000;stroke-linejoin:miter;"/>
   </g>
   <g id="patch_11">
    <path clip-path="url(#p39e860946b)" d="M 270.704327 313.782125 
L 282.150481 313.782125 
L 282.150481 313.782125 
L 270.704327 313.782125 
z
" style="fill:url(#h29cfe627ae);opacity:0.35;stroke:#000000;stroke-linejoin:miter;"/>
   </g>
   <g id="patch_12">
    <path clip-path="url(#p39e860946b)" d="M 282.150481 313.782125 
L 293.596635 313.782125 
L 293.596635 256.801318 
L 282.150481 256.801318 
z
" style="fill:#0000ff;stroke:#000000;stroke-linejoin:miter;"/>
   </g>
   <g id="patch_13">
    <path clip-path="url(#p39e860946b)" d="M 327.935096 313.782125 
L 339.38125 313.782125 
L 339.38125 313.782125 
L 327.935096 313.782125 
z
" style="fill:url(#h29cfe627ae);opacity:0.35;stroke:#000000;stroke-linejoin:miter;"/>
   </g>
   <g id="patch_14">
    <path clip-path="url(#p39e860946b)" d="M 339.38125 313.782125 
L 350.827404 313.782125 
L 350.827404 292.500137 
L 339.38125 292.500137 
z
" style="fill:#0000ff;stroke:#000000;stroke-linejoin:miter;"/>
   </g>
   <g id="patch_15">
    <path clip-path="url(#p39e860946b)" d="M 385.165865 313.782125 
L 396.612019 313.782125 
L 396.612019 313.782125 
L 385.165865 313.782125 
z
" style="fill:url(#h29cfe627ae);opacity:0.35;stroke:#000000;stroke-linejoin:miter;"/>
   </g>
   <g id="patch_16">
    <path clip-path="url(#p39e860946b)" d="M 396.612019 313.782125 
L 408.058173 313.782125 
L 408.058173 280.142853 
L 396.612019 280.142853 
z
" style="fill:#0000ff;stroke:#000000;stroke-linejoin:miter;"/>
   </g>
   <g id="patch_17">
    <path clip-path="url(#p39e860946b)" d="M 442.396635 313.782125 
L 453.842788 313.782125 
L 453.842788 313.782125 
L 442.396635 313.782125 
z
" style="fill:url(#h29cfe627ae);opacity:0.35;stroke:#000000;stroke-linejoin:miter;"/>
   </g>
   <g id="patch_18">
    <path clip-path="url(#p39e860946b)" d="M 453.842788 313.782125 
L 465.288942 313.782125 
L 465.288942 302.797873 
L 453.842788 302.797873 
z
" style="fill:#0000ff;stroke:#000000;stroke-linejoin:miter;"/>
   </g>
   <g id="patch_19">
    <path clip-path="url(#p39e860946b)" d="M 64.673558 313.782125 
L 76.119712 313.782125 
L 76.119712 313.782125 
L 64.673558 313.782125 
z
" style="fill:url(#he6c2f4b182);opacity:0.35;stroke:#000000;stroke-linejoin:miter;"/>
   </g>
   <g id="patch_20">
    <path clip-path="url(#p39e860946b)" d="M 76.119712 313.782125 
L 87.565865 313.782125 
L 87.565865 270.531633 
L 76.119712 270.531633 
z
" style="fill:#ff0000;stroke:#000000;stroke-linejoin:miter;"/>
   </g>
   <g id="patch_21">
    <path clip-path="url(#p39e860946b)" d="M 121.904327 313.782125 
L 133.350481 313.782125 
L 133.350481 313.782125 
L 121.904327 313.782125 
z
" style="fill:url(#he6c2f4b182);opacity:0.35;stroke:#000000;stroke-linejoin:miter;"/>
   </g>
   <g id="patch_22">
    <path clip-path="url(#p39e860946b)" d="M 133.350481 313.782125 
L 144.796635 313.782125 
L 144.796635 220.415983 
L 133.350481 220.415983 
z
" style="fill:#ff0000;stroke:#000000;stroke-linejoin:miter;"/>
   </g>
   <g id="patch_23">
    <path clip-path="url(#p39e860946b)" d="M 179.135096 313.782125 
L 190.58125 313.782125 
L 190.58125 257.487834 
L 179.135096 257.487834 
z
" style="fill:url(#he6c2f4b182);opacity:0.35;stroke:#000000;stroke-linejoin:miter;"/>
   </g>
   <g id="patch_24">
    <path clip-path="url(#p39e860946b)" d="M 190.58125 313.782125 
L 202.027404 313.782125 
L 202.027404 201.880058 
L 190.58125 201.880058 
z
" style="fill:#ff0000;stroke:#000000;stroke-linejoin:miter;"/>
   </g>
   <g id="patch_25">
    <path clip-path="url(#p39e860946b)" d="M 236.365865 313.782125 
L 247.812019 313.782125 
L 247.812019 181.971101 
L 236.365865 181.971101 
z
" style="fill:url(#he6c2f4b182);opacity:0.35;stroke:#000000;stroke-linejoin:miter;"/>
   </g>
   <g id="patch_26">
    <path clip-path="url(#p39e860946b)" d="M 247.812019 313.782125 
L 259.258173 313.782125 
L 259.258173 213.550826 
L 247.812019 213.550826 
z
" style="fill:#ff0000;stroke:#000000;stroke-linejoin:miter;"/>
   </g>
   <g id="patch_27">
    <path clip-path="url(#p39e860946b)" d="M 293.596635 313.782125 
L 305.042788 313.782125 
L 305.042788 110.573464 
L 293.596635 110.573464 
z
" style="fill:url(#he6c2f4b182);opacity:0.35;stroke:#000000;stroke-linejoin:miter;"/>
   </g>
   <g id="patch_28">
    <path clip-path="url(#p39e860946b)" d="M 305.042788 313.782125 
L 316.488942 313.782125 
L 316.488942 167.554271 
L 305.042788 167.554271 
z
" style="fill:#ff0000;stroke:#000000;stroke-linejoin:miter;"/>
   </g>
   <g id="patch_29">
    <path clip-path="url(#p39e860946b)" d="M 350.827404 313.782125 
L 362.273558 313.782125 
L 362.273558 122.930747 
L 350.827404 122.930747 
z
" style="fill:url(#he6c2f4b182);opacity:0.35;stroke:#000000;stroke-linejoin:miter;"/>
   </g>
   <g id="patch_30">
    <path clip-path="url(#p39e860946b)" d="M 362.273558 313.782125 
L 373.719712 313.782125 
L 373.719712 144.212735 
L 362.273558 144.212735 
z
" style="fill:#ff0000;stroke:#000000;stroke-linejoin:miter;"/>
   </g>
   <g id="patch_31">
    <path clip-path="url(#p39e860946b)" d="M 408.058173 313.782125 
L 419.504327 313.782125 
L 419.504327 233.459782 
L 408.058173 233.459782 
z
" style="fill:url(#he6c2f4b182);opacity:0.35;stroke:#000000;stroke-linejoin:miter;"/>
   </g>
   <g id="patch_32">
    <path clip-path="url(#p39e860946b)" d="M 419.504327 313.782125 
L 430.950481 313.782125 
L 430.950481 267.099054 
L 419.504327 267.099054 
z
" style="fill:#ff0000;stroke:#000000;stroke-linejoin:miter;"/>
   </g>
   <g id="patch_33">
    <path clip-path="url(#p39e860946b)" d="M 465.288942 313.782125 
L 476.735096 313.782125 
L 476.735096 194.328385 
L 465.288942 194.328385 
z
" style="fill:url(#he6c2f4b182);opacity:0.35;stroke:#000000;stroke-linejoin:miter;"/>
   </g>
   <g id="patch_34">
    <path clip-path="url(#p39e860946b)" d="M 476.735096 313.782125 
L 488.18125 313.782125 
L 488.18125 205.312637 
L 476.735096 205.312637 
z
" style="fill:#ff0000;stroke:#000000;stroke-linejoin:miter;"/>
   </g>
   <g id="patch_35">
    <path d="M 41.78125 34.782125 
L 488.18125 34.782125 
" style="fill:none;stroke:#000000;stroke-linecap:square;stroke-linejoin:miter;"/>
   </g>
   <g id="patch_36">
    <path d="M 488.18125 313.782125 
L 488.18125 34.782125 
" style="fill:none;stroke:#000000;stroke-linecap:square;stroke-linejoin:miter;"/>
   </g>
   <g id="patch_37">
    <path d="M 41.78125 313.782125 
L 488.18125 313.782125 
" style="fill:none;stroke:#000000;stroke-linecap:square;stroke-linejoin:miter;"/>
   </g>
   <g id="patch_38">
    <path d="M 41.78125 313.782125 
L 41.78125 34.782125 
" style="fill:none;stroke:#000000;stroke-linecap:square;stroke-linejoin:miter;"/>
   </g>
   <g id="matplotlib.axis_1">
    <g id="xtick_1">
     <g id="line2d_1">
      <defs>
       <path d="M 0 0 
L 0 -4 
" id="mb99fcf5914" style="stroke:#000000;stroke-width:0.5;"/>
      </defs>
      <g>
       <use style="stroke:#000000;stroke-width:0.5;" x="64.6735576923" xlink:href="#mb99fcf5914" y="313.782125"/>
      </g>
     </g>
     <g id="line2d_2">
      <defs>
       <path d="M 0 0 
L 0 4 
" id="m7d06d82572" style="stroke:#000000;stroke-width:0.5;"/>
      </defs>
      <g>
       <use style="stroke:#000000;stroke-width:0.5;" x="64.6735576923" xlink:href="#m7d06d82572" y="34.782125"/>
      </g>
     </g>
     <g id="text_1">
      <text style="font-family:Bitstream Vera Sans;font-size:10.0px;font-style:normal;font-weight:400;" transform="translate(47.3577279608 361.689036694)rotate(-45.0)">31.0 - 31.4</text>
     </g>
    </g>
    <g id="xtick_2">
     <g id="line2d_3">
      <g>
       <use style="stroke:#000000;stroke-width:0.5;" x="121.904326923" xlink:href="#mb99fcf5914" y="313.782125"/>
      </g>
     </g>
     <g id="line2d_4">
      <g>
       <use style="stroke:#000000;stroke-width:0.5;" x="121.904326923" xlink:href="#m7d06d82572" y="34.782125"/>
      </g>
     </g>
     <g id="text_2">
      <text style="font-family:Bitstream Vera Sans;font-size:10.0px;font-style:normal;font-weight:400;" transform="translate(104.588497192 361.689036694)rotate(-45.0)">31.5 - 31.9</text>
     </g>
    </g>
    <g id="xtick_3">
     <g id="line2d_5">
      <g>
       <use style="stroke:#000000;stroke-width:0.5;" x="179.135096154" xlink:href="#mb99fcf5914" y="313.782125"/>
      </g>
     </g>
     <g id="line2d_6">
      <g>
       <use style="stroke:#000000;stroke-width:0.5;" x="179.135096154" xlink:href="#m7d06d82572" y="34.782125"/>
      </g>
     </g>
     <g id="text_3">
      <text style="font-family:Bitstream Vera Sans;font-size:10.0px;font-style:normal;font-weight:400;" transform="translate(161.819266422 361.689036694)rotate(-45.0)">32.0 - 32.4</text>
     </g>
    </g>
    <g id="xtick_4">
     <g id="line2d_7">
      <g>
       <use style="stroke:#000000;stroke-width:0.5;" x="236.365865385" xlink:href="#mb99fcf5914" y="313.782125"/>
      </g>
     </g>
     <g id="line2d_8">
      <g>
       <use style="stroke:#000000;stroke-width:0.5;" x="236.365865385" xlink:href="#m7d06d82572" y="34.782125"/>
      </g>
     </g>
     <g id="text_4">
      <text style="font-family:Bitstream Vera Sans;font-size:10.0px;font-style:normal;font-weight:400;" transform="translate(219.050035653 361.689036694)rotate(-45.0)">32.5 - 32.9</text>
     </g>
    </g>
    <g id="xtick_5">
     <g id="line2d_9">
      <g>
       <use style="stroke:#000000;stroke-width:0.5;" x="293.596634615" xlink:href="#mb99fcf5914" y="313.782125"/>
      </g>
     </g>
     <g id="line2d_10">
      <g>
       <use style="stroke:#000000;stroke-width:0.5;" x="293.596634615" xlink:href="#m7d06d82572" y="34.782125"/>
      </g>
     </g>
     <g id="text_5">
      <text style="font-family:Bitstream Vera Sans;font-size:10.0px;font-style:normal;font-weight:400;" transform="translate(276.280804884 361.689036694)rotate(-45.0)">33.0 - 33.4</text>
     </g>
    </g>
    <g id="xtick_6">
     <g id="line2d_11">
      <g>
       <use style="stroke:#000000;stroke-width:0.5;" x="350.827403846" xlink:href="#mb99fcf5914" y="313.782125"/>
      </g>
     </g>
     <g id="line2d_12">
      <g>
       <use style="stroke:#000000;stroke-width:0.5;" x="350.827403846" xlink:href="#m7d06d82572" y="34.782125"/>
      </g>
     </g>
     <g id="text_6">
      <text style="font-family:Bitstream Vera Sans;font-size:10.0px;font-style:normal;font-weight:400;" transform="translate(333.511574115 361.689036694)rotate(-45.0)">33.5 - 33.9</text>
     </g>
    </g>
    <g id="xtick_7">
     <g id="line2d_13">
      <g>
       <use style="stroke:#000000;stroke-width:0.5;" x="408.058173077" xlink:href="#mb99fcf5914" y="313.782125"/>
      </g>
     </g>
     <g id="line2d_14">
      <g>
       <use style="stroke:#000000;stroke-width:0.5;" x="408.058173077" xlink:href="#m7d06d82572" y="34.782125"/>
      </g>
     </g>
     <g id="text_7">
      <text style="font-family:Bitstream Vera Sans;font-size:10.0px;font-style:normal;font-weight:400;" transform="translate(390.742343345 361.689036694)rotate(-45.0)">34.0 - 34.4</text>
     </g>
    </g>
    <g id="xtick_8">
     <g id="line2d_15">
      <g>
       <use style="stroke:#000000;stroke-width:0.5;" x="465.288942308" xlink:href="#mb99fcf5914" y="313.782125"/>
      </g>
     </g>
     <g id="line2d_16">
      <g>
       <use style="stroke:#000000;stroke-width:0.5;" x="465.288942308" xlink:href="#m7d06d82572" y="34.782125"/>
      </g>
     </g>
     <g id="text_8">
      <text style="font-family:Bitstream Vera Sans;font-size:10.0px;font-style:normal;font-weight:400;" transform="translate(447.973112576 361.689036694)rotate(-45.0)">34.5 - 34.9</text>
     </g>
    </g>
    <g id="text_9">
     <!-- ANL Temperature ($^o$F) -->
     <g transform="translate(210.18125 375.759597828)">
      <text>
       <tspan style="font-family:cmmi10;font-size:7.0px;font-style:regular;font-weight:regular;" x="95.861453125" y="-4.23265625">o</tspan>
       <tspan style="font-family:Bitstream Vera Sans;font-size:10.0px;font-style:roman;font-weight:roman;" x="0.0 6.8408203125 14.3212890625 19.892578125 23.0712890625 29.1796875 35.33203125 45.0732421875 51.4208984375 57.5732421875 61.6845703125 67.8125 71.7333984375 78.0712890625 82.1826171875 88.3349609375 91.513671875 99.8863945313 105.638347656" y="-0.40625">ANL Temperature (F)</tspan>
      </text>
     </g>
    </g>
   </g>
   <g id="matplotlib.axis_2">
    <g id="ytick_1">
     <g id="line2d_17">
      <defs>
       <path d="M 0 0 
L 4 0 
" id="mc0f204e6c9" style="stroke:#000000;stroke-width:0.5;"/>
      </defs>
      <g>
       <use style="stroke:#000000;stroke-width:0.5;" x="41.78125" xlink:href="#mc0f204e6c9" y="313.782125"/>
      </g>
     </g>
     <g id="line2d_18">
      <defs>
       <path d="M 0 0 
L -4 0 
" id="m02e510ce77" style="stroke:#000000;stroke-width:0.5;"/>
      </defs>
      <g>
       <use style="stroke:#000000;stroke-width:0.5;" x="488.18125" xlink:href="#m02e510ce77" y="313.782125"/>
      </g>
     </g>
     <g id="text_10">
      <text style="font-family:Bitstream Vera Sans;font-size:10.0px;font-style:normal;font-weight:400;text-anchor:end;" transform="rotate(-0.000000, 37.781250, 316.541500)" x="37.78125" y="316.5415">0.0</text>
     </g>
    </g>
    <g id="ytick_2">
     <g id="line2d_19">
      <g>
       <use style="stroke:#000000;stroke-width:0.5;" x="41.78125" xlink:href="#mc0f204e6c9" y="278.907125"/>
      </g>
     </g>
     <g id="line2d_20">
      <g>
       <use style="stroke:#000000;stroke-width:0.5;" x="488.18125" xlink:href="#m02e510ce77" y="278.907125"/>
      </g>
     </g>
     <g id="text_11">
      <text style="font-family:Bitstream Vera Sans;font-size:10.0px;font-style:normal;font-weight:400;text-anchor:end;" transform="rotate(-0.000000, 37.781250, 281.666500)" x="37.78125" y="281.6665">0.2</text>
     </g>
    </g>
    <g id="ytick_3">
     <g id="line2d_21">
      <g>
       <use style="stroke:#000000;stroke-width:0.5;" x="41.78125" xlink:href="#mc0f204e6c9" y="244.032125"/>
      </g>
     </g>
     <g id="line2d_22">
      <g>
       <use style="stroke:#000000;stroke-width:0.5;" x="488.18125" xlink:href="#m02e510ce77" y="244.032125"/>
      </g>
     </g>
     <g id="text_12">
      <text style="font-family:Bitstream Vera Sans;font-size:10.0px;font-style:normal;font-weight:400;text-anchor:end;" transform="rotate(-0.000000, 37.781250, 246.791500)" x="37.78125" y="246.7915">0.4</text>
     </g>
    </g>
    <g id="ytick_4">
     <g id="line2d_23">
      <g>
       <use style="stroke:#000000;stroke-width:0.5;" x="41.78125" xlink:href="#mc0f204e6c9" y="209.157125"/>
      </g>
     </g>
     <g id="line2d_24">
      <g>
       <use style="stroke:#000000;stroke-width:0.5;" x="488.18125" xlink:href="#m02e510ce77" y="209.157125"/>
      </g>
     </g>
     <g id="text_13">
      <text style="font-family:Bitstream Vera Sans;font-size:10.0px;font-style:normal;font-weight:400;text-anchor:end;" transform="rotate(-0.000000, 37.781250, 211.916500)" x="37.78125" y="211.9165">0.6</text>
     </g>
    </g>
    <g id="ytick_5">
     <g id="line2d_25">
      <g>
       <use style="stroke:#000000;stroke-width:0.5;" x="41.78125" xlink:href="#mc0f204e6c9" y="174.282125"/>
      </g>
     </g>
     <g id="line2d_26">
      <g>
       <use style="stroke:#000000;stroke-width:0.5;" x="488.18125" xlink:href="#m02e510ce77" y="174.282125"/>
      </g>
     </g>
     <g id="text_14">
      <text style="font-family:Bitstream Vera Sans;font-size:10.0px;font-style:normal;font-weight:400;text-anchor:end;" transform="rotate(-0.000000, 37.781250, 177.041500)" x="37.78125" y="177.0415">0.8</text>
     </g>
    </g>
    <g id="ytick_6">
     <g id="line2d_27">
      <g>
       <use style="stroke:#000000;stroke-width:0.5;" x="41.78125" xlink:href="#mc0f204e6c9" y="139.407125"/>
      </g>
     </g>
     <g id="line2d_28">
      <g>
       <use style="stroke:#000000;stroke-width:0.5;" x="488.18125" xlink:href="#m02e510ce77" y="139.407125"/>
      </g>
     </g>
     <g id="text_15">
      <text style="font-family:Bitstream Vera Sans;font-size:10.0px;font-style:normal;font-weight:400;text-anchor:end;" transform="rotate(-0.000000, 37.781250, 142.166500)" x="37.78125" y="142.1665">1.0</text>
     </g>
    </g>
    <g id="ytick_7">
     <g id="line2d_29">
      <g>
       <use style="stroke:#000000;stroke-width:0.5;" x="41.78125" xlink:href="#mc0f204e6c9" y="104.532125"/>
      </g>
     </g>
     <g id="line2d_30">
      <g>
       <use style="stroke:#000000;stroke-width:0.5;" x="488.18125" xlink:href="#m02e510ce77" y="104.532125"/>
      </g>
     </g>
     <g id="text_16">
      <text style="font-family:Bitstream Vera Sans;font-size:10.0px;font-style:normal;font-weight:400;text-anchor:end;" transform="rotate(-0.000000, 37.781250, 107.291500)" x="37.78125" y="107.2915">1.2</text>
     </g>
    </g>
    <g id="ytick_8">
     <g id="line2d_31">
      <g>
       <use style="stroke:#000000;stroke-width:0.5;" x="41.78125" xlink:href="#mc0f204e6c9" y="69.657125"/>
      </g>
     </g>
     <g id="line2d_32">
      <g>
       <use style="stroke:#000000;stroke-width:0.5;" x="488.18125" xlink:href="#m02e510ce77" y="69.657125"/>
      </g>
     </g>
     <g id="text_17">
      <text style="font-family:Bitstream Vera Sans;font-size:10.0px;font-style:normal;font-weight:400;text-anchor:end;" transform="rotate(-0.000000, 37.781250, 72.416500)" x="37.78125" y="72.4165">1.4</text>
     </g>
    </g>
    <g id="ytick_9">
     <g id="line2d_33">
      <g>
       <use style="stroke:#000000;stroke-width:0.5;" x="41.78125" xlink:href="#mc0f204e6c9" y="34.782125"/>
      </g>
     </g>
     <g id="line2d_34">
      <g>
       <use style="stroke:#000000;stroke-width:0.5;" x="488.18125" xlink:href="#m02e510ce77" y="34.782125"/>
      </g>
     </g>
     <g id="text_18">
      <text style="font-family:Bitstream Vera Sans;font-size:10.0px;font-style:normal;font-weight:400;text-anchor:end;" transform="rotate(-0.000000, 37.781250, 37.541500)" x="37.78125" y="37.5415">1.6</text>
     </g>
    </g>
    <g id="text_19">
     <text style="font-family:Bitstream Vera Sans;font-size:10.0px;font-style:normal;font-weight:400;text-anchor:middle;" transform="rotate(-90.000000, 14.798438, 174.282125)" x="14.7984375" y="174.282125">Precipitation Depth (inches)</text>
    </g>
   </g>
   <g id="text_20">
    <g id="patch_39">
     <path d="M 131.06125 72.205656 
L 323.172812 72.205656 
Q 326.472813 72.205656 326.472813 68.905656 
L 326.472813 45.942125 
Q 326.472813 42.642125 323.172812 42.642125 
L 131.06125 42.642125 
Q 127.76125 42.642125 127.76125 45.942125 
L 127.76125 68.905656 
Q 127.76125 72.205656 131.06125 72.205656 
z
" style="fill:#cccccc;opacity:0.5;stroke:#000000;stroke-linejoin:miter;"/>
    </g>
    <text style="font-family:Bitstream Vera Sans;font-size:11.0px;font-style:normal;font-weight:400;" transform="translate(131.06125 54.30040625)">HSPF Rain/Snow Depth Ratio: 1.49</text>
    <text style="font-family:Bitstream Vera Sans;font-size:11.0px;font-style:normal;font-weight:400;" transform="translate(131.06125 66.618)">ASOS Rain/Snow Depth Ratio: 1.69</text>
   </g>
   <g id="text_21">
    <!-- DuPage Airport (KDPA): TSNOW=32.0$^o$F -->
    <g transform="translate(145.34125 16.344375)">
     <text>
      <tspan style="font-family:cmmi10;font-size:8.4px;font-style:regular;font-weight:regular;" x="227.457571875" y="-5.4666875">o</tspan>
      <tspan style="font-family:Bitstream Vera Sans;font-size:12.0px;font-style:roman;font-weight:roman;" x="0.0 9.240234375 16.845703125 24.08203125 31.435546875 39.052734375 46.435546875 50.25 58.458984375 61.79296875 66.7265625 74.34375 81.685546875 86.619140625 91.32421875 95.138671875 99.8203125 107.689453125 116.9296875 124.166015625 132.375 137.056640625 141.099609375 144.9140625 152.244140625 159.861328125 168.837890625 178.283203125 190.1484375 200.203125 207.837890625 215.47265625 219.287109375 232.287501563" y="-0.875">DuPage Airport (KDPA): TSNOW=32.0F</tspan>
     </text>
    </g>
    <text style="font-family:Bitstream Vera Sans;font-size:12.0px;font-style:normal;font-weight:400;" transform="translate(201.2903125 29.806125)">1/1/2006 - 9/30/2013</text>
   </g>
   <g id="legend_1">
    <g id="patch_40">
     <path d="M 369.896875 114.837125 
L 482.18125 114.837125 
L 482.18125 40.782125 
L 369.896875 40.782125 
z
" style="fill:#ffffff;stroke:#000000;stroke-linejoin:miter;"/>
    </g>
    <g id="patch_41">
     <path d="M 374.696875 54.70025 
L 398.696875 54.70025 
L 398.696875 46.30025 
L 374.696875 46.30025 
z
" style="fill:url(#h29cfe627ae);opacity:0.35;stroke:#000000;stroke-linejoin:miter;"/>
    </g>
    <g id="text_22">
     <text style="font-family:Bitstream Vera Sans;font-size:12.0px;font-style:normal;font-weight:400;text-anchor:start;" transform="rotate(-0.000000, 408.296875, 54.700250)" x="408.296875" y="54.70025">HSPF Snow</text>
    </g>
    <g id="patch_42">
     <path d="M 374.696875 72.314 
L 398.696875 72.314 
L 398.696875 63.914 
L 374.696875 63.914 
z
" style="fill:#0000ff;stroke:#000000;stroke-linejoin:miter;"/>
    </g>
    <g id="text_23">
     <text style="font-family:Bitstream Vera Sans;font-size:12.0px;font-style:normal;font-weight:400;text-anchor:start;" transform="rotate(-0.000000, 408.296875, 72.314000)" x="408.296875" y="72.314">ASOS Snow</text>
    </g>
    <g id="patch_43">
     <path d="M 374.696875 89.92775 
L 398.696875 89.92775 
L 398.696875 81.52775 
L 374.696875 81.52775 
z
" style="fill:url(#he6c2f4b182);opacity:0.35;stroke:#000000;stroke-linejoin:miter;"/>
    </g>
    <g id="text_24">
     <text style="font-family:Bitstream Vera Sans;font-size:12.0px;font-style:normal;font-weight:400;text-anchor:start;" transform="rotate(-0.000000, 408.296875, 89.927750)" x="408.296875" y="89.92775">HSPF Rain</text>
    </g>
    <g id="patch_44">
     <path d="M 374.696875 107.5415 
L 398.696875 107.5415 
L 398.696875 99.1415 
L 374.696875 99.1415 
z
" style="fill:#ff0000;stroke:#000000;stroke-linejoin:miter;"/>
    </g>
    <g id="text_25">
     <text style="font-family:Bitstream Vera Sans;font-size:12.0px;font-style:normal;font-weight:400;text-anchor:start;" transform="rotate(-0.000000, 408.296875, 107.541500)" x="408.296875" y="107.5415">ASOS Rain</text>
    </g>
   </g>
  </g>
 </g>
 <defs>
  <clipPath id="p39e860946b">
   <rect height="279.0" width="446.4" x="41.78125" y="34.782125"/>
  </clipPath>
 </defs>
 <defs>
  <pattern height="72" id="he6c2f4b182" patternUnits="userSpaceOnUse" width="72" x="0" y="0">
   <rect fill="#ff0000" height="73" width="73" x="0" y="0"/>
   <path d="M -36 36 
L 36 -36 
M -30 42 
L 42 -30 
M -24 48 
L 48 -24 
M -18 54 
L 54 -18 
M -12 60 
L 60 -12 
M -6 66 
L 66 -6 
M 0 72 
L 72 0 
M 6 78 
L 78 6 
M 12 84 
L 84 12 
M 18 90 
L 90 18 
M 24 96 
L 96 24 
M 30 102 
L 102 30 
M 36 108 
L 108 36 
" style="fill:#000000;stroke:#000000;stroke-linecap:butt;stroke-linejoin:miter;stroke-width:1.0;"/>
  </pattern>
  <pattern height="72" id="h29cfe627ae" patternUnits="userSpaceOnUse" width="72" x="0" y="0">
   <rect fill="#0000ff" height="73" width="73" x="0" y="0"/>
   <path d="M -36 36 
L 36 -36 
M -30 42 
L 42 -30 
M -24 48 
L 48 -24 
M -18 54 
L 54 -18 
M -12 60 
L 60 -12 
M -6 66 
L 66 -6 
M 0 72 
L 72 0 
M 6 78 
L 78 6 
M 12 84 
L 84 12 
M 18 90 
L 90 18 
M 24 96 
L 96 24 
M 30 102 
L 102 30 
M 36 108 
L 108 36 
" style="fill:#000000;stroke:#000000;stroke-linecap:butt;stroke-linejoin:miter;stroke-width:1.0;"/>
  </pattern>
 </defs>
</svg>
