<?xml version="1.0" encoding="utf-8" standalone="no"?>
<!DOCTYPE svg PUBLIC "-//W3C//DTD SVG 1.1//EN"
  "http://www.w3.org/Graphics/SVG/1.1/DTD/svg11.dtd">
<!-- Created with matplotlib (http://matplotlib.org/) -->
<svg height="385pt" version="1.1" viewBox="0 0 495 385" width="495pt" xmlns="http://www.w3.org/2000/svg" xmlns:xlink="http://www.w3.org/1999/xlink">
 <defs>
  <style type="text/css">
*{stroke-linecap:butt;stroke-linejoin:round;stroke-miterlimit:100000;}
  </style>
 </defs>
 <g id="figure_1">
  <g id="patch_1">
   <path d="M 0 385.059598 
L 495.38125 385.059598 
L 495.38125 0 
L 0 0 
z
" style="fill:#ffffff;"/>
  </g>
  <g id="axes_1">
   <g id="patch_2">
    <path d="M 41.78125 313.782125 
L 488.18125 313.782125 
L 488.18125 34.782125 
L 41.78125 34.782125 
z
" style="fill:#ffffff;"/>
   </g>
   <g id="patch_3">
    <path clip-path="url(#p37e13c32e9)" d="M 41.78125 313.782125 
L 53.227404 313.782125 
L 53.227404 197.074448 
L 41.78125 197.074448 
z
" style="fill:url(#h6babc0742f);opacity:0.35;stroke:#000000;stroke-linejoin:miter;"/>
   </g>
   <g id="patch_4">
    <path clip-path="url(#p37e13c32e9)" d="M 53.227404 313.782125 
L 64.673558 313.782125 
L 64.673558 240.32494 
L 53.227404 240.32494 
z
" style="fill:#0000ff;stroke:#000000;stroke-linejoin:miter;"/>
   </g>
   <g id="patch_5">
    <path clip-path="url(#p37e13c32e9)" d="M 99.012019 313.782125 
L 110.458173 313.782125 
L 110.458173 61.14433 
L 99.012019 61.14433 
z
" style="fill:url(#h6babc0742f);opacity:0.35;stroke:#000000;stroke-linejoin:miter;"/>
   </g>
   <g id="patch_6">
    <path clip-path="url(#p37e13c32e9)" d="M 110.458173 313.782125 
L 121.904327 313.782125 
L 121.904327 154.510471 
L 110.458173 154.510471 
z
" style="fill:#0000ff;stroke:#000000;stroke-linejoin:miter;"/>
   </g>
   <g id="patch_7">
    <path clip-path="url(#p37e13c32e9)" d="M 156.242788 313.782125 
L 167.688942 313.782125 
L 167.688942 186.776712 
L 156.242788 186.776712 
z
" style="fill:url(#h6babc0742f);opacity:0.35;stroke:#000000;stroke-linejoin:miter;"/>
   </g>
   <g id="patch_8">
    <path clip-path="url(#p37e13c32e9)" d="M 167.688942 313.782125 
L 179.135096 313.782125 
L 179.135096 242.384487 
L 167.688942 242.384487 
z
" style="fill:#0000ff;stroke:#000000;stroke-linejoin:miter;"/>
   </g>
   <g id="patch_9">
    <path clip-path="url(#p37e13c32e9)" d="M 213.473558 313.782125 
L 224.919712 313.782125 
L 224.919712 286.321495 
L 213.473558 286.321495 
z
" style="fill:url(#h6babc0742f);opacity:0.35;stroke:#000000;stroke-linejoin:miter;"/>
   </g>
   <g id="patch_10">
    <path clip-path="url(#p37e13c32e9)" d="M 224.919712 313.782125 
L 236.365865 313.782125 
L 236.365865 254.741771 
L 224.919712 254.741771 
z
" style="fill:#0000ff;stroke:#000000;stroke-linejoin:miter;"/>
   </g>
   <g id="patch_11">
    <path clip-path="url(#p37e13c32e9)" d="M 270.704327 313.782125 
L 282.150481 313.782125 
L 282.150481 313.782125 
L 270.704327 313.782125 
z
" style="fill:url(#h6babc0742f);opacity:0.35;stroke:#000000;stroke-linejoin:miter;"/>
   </g>
   <g id="patch_12">
    <path clip-path="url(#p37e13c32e9)" d="M 282.150481 313.782125 
L 293.596635 313.782125 
L 293.596635 256.801318 
L 282.150481 256.801318 
z
" style="fill:#0000ff;stroke:#000000;stroke-linejoin:miter;"/>
   </g>
   <g id="patch_13">
    <path clip-path="url(#p37e13c32e9)" d="M 327.935096 313.782125 
L 339.38125 313.782125 
L 339.38125 313.782125 
L 327.935096 313.782125 
z
" style="fill:url(#h6babc0742f);opacity:0.35;stroke:#000000;stroke-linejoin:miter;"/>
   </g>
   <g id="patch_14">
    <path clip-path="url(#p37e13c32e9)" d="M 339.38125 313.782125 
L 350.827404 313.782125 
L 350.827404 292.500137 
L 339.38125 292.500137 
z
" style="fill:#0000ff;stroke:#000000;stroke-linejoin:miter;"/>
   </g>
   <g id="patch_15">
    <path clip-path="url(#p37e13c32e9)" d="M 385.165865 313.782125 
L 396.612019 313.782125 
L 396.612019 313.782125 
L 385.165865 313.782125 
z
" style="fill:url(#h6babc0742f);opacity:0.35;stroke:#000000;stroke-linejoin:miter;"/>
   </g>
   <g id="patch_16">
    <path clip-path="url(#p37e13c32e9)" d="M 396.612019 313.782125 
L 408.058173 313.782125 
L 408.058173 280.142853 
L 396.612019 280.142853 
z
" style="fill:#0000ff;stroke:#000000;stroke-linejoin:miter;"/>
   </g>
   <g id="patch_17">
    <path clip-path="url(#p37e13c32e9)" d="M 442.396635 313.782125 
L 453.842788 313.782125 
L 453.842788 313.782125 
L 442.396635 313.782125 
z
" style="fill:url(#h6babc0742f);opacity:0.35;stroke:#000000;stroke-linejoin:miter;"/>
   </g>
   <g id="patch_18">
    <path clip-path="url(#p37e13c32e9)" d="M 453.842788 313.782125 
L 465.288942 313.782125 
L 465.288942 302.797873 
L 453.842788 302.797873 
z
" style="fill:#0000ff;stroke:#000000;stroke-linejoin:miter;"/>
   </g>
   <g id="patch_19">
    <path clip-path="url(#p37e13c32e9)" d="M 64.673558 313.782125 
L 76.119712 313.782125 
L 76.119712 313.782125 
L 64.673558 313.782125 
z
" style="fill:url(#hf289ea9163);opacity:0.35;stroke:#000000;stroke-linejoin:miter;"/>
   </g>
   <g id="patch_20">
    <path clip-path="url(#p37e13c32e9)" d="M 76.119712 313.782125 
L 87.565865 313.782125 
L 87.565865 270.531633 
L 76.119712 270.531633 
z
" style="fill:#ff0000;stroke:#000000;stroke-linejoin:miter;"/>
   </g>
   <g id="patch_21">
    <path clip-path="url(#p37e13c32e9)" d="M 121.904327 313.782125 
L 133.350481 313.782125 
L 133.350481 313.782125 
L 121.904327 313.782125 
z
" style="fill:url(#hf289ea9163);opacity:0.35;stroke:#000000;stroke-linejoin:miter;"/>
   </g>
   <g id="patch_22">
    <path clip-path="url(#p37e13c32e9)" d="M 133.350481 313.782125 
L 144.796635 313.782125 
L 144.796635 220.415983 
L 133.350481 220.415983 
z
" style="fill:#ff0000;stroke:#000000;stroke-linejoin:miter;"/>
   </g>
   <g id="patch_23">
    <path clip-path="url(#p37e13c32e9)" d="M 179.135096 313.782125 
L 190.58125 313.782125 
L 190.58125 257.487834 
L 179.135096 257.487834 
z
" style="fill:url(#hf289ea9163);opacity:0.35;stroke:#000000;stroke-linejoin:miter;"/>
   </g>
   <g id="patch_24">
    <path clip-path="url(#p37e13c32e9)" d="M 190.58125 313.782125 
L 202.027404 313.782125 
L 202.027404 201.880058 
L 190.58125 201.880058 
z
" style="fill:#ff0000;stroke:#000000;stroke-linejoin:miter;"/>
   </g>
   <g id="patch_25">
    <path clip-path="url(#p37e13c32e9)" d="M 236.365865 313.782125 
L 247.812019 313.782125 
L 247.812019 181.971101 
L 236.365865 181.971101 
z
" style="fill:url(#hf289ea9163);opacity:0.35;stroke:#000000;stroke-linejoin:miter;"/>
   </g>
   <g id="patch_26">
    <path clip-path="url(#p37e13c32e9)" d="M 247.812019 313.782125 
L 259.258173 313.782125 
L 259.258173 213.550826 
L 247.812019 213.550826 
z
" style="fill:#ff0000;stroke:#000000;stroke-linejoin:miter;"/>
   </g>
   <g id="patch_27">
    <path clip-path="url(#p37e13c32e9)" d="M 293.596635 313.782125 
L 305.042788 313.782125 
L 305.042788 110.573464 
L 293.596635 110.573464 
z
" style="fill:url(#hf289ea9163);opacity:0.35;stroke:#000000;stroke-linejoin:miter;"/>
   </g>
   <g id="patch_28">
    <path clip-path="url(#p37e13c32e9)" d="M 305.042788 313.782125 
L 316.488942 313.782125 
L 316.488942 167.554271 
L 305.042788 167.554271 
z
" style="fill:#ff0000;stroke:#000000;stroke-linejoin:miter;"/>
   </g>
   <g id="patch_29">
    <path clip-path="url(#p37e13c32e9)" d="M 350.827404 313.782125 
L 362.273558 313.782125 
L 362.273558 122.930747 
L 350.827404 122.930747 
z
" style="fill:url(#hf289ea9163);opacity:0.35;stroke:#000000;stroke-linejoin:miter;"/>
   </g>
   <g id="patch_30">
    <path clip-path="url(#p37e13c32e9)" d="M 362.273558 313.782125 
L 373.719712 313.782125 
L 373.719712 144.212735 
L 362.273558 144.212735 
z
" style="fill:#ff0000;stroke:#000000;stroke-linejoin:miter;"/>
   </g>
   <g id="patch_31">
    <path clip-path="url(#p37e13c32e9)" d="M 408.058173 313.782125 
L 419.504327 313.782125 
L 419.504327 233.459782 
L 408.058173 233.459782 
z
" style="fill:url(#hf289ea9163);opacity:0.35;stroke:#000000;stroke-linejoin:miter;"/>
   </g>
   <g id="patch_32">
    <path clip-path="url(#p37e13c32e9)" d="M 419.504327 313.782125 
L 430.950481 313.782125 
L 430.950481 267.099054 
L 419.504327 267.099054 
z
" style="fill:#ff0000;stroke:#000000;stroke-linejoin:miter;"/>
   </g>
   <g id="patch_33">
    <path clip-path="url(#p37e13c32e9)" d="M 465.288942 313.782125 
L 476.735096 313.782125 
L 476.735096 194.328385 
L 465.288942 194.328385 
z
" style="fill:url(#hf289ea9163);opacity:0.35;stroke:#000000;stroke-linejoin:miter;"/>
   </g>
   <g id="patch_34">
    <path clip-path="url(#p37e13c32e9)" d="M 476.735096 313.782125 
L 488.18125 313.782125 
L 488.18125 205.312637 
L 476.735096 205.312637 
z
" style="fill:#ff0000;stroke:#000000;stroke-linejoin:miter;"/>
   </g>
   <g id="patch_35">
    <path d="M 41.78125 34.782125 
L 488.18125 34.782125 
" style="fill:none;stroke:#000000;stroke-linecap:square;stroke-linejoin:miter;"/>
   </g>
   <g id="patch_36">
    <path d="M 488.18125 313.782125 
L 488.18125 34.782125 
" style="fill:none;stroke:#000000;stroke-linecap:square;stroke-linejoin:miter;"/>
   </g>
   <g id="patch_37">
    <path d="M 41.78125 313.782125 
L 488.18125 313.782125 
" style="fill:none;stroke:#000000;stroke-linecap:square;stroke-linejoin:miter;"/>
   </g>
   <g id="patch_38">
    <path d="M 41.78125 313.782125 
L 41.78125 34.782125 
" style="fill:none;stroke:#000000;stroke-linecap:square;stroke-linejoin:miter;"/>
   </g>
   <g id="matplotlib.axis_1">
    <g id="xtick_1">
     <g id="line2d_1">
      <defs>
       <path d="M 0 0 
L 0 -4 
" id="m5bb1696690" style="stroke:#000000;stroke-width:0.5;"/>
      </defs>
      <g>
       <use style="stroke:#000000;stroke-width:0.5;" x="64.6735576923" xlink:href="#m5bb1696690" y="313.782125"/>
      </g>
     </g>
     <g id="line2d_2">
      <defs>
       <path d="M 0 0 
L 0 4 
" id="mdfce476b8e" style="stroke:#000000;stroke-width:0.5;"/>
      </defs>
      <g>
       <use style="stroke:#000000;stroke-width:0.5;" x="64.6735576923" xlink:href="#mdfce476b8e" y="34.782125"/>
      </g>
     </g>
     <g id="text_1">
      <!-- 31.0 - 31.4 -->
      <defs>
       <path d="M 40.578125 39.3125 
Q 47.65625 37.796875 51.625 33 
Q 55.609375 28.21875 55.609375 21.1875 
Q 55.609375 10.40625 48.1875 4.484375 
Q 40.765625 -1.421875 27.09375 -1.421875 
Q 22.515625 -1.421875 17.65625 -0.515625 
Q 12.796875 0.390625 7.625 2.203125 
L 7.625 11.71875 
Q 11.71875 9.328125 16.59375 8.109375 
Q 21.484375 6.890625 26.8125 6.890625 
Q 36.078125 6.890625 40.9375 10.546875 
Q 45.796875 14.203125 45.796875 21.1875 
Q 45.796875 27.640625 41.28125 31.265625 
Q 36.765625 34.90625 28.71875 34.90625 
L 20.21875 34.90625 
L 20.21875 43.015625 
L 29.109375 43.015625 
Q 36.375 43.015625 40.234375 45.921875 
Q 44.09375 48.828125 44.09375 54.296875 
Q 44.09375 59.90625 40.109375 62.90625 
Q 36.140625 65.921875 28.71875 65.921875 
Q 24.65625 65.921875 20.015625 65.03125 
Q 15.375 64.15625 9.8125 62.3125 
L 9.8125 71.09375 
Q 15.4375 72.65625 20.34375 73.4375 
Q 25.25 74.21875 29.59375 74.21875 
Q 40.828125 74.21875 47.359375 69.109375 
Q 53.90625 64.015625 53.90625 55.328125 
Q 53.90625 49.265625 50.4375 45.09375 
Q 46.96875 40.921875 40.578125 39.3125 
" id="BitstreamVeraSans-Roman-33"/>
       <path d="M 31.78125 66.40625 
Q 24.171875 66.40625 20.328125 58.90625 
Q 16.5 51.421875 16.5 36.375 
Q 16.5 21.390625 20.328125 13.890625 
Q 24.171875 6.390625 31.78125 6.390625 
Q 39.453125 6.390625 43.28125 13.890625 
Q 47.125 21.390625 47.125 36.375 
Q 47.125 51.421875 43.28125 58.90625 
Q 39.453125 66.40625 31.78125 66.40625 
M 31.78125 74.21875 
Q 44.046875 74.21875 50.515625 64.515625 
Q 56.984375 54.828125 56.984375 36.375 
Q 56.984375 17.96875 50.515625 8.265625 
Q 44.046875 -1.421875 31.78125 -1.421875 
Q 19.53125 -1.421875 13.0625 8.265625 
Q 6.59375 17.96875 6.59375 36.375 
Q 6.59375 54.828125 13.0625 64.515625 
Q 19.53125 74.21875 31.78125 74.21875 
" id="BitstreamVeraSans-Roman-30"/>
       <path d="M 12.40625 8.296875 
L 28.515625 8.296875 
L 28.515625 63.921875 
L 10.984375 60.40625 
L 10.984375 69.390625 
L 28.421875 72.90625 
L 38.28125 72.90625 
L 38.28125 8.296875 
L 54.390625 8.296875 
L 54.390625 0 
L 12.40625 0 
z
" id="BitstreamVeraSans-Roman-31"/>
       <path d="M 37.796875 64.3125 
L 12.890625 25.390625 
L 37.796875 25.390625 
z
M 35.203125 72.90625 
L 47.609375 72.90625 
L 47.609375 25.390625 
L 58.015625 25.390625 
L 58.015625 17.1875 
L 47.609375 17.1875 
L 47.609375 0 
L 37.796875 0 
L 37.796875 17.1875 
L 4.890625 17.1875 
L 4.890625 26.703125 
z
" id="BitstreamVeraSans-Roman-34"/>
       <path id="BitstreamVeraSans-Roman-20"/>
       <path d="M 10.6875 12.40625 
L 21 12.40625 
L 21 0 
L 10.6875 0 
z
" id="BitstreamVeraSans-Roman-2e"/>
       <path d="M 4.890625 31.390625 
L 31.203125 31.390625 
L 31.203125 23.390625 
L 4.890625 23.390625 
z
" id="BitstreamVeraSans-Roman-2d"/>
      </defs>
      <g transform="translate(47.3577279608 361.689036694)rotate(-45.0)scale(0.1 -0.1)">
       <use xlink:href="#BitstreamVeraSans-Roman-33"/>
       <use x="63.623046875" xlink:href="#BitstreamVeraSans-Roman-31"/>
       <use x="127.24609375" xlink:href="#BitstreamVeraSans-Roman-2e"/>
       <use x="159.033203125" xlink:href="#BitstreamVeraSans-Roman-30"/>
       <use x="222.65625" xlink:href="#BitstreamVeraSans-Roman-20"/>
       <use x="254.443359375" xlink:href="#BitstreamVeraSans-Roman-2d"/>
       <use x="290.52734375" xlink:href="#BitstreamVeraSans-Roman-20"/>
       <use x="322.314453125" xlink:href="#BitstreamVeraSans-Roman-33"/>
       <use x="385.9375" xlink:href="#BitstreamVeraSans-Roman-31"/>
       <use x="449.560546875" xlink:href="#BitstreamVeraSans-Roman-2e"/>
       <use x="481.34765625" xlink:href="#BitstreamVeraSans-Roman-34"/>
      </g>
     </g>
    </g>
    <g id="xtick_2">
     <g id="line2d_3">
      <g>
       <use style="stroke:#000000;stroke-width:0.5;" x="121.904326923" xlink:href="#m5bb1696690" y="313.782125"/>
      </g>
     </g>
     <g id="line2d_4">
      <g>
       <use style="stroke:#000000;stroke-width:0.5;" x="121.904326923" xlink:href="#mdfce476b8e" y="34.782125"/>
      </g>
     </g>
     <g id="text_2">
      <!-- 31.5 - 31.9 -->
      <defs>
       <path d="M 10.984375 1.515625 
L 10.984375 10.5 
Q 14.703125 8.734375 18.5 7.8125 
Q 22.3125 6.890625 25.984375 6.890625 
Q 35.75 6.890625 40.890625 13.453125 
Q 46.046875 20.015625 46.78125 33.40625 
Q 43.953125 29.203125 39.59375 26.953125 
Q 35.25 24.703125 29.984375 24.703125 
Q 19.046875 24.703125 12.671875 31.3125 
Q 6.296875 37.9375 6.296875 49.421875 
Q 6.296875 60.640625 12.9375 67.421875 
Q 19.578125 74.21875 30.609375 74.21875 
Q 43.265625 74.21875 49.921875 64.515625 
Q 56.59375 54.828125 56.59375 36.375 
Q 56.59375 19.140625 48.40625 8.859375 
Q 40.234375 -1.421875 26.421875 -1.421875 
Q 22.703125 -1.421875 18.890625 -0.6875 
Q 15.09375 0.046875 10.984375 1.515625 
M 30.609375 32.421875 
Q 37.25 32.421875 41.125 36.953125 
Q 45.015625 41.5 45.015625 49.421875 
Q 45.015625 57.28125 41.125 61.84375 
Q 37.25 66.40625 30.609375 66.40625 
Q 23.96875 66.40625 20.09375 61.84375 
Q 16.21875 57.28125 16.21875 49.421875 
Q 16.21875 41.5 20.09375 36.953125 
Q 23.96875 32.421875 30.609375 32.421875 
" id="BitstreamVeraSans-Roman-39"/>
       <path d="M 10.796875 72.90625 
L 49.515625 72.90625 
L 49.515625 64.59375 
L 19.828125 64.59375 
L 19.828125 46.734375 
Q 21.96875 47.46875 24.109375 47.828125 
Q 26.265625 48.1875 28.421875 48.1875 
Q 40.625 48.1875 47.75 41.5 
Q 54.890625 34.8125 54.890625 23.390625 
Q 54.890625 11.625 47.5625 5.09375 
Q 40.234375 -1.421875 26.90625 -1.421875 
Q 22.3125 -1.421875 17.546875 -0.640625 
Q 12.796875 0.140625 7.71875 1.703125 
L 7.71875 11.625 
Q 12.109375 9.234375 16.796875 8.0625 
Q 21.484375 6.890625 26.703125 6.890625 
Q 35.15625 6.890625 40.078125 11.328125 
Q 45.015625 15.765625 45.015625 23.390625 
Q 45.015625 31 40.078125 35.4375 
Q 35.15625 39.890625 26.703125 39.890625 
Q 22.75 39.890625 18.8125 39.015625 
Q 14.890625 38.140625 10.796875 36.28125 
z
" id="BitstreamVeraSans-Roman-35"/>
      </defs>
      <g transform="translate(104.588497192 361.689036694)rotate(-45.0)scale(0.1 -0.1)">
       <use xlink:href="#BitstreamVeraSans-Roman-33"/>
       <use x="63.623046875" xlink:href="#BitstreamVeraSans-Roman-31"/>
       <use x="127.24609375" xlink:href="#BitstreamVeraSans-Roman-2e"/>
       <use x="159.033203125" xlink:href="#BitstreamVeraSans-Roman-35"/>
       <use x="222.65625" xlink:href="#BitstreamVeraSans-Roman-20"/>
       <use x="254.443359375" xlink:href="#BitstreamVeraSans-Roman-2d"/>
       <use x="290.52734375" xlink:href="#BitstreamVeraSans-Roman-20"/>
       <use x="322.314453125" xlink:href="#BitstreamVeraSans-Roman-33"/>
       <use x="385.9375" xlink:href="#BitstreamVeraSans-Roman-31"/>
       <use x="449.560546875" xlink:href="#BitstreamVeraSans-Roman-2e"/>
       <use x="481.34765625" xlink:href="#BitstreamVeraSans-Roman-39"/>
      </g>
     </g>
    </g>
    <g id="xtick_3">
     <g id="line2d_5">
      <g>
       <use style="stroke:#000000;stroke-width:0.5;" x="179.135096154" xlink:href="#m5bb1696690" y="313.782125"/>
      </g>
     </g>
     <g id="line2d_6">
      <g>
       <use style="stroke:#000000;stroke-width:0.5;" x="179.135096154" xlink:href="#mdfce476b8e" y="34.782125"/>
      </g>
     </g>
     <g id="text_3">
      <!-- 32.0 - 32.4 -->
      <defs>
       <path d="M 19.1875 8.296875 
L 53.609375 8.296875 
L 53.609375 0 
L 7.328125 0 
L 7.328125 8.296875 
Q 12.9375 14.109375 22.625 23.890625 
Q 32.328125 33.6875 34.8125 36.53125 
Q 39.546875 41.84375 41.421875 45.53125 
Q 43.3125 49.21875 43.3125 52.78125 
Q 43.3125 58.59375 39.234375 62.25 
Q 35.15625 65.921875 28.609375 65.921875 
Q 23.96875 65.921875 18.8125 64.3125 
Q 13.671875 62.703125 7.8125 59.421875 
L 7.8125 69.390625 
Q 13.765625 71.78125 18.9375 73 
Q 24.125 74.21875 28.421875 74.21875 
Q 39.75 74.21875 46.484375 68.546875 
Q 53.21875 62.890625 53.21875 53.421875 
Q 53.21875 48.921875 51.53125 44.890625 
Q 49.859375 40.875 45.40625 35.40625 
Q 44.1875 33.984375 37.640625 27.21875 
Q 31.109375 20.453125 19.1875 8.296875 
" id="BitstreamVeraSans-Roman-32"/>
      </defs>
      <g transform="translate(161.819266422 361.689036694)rotate(-45.0)scale(0.1 -0.1)">
       <use xlink:href="#BitstreamVeraSans-Roman-33"/>
       <use x="63.623046875" xlink:href="#BitstreamVeraSans-Roman-32"/>
       <use x="127.24609375" xlink:href="#BitstreamVeraSans-Roman-2e"/>
       <use x="159.033203125" xlink:href="#BitstreamVeraSans-Roman-30"/>
       <use x="222.65625" xlink:href="#BitstreamVeraSans-Roman-20"/>
       <use x="254.443359375" xlink:href="#BitstreamVeraSans-Roman-2d"/>
       <use x="290.52734375" xlink:href="#BitstreamVeraSans-Roman-20"/>
       <use x="322.314453125" xlink:href="#BitstreamVeraSans-Roman-33"/>
       <use x="385.9375" xlink:href="#BitstreamVeraSans-Roman-32"/>
       <use x="449.560546875" xlink:href="#BitstreamVeraSans-Roman-2e"/>
       <use x="481.34765625" xlink:href="#BitstreamVeraSans-Roman-34"/>
      </g>
     </g>
    </g>
    <g id="xtick_4">
     <g id="line2d_7">
      <g>
       <use style="stroke:#000000;stroke-width:0.5;" x="236.365865385" xlink:href="#m5bb1696690" y="313.782125"/>
      </g>
     </g>
     <g id="line2d_8">
      <g>
       <use style="stroke:#000000;stroke-width:0.5;" x="236.365865385" xlink:href="#mdfce476b8e" y="34.782125"/>
      </g>
     </g>
     <g id="text_4">
      <!-- 32.5 - 32.9 -->
      <g transform="translate(219.050035653 361.689036694)rotate(-45.0)scale(0.1 -0.1)">
       <use xlink:href="#BitstreamVeraSans-Roman-33"/>
       <use x="63.623046875" xlink:href="#BitstreamVeraSans-Roman-32"/>
       <use x="127.24609375" xlink:href="#BitstreamVeraSans-Roman-2e"/>
       <use x="159.033203125" xlink:href="#BitstreamVeraSans-Roman-35"/>
       <use x="222.65625" xlink:href="#BitstreamVeraSans-Roman-20"/>
       <use x="254.443359375" xlink:href="#BitstreamVeraSans-Roman-2d"/>
       <use x="290.52734375" xlink:href="#BitstreamVeraSans-Roman-20"/>
       <use x="322.314453125" xlink:href="#BitstreamVeraSans-Roman-33"/>
       <use x="385.9375" xlink:href="#BitstreamVeraSans-Roman-32"/>
       <use x="449.560546875" xlink:href="#BitstreamVeraSans-Roman-2e"/>
       <use x="481.34765625" xlink:href="#BitstreamVeraSans-Roman-39"/>
      </g>
     </g>
    </g>
    <g id="xtick_5">
     <g id="line2d_9">
      <g>
       <use style="stroke:#000000;stroke-width:0.5;" x="293.596634615" xlink:href="#m5bb1696690" y="313.782125"/>
      </g>
     </g>
     <g id="line2d_10">
      <g>
       <use style="stroke:#000000;stroke-width:0.5;" x="293.596634615" xlink:href="#mdfce476b8e" y="34.782125"/>
      </g>
     </g>
     <g id="text_5">
      <!-- 33.0 - 33.4 -->
      <g transform="translate(276.280804884 361.689036694)rotate(-45.0)scale(0.1 -0.1)">
       <use xlink:href="#BitstreamVeraSans-Roman-33"/>
       <use x="63.623046875" xlink:href="#BitstreamVeraSans-Roman-33"/>
       <use x="127.24609375" xlink:href="#BitstreamVeraSans-Roman-2e"/>
       <use x="159.033203125" xlink:href="#BitstreamVeraSans-Roman-30"/>
       <use x="222.65625" xlink:href="#BitstreamVeraSans-Roman-20"/>
       <use x="254.443359375" xlink:href="#BitstreamVeraSans-Roman-2d"/>
       <use x="290.52734375" xlink:href="#BitstreamVeraSans-Roman-20"/>
       <use x="322.314453125" xlink:href="#BitstreamVeraSans-Roman-33"/>
       <use x="385.9375" xlink:href="#BitstreamVeraSans-Roman-33"/>
       <use x="449.560546875" xlink:href="#BitstreamVeraSans-Roman-2e"/>
       <use x="481.34765625" xlink:href="#BitstreamVeraSans-Roman-34"/>
      </g>
     </g>
    </g>
    <g id="xtick_6">
     <g id="line2d_11">
      <g>
       <use style="stroke:#000000;stroke-width:0.5;" x="350.827403846" xlink:href="#m5bb1696690" y="313.782125"/>
      </g>
     </g>
     <g id="line2d_12">
      <g>
       <use style="stroke:#000000;stroke-width:0.5;" x="350.827403846" xlink:href="#mdfce476b8e" y="34.782125"/>
      </g>
     </g>
     <g id="text_6">
      <!-- 33.5 - 33.9 -->
      <g transform="translate(333.511574115 361.689036694)rotate(-45.0)scale(0.1 -0.1)">
       <use xlink:href="#BitstreamVeraSans-Roman-33"/>
       <use x="63.623046875" xlink:href="#BitstreamVeraSans-Roman-33"/>
       <use x="127.24609375" xlink:href="#BitstreamVeraSans-Roman-2e"/>
       <use x="159.033203125" xlink:href="#BitstreamVeraSans-Roman-35"/>
       <use x="222.65625" xlink:href="#BitstreamVeraSans-Roman-20"/>
       <use x="254.443359375" xlink:href="#BitstreamVeraSans-Roman-2d"/>
       <use x="290.52734375" xlink:href="#BitstreamVeraSans-Roman-20"/>
       <use x="322.314453125" xlink:href="#BitstreamVeraSans-Roman-33"/>
       <use x="385.9375" xlink:href="#BitstreamVeraSans-Roman-33"/>
       <use x="449.560546875" xlink:href="#BitstreamVeraSans-Roman-2e"/>
       <use x="481.34765625" xlink:href="#BitstreamVeraSans-Roman-39"/>
      </g>
     </g>
    </g>
    <g id="xtick_7">
     <g id="line2d_13">
      <g>
       <use style="stroke:#000000;stroke-width:0.5;" x="408.058173077" xlink:href="#m5bb1696690" y="313.782125"/>
      </g>
     </g>
     <g id="line2d_14">
      <g>
       <use style="stroke:#000000;stroke-width:0.5;" x="408.058173077" xlink:href="#mdfce476b8e" y="34.782125"/>
      </g>
     </g>
     <g id="text_7">
      <!-- 34.0 - 34.4 -->
      <g transform="translate(390.742343345 361.689036694)rotate(-45.0)scale(0.1 -0.1)">
       <use xlink:href="#BitstreamVeraSans-Roman-33"/>
       <use x="63.623046875" xlink:href="#BitstreamVeraSans-Roman-34"/>
       <use x="127.24609375" xlink:href="#BitstreamVeraSans-Roman-2e"/>
       <use x="159.033203125" xlink:href="#BitstreamVeraSans-Roman-30"/>
       <use x="222.65625" xlink:href="#BitstreamVeraSans-Roman-20"/>
       <use x="254.443359375" xlink:href="#BitstreamVeraSans-Roman-2d"/>
       <use x="290.52734375" xlink:href="#BitstreamVeraSans-Roman-20"/>
       <use x="322.314453125" xlink:href="#BitstreamVeraSans-Roman-33"/>
       <use x="385.9375" xlink:href="#BitstreamVeraSans-Roman-34"/>
       <use x="449.560546875" xlink:href="#BitstreamVeraSans-Roman-2e"/>
       <use x="481.34765625" xlink:href="#BitstreamVeraSans-Roman-34"/>
      </g>
     </g>
    </g>
    <g id="xtick_8">
     <g id="line2d_15">
      <g>
       <use style="stroke:#000000;stroke-width:0.5;" x="465.288942308" xlink:href="#m5bb1696690" y="313.782125"/>
      </g>
     </g>
     <g id="line2d_16">
      <g>
       <use style="stroke:#000000;stroke-width:0.5;" x="465.288942308" xlink:href="#mdfce476b8e" y="34.782125"/>
      </g>
     </g>
     <g id="text_8">
      <!-- 34.5 - 34.9 -->
      <g transform="translate(447.973112576 361.689036694)rotate(-45.0)scale(0.1 -0.1)">
       <use xlink:href="#BitstreamVeraSans-Roman-33"/>
       <use x="63.623046875" xlink:href="#BitstreamVeraSans-Roman-34"/>
       <use x="127.24609375" xlink:href="#BitstreamVeraSans-Roman-2e"/>
       <use x="159.033203125" xlink:href="#BitstreamVeraSans-Roman-35"/>
       <use x="222.65625" xlink:href="#BitstreamVeraSans-Roman-20"/>
       <use x="254.443359375" xlink:href="#BitstreamVeraSans-Roman-2d"/>
       <use x="290.52734375" xlink:href="#BitstreamVeraSans-Roman-20"/>
       <use x="322.314453125" xlink:href="#BitstreamVeraSans-Roman-33"/>
       <use x="385.9375" xlink:href="#BitstreamVeraSans-Roman-34"/>
       <use x="449.560546875" xlink:href="#BitstreamVeraSans-Roman-2e"/>
       <use x="481.34765625" xlink:href="#BitstreamVeraSans-Roman-39"/>
      </g>
     </g>
    </g>
    <g id="text_9">
     <!-- ANL Temperature ($^o$F) -->
     <defs>
      <path d="M 9.8125 72.90625 
L 23.09375 72.90625 
L 55.421875 11.921875 
L 55.421875 72.90625 
L 64.984375 72.90625 
L 64.984375 0 
L 51.703125 0 
L 19.390625 60.984375 
L 19.390625 0 
L 9.8125 0 
z
" id="BitstreamVeraSans-Roman-4e"/>
      <path d="M 9.8125 72.90625 
L 19.671875 72.90625 
L 19.671875 8.296875 
L 55.171875 8.296875 
L 55.171875 0 
L 9.8125 0 
z
" id="BitstreamVeraSans-Roman-4c"/>
      <path d="M 20.125 -1.125 
Q 15.375 -1.125 11.6875 1.125 
Q 8.015625 3.375 6 7.171875 
Q 4 10.984375 4 15.828125 
Q 4 22.609375 7.78125 29.25 
Q 11.578125 35.890625 17.84375 40.03125 
Q 24.125 44.1875 31 44.1875 
Q 34.71875 44.1875 37.625 42.921875 
Q 40.53125 41.65625 42.671875 39.359375 
Q 44.828125 37.0625 45.96875 33.984375 
Q 47.125 30.90625 47.125 27.296875 
Q 47.125 22.078125 44.921875 17.015625 
Q 42.71875 11.96875 38.890625 7.84375 
Q 35.0625 3.71875 30.125 1.296875 
Q 25.203125 -1.125 20.125 -1.125 
M 20.3125 1.515625 
Q 24.75 1.515625 28.4375 4.53125 
Q 32.125 7.5625 34.484375 12.171875 
Q 36.859375 16.796875 38.125 21.921875 
Q 39.40625 27.046875 39.40625 31.203125 
Q 39.40625 35.546875 37.234375 38.578125 
Q 35.0625 41.609375 30.8125 41.609375 
Q 24.953125 41.609375 20.546875 36.59375 
Q 16.15625 31.59375 13.9375 24.625 
Q 11.71875 17.671875 11.71875 11.921875 
Q 11.71875 7.5625 13.9375 4.53125 
Q 16.15625 1.515625 20.3125 1.515625 
" id="Cmmi10-6f"/>
      <path d="M 8.015625 75.875 
L 15.828125 75.875 
Q 23.140625 64.359375 26.78125 53.3125 
Q 30.421875 42.28125 30.421875 31.390625 
Q 30.421875 20.453125 26.78125 9.375 
Q 23.140625 -1.703125 15.828125 -13.1875 
L 8.015625 -13.1875 
Q 14.5 -2 17.703125 9.0625 
Q 20.90625 20.125 20.90625 31.390625 
Q 20.90625 42.671875 17.703125 53.65625 
Q 14.5 64.65625 8.015625 75.875 
" id="BitstreamVeraSans-Roman-29"/>
      <path d="M 52 44.1875 
Q 55.375 50.25 60.0625 53.125 
Q 64.75 56 71.09375 56 
Q 79.640625 56 84.28125 50.015625 
Q 88.921875 44.046875 88.921875 33.015625 
L 88.921875 0 
L 79.890625 0 
L 79.890625 32.71875 
Q 79.890625 40.578125 77.09375 44.375 
Q 74.3125 48.1875 68.609375 48.1875 
Q 61.625 48.1875 57.5625 43.546875 
Q 53.515625 38.921875 53.515625 30.90625 
L 53.515625 0 
L 44.484375 0 
L 44.484375 32.71875 
Q 44.484375 40.625 41.703125 44.40625 
Q 38.921875 48.1875 33.109375 48.1875 
Q 26.21875 48.1875 22.15625 43.53125 
Q 18.109375 38.875 18.109375 30.90625 
L 18.109375 0 
L 9.078125 0 
L 9.078125 54.6875 
L 18.109375 54.6875 
L 18.109375 46.1875 
Q 21.1875 51.21875 25.484375 53.609375 
Q 29.78125 56 35.6875 56 
Q 41.65625 56 45.828125 52.96875 
Q 50 49.953125 52 44.1875 
" id="BitstreamVeraSans-Roman-6d"/>
      <path d="M 9.8125 72.90625 
L 51.703125 72.90625 
L 51.703125 64.59375 
L 19.671875 64.59375 
L 19.671875 43.109375 
L 48.578125 43.109375 
L 48.578125 34.8125 
L 19.671875 34.8125 
L 19.671875 0 
L 9.8125 0 
z
" id="BitstreamVeraSans-Roman-46"/>
      <path d="M -0.296875 72.90625 
L 61.375 72.90625 
L 61.375 64.59375 
L 35.5 64.59375 
L 35.5 0 
L 25.59375 0 
L 25.59375 64.59375 
L -0.296875 64.59375 
z
" id="BitstreamVeraSans-Roman-54"/>
      <path d="M 34.1875 63.1875 
L 20.796875 26.90625 
L 47.609375 26.90625 
z
M 28.609375 72.90625 
L 39.796875 72.90625 
L 67.578125 0 
L 57.328125 0 
L 50.6875 18.703125 
L 17.828125 18.703125 
L 11.1875 0 
L 0.78125 0 
z
" id="BitstreamVeraSans-Roman-41"/>
      <path d="M 31 75.875 
Q 24.46875 64.65625 21.28125 53.65625 
Q 18.109375 42.671875 18.109375 31.390625 
Q 18.109375 20.125 21.3125 9.0625 
Q 24.515625 -2 31 -13.1875 
L 23.1875 -13.1875 
Q 15.875 -1.703125 12.234375 9.375 
Q 8.59375 20.453125 8.59375 31.390625 
Q 8.59375 42.28125 12.203125 53.3125 
Q 15.828125 64.359375 23.1875 75.875 
z
" id="BitstreamVeraSans-Roman-28"/>
      <path d="M 56.203125 29.59375 
L 56.203125 25.203125 
L 14.890625 25.203125 
Q 15.484375 15.921875 20.484375 11.0625 
Q 25.484375 6.203125 34.421875 6.203125 
Q 39.59375 6.203125 44.453125 7.46875 
Q 49.3125 8.734375 54.109375 11.28125 
L 54.109375 2.78125 
Q 49.265625 0.734375 44.1875 -0.34375 
Q 39.109375 -1.421875 33.890625 -1.421875 
Q 20.796875 -1.421875 13.15625 6.1875 
Q 5.515625 13.8125 5.515625 26.8125 
Q 5.515625 40.234375 12.765625 48.109375 
Q 20.015625 56 32.328125 56 
Q 43.359375 56 49.78125 48.890625 
Q 56.203125 41.796875 56.203125 29.59375 
M 47.21875 32.234375 
Q 47.125 39.59375 43.09375 43.984375 
Q 39.0625 48.390625 32.421875 48.390625 
Q 24.90625 48.390625 20.390625 44.140625 
Q 15.875 39.890625 15.1875 32.171875 
z
" id="BitstreamVeraSans-Roman-65"/>
      <path d="M 34.28125 27.484375 
Q 23.390625 27.484375 19.1875 25 
Q 14.984375 22.515625 14.984375 16.5 
Q 14.984375 11.71875 18.140625 8.90625 
Q 21.296875 6.109375 26.703125 6.109375 
Q 34.1875 6.109375 38.703125 11.40625 
Q 43.21875 16.703125 43.21875 25.484375 
L 43.21875 27.484375 
z
M 52.203125 31.203125 
L 52.203125 0 
L 43.21875 0 
L 43.21875 8.296875 
Q 40.140625 3.328125 35.546875 0.953125 
Q 30.953125 -1.421875 24.3125 -1.421875 
Q 15.921875 -1.421875 10.953125 3.296875 
Q 6 8.015625 6 15.921875 
Q 6 25.140625 12.171875 29.828125 
Q 18.359375 34.515625 30.609375 34.515625 
L 43.21875 34.515625 
L 43.21875 35.40625 
Q 43.21875 41.609375 39.140625 45 
Q 35.0625 48.390625 27.6875 48.390625 
Q 23 48.390625 18.546875 47.265625 
Q 14.109375 46.140625 10.015625 43.890625 
L 10.015625 52.203125 
Q 14.9375 54.109375 19.578125 55.046875 
Q 24.21875 56 28.609375 56 
Q 40.484375 56 46.34375 49.84375 
Q 52.203125 43.703125 52.203125 31.203125 
" id="BitstreamVeraSans-Roman-61"/>
      <path d="M 8.5 21.578125 
L 8.5 54.6875 
L 17.484375 54.6875 
L 17.484375 21.921875 
Q 17.484375 14.15625 20.5 10.265625 
Q 23.53125 6.390625 29.59375 6.390625 
Q 36.859375 6.390625 41.078125 11.03125 
Q 45.3125 15.671875 45.3125 23.6875 
L 45.3125 54.6875 
L 54.296875 54.6875 
L 54.296875 0 
L 45.3125 0 
L 45.3125 8.40625 
Q 42.046875 3.421875 37.71875 1 
Q 33.40625 -1.421875 27.6875 -1.421875 
Q 18.265625 -1.421875 13.375 4.4375 
Q 8.5 10.296875 8.5 21.578125 
" id="BitstreamVeraSans-Roman-75"/>
      <path d="M 41.109375 46.296875 
Q 39.59375 47.171875 37.8125 47.578125 
Q 36.03125 48 33.890625 48 
Q 26.265625 48 22.1875 43.046875 
Q 18.109375 38.09375 18.109375 28.8125 
L 18.109375 0 
L 9.078125 0 
L 9.078125 54.6875 
L 18.109375 54.6875 
L 18.109375 46.1875 
Q 20.953125 51.171875 25.484375 53.578125 
Q 30.03125 56 36.53125 56 
Q 37.453125 56 38.578125 55.875 
Q 39.703125 55.765625 41.0625 55.515625 
z
" id="BitstreamVeraSans-Roman-72"/>
      <path d="M 18.3125 70.21875 
L 18.3125 54.6875 
L 36.8125 54.6875 
L 36.8125 47.703125 
L 18.3125 47.703125 
L 18.3125 18.015625 
Q 18.3125 11.328125 20.140625 9.421875 
Q 21.96875 7.515625 27.59375 7.515625 
L 36.8125 7.515625 
L 36.8125 0 
L 27.59375 0 
Q 17.1875 0 13.234375 3.875 
Q 9.28125 7.765625 9.28125 18.015625 
L 9.28125 47.703125 
L 2.6875 47.703125 
L 2.6875 54.6875 
L 9.28125 54.6875 
L 9.28125 70.21875 
z
" id="BitstreamVeraSans-Roman-74"/>
      <path d="M 18.109375 8.203125 
L 18.109375 -20.796875 
L 9.078125 -20.796875 
L 9.078125 54.6875 
L 18.109375 54.6875 
L 18.109375 46.390625 
Q 20.953125 51.265625 25.265625 53.625 
Q 29.59375 56 35.59375 56 
Q 45.5625 56 51.78125 48.09375 
Q 58.015625 40.1875 58.015625 27.296875 
Q 58.015625 14.40625 51.78125 6.484375 
Q 45.5625 -1.421875 35.59375 -1.421875 
Q 29.59375 -1.421875 25.265625 0.953125 
Q 20.953125 3.328125 18.109375 8.203125 
M 48.6875 27.296875 
Q 48.6875 37.203125 44.609375 42.84375 
Q 40.53125 48.484375 33.40625 48.484375 
Q 26.265625 48.484375 22.1875 42.84375 
Q 18.109375 37.203125 18.109375 27.296875 
Q 18.109375 17.390625 22.1875 11.75 
Q 26.265625 6.109375 33.40625 6.109375 
Q 40.53125 6.109375 44.609375 11.75 
Q 48.6875 17.390625 48.6875 27.296875 
" id="BitstreamVeraSans-Roman-70"/>
     </defs>
     <g transform="translate(210.18125 375.759597828)scale(0.1 -0.1)">
      <use transform="translate(0.0 0.125)" xlink:href="#BitstreamVeraSans-Roman-41"/>
      <use transform="translate(68.408203125 0.125)" xlink:href="#BitstreamVeraSans-Roman-4e"/>
      <use transform="translate(143.212890625 0.125)" xlink:href="#BitstreamVeraSans-Roman-4c"/>
      <use transform="translate(198.92578125 0.125)" xlink:href="#BitstreamVeraSans-Roman-20"/>
      <use transform="translate(230.712890625 0.125)" xlink:href="#BitstreamVeraSans-Roman-54"/>
      <use transform="translate(291.796875 0.125)" xlink:href="#BitstreamVeraSans-Roman-65"/>
      <use transform="translate(353.3203125 0.125)" xlink:href="#BitstreamVeraSans-Roman-6d"/>
      <use transform="translate(450.732421875 0.125)" xlink:href="#BitstreamVeraSans-Roman-70"/>
      <use transform="translate(514.208984375 0.125)" xlink:href="#BitstreamVeraSans-Roman-65"/>
      <use transform="translate(575.732421875 0.125)" xlink:href="#BitstreamVeraSans-Roman-72"/>
      <use transform="translate(616.845703125 0.125)" xlink:href="#BitstreamVeraSans-Roman-61"/>
      <use transform="translate(678.125 0.125)" xlink:href="#BitstreamVeraSans-Roman-74"/>
      <use transform="translate(717.333984375 0.125)" xlink:href="#BitstreamVeraSans-Roman-75"/>
      <use transform="translate(780.712890625 0.125)" xlink:href="#BitstreamVeraSans-Roman-72"/>
      <use transform="translate(821.826171875 0.125)" xlink:href="#BitstreamVeraSans-Roman-65"/>
      <use transform="translate(883.349609375 0.125)" xlink:href="#BitstreamVeraSans-Roman-20"/>
      <use transform="translate(915.13671875 0.125)" xlink:href="#BitstreamVeraSans-Roman-28"/>
      <use transform="translate(958.61453125 38.3890625)scale(0.7)" xlink:href="#Cmmi10-6f"/>
      <use transform="translate(998.863945313 0.125)" xlink:href="#BitstreamVeraSans-Roman-46"/>
      <use transform="translate(1056.38347656 0.125)" xlink:href="#BitstreamVeraSans-Roman-29"/>
     </g>
    </g>
   </g>
   <g id="matplotlib.axis_2">
    <g id="ytick_1">
     <g id="line2d_17">
      <defs>
       <path d="M 0 0 
L 4 0 
" id="m64a6a2ce54" style="stroke:#000000;stroke-width:0.5;"/>
      </defs>
      <g>
       <use style="stroke:#000000;stroke-width:0.5;" x="41.78125" xlink:href="#m64a6a2ce54" y="313.782125"/>
      </g>
     </g>
     <g id="line2d_18">
      <defs>
       <path d="M 0 0 
L -4 0 
" id="m50286b3b99" style="stroke:#000000;stroke-width:0.5;"/>
      </defs>
      <g>
       <use style="stroke:#000000;stroke-width:0.5;" x="488.18125" xlink:href="#m50286b3b99" y="313.782125"/>
      </g>
     </g>
     <g id="text_10">
      <!-- 0.0 -->
      <g transform="translate(21.878125 316.5415)scale(0.1 -0.1)">
       <use xlink:href="#BitstreamVeraSans-Roman-30"/>
       <use x="63.623046875" xlink:href="#BitstreamVeraSans-Roman-2e"/>
       <use x="95.41015625" xlink:href="#BitstreamVeraSans-Roman-30"/>
      </g>
     </g>
    </g>
    <g id="ytick_2">
     <g id="line2d_19">
      <g>
       <use style="stroke:#000000;stroke-width:0.5;" x="41.78125" xlink:href="#m64a6a2ce54" y="278.907125"/>
      </g>
     </g>
     <g id="line2d_20">
      <g>
       <use style="stroke:#000000;stroke-width:0.5;" x="488.18125" xlink:href="#m50286b3b99" y="278.907125"/>
      </g>
     </g>
     <g id="text_11">
      <!-- 0.2 -->
      <g transform="translate(21.878125 281.6665)scale(0.1 -0.1)">
       <use xlink:href="#BitstreamVeraSans-Roman-30"/>
       <use x="63.623046875" xlink:href="#BitstreamVeraSans-Roman-2e"/>
       <use x="95.41015625" xlink:href="#BitstreamVeraSans-Roman-32"/>
      </g>
     </g>
    </g>
    <g id="ytick_3">
     <g id="line2d_21">
      <g>
       <use style="stroke:#000000;stroke-width:0.5;" x="41.78125" xlink:href="#m64a6a2ce54" y="244.032125"/>
      </g>
     </g>
     <g id="line2d_22">
      <g>
       <use style="stroke:#000000;stroke-width:0.5;" x="488.18125" xlink:href="#m50286b3b99" y="244.032125"/>
      </g>
     </g>
     <g id="text_12">
      <!-- 0.4 -->
      <g transform="translate(21.878125 246.7915)scale(0.1 -0.1)">
       <use xlink:href="#BitstreamVeraSans-Roman-30"/>
       <use x="63.623046875" xlink:href="#BitstreamVeraSans-Roman-2e"/>
       <use x="95.41015625" xlink:href="#BitstreamVeraSans-Roman-34"/>
      </g>
     </g>
    </g>
    <g id="ytick_4">
     <g id="line2d_23">
      <g>
       <use style="stroke:#000000;stroke-width:0.5;" x="41.78125" xlink:href="#m64a6a2ce54" y="209.157125"/>
      </g>
     </g>
     <g id="line2d_24">
      <g>
       <use style="stroke:#000000;stroke-width:0.5;" x="488.18125" xlink:href="#m50286b3b99" y="209.157125"/>
      </g>
     </g>
     <g id="text_13">
      <!-- 0.6 -->
      <defs>
       <path d="M 33.015625 40.375 
Q 26.375 40.375 22.484375 35.828125 
Q 18.609375 31.296875 18.609375 23.390625 
Q 18.609375 15.53125 22.484375 10.953125 
Q 26.375 6.390625 33.015625 6.390625 
Q 39.65625 6.390625 43.53125 10.953125 
Q 47.40625 15.53125 47.40625 23.390625 
Q 47.40625 31.296875 43.53125 35.828125 
Q 39.65625 40.375 33.015625 40.375 
M 52.59375 71.296875 
L 52.59375 62.3125 
Q 48.875 64.0625 45.09375 64.984375 
Q 41.3125 65.921875 37.59375 65.921875 
Q 27.828125 65.921875 22.671875 59.328125 
Q 17.53125 52.734375 16.796875 39.40625 
Q 19.671875 43.65625 24.015625 45.921875 
Q 28.375 48.1875 33.59375 48.1875 
Q 44.578125 48.1875 50.953125 41.515625 
Q 57.328125 34.859375 57.328125 23.390625 
Q 57.328125 12.15625 50.6875 5.359375 
Q 44.046875 -1.421875 33.015625 -1.421875 
Q 20.359375 -1.421875 13.671875 8.265625 
Q 6.984375 17.96875 6.984375 36.375 
Q 6.984375 53.65625 15.1875 63.9375 
Q 23.390625 74.21875 37.203125 74.21875 
Q 40.921875 74.21875 44.703125 73.484375 
Q 48.484375 72.75 52.59375 71.296875 
" id="BitstreamVeraSans-Roman-36"/>
      </defs>
      <g transform="translate(21.878125 211.9165)scale(0.1 -0.1)">
       <use xlink:href="#BitstreamVeraSans-Roman-30"/>
       <use x="63.623046875" xlink:href="#BitstreamVeraSans-Roman-2e"/>
       <use x="95.41015625" xlink:href="#BitstreamVeraSans-Roman-36"/>
      </g>
     </g>
    </g>
    <g id="ytick_5">
     <g id="line2d_25">
      <g>
       <use style="stroke:#000000;stroke-width:0.5;" x="41.78125" xlink:href="#m64a6a2ce54" y="174.282125"/>
      </g>
     </g>
     <g id="line2d_26">
      <g>
       <use style="stroke:#000000;stroke-width:0.5;" x="488.18125" xlink:href="#m50286b3b99" y="174.282125"/>
      </g>
     </g>
     <g id="text_14">
      <!-- 0.8 -->
      <defs>
       <path d="M 31.78125 34.625 
Q 24.75 34.625 20.71875 30.859375 
Q 16.703125 27.09375 16.703125 20.515625 
Q 16.703125 13.921875 20.71875 10.15625 
Q 24.75 6.390625 31.78125 6.390625 
Q 38.8125 6.390625 42.859375 10.171875 
Q 46.921875 13.96875 46.921875 20.515625 
Q 46.921875 27.09375 42.890625 30.859375 
Q 38.875 34.625 31.78125 34.625 
M 21.921875 38.8125 
Q 15.578125 40.375 12.03125 44.71875 
Q 8.5 49.078125 8.5 55.328125 
Q 8.5 64.0625 14.71875 69.140625 
Q 20.953125 74.21875 31.78125 74.21875 
Q 42.671875 74.21875 48.875 69.140625 
Q 55.078125 64.0625 55.078125 55.328125 
Q 55.078125 49.078125 51.53125 44.71875 
Q 48 40.375 41.703125 38.8125 
Q 48.828125 37.15625 52.796875 32.3125 
Q 56.78125 27.484375 56.78125 20.515625 
Q 56.78125 9.90625 50.3125 4.234375 
Q 43.84375 -1.421875 31.78125 -1.421875 
Q 19.734375 -1.421875 13.25 4.234375 
Q 6.78125 9.90625 6.78125 20.515625 
Q 6.78125 27.484375 10.78125 32.3125 
Q 14.796875 37.15625 21.921875 38.8125 
M 18.3125 54.390625 
Q 18.3125 48.734375 21.84375 45.5625 
Q 25.390625 42.390625 31.78125 42.390625 
Q 38.140625 42.390625 41.71875 45.5625 
Q 45.3125 48.734375 45.3125 54.390625 
Q 45.3125 60.0625 41.71875 63.234375 
Q 38.140625 66.40625 31.78125 66.40625 
Q 25.390625 66.40625 21.84375 63.234375 
Q 18.3125 60.0625 18.3125 54.390625 
" id="BitstreamVeraSans-Roman-38"/>
      </defs>
      <g transform="translate(21.878125 177.0415)scale(0.1 -0.1)">
       <use xlink:href="#BitstreamVeraSans-Roman-30"/>
       <use x="63.623046875" xlink:href="#BitstreamVeraSans-Roman-2e"/>
       <use x="95.41015625" xlink:href="#BitstreamVeraSans-Roman-38"/>
      </g>
     </g>
    </g>
    <g id="ytick_6">
     <g id="line2d_27">
      <g>
       <use style="stroke:#000000;stroke-width:0.5;" x="41.78125" xlink:href="#m64a6a2ce54" y="139.407125"/>
      </g>
     </g>
     <g id="line2d_28">
      <g>
       <use style="stroke:#000000;stroke-width:0.5;" x="488.18125" xlink:href="#m50286b3b99" y="139.407125"/>
      </g>
     </g>
     <g id="text_15">
      <!-- 1.0 -->
      <g transform="translate(21.878125 142.1665)scale(0.1 -0.1)">
       <use xlink:href="#BitstreamVeraSans-Roman-31"/>
       <use x="63.623046875" xlink:href="#BitstreamVeraSans-Roman-2e"/>
       <use x="95.41015625" xlink:href="#BitstreamVeraSans-Roman-30"/>
      </g>
     </g>
    </g>
    <g id="ytick_7">
     <g id="line2d_29">
      <g>
       <use style="stroke:#000000;stroke-width:0.5;" x="41.78125" xlink:href="#m64a6a2ce54" y="104.532125"/>
      </g>
     </g>
     <g id="line2d_30">
      <g>
       <use style="stroke:#000000;stroke-width:0.5;" x="488.18125" xlink:href="#m50286b3b99" y="104.532125"/>
      </g>
     </g>
     <g id="text_16">
      <!-- 1.2 -->
      <g transform="translate(21.878125 107.2915)scale(0.1 -0.1)">
       <use xlink:href="#BitstreamVeraSans-Roman-31"/>
       <use x="63.623046875" xlink:href="#BitstreamVeraSans-Roman-2e"/>
       <use x="95.41015625" xlink:href="#BitstreamVeraSans-Roman-32"/>
      </g>
     </g>
    </g>
    <g id="ytick_8">
     <g id="line2d_31">
      <g>
       <use style="stroke:#000000;stroke-width:0.5;" x="41.78125" xlink:href="#m64a6a2ce54" y="69.657125"/>
      </g>
     </g>
     <g id="line2d_32">
      <g>
       <use style="stroke:#000000;stroke-width:0.5;" x="488.18125" xlink:href="#m50286b3b99" y="69.657125"/>
      </g>
     </g>
     <g id="text_17">
      <!-- 1.4 -->
      <g transform="translate(21.878125 72.4165)scale(0.1 -0.1)">
       <use xlink:href="#BitstreamVeraSans-Roman-31"/>
       <use x="63.623046875" xlink:href="#BitstreamVeraSans-Roman-2e"/>
       <use x="95.41015625" xlink:href="#BitstreamVeraSans-Roman-34"/>
      </g>
     </g>
    </g>
    <g id="ytick_9">
     <g id="line2d_33">
      <g>
       <use style="stroke:#000000;stroke-width:0.5;" x="41.78125" xlink:href="#m64a6a2ce54" y="34.782125"/>
      </g>
     </g>
     <g id="line2d_34">
      <g>
       <use style="stroke:#000000;stroke-width:0.5;" x="488.18125" xlink:href="#m50286b3b99" y="34.782125"/>
      </g>
     </g>
     <g id="text_18">
      <!-- 1.6 -->
      <g transform="translate(21.878125 37.5415)scale(0.1 -0.1)">
       <use xlink:href="#BitstreamVeraSans-Roman-31"/>
       <use x="63.623046875" xlink:href="#BitstreamVeraSans-Roman-2e"/>
       <use x="95.41015625" xlink:href="#BitstreamVeraSans-Roman-36"/>
      </g>
     </g>
    </g>
    <g id="text_19">
     <!-- Precipitation Depth (inches) -->
     <defs>
      <path d="M 54.890625 33.015625 
L 54.890625 0 
L 45.90625 0 
L 45.90625 32.71875 
Q 45.90625 40.484375 42.875 44.328125 
Q 39.84375 48.1875 33.796875 48.1875 
Q 26.515625 48.1875 22.3125 43.546875 
Q 18.109375 38.921875 18.109375 30.90625 
L 18.109375 0 
L 9.078125 0 
L 9.078125 54.6875 
L 18.109375 54.6875 
L 18.109375 46.1875 
Q 21.34375 51.125 25.703125 53.5625 
Q 30.078125 56 35.796875 56 
Q 45.21875 56 50.046875 50.171875 
Q 54.890625 44.34375 54.890625 33.015625 
" id="BitstreamVeraSans-Roman-6e"/>
      <path d="M 30.609375 48.390625 
Q 23.390625 48.390625 19.1875 42.75 
Q 14.984375 37.109375 14.984375 27.296875 
Q 14.984375 17.484375 19.15625 11.84375 
Q 23.34375 6.203125 30.609375 6.203125 
Q 37.796875 6.203125 41.984375 11.859375 
Q 46.1875 17.53125 46.1875 27.296875 
Q 46.1875 37.015625 41.984375 42.703125 
Q 37.796875 48.390625 30.609375 48.390625 
M 30.609375 56 
Q 42.328125 56 49.015625 48.375 
Q 55.71875 40.765625 55.71875 27.296875 
Q 55.71875 13.875 49.015625 6.21875 
Q 42.328125 -1.421875 30.609375 -1.421875 
Q 18.84375 -1.421875 12.171875 6.21875 
Q 5.515625 13.875 5.515625 27.296875 
Q 5.515625 40.765625 12.171875 48.375 
Q 18.84375 56 30.609375 56 
" id="BitstreamVeraSans-Roman-6f"/>
      <path d="M 19.671875 64.796875 
L 19.671875 37.40625 
L 32.078125 37.40625 
Q 38.96875 37.40625 42.71875 40.96875 
Q 46.484375 44.53125 46.484375 51.125 
Q 46.484375 57.671875 42.71875 61.234375 
Q 38.96875 64.796875 32.078125 64.796875 
z
M 9.8125 72.90625 
L 32.078125 72.90625 
Q 44.34375 72.90625 50.609375 67.359375 
Q 56.890625 61.8125 56.890625 51.125 
Q 56.890625 40.328125 50.609375 34.8125 
Q 44.34375 29.296875 32.078125 29.296875 
L 19.671875 29.296875 
L 19.671875 0 
L 9.8125 0 
z
" id="BitstreamVeraSans-Roman-50"/>
      <path d="M 19.671875 64.796875 
L 19.671875 8.109375 
L 31.59375 8.109375 
Q 46.6875 8.109375 53.6875 14.9375 
Q 60.6875 21.78125 60.6875 36.53125 
Q 60.6875 51.171875 53.6875 57.984375 
Q 46.6875 64.796875 31.59375 64.796875 
z
M 9.8125 72.90625 
L 30.078125 72.90625 
Q 51.265625 72.90625 61.171875 64.09375 
Q 71.09375 55.28125 71.09375 36.53125 
Q 71.09375 17.671875 61.125 8.828125 
Q 51.171875 0 30.078125 0 
L 9.8125 0 
z
" id="BitstreamVeraSans-Roman-44"/>
      <path d="M 9.421875 54.6875 
L 18.40625 54.6875 
L 18.40625 0 
L 9.421875 0 
z
M 9.421875 75.984375 
L 18.40625 75.984375 
L 18.40625 64.59375 
L 9.421875 64.59375 
z
" id="BitstreamVeraSans-Roman-69"/>
      <path d="M 54.890625 33.015625 
L 54.890625 0 
L 45.90625 0 
L 45.90625 32.71875 
Q 45.90625 40.484375 42.875 44.328125 
Q 39.84375 48.1875 33.796875 48.1875 
Q 26.515625 48.1875 22.3125 43.546875 
Q 18.109375 38.921875 18.109375 30.90625 
L 18.109375 0 
L 9.078125 0 
L 9.078125 75.984375 
L 18.109375 75.984375 
L 18.109375 46.1875 
Q 21.34375 51.125 25.703125 53.5625 
Q 30.078125 56 35.796875 56 
Q 45.21875 56 50.046875 50.171875 
Q 54.890625 44.34375 54.890625 33.015625 
" id="BitstreamVeraSans-Roman-68"/>
      <path d="M 44.28125 53.078125 
L 44.28125 44.578125 
Q 40.484375 46.53125 36.375 47.5 
Q 32.28125 48.484375 27.875 48.484375 
Q 21.1875 48.484375 17.84375 46.4375 
Q 14.5 44.390625 14.5 40.28125 
Q 14.5 37.15625 16.890625 35.375 
Q 19.28125 33.59375 26.515625 31.984375 
L 29.59375 31.296875 
Q 39.15625 29.25 43.1875 25.515625 
Q 47.21875 21.78125 47.21875 15.09375 
Q 47.21875 7.46875 41.1875 3.015625 
Q 35.15625 -1.421875 24.609375 -1.421875 
Q 20.21875 -1.421875 15.453125 -0.5625 
Q 10.6875 0.296875 5.421875 2 
L 5.421875 11.28125 
Q 10.40625 8.6875 15.234375 7.390625 
Q 20.0625 6.109375 24.8125 6.109375 
Q 31.15625 6.109375 34.5625 8.28125 
Q 37.984375 10.453125 37.984375 14.40625 
Q 37.984375 18.0625 35.515625 20.015625 
Q 33.0625 21.96875 24.703125 23.78125 
L 21.578125 24.515625 
Q 13.234375 26.265625 9.515625 29.90625 
Q 5.8125 33.546875 5.8125 39.890625 
Q 5.8125 47.609375 11.28125 51.796875 
Q 16.75 56 26.8125 56 
Q 31.78125 56 36.171875 55.265625 
Q 40.578125 54.546875 44.28125 53.078125 
" id="BitstreamVeraSans-Roman-73"/>
      <path d="M 48.78125 52.59375 
L 48.78125 44.1875 
Q 44.96875 46.296875 41.140625 47.34375 
Q 37.3125 48.390625 33.40625 48.390625 
Q 24.65625 48.390625 19.8125 42.84375 
Q 14.984375 37.3125 14.984375 27.296875 
Q 14.984375 17.28125 19.8125 11.734375 
Q 24.65625 6.203125 33.40625 6.203125 
Q 37.3125 6.203125 41.140625 7.25 
Q 44.96875 8.296875 48.78125 10.40625 
L 48.78125 2.09375 
Q 45.015625 0.34375 40.984375 -0.53125 
Q 36.96875 -1.421875 32.421875 -1.421875 
Q 20.0625 -1.421875 12.78125 6.34375 
Q 5.515625 14.109375 5.515625 27.296875 
Q 5.515625 40.671875 12.859375 48.328125 
Q 20.21875 56 33.015625 56 
Q 37.15625 56 41.109375 55.140625 
Q 45.0625 54.296875 48.78125 52.59375 
" id="BitstreamVeraSans-Roman-63"/>
     </defs>
     <g transform="translate(14.7984375 244.1961875)rotate(-90.0)scale(0.1 -0.1)">
      <use xlink:href="#BitstreamVeraSans-Roman-50"/>
      <use x="60.287109375" xlink:href="#BitstreamVeraSans-Roman-72"/>
      <use x="101.369140625" xlink:href="#BitstreamVeraSans-Roman-65"/>
      <use x="162.892578125" xlink:href="#BitstreamVeraSans-Roman-63"/>
      <use x="217.873046875" xlink:href="#BitstreamVeraSans-Roman-69"/>
      <use x="245.65625" xlink:href="#BitstreamVeraSans-Roman-70"/>
      <use x="309.1328125" xlink:href="#BitstreamVeraSans-Roman-69"/>
      <use x="336.916015625" xlink:href="#BitstreamVeraSans-Roman-74"/>
      <use x="376.125" xlink:href="#BitstreamVeraSans-Roman-61"/>
      <use x="437.404296875" xlink:href="#BitstreamVeraSans-Roman-74"/>
      <use x="476.61328125" xlink:href="#BitstreamVeraSans-Roman-69"/>
      <use x="504.396484375" xlink:href="#BitstreamVeraSans-Roman-6f"/>
      <use x="565.578125" xlink:href="#BitstreamVeraSans-Roman-6e"/>
      <use x="628.95703125" xlink:href="#BitstreamVeraSans-Roman-20"/>
      <use x="660.744140625" xlink:href="#BitstreamVeraSans-Roman-44"/>
      <use x="737.74609375" xlink:href="#BitstreamVeraSans-Roman-65"/>
      <use x="799.26953125" xlink:href="#BitstreamVeraSans-Roman-70"/>
      <use x="862.74609375" xlink:href="#BitstreamVeraSans-Roman-74"/>
      <use x="901.955078125" xlink:href="#BitstreamVeraSans-Roman-68"/>
      <use x="965.333984375" xlink:href="#BitstreamVeraSans-Roman-20"/>
      <use x="997.12109375" xlink:href="#BitstreamVeraSans-Roman-28"/>
      <use x="1036.13476562" xlink:href="#BitstreamVeraSans-Roman-69"/>
      <use x="1063.91796875" xlink:href="#BitstreamVeraSans-Roman-6e"/>
      <use x="1127.296875" xlink:href="#BitstreamVeraSans-Roman-63"/>
      <use x="1182.27734375" xlink:href="#BitstreamVeraSans-Roman-68"/>
      <use x="1245.65625" xlink:href="#BitstreamVeraSans-Roman-65"/>
      <use x="1307.1796875" xlink:href="#BitstreamVeraSans-Roman-73"/>
      <use x="1359.27929688" xlink:href="#BitstreamVeraSans-Roman-29"/>
     </g>
    </g>
   </g>
   <g id="text_20">
    <g id="patch_39">
     <path d="M 131.06125 72.205656 
L 323.172812 72.205656 
Q 326.472813 72.205656 326.472813 68.905656 
L 326.472813 45.942125 
Q 326.472813 42.642125 323.172812 42.642125 
L 131.06125 42.642125 
Q 127.76125 42.642125 127.76125 45.942125 
L 127.76125 68.905656 
Q 127.76125 72.205656 131.06125 72.205656 
z
" style="fill:#cccccc;opacity:0.5;stroke:#000000;stroke-linejoin:miter;"/>
    </g>
    <!-- HSPF Rain/Snow Depth Ratio: 1.49 -->
    <defs>
     <path d="M 44.390625 34.1875 
Q 47.5625 33.109375 50.5625 29.59375 
Q 53.5625 26.078125 56.59375 19.921875 
L 66.609375 0 
L 56 0 
L 46.6875 18.703125 
Q 43.0625 26.03125 39.671875 28.421875 
Q 36.28125 30.8125 30.421875 30.8125 
L 19.671875 30.8125 
L 19.671875 0 
L 9.8125 0 
L 9.8125 72.90625 
L 32.078125 72.90625 
Q 44.578125 72.90625 50.734375 67.671875 
Q 56.890625 62.453125 56.890625 51.90625 
Q 56.890625 45.015625 53.6875 40.46875 
Q 50.484375 35.9375 44.390625 34.1875 
M 19.671875 64.796875 
L 19.671875 38.921875 
L 32.078125 38.921875 
Q 39.203125 38.921875 42.84375 42.21875 
Q 46.484375 45.515625 46.484375 51.90625 
Q 46.484375 58.296875 42.84375 61.546875 
Q 39.203125 64.796875 32.078125 64.796875 
z
" id="BitstreamVeraSans-Roman-52"/>
     <path d="M 11.71875 12.40625 
L 22.015625 12.40625 
L 22.015625 0 
L 11.71875 0 
z
M 11.71875 51.703125 
L 22.015625 51.703125 
L 22.015625 39.3125 
L 11.71875 39.3125 
z
" id="BitstreamVeraSans-Roman-3a"/>
     <path d="M 25.390625 72.90625 
L 33.6875 72.90625 
L 8.296875 -9.28125 
L 0 -9.28125 
z
" id="BitstreamVeraSans-Roman-2f"/>
     <path d="M 4.203125 54.6875 
L 13.1875 54.6875 
L 24.421875 12.015625 
L 35.59375 54.6875 
L 46.1875 54.6875 
L 57.421875 12.015625 
L 68.609375 54.6875 
L 77.59375 54.6875 
L 63.28125 0 
L 52.6875 0 
L 40.921875 44.828125 
L 29.109375 0 
L 18.5 0 
z
" id="BitstreamVeraSans-Roman-77"/>
     <path d="M 53.515625 70.515625 
L 53.515625 60.890625 
Q 47.90625 63.578125 42.921875 64.890625 
Q 37.9375 66.21875 33.296875 66.21875 
Q 25.25 66.21875 20.875 63.09375 
Q 16.5 59.96875 16.5 54.203125 
Q 16.5 49.359375 19.40625 46.890625 
Q 22.3125 44.4375 30.421875 42.921875 
L 36.375 41.703125 
Q 47.40625 39.59375 52.65625 34.296875 
Q 57.90625 29 57.90625 20.125 
Q 57.90625 9.515625 50.796875 4.046875 
Q 43.703125 -1.421875 29.984375 -1.421875 
Q 24.8125 -1.421875 18.96875 -0.25 
Q 13.140625 0.921875 6.890625 3.21875 
L 6.890625 13.375 
Q 12.890625 10.015625 18.65625 8.296875 
Q 24.421875 6.59375 29.984375 6.59375 
Q 38.421875 6.59375 43.015625 9.90625 
Q 47.609375 13.234375 47.609375 19.390625 
Q 47.609375 24.75 44.3125 27.78125 
Q 41.015625 30.8125 33.5 32.328125 
L 27.484375 33.5 
Q 16.453125 35.6875 11.515625 40.375 
Q 6.59375 45.0625 6.59375 53.421875 
Q 6.59375 63.09375 13.40625 68.65625 
Q 20.21875 74.21875 32.171875 74.21875 
Q 37.3125 74.21875 42.625 73.28125 
Q 47.953125 72.359375 53.515625 70.515625 
" id="BitstreamVeraSans-Roman-53"/>
     <path d="M 9.8125 72.90625 
L 19.671875 72.90625 
L 19.671875 43.015625 
L 55.515625 43.015625 
L 55.515625 72.90625 
L 65.375 72.90625 
L 65.375 0 
L 55.515625 0 
L 55.515625 34.71875 
L 19.671875 34.71875 
L 19.671875 0 
L 9.8125 0 
z
" id="BitstreamVeraSans-Roman-48"/>
    </defs>
    <g transform="translate(131.06125 54.30040625)scale(0.11 -0.11)">
     <use xlink:href="#BitstreamVeraSans-Roman-48"/>
     <use x="75.1953125" xlink:href="#BitstreamVeraSans-Roman-53"/>
     <use x="138.671875" xlink:href="#BitstreamVeraSans-Roman-50"/>
     <use x="198.974609375" xlink:href="#BitstreamVeraSans-Roman-46"/>
     <use x="256.494140625" xlink:href="#BitstreamVeraSans-Roman-20"/>
     <use x="288.28125" xlink:href="#BitstreamVeraSans-Roman-52"/>
     <use x="357.732421875" xlink:href="#BitstreamVeraSans-Roman-61"/>
     <use x="419.01171875" xlink:href="#BitstreamVeraSans-Roman-69"/>
     <use x="446.794921875" xlink:href="#BitstreamVeraSans-Roman-6e"/>
     <use x="510.173828125" xlink:href="#BitstreamVeraSans-Roman-2f"/>
     <use x="543.865234375" xlink:href="#BitstreamVeraSans-Roman-53"/>
     <use x="607.341796875" xlink:href="#BitstreamVeraSans-Roman-6e"/>
     <use x="670.720703125" xlink:href="#BitstreamVeraSans-Roman-6f"/>
     <use x="731.90234375" xlink:href="#BitstreamVeraSans-Roman-77"/>
     <use x="813.689453125" xlink:href="#BitstreamVeraSans-Roman-20"/>
     <use x="845.4765625" xlink:href="#BitstreamVeraSans-Roman-44"/>
     <use x="922.478515625" xlink:href="#BitstreamVeraSans-Roman-65"/>
     <use x="984.001953125" xlink:href="#BitstreamVeraSans-Roman-70"/>
     <use x="1047.47851562" xlink:href="#BitstreamVeraSans-Roman-74"/>
     <use x="1086.6875" xlink:href="#BitstreamVeraSans-Roman-68"/>
     <use x="1150.06640625" xlink:href="#BitstreamVeraSans-Roman-20"/>
     <use x="1181.85351562" xlink:href="#BitstreamVeraSans-Roman-52"/>
     <use x="1251.3046875" xlink:href="#BitstreamVeraSans-Roman-61"/>
     <use x="1312.58398438" xlink:href="#BitstreamVeraSans-Roman-74"/>
     <use x="1351.79296875" xlink:href="#BitstreamVeraSans-Roman-69"/>
     <use x="1379.57617188" xlink:href="#BitstreamVeraSans-Roman-6f"/>
     <use x="1440.7578125" xlink:href="#BitstreamVeraSans-Roman-3a"/>
     <use x="1474.44921875" xlink:href="#BitstreamVeraSans-Roman-20"/>
     <use x="1506.23632812" xlink:href="#BitstreamVeraSans-Roman-31"/>
     <use x="1569.859375" xlink:href="#BitstreamVeraSans-Roman-2e"/>
     <use x="1601.64648438" xlink:href="#BitstreamVeraSans-Roman-34"/>
     <use x="1665.26953125" xlink:href="#BitstreamVeraSans-Roman-39"/>
    </g>
    <!-- ASOS Rain/Snow Depth Ratio: 1.69 -->
    <defs>
     <path d="M 39.40625 66.21875 
Q 28.65625 66.21875 22.328125 58.203125 
Q 16.015625 50.203125 16.015625 36.375 
Q 16.015625 22.609375 22.328125 14.59375 
Q 28.65625 6.59375 39.40625 6.59375 
Q 50.140625 6.59375 56.421875 14.59375 
Q 62.703125 22.609375 62.703125 36.375 
Q 62.703125 50.203125 56.421875 58.203125 
Q 50.140625 66.21875 39.40625 66.21875 
M 39.40625 74.21875 
Q 54.734375 74.21875 63.90625 63.9375 
Q 73.09375 53.65625 73.09375 36.375 
Q 73.09375 19.140625 63.90625 8.859375 
Q 54.734375 -1.421875 39.40625 -1.421875 
Q 24.03125 -1.421875 14.8125 8.828125 
Q 5.609375 19.09375 5.609375 36.375 
Q 5.609375 53.65625 14.8125 63.9375 
Q 24.03125 74.21875 39.40625 74.21875 
" id="BitstreamVeraSans-Roman-4f"/>
    </defs>
    <g transform="translate(131.06125 66.618)scale(0.11 -0.11)">
     <use xlink:href="#BitstreamVeraSans-Roman-41"/>
     <use x="68.408203125" xlink:href="#BitstreamVeraSans-Roman-53"/>
     <use x="131.884765625" xlink:href="#BitstreamVeraSans-Roman-4f"/>
     <use x="210.595703125" xlink:href="#BitstreamVeraSans-Roman-53"/>
     <use x="274.072265625" xlink:href="#BitstreamVeraSans-Roman-20"/>
     <use x="305.859375" xlink:href="#BitstreamVeraSans-Roman-52"/>
     <use x="375.310546875" xlink:href="#BitstreamVeraSans-Roman-61"/>
     <use x="436.58984375" xlink:href="#BitstreamVeraSans-Roman-69"/>
     <use x="464.373046875" xlink:href="#BitstreamVeraSans-Roman-6e"/>
     <use x="527.751953125" xlink:href="#BitstreamVeraSans-Roman-2f"/>
     <use x="561.443359375" xlink:href="#BitstreamVeraSans-Roman-53"/>
     <use x="624.919921875" xlink:href="#BitstreamVeraSans-Roman-6e"/>
     <use x="688.298828125" xlink:href="#BitstreamVeraSans-Roman-6f"/>
     <use x="749.48046875" xlink:href="#BitstreamVeraSans-Roman-77"/>
     <use x="831.267578125" xlink:href="#BitstreamVeraSans-Roman-20"/>
     <use x="863.0546875" xlink:href="#BitstreamVeraSans-Roman-44"/>
     <use x="940.056640625" xlink:href="#BitstreamVeraSans-Roman-65"/>
     <use x="1001.58007812" xlink:href="#BitstreamVeraSans-Roman-70"/>
     <use x="1065.05664062" xlink:href="#BitstreamVeraSans-Roman-74"/>
     <use x="1104.265625" xlink:href="#BitstreamVeraSans-Roman-68"/>
     <use x="1167.64453125" xlink:href="#BitstreamVeraSans-Roman-20"/>
     <use x="1199.43164062" xlink:href="#BitstreamVeraSans-Roman-52"/>
     <use x="1268.8828125" xlink:href="#BitstreamVeraSans-Roman-61"/>
     <use x="1330.16210938" xlink:href="#BitstreamVeraSans-Roman-74"/>
     <use x="1369.37109375" xlink:href="#BitstreamVeraSans-Roman-69"/>
     <use x="1397.15429688" xlink:href="#BitstreamVeraSans-Roman-6f"/>
     <use x="1458.3359375" xlink:href="#BitstreamVeraSans-Roman-3a"/>
     <use x="1492.02734375" xlink:href="#BitstreamVeraSans-Roman-20"/>
     <use x="1523.81445312" xlink:href="#BitstreamVeraSans-Roman-31"/>
     <use x="1587.4375" xlink:href="#BitstreamVeraSans-Roman-2e"/>
     <use x="1619.22460938" xlink:href="#BitstreamVeraSans-Roman-36"/>
     <use x="1682.84765625" xlink:href="#BitstreamVeraSans-Roman-39"/>
    </g>
   </g>
   <g id="text_21">
    <!-- DuPage Airport (KDPA): TSNOW=32.0$^o$F -->
    <defs>
     <path d="M 45.40625 27.984375 
Q 45.40625 37.75 41.375 43.109375 
Q 37.359375 48.484375 30.078125 48.484375 
Q 22.859375 48.484375 18.828125 43.109375 
Q 14.796875 37.75 14.796875 27.984375 
Q 14.796875 18.265625 18.828125 12.890625 
Q 22.859375 7.515625 30.078125 7.515625 
Q 37.359375 7.515625 41.375 12.890625 
Q 45.40625 18.265625 45.40625 27.984375 
M 54.390625 6.78125 
Q 54.390625 -7.171875 48.1875 -13.984375 
Q 42 -20.796875 29.203125 -20.796875 
Q 24.46875 -20.796875 20.265625 -20.09375 
Q 16.0625 -19.390625 12.109375 -17.921875 
L 12.109375 -9.1875 
Q 16.0625 -11.328125 19.921875 -12.34375 
Q 23.78125 -13.375 27.78125 -13.375 
Q 36.625 -13.375 41.015625 -8.765625 
Q 45.40625 -4.15625 45.40625 5.171875 
L 45.40625 9.625 
Q 42.625 4.78125 38.28125 2.390625 
Q 33.9375 0 27.875 0 
Q 17.828125 0 11.671875 7.65625 
Q 5.515625 15.328125 5.515625 27.984375 
Q 5.515625 40.671875 11.671875 48.328125 
Q 17.828125 56 27.875 56 
Q 33.9375 56 38.28125 53.609375 
Q 42.625 51.21875 45.40625 46.390625 
L 45.40625 54.6875 
L 54.390625 54.6875 
z
" id="BitstreamVeraSans-Roman-67"/>
     <path d="M 9.8125 72.90625 
L 19.671875 72.90625 
L 19.671875 42.09375 
L 52.390625 72.90625 
L 65.09375 72.90625 
L 28.90625 38.921875 
L 67.671875 0 
L 54.6875 0 
L 19.671875 35.109375 
L 19.671875 0 
L 9.8125 0 
z
" id="BitstreamVeraSans-Roman-4b"/>
     <path d="M 10.59375 45.40625 
L 73.1875 45.40625 
L 73.1875 37.203125 
L 10.59375 37.203125 
z
M 10.59375 25.484375 
L 73.1875 25.484375 
L 73.1875 17.1875 
L 10.59375 17.1875 
z
" id="BitstreamVeraSans-Roman-3d"/>
     <path d="M 3.328125 72.90625 
L 13.28125 72.90625 
L 28.609375 11.28125 
L 43.890625 72.90625 
L 54.984375 72.90625 
L 70.3125 11.28125 
L 85.59375 72.90625 
L 95.609375 72.90625 
L 77.296875 0 
L 64.890625 0 
L 49.515625 63.28125 
L 33.984375 0 
L 21.578125 0 
z
" id="BitstreamVeraSans-Roman-57"/>
    </defs>
    <g transform="translate(145.34125 16.344375)scale(0.12 -0.12)">
     <use transform="translate(0.0 0.015625)" xlink:href="#BitstreamVeraSans-Roman-44"/>
     <use transform="translate(77.001953125 0.015625)" xlink:href="#BitstreamVeraSans-Roman-75"/>
     <use transform="translate(140.380859375 0.015625)" xlink:href="#BitstreamVeraSans-Roman-50"/>
     <use transform="translate(200.68359375 0.015625)" xlink:href="#BitstreamVeraSans-Roman-61"/>
     <use transform="translate(261.962890625 0.015625)" xlink:href="#BitstreamVeraSans-Roman-67"/>
     <use transform="translate(325.439453125 0.015625)" xlink:href="#BitstreamVeraSans-Roman-65"/>
     <use transform="translate(386.962890625 0.015625)" xlink:href="#BitstreamVeraSans-Roman-20"/>
     <use transform="translate(418.75 0.015625)" xlink:href="#BitstreamVeraSans-Roman-41"/>
     <use transform="translate(487.158203125 0.015625)" xlink:href="#BitstreamVeraSans-Roman-69"/>
     <use transform="translate(514.94140625 0.015625)" xlink:href="#BitstreamVeraSans-Roman-72"/>
     <use transform="translate(556.0546875 0.015625)" xlink:href="#BitstreamVeraSans-Roman-70"/>
     <use transform="translate(619.53125 0.015625)" xlink:href="#BitstreamVeraSans-Roman-6f"/>
     <use transform="translate(680.712890625 0.015625)" xlink:href="#BitstreamVeraSans-Roman-72"/>
     <use transform="translate(721.826171875 0.015625)" xlink:href="#BitstreamVeraSans-Roman-74"/>
     <use transform="translate(761.03515625 0.015625)" xlink:href="#BitstreamVeraSans-Roman-20"/>
     <use transform="translate(792.822265625 0.015625)" xlink:href="#BitstreamVeraSans-Roman-28"/>
     <use transform="translate(831.8359375 0.015625)" xlink:href="#BitstreamVeraSans-Roman-4b"/>
     <use transform="translate(897.412109375 0.015625)" xlink:href="#BitstreamVeraSans-Roman-44"/>
     <use transform="translate(974.4140625 0.015625)" xlink:href="#BitstreamVeraSans-Roman-50"/>
     <use transform="translate(1034.71679688 0.015625)" xlink:href="#BitstreamVeraSans-Roman-41"/>
     <use transform="translate(1103.125 0.015625)" xlink:href="#BitstreamVeraSans-Roman-29"/>
     <use transform="translate(1142.13867188 0.015625)" xlink:href="#BitstreamVeraSans-Roman-3a"/>
     <use transform="translate(1175.83007812 0.015625)" xlink:href="#BitstreamVeraSans-Roman-20"/>
     <use transform="translate(1207.6171875 0.015625)" xlink:href="#BitstreamVeraSans-Roman-54"/>
     <use transform="translate(1268.70117188 0.015625)" xlink:href="#BitstreamVeraSans-Roman-53"/>
     <use transform="translate(1332.17773438 0.015625)" xlink:href="#BitstreamVeraSans-Roman-4e"/>
     <use transform="translate(1406.98242188 0.015625)" xlink:href="#BitstreamVeraSans-Roman-4f"/>
     <use transform="translate(1485.69335938 0.015625)" xlink:href="#BitstreamVeraSans-Roman-57"/>
     <use transform="translate(1584.5703125 0.015625)" xlink:href="#BitstreamVeraSans-Roman-3d"/>
     <use transform="translate(1668.359375 0.015625)" xlink:href="#BitstreamVeraSans-Roman-33"/>
     <use transform="translate(1731.98242188 0.015625)" xlink:href="#BitstreamVeraSans-Roman-32"/>
     <use transform="translate(1795.60546875 0.015625)" xlink:href="#BitstreamVeraSans-Roman-2e"/>
     <use transform="translate(1827.39257812 0.015625)" xlink:href="#BitstreamVeraSans-Roman-30"/>
     <use transform="translate(1895.47976563 38.2796875)scale(0.7)" xlink:href="#Cmmi10-6f"/>
     <use transform="translate(1935.72917969 0.015625)" xlink:href="#BitstreamVeraSans-Roman-46"/>
    </g>
    <!-- 1/1/2006 - 9/30/2013 -->
    <g transform="translate(201.2903125 29.806125)scale(0.12 -0.12)">
     <use xlink:href="#BitstreamVeraSans-Roman-31"/>
     <use x="63.623046875" xlink:href="#BitstreamVeraSans-Roman-2f"/>
     <use x="97.314453125" xlink:href="#BitstreamVeraSans-Roman-31"/>
     <use x="160.9375" xlink:href="#BitstreamVeraSans-Roman-2f"/>
     <use x="194.62890625" xlink:href="#BitstreamVeraSans-Roman-32"/>
     <use x="258.251953125" xlink:href="#BitstreamVeraSans-Roman-30"/>
     <use x="321.875" xlink:href="#BitstreamVeraSans-Roman-30"/>
     <use x="385.498046875" xlink:href="#BitstreamVeraSans-Roman-36"/>
     <use x="449.12109375" xlink:href="#BitstreamVeraSans-Roman-20"/>
     <use x="480.908203125" xlink:href="#BitstreamVeraSans-Roman-2d"/>
     <use x="516.9921875" xlink:href="#BitstreamVeraSans-Roman-20"/>
     <use x="548.779296875" xlink:href="#BitstreamVeraSans-Roman-39"/>
     <use x="612.40234375" xlink:href="#BitstreamVeraSans-Roman-2f"/>
     <use x="646.09375" xlink:href="#BitstreamVeraSans-Roman-33"/>
     <use x="709.716796875" xlink:href="#BitstreamVeraSans-Roman-30"/>
     <use x="773.33984375" xlink:href="#BitstreamVeraSans-Roman-2f"/>
     <use x="807.03125" xlink:href="#BitstreamVeraSans-Roman-32"/>
     <use x="870.654296875" xlink:href="#BitstreamVeraSans-Roman-30"/>
     <use x="934.27734375" xlink:href="#BitstreamVeraSans-Roman-31"/>
     <use x="997.900390625" xlink:href="#BitstreamVeraSans-Roman-33"/>
    </g>
   </g>
   <g id="legend_1">
    <g id="patch_40">
     <path d="M 369.896875 114.837125 
L 482.18125 114.837125 
L 482.18125 40.782125 
L 369.896875 40.782125 
z
" style="fill:#ffffff;stroke:#000000;stroke-linejoin:miter;"/>
    </g>
    <g id="patch_41">
     <path d="M 374.696875 54.70025 
L 398.696875 54.70025 
L 398.696875 46.30025 
L 374.696875 46.30025 
z
" style="fill:url(#h6babc0742f);opacity:0.35;stroke:#000000;stroke-linejoin:miter;"/>
    </g>
    <g id="text_22">
     <!-- HSPF Snow -->
     <g transform="translate(408.296875 54.70025)scale(0.12 -0.12)">
      <use xlink:href="#BitstreamVeraSans-Roman-48"/>
      <use x="75.1953125" xlink:href="#BitstreamVeraSans-Roman-53"/>
      <use x="138.671875" xlink:href="#BitstreamVeraSans-Roman-50"/>
      <use x="198.974609375" xlink:href="#BitstreamVeraSans-Roman-46"/>
      <use x="256.494140625" xlink:href="#BitstreamVeraSans-Roman-20"/>
      <use x="288.28125" xlink:href="#BitstreamVeraSans-Roman-53"/>
      <use x="351.7578125" xlink:href="#BitstreamVeraSans-Roman-6e"/>
      <use x="415.13671875" xlink:href="#BitstreamVeraSans-Roman-6f"/>
      <use x="476.318359375" xlink:href="#BitstreamVeraSans-Roman-77"/>
     </g>
    </g>
    <g id="patch_42">
     <path d="M 374.696875 72.314 
L 398.696875 72.314 
L 398.696875 63.914 
L 374.696875 63.914 
z
" style="fill:#0000ff;stroke:#000000;stroke-linejoin:miter;"/>
    </g>
    <g id="text_23">
     <!-- ASOS Snow -->
     <g transform="translate(408.296875 72.314)scale(0.12 -0.12)">
      <use xlink:href="#BitstreamVeraSans-Roman-41"/>
      <use x="68.408203125" xlink:href="#BitstreamVeraSans-Roman-53"/>
      <use x="131.884765625" xlink:href="#BitstreamVeraSans-Roman-4f"/>
      <use x="210.595703125" xlink:href="#BitstreamVeraSans-Roman-53"/>
      <use x="274.072265625" xlink:href="#BitstreamVeraSans-Roman-20"/>
      <use x="305.859375" xlink:href="#BitstreamVeraSans-Roman-53"/>
      <use x="369.3359375" xlink:href="#BitstreamVeraSans-Roman-6e"/>
      <use x="432.71484375" xlink:href="#BitstreamVeraSans-Roman-6f"/>
      <use x="493.896484375" xlink:href="#BitstreamVeraSans-Roman-77"/>
     </g>
    </g>
    <g id="patch_43">
     <path d="M 374.696875 89.92775 
L 398.696875 89.92775 
L 398.696875 81.52775 
L 374.696875 81.52775 
z
" style="fill:url(#hf289ea9163);opacity:0.35;stroke:#000000;stroke-linejoin:miter;"/>
    </g>
    <g id="text_24">
     <!-- HSPF Rain -->
     <g transform="translate(408.296875 89.92775)scale(0.12 -0.12)">
      <use xlink:href="#BitstreamVeraSans-Roman-48"/>
      <use x="75.1953125" xlink:href="#BitstreamVeraSans-Roman-53"/>
      <use x="138.671875" xlink:href="#BitstreamVeraSans-Roman-50"/>
      <use x="198.974609375" xlink:href="#BitstreamVeraSans-Roman-46"/>
      <use x="256.494140625" xlink:href="#BitstreamVeraSans-Roman-20"/>
      <use x="288.28125" xlink:href="#BitstreamVeraSans-Roman-52"/>
      <use x="357.732421875" xlink:href="#BitstreamVeraSans-Roman-61"/>
      <use x="419.01171875" xlink:href="#BitstreamVeraSans-Roman-69"/>
      <use x="446.794921875" xlink:href="#BitstreamVeraSans-Roman-6e"/>
     </g>
    </g>
    <g id="patch_44">
     <path d="M 374.696875 107.5415 
L 398.696875 107.5415 
L 398.696875 99.1415 
L 374.696875 99.1415 
z
" style="fill:#ff0000;stroke:#000000;stroke-linejoin:miter;"/>
    </g>
    <g id="text_25">
     <!-- ASOS Rain -->
     <g transform="translate(408.296875 107.5415)scale(0.12 -0.12)">
      <use xlink:href="#BitstreamVeraSans-Roman-41"/>
      <use x="68.408203125" xlink:href="#BitstreamVeraSans-Roman-53"/>
      <use x="131.884765625" xlink:href="#BitstreamVeraSans-Roman-4f"/>
      <use x="210.595703125" xlink:href="#BitstreamVeraSans-Roman-53"/>
      <use x="274.072265625" xlink:href="#BitstreamVeraSans-Roman-20"/>
      <use x="305.859375" xlink:href="#BitstreamVeraSans-Roman-52"/>
      <use x="375.310546875" xlink:href="#BitstreamVeraSans-Roman-61"/>
      <use x="436.58984375" xlink:href="#BitstreamVeraSans-Roman-69"/>
      <use x="464.373046875" xlink:href="#BitstreamVeraSans-Roman-6e"/>
     </g>
    </g>
   </g>
  </g>
 </g>
 <defs>
  <clipPath id="p37e13c32e9">
   <rect height="279.0" width="446.4" x="41.78125" y="34.782125"/>
  </clipPath>
 </defs>
 <defs>
  <pattern height="72" id="hf289ea9163" patternUnits="userSpaceOnUse" width="72" x="0" y="0">
   <rect fill="#ff0000" height="73" width="73" x="0" y="0"/>
   <path d="M -36 36 
L 36 -36 
M -30 42 
L 42 -30 
M -24 48 
L 48 -24 
M -18 54 
L 54 -18 
M -12 60 
L 60 -12 
M -6 66 
L 66 -6 
M 0 72 
L 72 0 
M 6 78 
L 78 6 
M 12 84 
L 84 12 
M 18 90 
L 90 18 
M 24 96 
L 96 24 
M 30 102 
L 102 30 
M 36 108 
L 108 36 
" style="fill:#000000;stroke:#000000;stroke-linecap:butt;stroke-linejoin:miter;stroke-width:1.0;"/>
  </pattern>
  <pattern height="72" id="h6babc0742f" patternUnits="userSpaceOnUse" width="72" x="0" y="0">
   <rect fill="#0000ff" height="73" width="73" x="0" y="0"/>
   <path d="M -36 36 
L 36 -36 
M -30 42 
L 42 -30 
M -24 48 
L 48 -24 
M -18 54 
L 54 -18 
M -12 60 
L 60 -12 
M -6 66 
L 66 -6 
M 0 72 
L 72 0 
M 6 78 
L 78 6 
M 12 84 
L 84 12 
M 18 90 
L 90 18 
M 24 96 
L 96 24 
M 30 102 
L 102 30 
M 36 108 
L 108 36 
" style="fill:#000000;stroke:#000000;stroke-linecap:butt;stroke-linejoin:miter;stroke-width:1.0;"/>
  </pattern>
 </defs>
</svg>
