<?xml version="1.0" encoding="utf-8" standalone="no"?>
<!DOCTYPE svg PUBLIC "-//W3C//DTD SVG 1.1//EN"
  "http://www.w3.org/Graphics/SVG/1.1/DTD/svg11.dtd">
<!-- Created with matplotlib (http://matplotlib.org/) -->
<svg height="385pt" version="1.1" viewBox="0 0 495 385" width="495pt" xmlns="http://www.w3.org/2000/svg" xmlns:xlink="http://www.w3.org/1999/xlink">
 <defs>
  <style type="text/css">
*{stroke-linecap:butt;stroke-linejoin:round;stroke-miterlimit:100000;}
  </style>
 </defs>
 <g id="figure_1">
  <g id="patch_1">
   <path d="M 0 385.059598 
L 495.38125 385.059598 
L 495.38125 0 
L 0 0 
z
" style="fill:#ffffff;"/>
  </g>
  <g id="axes_1">
   <g id="patch_2">
    <path d="M 41.78125 313.782125 
L 488.18125 313.782125 
L 488.18125 34.782125 
L 41.78125 34.782125 
z
" style="fill:#ffffff;"/>
   </g>
   <g id="patch_3">
    <path clip-path="url(#pb3bc5df3e9)" d="M 41.78125 313.782125 
L 53.227404 313.782125 
L 53.227404 223.554341 
L 41.78125 223.554341 
z
" style="fill:url(#h048ccd73b3);opacity:0.35;stroke:#000000;stroke-linejoin:miter;"/>
   </g>
   <g id="patch_4">
    <path clip-path="url(#pb3bc5df3e9)" d="M 53.227404 313.782125 
L 64.673558 313.782125 
L 64.673558 281.613959 
L 53.227404 281.613959 
z
" style="fill:#0000ff;stroke:#000000;stroke-linejoin:miter;"/>
   </g>
   <g id="patch_5">
    <path clip-path="url(#pb3bc5df3e9)" d="M 99.012019 313.782125 
L 110.458173 313.782125 
L 110.458173 62.713509 
L 99.012019 62.713509 
z
" style="fill:url(#h048ccd73b3);opacity:0.35;stroke:#000000;stroke-linejoin:miter;"/>
   </g>
   <g id="patch_6">
    <path clip-path="url(#pb3bc5df3e9)" d="M 110.458173 313.782125 
L 121.904327 313.782125 
L 121.904327 184.32487 
L 110.458173 184.32487 
z
" style="fill:#0000ff;stroke:#000000;stroke-linejoin:miter;"/>
   </g>
   <g id="patch_7">
    <path clip-path="url(#pb3bc5df3e9)" d="M 156.242788 313.782125 
L 167.688942 313.782125 
L 167.688942 142.74163 
L 156.242788 142.74163 
z
" style="fill:url(#h048ccd73b3);opacity:0.35;stroke:#000000;stroke-linejoin:miter;"/>
   </g>
   <g id="patch_8">
    <path clip-path="url(#pb3bc5df3e9)" d="M 167.688942 313.782125 
L 179.135096 313.782125 
L 179.135096 295.736568 
L 167.688942 295.736568 
z
" style="fill:#0000ff;stroke:#000000;stroke-linejoin:miter;"/>
   </g>
   <g id="patch_9">
    <path clip-path="url(#pb3bc5df3e9)" d="M 213.473558 313.782125 
L 224.919712 313.782125 
L 224.919712 252.58415 
L 213.473558 252.58415 
z
" style="fill:url(#h048ccd73b3);opacity:0.35;stroke:#000000;stroke-linejoin:miter;"/>
   </g>
   <g id="patch_10">
    <path clip-path="url(#pb3bc5df3e9)" d="M 224.919712 313.782125 
L 236.365865 313.782125 
L 236.365865 298.874926 
L 224.919712 298.874926 
z
" style="fill:#0000ff;stroke:#000000;stroke-linejoin:miter;"/>
   </g>
   <g id="patch_11">
    <path clip-path="url(#pb3bc5df3e9)" d="M 270.704327 313.782125 
L 282.150481 313.782125 
L 282.150481 257.291686 
L 270.704327 257.291686 
z
" style="fill:url(#h048ccd73b3);opacity:0.35;stroke:#000000;stroke-linejoin:miter;"/>
   </g>
   <g id="patch_12">
    <path clip-path="url(#pb3bc5df3e9)" d="M 282.150481 313.782125 
L 293.596635 313.782125 
L 293.596635 213.354678 
L 282.150481 213.354678 
z
" style="fill:#0000ff;stroke:#000000;stroke-linejoin:miter;"/>
   </g>
   <g id="patch_13">
    <path clip-path="url(#pb3bc5df3e9)" d="M 327.935096 313.782125 
L 339.38125 313.782125 
L 339.38125 313.782125 
L 327.935096 313.782125 
z
" style="fill:url(#h048ccd73b3);opacity:0.35;stroke:#000000;stroke-linejoin:miter;"/>
   </g>
   <g id="patch_14">
    <path clip-path="url(#pb3bc5df3e9)" d="M 339.38125 313.782125 
L 350.827404 313.782125 
L 350.827404 313.782125 
L 339.38125 313.782125 
z
" style="fill:#0000ff;stroke:#000000;stroke-linejoin:miter;"/>
   </g>
   <g id="patch_15">
    <path clip-path="url(#pb3bc5df3e9)" d="M 385.165865 313.782125 
L 396.612019 313.782125 
L 396.612019 313.782125 
L 385.165865 313.782125 
z
" style="fill:url(#h048ccd73b3);opacity:0.35;stroke:#000000;stroke-linejoin:miter;"/>
   </g>
   <g id="patch_16">
    <path clip-path="url(#pb3bc5df3e9)" d="M 396.612019 313.782125 
L 408.058173 313.782125 
L 408.058173 284.752316 
L 396.612019 284.752316 
z
" style="fill:#0000ff;stroke:#000000;stroke-linejoin:miter;"/>
   </g>
   <g id="patch_17">
    <path clip-path="url(#pb3bc5df3e9)" d="M 442.396635 313.782125 
L 453.842788 313.782125 
L 453.842788 313.782125 
L 442.396635 313.782125 
z
" style="fill:url(#h048ccd73b3);opacity:0.35;stroke:#000000;stroke-linejoin:miter;"/>
   </g>
   <g id="patch_18">
    <path clip-path="url(#pb3bc5df3e9)" d="M 453.842788 313.782125 
L 465.288942 313.782125 
L 465.288942 275.337243 
L 453.842788 275.337243 
z
" style="fill:#0000ff;stroke:#000000;stroke-linejoin:miter;"/>
   </g>
   <g id="patch_19">
    <path clip-path="url(#pb3bc5df3e9)" d="M 64.673558 313.782125 
L 76.119712 313.782125 
L 76.119712 313.782125 
L 64.673558 313.782125 
z
" style="fill:url(#h8840618492);opacity:0.35;stroke:#000000;stroke-linejoin:miter;"/>
   </g>
   <g id="patch_20">
    <path clip-path="url(#pb3bc5df3e9)" d="M 76.119712 313.782125 
L 87.565865 313.782125 
L 87.565865 255.722507 
L 76.119712 255.722507 
z
" style="fill:#ff0000;stroke:#000000;stroke-linejoin:miter;"/>
   </g>
   <g id="patch_21">
    <path clip-path="url(#pb3bc5df3e9)" d="M 121.904327 313.782125 
L 133.350481 313.782125 
L 133.350481 313.782125 
L 121.904327 313.782125 
z
" style="fill:url(#h8840618492);opacity:0.35;stroke:#000000;stroke-linejoin:miter;"/>
   </g>
   <g id="patch_22">
    <path clip-path="url(#pb3bc5df3e9)" d="M 133.350481 313.782125 
L 144.796635 313.782125 
L 144.796635 192.170764 
L 133.350481 192.170764 
z
" style="fill:#ff0000;stroke:#000000;stroke-linejoin:miter;"/>
   </g>
   <g id="patch_23">
    <path clip-path="url(#pb3bc5df3e9)" d="M 179.135096 313.782125 
L 190.58125 313.782125 
L 190.58125 313.782125 
L 179.135096 313.782125 
z
" style="fill:url(#h8840618492);opacity:0.35;stroke:#000000;stroke-linejoin:miter;"/>
   </g>
   <g id="patch_24">
    <path clip-path="url(#pb3bc5df3e9)" d="M 190.58125 313.782125 
L 202.027404 313.782125 
L 202.027404 160.787187 
L 190.58125 160.787187 
z
" style="fill:#ff0000;stroke:#000000;stroke-linejoin:miter;"/>
   </g>
   <g id="patch_25">
    <path clip-path="url(#pb3bc5df3e9)" d="M 236.365865 313.782125 
L 247.812019 313.782125 
L 247.812019 221.985162 
L 236.365865 221.985162 
z
" style="fill:url(#h8840618492);opacity:0.35;stroke:#000000;stroke-linejoin:miter;"/>
   </g>
   <g id="patch_26">
    <path clip-path="url(#pb3bc5df3e9)" d="M 247.812019 313.782125 
L 259.258173 313.782125 
L 259.258173 175.694386 
L 247.812019 175.694386 
z
" style="fill:#ff0000;stroke:#000000;stroke-linejoin:miter;"/>
   </g>
   <g id="patch_27">
    <path clip-path="url(#pb3bc5df3e9)" d="M 293.596635 313.782125 
L 305.042788 313.782125 
L 305.042788 121.557716 
L 293.596635 121.557716 
z
" style="fill:url(#h8840618492);opacity:0.35;stroke:#000000;stroke-linejoin:miter;"/>
   </g>
   <g id="patch_28">
    <path clip-path="url(#pb3bc5df3e9)" d="M 305.042788 313.782125 
L 316.488942 313.782125 
L 316.488942 165.494723 
L 305.042788 165.494723 
z
" style="fill:#ff0000;stroke:#000000;stroke-linejoin:miter;"/>
   </g>
   <g id="patch_29">
    <path clip-path="url(#pb3bc5df3e9)" d="M 350.827404 313.782125 
L 362.273558 313.782125 
L 362.273558 116.850179 
L 350.827404 116.850179 
z
" style="fill:url(#h8840618492);opacity:0.35;stroke:#000000;stroke-linejoin:miter;"/>
   </g>
   <g id="patch_30">
    <path clip-path="url(#pb3bc5df3e9)" d="M 362.273558 313.782125 
L 373.719712 313.782125 
L 373.719712 116.850179 
L 362.273558 116.850179 
z
" style="fill:#ff0000;stroke:#000000;stroke-linejoin:miter;"/>
   </g>
   <g id="patch_31">
    <path clip-path="url(#pb3bc5df3e9)" d="M 408.058173 313.782125 
L 419.504327 313.782125 
L 419.504327 148.233756 
L 408.058173 148.233756 
z
" style="fill:url(#h8840618492);opacity:0.35;stroke:#000000;stroke-linejoin:miter;"/>
   </g>
   <g id="patch_32">
    <path clip-path="url(#pb3bc5df3e9)" d="M 419.504327 313.782125 
L 430.950481 313.782125 
L 430.950481 177.263565 
L 419.504327 177.263565 
z
" style="fill:#ff0000;stroke:#000000;stroke-linejoin:miter;"/>
   </g>
   <g id="patch_33">
    <path clip-path="url(#pb3bc5df3e9)" d="M 465.288942 313.782125 
L 476.735096 313.782125 
L 476.735096 236.892361 
L 465.288942 236.892361 
z
" style="fill:url(#h8840618492);opacity:0.35;stroke:#000000;stroke-linejoin:miter;"/>
   </g>
   <g id="patch_34">
    <path clip-path="url(#pb3bc5df3e9)" d="M 476.735096 313.782125 
L 488.18125 313.782125 
L 488.18125 275.337243 
L 476.735096 275.337243 
z
" style="fill:#ff0000;stroke:#000000;stroke-linejoin:miter;"/>
   </g>
   <g id="patch_35">
    <path d="M 41.78125 34.782125 
L 488.18125 34.782125 
" style="fill:none;stroke:#000000;stroke-linecap:square;stroke-linejoin:miter;"/>
   </g>
   <g id="patch_36">
    <path d="M 488.18125 313.782125 
L 488.18125 34.782125 
" style="fill:none;stroke:#000000;stroke-linecap:square;stroke-linejoin:miter;"/>
   </g>
   <g id="patch_37">
    <path d="M 41.78125 313.782125 
L 488.18125 313.782125 
" style="fill:none;stroke:#000000;stroke-linecap:square;stroke-linejoin:miter;"/>
   </g>
   <g id="patch_38">
    <path d="M 41.78125 313.782125 
L 41.78125 34.782125 
" style="fill:none;stroke:#000000;stroke-linecap:square;stroke-linejoin:miter;"/>
   </g>
   <g id="matplotlib.axis_1">
    <g id="xtick_1">
     <g id="line2d_1">
      <defs>
       <path d="M 0 0 
L 0 -4 
" id="m4e13656389" style="stroke:#000000;stroke-width:0.5;"/>
      </defs>
      <g>
       <use style="stroke:#000000;stroke-width:0.5;" x="64.6735576923" xlink:href="#m4e13656389" y="313.782125"/>
      </g>
     </g>
     <g id="line2d_2">
      <defs>
       <path d="M 0 0 
L 0 4 
" id="mcd58be2a81" style="stroke:#000000;stroke-width:0.5;"/>
      </defs>
      <g>
       <use style="stroke:#000000;stroke-width:0.5;" x="64.6735576923" xlink:href="#mcd58be2a81" y="34.782125"/>
      </g>
     </g>
     <g id="text_1">
      <text style="font-family:Bitstream Vera Sans;font-size:10.0px;font-style:normal;font-weight:400;" transform="translate(47.3577279608 361.689036694)rotate(-45.0)">31.0 - 31.4</text>
     </g>
    </g>
    <g id="xtick_2">
     <g id="line2d_3">
      <g>
       <use style="stroke:#000000;stroke-width:0.5;" x="121.904326923" xlink:href="#m4e13656389" y="313.782125"/>
      </g>
     </g>
     <g id="line2d_4">
      <g>
       <use style="stroke:#000000;stroke-width:0.5;" x="121.904326923" xlink:href="#mcd58be2a81" y="34.782125"/>
      </g>
     </g>
     <g id="text_2">
      <text style="font-family:Bitstream Vera Sans;font-size:10.0px;font-style:normal;font-weight:400;" transform="translate(104.588497192 361.689036694)rotate(-45.0)">31.5 - 31.9</text>
     </g>
    </g>
    <g id="xtick_3">
     <g id="line2d_5">
      <g>
       <use style="stroke:#000000;stroke-width:0.5;" x="179.135096154" xlink:href="#m4e13656389" y="313.782125"/>
      </g>
     </g>
     <g id="line2d_6">
      <g>
       <use style="stroke:#000000;stroke-width:0.5;" x="179.135096154" xlink:href="#mcd58be2a81" y="34.782125"/>
      </g>
     </g>
     <g id="text_3">
      <text style="font-family:Bitstream Vera Sans;font-size:10.0px;font-style:normal;font-weight:400;" transform="translate(161.819266422 361.689036694)rotate(-45.0)">32.0 - 32.4</text>
     </g>
    </g>
    <g id="xtick_4">
     <g id="line2d_7">
      <g>
       <use style="stroke:#000000;stroke-width:0.5;" x="236.365865385" xlink:href="#m4e13656389" y="313.782125"/>
      </g>
     </g>
     <g id="line2d_8">
      <g>
       <use style="stroke:#000000;stroke-width:0.5;" x="236.365865385" xlink:href="#mcd58be2a81" y="34.782125"/>
      </g>
     </g>
     <g id="text_4">
      <text style="font-family:Bitstream Vera Sans;font-size:10.0px;font-style:normal;font-weight:400;" transform="translate(219.050035653 361.689036694)rotate(-45.0)">32.5 - 32.9</text>
     </g>
    </g>
    <g id="xtick_5">
     <g id="line2d_9">
      <g>
       <use style="stroke:#000000;stroke-width:0.5;" x="293.596634615" xlink:href="#m4e13656389" y="313.782125"/>
      </g>
     </g>
     <g id="line2d_10">
      <g>
       <use style="stroke:#000000;stroke-width:0.5;" x="293.596634615" xlink:href="#mcd58be2a81" y="34.782125"/>
      </g>
     </g>
     <g id="text_5">
      <text style="font-family:Bitstream Vera Sans;font-size:10.0px;font-style:normal;font-weight:400;" transform="translate(276.280804884 361.689036694)rotate(-45.0)">33.0 - 33.4</text>
     </g>
    </g>
    <g id="xtick_6">
     <g id="line2d_11">
      <g>
       <use style="stroke:#000000;stroke-width:0.5;" x="350.827403846" xlink:href="#m4e13656389" y="313.782125"/>
      </g>
     </g>
     <g id="line2d_12">
      <g>
       <use style="stroke:#000000;stroke-width:0.5;" x="350.827403846" xlink:href="#mcd58be2a81" y="34.782125"/>
      </g>
     </g>
     <g id="text_6">
      <text style="font-family:Bitstream Vera Sans;font-size:10.0px;font-style:normal;font-weight:400;" transform="translate(333.511574115 361.689036694)rotate(-45.0)">33.5 - 33.9</text>
     </g>
    </g>
    <g id="xtick_7">
     <g id="line2d_13">
      <g>
       <use style="stroke:#000000;stroke-width:0.5;" x="408.058173077" xlink:href="#m4e13656389" y="313.782125"/>
      </g>
     </g>
     <g id="line2d_14">
      <g>
       <use style="stroke:#000000;stroke-width:0.5;" x="408.058173077" xlink:href="#mcd58be2a81" y="34.782125"/>
      </g>
     </g>
     <g id="text_7">
      <text style="font-family:Bitstream Vera Sans;font-size:10.0px;font-style:normal;font-weight:400;" transform="translate(390.742343345 361.689036694)rotate(-45.0)">34.0 - 34.4</text>
     </g>
    </g>
    <g id="xtick_8">
     <g id="line2d_15">
      <g>
       <use style="stroke:#000000;stroke-width:0.5;" x="465.288942308" xlink:href="#m4e13656389" y="313.782125"/>
      </g>
     </g>
     <g id="line2d_16">
      <g>
       <use style="stroke:#000000;stroke-width:0.5;" x="465.288942308" xlink:href="#mcd58be2a81" y="34.782125"/>
      </g>
     </g>
     <g id="text_8">
      <text style="font-family:Bitstream Vera Sans;font-size:10.0px;font-style:normal;font-weight:400;" transform="translate(447.973112576 361.689036694)rotate(-45.0)">34.5 - 34.9</text>
     </g>
    </g>
    <g id="text_9">
     <!-- ANL Temperature ($^o$F) -->
     <g transform="translate(210.18125 375.759597828)">
      <text>
       <tspan style="font-family:cmmi10;font-size:7.0px;font-style:regular;font-weight:regular;" x="95.861453125" y="-4.23265625">o</tspan>
       <tspan style="font-family:Bitstream Vera Sans;font-size:10.0px;font-style:roman;font-weight:roman;" x="0.0 6.8408203125 14.3212890625 19.892578125 23.0712890625 29.1796875 35.33203125 45.0732421875 51.4208984375 57.5732421875 61.6845703125 67.8125 71.7333984375 78.0712890625 82.1826171875 88.3349609375 91.513671875 99.8863945313 105.638347656" y="-0.40625">ANL Temperature (F)</tspan>
      </text>
     </g>
    </g>
   </g>
   <g id="matplotlib.axis_2">
    <g id="ytick_1">
     <g id="line2d_17">
      <defs>
       <path d="M 0 0 
L 4 0 
" id="me5ab05dc4f" style="stroke:#000000;stroke-width:0.5;"/>
      </defs>
      <g>
       <use style="stroke:#000000;stroke-width:0.5;" x="41.78125" xlink:href="#me5ab05dc4f" y="313.782125"/>
      </g>
     </g>
     <g id="line2d_18">
      <defs>
       <path d="M 0 0 
L -4 0 
" id="m292ab2db83" style="stroke:#000000;stroke-width:0.5;"/>
      </defs>
      <g>
       <use style="stroke:#000000;stroke-width:0.5;" x="488.18125" xlink:href="#m292ab2db83" y="313.782125"/>
      </g>
     </g>
     <g id="text_10">
      <text style="font-family:Bitstream Vera Sans;font-size:10.0px;font-style:normal;font-weight:400;text-anchor:end;" transform="rotate(-0.000000, 37.781250, 316.541500)" x="37.78125" y="316.5415">0.0</text>
     </g>
    </g>
    <g id="ytick_2">
     <g id="line2d_19">
      <g>
       <use style="stroke:#000000;stroke-width:0.5;" x="41.78125" xlink:href="#me5ab05dc4f" y="273.924982143"/>
      </g>
     </g>
     <g id="line2d_20">
      <g>
       <use style="stroke:#000000;stroke-width:0.5;" x="488.18125" xlink:href="#m292ab2db83" y="273.924982143"/>
      </g>
     </g>
     <g id="text_11">
      <text style="font-family:Bitstream Vera Sans;font-size:10.0px;font-style:normal;font-weight:400;text-anchor:end;" transform="rotate(-0.000000, 37.781250, 276.684357)" x="37.78125" y="276.684357143">0.2</text>
     </g>
    </g>
    <g id="ytick_3">
     <g id="line2d_21">
      <g>
       <use style="stroke:#000000;stroke-width:0.5;" x="41.78125" xlink:href="#me5ab05dc4f" y="234.067839286"/>
      </g>
     </g>
     <g id="line2d_22">
      <g>
       <use style="stroke:#000000;stroke-width:0.5;" x="488.18125" xlink:href="#m292ab2db83" y="234.067839286"/>
      </g>
     </g>
     <g id="text_12">
      <text style="font-family:Bitstream Vera Sans;font-size:10.0px;font-style:normal;font-weight:400;text-anchor:end;" transform="rotate(-0.000000, 37.781250, 236.827214)" x="37.78125" y="236.827214286">0.4</text>
     </g>
    </g>
    <g id="ytick_4">
     <g id="line2d_23">
      <g>
       <use style="stroke:#000000;stroke-width:0.5;" x="41.78125" xlink:href="#me5ab05dc4f" y="194.210696429"/>
      </g>
     </g>
     <g id="line2d_24">
      <g>
       <use style="stroke:#000000;stroke-width:0.5;" x="488.18125" xlink:href="#m292ab2db83" y="194.210696429"/>
      </g>
     </g>
     <g id="text_13">
      <text style="font-family:Bitstream Vera Sans;font-size:10.0px;font-style:normal;font-weight:400;text-anchor:end;" transform="rotate(-0.000000, 37.781250, 196.970071)" x="37.78125" y="196.970071429">0.6</text>
     </g>
    </g>
    <g id="ytick_5">
     <g id="line2d_25">
      <g>
       <use style="stroke:#000000;stroke-width:0.5;" x="41.78125" xlink:href="#me5ab05dc4f" y="154.353553571"/>
      </g>
     </g>
     <g id="line2d_26">
      <g>
       <use style="stroke:#000000;stroke-width:0.5;" x="488.18125" xlink:href="#m292ab2db83" y="154.353553571"/>
      </g>
     </g>
     <g id="text_14">
      <text style="font-family:Bitstream Vera Sans;font-size:10.0px;font-style:normal;font-weight:400;text-anchor:end;" transform="rotate(-0.000000, 37.781250, 157.112929)" x="37.78125" y="157.112928571">0.8</text>
     </g>
    </g>
    <g id="ytick_6">
     <g id="line2d_27">
      <g>
       <use style="stroke:#000000;stroke-width:0.5;" x="41.78125" xlink:href="#me5ab05dc4f" y="114.496410714"/>
      </g>
     </g>
     <g id="line2d_28">
      <g>
       <use style="stroke:#000000;stroke-width:0.5;" x="488.18125" xlink:href="#m292ab2db83" y="114.496410714"/>
      </g>
     </g>
     <g id="text_15">
      <text style="font-family:Bitstream Vera Sans;font-size:10.0px;font-style:normal;font-weight:400;text-anchor:end;" transform="rotate(-0.000000, 37.781250, 117.255786)" x="37.78125" y="117.255785714">1.0</text>
     </g>
    </g>
    <g id="ytick_7">
     <g id="line2d_29">
      <g>
       <use style="stroke:#000000;stroke-width:0.5;" x="41.78125" xlink:href="#me5ab05dc4f" y="74.6392678571"/>
      </g>
     </g>
     <g id="line2d_30">
      <g>
       <use style="stroke:#000000;stroke-width:0.5;" x="488.18125" xlink:href="#m292ab2db83" y="74.6392678571"/>
      </g>
     </g>
     <g id="text_16">
      <text style="font-family:Bitstream Vera Sans;font-size:10.0px;font-style:normal;font-weight:400;text-anchor:end;" transform="rotate(-0.000000, 37.781250, 77.398643)" x="37.78125" y="77.3986428571">1.2</text>
     </g>
    </g>
    <g id="ytick_8">
     <g id="line2d_31">
      <g>
       <use style="stroke:#000000;stroke-width:0.5;" x="41.78125" xlink:href="#me5ab05dc4f" y="34.782125"/>
      </g>
     </g>
     <g id="line2d_32">
      <g>
       <use style="stroke:#000000;stroke-width:0.5;" x="488.18125" xlink:href="#m292ab2db83" y="34.782125"/>
      </g>
     </g>
     <g id="text_17">
      <text style="font-family:Bitstream Vera Sans;font-size:10.0px;font-style:normal;font-weight:400;text-anchor:end;" transform="rotate(-0.000000, 37.781250, 37.541500)" x="37.78125" y="37.5415">1.4</text>
     </g>
    </g>
    <g id="text_18">
     <text style="font-family:Bitstream Vera Sans;font-size:10.0px;font-style:normal;font-weight:400;text-anchor:middle;" transform="rotate(-90.000000, 14.798438, 174.282125)" x="14.7984375" y="174.282125">Precipitation Depth (inches)</text>
    </g>
   </g>
   <g id="text_19">
    <g id="patch_39">
     <path d="M 131.06125 72.205656 
L 323.172812 72.205656 
Q 326.472813 72.205656 326.472813 68.905656 
L 326.472813 45.942125 
Q 326.472813 42.642125 323.172812 42.642125 
L 131.06125 42.642125 
Q 127.76125 42.642125 127.76125 45.942125 
L 127.76125 68.905656 
Q 127.76125 72.205656 131.06125 72.205656 
z
" style="fill:#cccccc;opacity:0.5;stroke:#000000;stroke-linejoin:miter;"/>
    </g>
    <text style="font-family:Bitstream Vera Sans;font-size:11.0px;font-style:normal;font-weight:400;" transform="translate(131.06125 54.30040625)">HSPF Rain/Snow Depth Ratio: 1.15</text>
    <text style="font-family:Bitstream Vera Sans;font-size:11.0px;font-style:normal;font-weight:400;" transform="translate(131.06125 66.618)">ASOS Rain/Snow Depth Ratio: 2.73</text>
   </g>
   <g id="text_20">
    <!-- Romeoville/Lewis University (KLOT): TSNOW=32.5$^o$F -->
    <g transform="translate(107.42125 16.344375)">
     <text>
      <tspan style="font-family:cmmi10;font-size:8.4px;font-style:regular;font-weight:regular;" x="303.348196875" y="-5.4666875">o</tspan>
      <tspan style="font-family:Bitstream Vera Sans;font-size:12.0px;font-style:roman;font-weight:roman;" x="0.0 8.337890625 15.6796875 27.369140625 34.751953125 42.09375 49.1953125 52.529296875 55.86328125 59.197265625 66.580078125 70.623046875 77.30859375 84.69140625 94.505859375 97.83984375 104.091796875 107.90625 116.689453125 124.294921875 127.62890625 134.73046875 142.11328125 147.046875 153.298828125 156.6328125 161.337890625 168.439453125 172.25390625 176.935546875 184.8046875 191.490234375 200.935546875 208.265625 212.947265625 216.990234375 220.8046875 228.134765625 235.751953125 244.728515625 254.173828125 266.0390625 276.09375 283.728515625 291.36328125 295.177734375 308.178126562" y="-0.875">Romeoville/Lewis University (KLOT): TSNOW=32.5F</tspan>
     </text>
    </g>
    <text style="font-family:Bitstream Vera Sans;font-size:12.0px;font-style:normal;font-weight:400;" transform="translate(201.2903125 29.806125)">1/1/2006 - 9/30/2013</text>
   </g>
   <g id="legend_1">
    <g id="patch_40">
     <path d="M 369.896875 114.837125 
L 482.18125 114.837125 
L 482.18125 40.782125 
L 369.896875 40.782125 
z
" style="fill:#ffffff;stroke:#000000;stroke-linejoin:miter;"/>
    </g>
    <g id="patch_41">
     <path d="M 374.696875 54.70025 
L 398.696875 54.70025 
L 398.696875 46.30025 
L 374.696875 46.30025 
z
" style="fill:url(#h048ccd73b3);opacity:0.35;stroke:#000000;stroke-linejoin:miter;"/>
    </g>
    <g id="text_21">
     <text style="font-family:Bitstream Vera Sans;font-size:12.0px;font-style:normal;font-weight:400;text-anchor:start;" transform="rotate(-0.000000, 408.296875, 54.700250)" x="408.296875" y="54.70025">HSPF Snow</text>
    </g>
    <g id="patch_42">
     <path d="M 374.696875 72.314 
L 398.696875 72.314 
L 398.696875 63.914 
L 374.696875 63.914 
z
" style="fill:#0000ff;stroke:#000000;stroke-linejoin:miter;"/>
    </g>
    <g id="text_22">
     <text style="font-family:Bitstream Vera Sans;font-size:12.0px;font-style:normal;font-weight:400;text-anchor:start;" transform="rotate(-0.000000, 408.296875, 72.314000)" x="408.296875" y="72.314">ASOS Snow</text>
    </g>
    <g id="patch_43">
     <path d="M 374.696875 89.92775 
L 398.696875 89.92775 
L 398.696875 81.52775 
L 374.696875 81.52775 
z
" style="fill:url(#h8840618492);opacity:0.35;stroke:#000000;stroke-linejoin:miter;"/>
    </g>
    <g id="text_23">
     <text style="font-family:Bitstream Vera Sans;font-size:12.0px;font-style:normal;font-weight:400;text-anchor:start;" transform="rotate(-0.000000, 408.296875, 89.927750)" x="408.296875" y="89.92775">HSPF Rain</text>
    </g>
    <g id="patch_44">
     <path d="M 374.696875 107.5415 
L 398.696875 107.5415 
L 398.696875 99.1415 
L 374.696875 99.1415 
z
" style="fill:#ff0000;stroke:#000000;stroke-linejoin:miter;"/>
    </g>
    <g id="text_24">
     <text style="font-family:Bitstream Vera Sans;font-size:12.0px;font-style:normal;font-weight:400;text-anchor:start;" transform="rotate(-0.000000, 408.296875, 107.541500)" x="408.296875" y="107.5415">ASOS Rain</text>
    </g>
   </g>
  </g>
 </g>
 <defs>
  <clipPath id="pb3bc5df3e9">
   <rect height="279.0" width="446.4" x="41.78125" y="34.782125"/>
  </clipPath>
 </defs>
 <defs>
  <pattern height="72" id="h8840618492" patternUnits="userSpaceOnUse" width="72" x="0" y="0">
   <rect fill="#ff0000" height="73" width="73" x="0" y="0"/>
   <path d="M -36 36 
L 36 -36 
M -30 42 
L 42 -30 
M -24 48 
L 48 -24 
M -18 54 
L 54 -18 
M -12 60 
L 60 -12 
M -6 66 
L 66 -6 
M 0 72 
L 72 0 
M 6 78 
L 78 6 
M 12 84 
L 84 12 
M 18 90 
L 90 18 
M 24 96 
L 96 24 
M 30 102 
L 102 30 
M 36 108 
L 108 36 
" style="fill:#000000;stroke:#000000;stroke-linecap:butt;stroke-linejoin:miter;stroke-width:1.0;"/>
  </pattern>
  <pattern height="72" id="h048ccd73b3" patternUnits="userSpaceOnUse" width="72" x="0" y="0">
   <rect fill="#0000ff" height="73" width="73" x="0" y="0"/>
   <path d="M -36 36 
L 36 -36 
M -30 42 
L 42 -30 
M -24 48 
L 48 -24 
M -18 54 
L 54 -18 
M -12 60 
L 60 -12 
M -6 66 
L 66 -6 
M 0 72 
L 72 0 
M 6 78 
L 78 6 
M 12 84 
L 84 12 
M 18 90 
L 90 18 
M 24 96 
L 96 24 
M 30 102 
L 102 30 
M 36 108 
L 108 36 
" style="fill:#000000;stroke:#000000;stroke-linecap:butt;stroke-linejoin:miter;stroke-width:1.0;"/>
  </pattern>
 </defs>
</svg>
