<?xml version="1.0" encoding="utf-8" standalone="no"?>
<!DOCTYPE svg PUBLIC "-//W3C//DTD SVG 1.1//EN"
  "http://www.w3.org/Graphics/SVG/1.1/DTD/svg11.dtd">
<!-- Created with matplotlib (http://matplotlib.org/) -->
<svg height="385pt" version="1.1" viewBox="0 0 498 385" width="498pt" xmlns="http://www.w3.org/2000/svg" xmlns:xlink="http://www.w3.org/1999/xlink">
 <defs>
  <style type="text/css">
*{stroke-linecap:butt;stroke-linejoin:round;stroke-miterlimit:100000;}
  </style>
 </defs>
 <g id="figure_1">
  <g id="patch_1">
   <path d="M 0 385.059598 
L 498.565625 385.059598 
L 498.565625 0 
L 0 0 
z
" style="fill:#ffffff;"/>
  </g>
  <g id="axes_1">
   <g id="patch_2">
    <path d="M 44.965625 313.782125 
L 491.365625 313.782125 
L 491.365625 34.782125 
L 44.965625 34.782125 
z
" style="fill:#ffffff;"/>
   </g>
   <g id="patch_3">
    <path clip-path="url(#p867206572f)" d="M 44.965625 313.782125 
L 56.411779 313.782125 
L 56.411779 183.582125 
L 44.965625 183.582125 
z
" style="fill:url(#h089b28235d);opacity:0.35;stroke:#000000;stroke-linejoin:miter;"/>
   </g>
   <g id="patch_4">
    <path clip-path="url(#p867206572f)" d="M 56.411779 313.782125 
L 67.857933 313.782125 
L 67.857933 239.382125 
L 56.411779 239.382125 
z
" style="fill:#0000ff;stroke:#000000;stroke-linejoin:miter;"/>
   </g>
   <g id="patch_5">
    <path clip-path="url(#p867206572f)" d="M 102.196394 313.782125 
L 113.642548 313.782125 
L 113.642548 71.982125 
L 102.196394 71.982125 
z
" style="fill:url(#h089b28235d);opacity:0.35;stroke:#000000;stroke-linejoin:miter;"/>
   </g>
   <g id="patch_6">
    <path clip-path="url(#p867206572f)" d="M 113.642548 313.782125 
L 125.088702 313.782125 
L 125.088702 144.057125 
L 113.642548 144.057125 
z
" style="fill:#0000ff;stroke:#000000;stroke-linejoin:miter;"/>
   </g>
   <g id="patch_7">
    <path clip-path="url(#p867206572f)" d="M 159.427163 313.782125 
L 170.873317 313.782125 
L 170.873317 192.882125 
L 159.427163 192.882125 
z
" style="fill:url(#h089b28235d);opacity:0.35;stroke:#000000;stroke-linejoin:miter;"/>
   </g>
   <g id="patch_8">
    <path clip-path="url(#p867206572f)" d="M 170.873317 313.782125 
L 182.319471 313.782125 
L 182.319471 232.407125 
L 170.873317 232.407125 
z
" style="fill:#0000ff;stroke:#000000;stroke-linejoin:miter;"/>
   </g>
   <g id="patch_9">
    <path clip-path="url(#p867206572f)" d="M 216.657933 313.782125 
L 228.104087 313.782125 
L 228.104087 271.932125 
L 216.657933 271.932125 
z
" style="fill:url(#h089b28235d);opacity:0.35;stroke:#000000;stroke-linejoin:miter;"/>
   </g>
   <g id="patch_10">
    <path clip-path="url(#p867206572f)" d="M 228.104087 313.782125 
L 239.55024 313.782125 
L 239.55024 262.632125 
L 228.104087 262.632125 
z
" style="fill:#0000ff;stroke:#000000;stroke-linejoin:miter;"/>
   </g>
   <g id="patch_11">
    <path clip-path="url(#p867206572f)" d="M 273.888702 313.782125 
L 285.334856 313.782125 
L 285.334856 313.782125 
L 273.888702 313.782125 
z
" style="fill:url(#h089b28235d);opacity:0.35;stroke:#000000;stroke-linejoin:miter;"/>
   </g>
   <g id="patch_12">
    <path clip-path="url(#p867206572f)" d="M 285.334856 313.782125 
L 296.78101 313.782125 
L 296.78101 262.632125 
L 285.334856 262.632125 
z
" style="fill:#0000ff;stroke:#000000;stroke-linejoin:miter;"/>
   </g>
   <g id="patch_13">
    <path clip-path="url(#p867206572f)" d="M 331.119471 313.782125 
L 342.565625 313.782125 
L 342.565625 313.782125 
L 331.119471 313.782125 
z
" style="fill:url(#h089b28235d);opacity:0.35;stroke:#000000;stroke-linejoin:miter;"/>
   </g>
   <g id="patch_14">
    <path clip-path="url(#p867206572f)" d="M 342.565625 313.782125 
L 354.011779 313.782125 
L 354.011779 290.532125 
L 342.565625 290.532125 
z
" style="fill:#0000ff;stroke:#000000;stroke-linejoin:miter;"/>
   </g>
   <g id="patch_15">
    <path clip-path="url(#p867206572f)" d="M 388.35024 313.782125 
L 399.796394 313.782125 
L 399.796394 313.782125 
L 388.35024 313.782125 
z
" style="fill:url(#h089b28235d);opacity:0.35;stroke:#000000;stroke-linejoin:miter;"/>
   </g>
   <g id="patch_16">
    <path clip-path="url(#p867206572f)" d="M 399.796394 313.782125 
L 411.242548 313.782125 
L 411.242548 281.232125 
L 399.796394 281.232125 
z
" style="fill:#0000ff;stroke:#000000;stroke-linejoin:miter;"/>
   </g>
   <g id="patch_17">
    <path clip-path="url(#p867206572f)" d="M 445.58101 313.782125 
L 457.027163 313.782125 
L 457.027163 313.782125 
L 445.58101 313.782125 
z
" style="fill:url(#h089b28235d);opacity:0.35;stroke:#000000;stroke-linejoin:miter;"/>
   </g>
   <g id="patch_18">
    <path clip-path="url(#p867206572f)" d="M 457.027163 313.782125 
L 468.473317 313.782125 
L 468.473317 297.507125 
L 457.027163 297.507125 
z
" style="fill:#0000ff;stroke:#000000;stroke-linejoin:miter;"/>
   </g>
   <g id="patch_19">
    <path clip-path="url(#p867206572f)" d="M 67.857933 313.782125 
L 79.304087 313.782125 
L 79.304087 313.782125 
L 67.857933 313.782125 
z
" style="fill:url(#h9a0d51f29d);opacity:0.35;stroke:#000000;stroke-linejoin:miter;"/>
   </g>
   <g id="patch_20">
    <path clip-path="url(#p867206572f)" d="M 79.304087 313.782125 
L 90.75024 313.782125 
L 90.75024 257.982125 
L 79.304087 257.982125 
z
" style="fill:#ff0000;stroke:#000000;stroke-linejoin:miter;"/>
   </g>
   <g id="patch_21">
    <path clip-path="url(#p867206572f)" d="M 125.088702 313.782125 
L 136.534856 313.782125 
L 136.534856 313.782125 
L 125.088702 313.782125 
z
" style="fill:url(#h9a0d51f29d);opacity:0.35;stroke:#000000;stroke-linejoin:miter;"/>
   </g>
   <g id="patch_22">
    <path clip-path="url(#p867206572f)" d="M 136.534856 313.782125 
L 147.98101 313.782125 
L 147.98101 241.707125 
L 136.534856 241.707125 
z
" style="fill:#ff0000;stroke:#000000;stroke-linejoin:miter;"/>
   </g>
   <g id="patch_23">
    <path clip-path="url(#p867206572f)" d="M 182.319471 313.782125 
L 193.765625 313.782125 
L 193.765625 271.932125 
L 182.319471 271.932125 
z
" style="fill:url(#h9a0d51f29d);opacity:0.35;stroke:#000000;stroke-linejoin:miter;"/>
   </g>
   <g id="patch_24">
    <path clip-path="url(#p867206572f)" d="M 193.765625 313.782125 
L 205.211779 313.782125 
L 205.211779 232.407125 
L 193.765625 232.407125 
z
" style="fill:#ff0000;stroke:#000000;stroke-linejoin:miter;"/>
   </g>
   <g id="patch_25">
    <path clip-path="url(#p867206572f)" d="M 239.55024 313.782125 
L 250.996394 313.782125 
L 250.996394 213.807125 
L 239.55024 213.807125 
z
" style="fill:url(#h9a0d51f29d);opacity:0.35;stroke:#000000;stroke-linejoin:miter;"/>
   </g>
   <g id="patch_26">
    <path clip-path="url(#p867206572f)" d="M 250.996394 313.782125 
L 262.442548 313.782125 
L 262.442548 223.107125 
L 250.996394 223.107125 
z
" style="fill:#ff0000;stroke:#000000;stroke-linejoin:miter;"/>
   </g>
   <g id="patch_27">
    <path clip-path="url(#p867206572f)" d="M 296.78101 313.782125 
L 308.227163 313.782125 
L 308.227163 178.932125 
L 296.78101 178.932125 
z
" style="fill:url(#h9a0d51f29d);opacity:0.35;stroke:#000000;stroke-linejoin:miter;"/>
   </g>
   <g id="patch_28">
    <path clip-path="url(#p867206572f)" d="M 308.227163 313.782125 
L 319.673317 313.782125 
L 319.673317 230.082125 
L 308.227163 230.082125 
z
" style="fill:#ff0000;stroke:#000000;stroke-linejoin:miter;"/>
   </g>
   <g id="patch_29">
    <path clip-path="url(#p867206572f)" d="M 354.011779 313.782125 
L 365.457933 313.782125 
L 365.457933 232.407125 
L 354.011779 232.407125 
z
" style="fill:url(#h9a0d51f29d);opacity:0.35;stroke:#000000;stroke-linejoin:miter;"/>
   </g>
   <g id="patch_30">
    <path clip-path="url(#p867206572f)" d="M 365.457933 313.782125 
L 376.904087 313.782125 
L 376.904087 255.657125 
L 365.457933 255.657125 
z
" style="fill:#ff0000;stroke:#000000;stroke-linejoin:miter;"/>
   </g>
   <g id="patch_31">
    <path clip-path="url(#p867206572f)" d="M 411.242548 313.782125 
L 422.688702 313.782125 
L 422.688702 206.832125 
L 411.242548 206.832125 
z
" style="fill:url(#h9a0d51f29d);opacity:0.35;stroke:#000000;stroke-linejoin:miter;"/>
   </g>
   <g id="patch_32">
    <path clip-path="url(#p867206572f)" d="M 422.688702 313.782125 
L 434.134856 313.782125 
L 434.134856 239.382125 
L 422.688702 239.382125 
z
" style="fill:#ff0000;stroke:#000000;stroke-linejoin:miter;"/>
   </g>
   <g id="patch_33">
    <path clip-path="url(#p867206572f)" d="M 468.473317 313.782125 
L 479.919471 313.782125 
L 479.919471 271.932125 
L 468.473317 271.932125 
z
" style="fill:url(#h9a0d51f29d);opacity:0.35;stroke:#000000;stroke-linejoin:miter;"/>
   </g>
   <g id="patch_34">
    <path clip-path="url(#p867206572f)" d="M 479.919471 313.782125 
L 491.365625 313.782125 
L 491.365625 288.207125 
L 479.919471 288.207125 
z
" style="fill:#ff0000;stroke:#000000;stroke-linejoin:miter;"/>
   </g>
   <g id="patch_35">
    <path d="M 44.965625 34.782125 
L 491.365625 34.782125 
" style="fill:none;stroke:#000000;stroke-linecap:square;stroke-linejoin:miter;"/>
   </g>
   <g id="patch_36">
    <path d="M 491.365625 313.782125 
L 491.365625 34.782125 
" style="fill:none;stroke:#000000;stroke-linecap:square;stroke-linejoin:miter;"/>
   </g>
   <g id="patch_37">
    <path d="M 44.965625 313.782125 
L 491.365625 313.782125 
" style="fill:none;stroke:#000000;stroke-linecap:square;stroke-linejoin:miter;"/>
   </g>
   <g id="patch_38">
    <path d="M 44.965625 313.782125 
L 44.965625 34.782125 
" style="fill:none;stroke:#000000;stroke-linecap:square;stroke-linejoin:miter;"/>
   </g>
   <g id="matplotlib.axis_1">
    <g id="xtick_1">
     <g id="line2d_1">
      <defs>
       <path d="M 0 0 
L 0 -4 
" id="m0103d3e872" style="stroke:#000000;stroke-width:0.5;"/>
      </defs>
      <g>
       <use style="stroke:#000000;stroke-width:0.5;" x="67.8579326923" xlink:href="#m0103d3e872" y="313.782125"/>
      </g>
     </g>
     <g id="line2d_2">
      <defs>
       <path d="M 0 0 
L 0 4 
" id="m3c07c92768" style="stroke:#000000;stroke-width:0.5;"/>
      </defs>
      <g>
       <use style="stroke:#000000;stroke-width:0.5;" x="67.8579326923" xlink:href="#m3c07c92768" y="34.782125"/>
      </g>
     </g>
     <g id="text_1">
      <text style="font-family:Bitstream Vera Sans;font-size:10.0px;font-style:normal;font-weight:400;" transform="translate(50.5421029608 361.689036694)rotate(-45.0)">31.0 - 31.4</text>
     </g>
    </g>
    <g id="xtick_2">
     <g id="line2d_3">
      <g>
       <use style="stroke:#000000;stroke-width:0.5;" x="125.088701923" xlink:href="#m0103d3e872" y="313.782125"/>
      </g>
     </g>
     <g id="line2d_4">
      <g>
       <use style="stroke:#000000;stroke-width:0.5;" x="125.088701923" xlink:href="#m3c07c92768" y="34.782125"/>
      </g>
     </g>
     <g id="text_2">
      <text style="font-family:Bitstream Vera Sans;font-size:10.0px;font-style:normal;font-weight:400;" transform="translate(107.772872192 361.689036694)rotate(-45.0)">31.5 - 31.9</text>
     </g>
    </g>
    <g id="xtick_3">
     <g id="line2d_5">
      <g>
       <use style="stroke:#000000;stroke-width:0.5;" x="182.319471154" xlink:href="#m0103d3e872" y="313.782125"/>
      </g>
     </g>
     <g id="line2d_6">
      <g>
       <use style="stroke:#000000;stroke-width:0.5;" x="182.319471154" xlink:href="#m3c07c92768" y="34.782125"/>
      </g>
     </g>
     <g id="text_3">
      <text style="font-family:Bitstream Vera Sans;font-size:10.0px;font-style:normal;font-weight:400;" transform="translate(165.003641422 361.689036694)rotate(-45.0)">32.0 - 32.4</text>
     </g>
    </g>
    <g id="xtick_4">
     <g id="line2d_7">
      <g>
       <use style="stroke:#000000;stroke-width:0.5;" x="239.550240385" xlink:href="#m0103d3e872" y="313.782125"/>
      </g>
     </g>
     <g id="line2d_8">
      <g>
       <use style="stroke:#000000;stroke-width:0.5;" x="239.550240385" xlink:href="#m3c07c92768" y="34.782125"/>
      </g>
     </g>
     <g id="text_4">
      <text style="font-family:Bitstream Vera Sans;font-size:10.0px;font-style:normal;font-weight:400;" transform="translate(222.234410653 361.689036694)rotate(-45.0)">32.5 - 32.9</text>
     </g>
    </g>
    <g id="xtick_5">
     <g id="line2d_9">
      <g>
       <use style="stroke:#000000;stroke-width:0.5;" x="296.781009615" xlink:href="#m0103d3e872" y="313.782125"/>
      </g>
     </g>
     <g id="line2d_10">
      <g>
       <use style="stroke:#000000;stroke-width:0.5;" x="296.781009615" xlink:href="#m3c07c92768" y="34.782125"/>
      </g>
     </g>
     <g id="text_5">
      <text style="font-family:Bitstream Vera Sans;font-size:10.0px;font-style:normal;font-weight:400;" transform="translate(279.465179884 361.689036694)rotate(-45.0)">33.0 - 33.4</text>
     </g>
    </g>
    <g id="xtick_6">
     <g id="line2d_11">
      <g>
       <use style="stroke:#000000;stroke-width:0.5;" x="354.011778846" xlink:href="#m0103d3e872" y="313.782125"/>
      </g>
     </g>
     <g id="line2d_12">
      <g>
       <use style="stroke:#000000;stroke-width:0.5;" x="354.011778846" xlink:href="#m3c07c92768" y="34.782125"/>
      </g>
     </g>
     <g id="text_6">
      <text style="font-family:Bitstream Vera Sans;font-size:10.0px;font-style:normal;font-weight:400;" transform="translate(336.695949115 361.689036694)rotate(-45.0)">33.5 - 33.9</text>
     </g>
    </g>
    <g id="xtick_7">
     <g id="line2d_13">
      <g>
       <use style="stroke:#000000;stroke-width:0.5;" x="411.242548077" xlink:href="#m0103d3e872" y="313.782125"/>
      </g>
     </g>
     <g id="line2d_14">
      <g>
       <use style="stroke:#000000;stroke-width:0.5;" x="411.242548077" xlink:href="#m3c07c92768" y="34.782125"/>
      </g>
     </g>
     <g id="text_7">
      <text style="font-family:Bitstream Vera Sans;font-size:10.0px;font-style:normal;font-weight:400;" transform="translate(393.926718345 361.689036694)rotate(-45.0)">34.0 - 34.4</text>
     </g>
    </g>
    <g id="xtick_8">
     <g id="line2d_15">
      <g>
       <use style="stroke:#000000;stroke-width:0.5;" x="468.473317308" xlink:href="#m0103d3e872" y="313.782125"/>
      </g>
     </g>
     <g id="line2d_16">
      <g>
       <use style="stroke:#000000;stroke-width:0.5;" x="468.473317308" xlink:href="#m3c07c92768" y="34.782125"/>
      </g>
     </g>
     <g id="text_8">
      <text style="font-family:Bitstream Vera Sans;font-size:10.0px;font-style:normal;font-weight:400;" transform="translate(451.157487576 361.689036694)rotate(-45.0)">34.5 - 34.9</text>
     </g>
    </g>
    <g id="text_9">
     <!-- ANL Temperature ($^o$F) -->
     <g transform="translate(213.365625 375.759597828)">
      <text>
       <tspan style="font-family:cmmi10;font-size:7.0px;font-style:regular;font-weight:regular;" x="95.861453125" y="-4.23265625">o</tspan>
       <tspan style="font-family:Bitstream Vera Sans;font-size:10.0px;font-style:roman;font-weight:roman;" x="0.0 6.8408203125 14.3212890625 19.892578125 23.0712890625 29.1796875 35.33203125 45.0732421875 51.4208984375 57.5732421875 61.6845703125 67.8125 71.7333984375 78.0712890625 82.1826171875 88.3349609375 91.513671875 99.8863945313 105.638347656" y="-0.40625">ANL Temperature (F)</tspan>
      </text>
     </g>
    </g>
   </g>
   <g id="matplotlib.axis_2">
    <g id="ytick_1">
     <g id="line2d_17">
      <defs>
       <path d="M 0 0 
L 4 0 
" id="md9ce5f2fb0" style="stroke:#000000;stroke-width:0.5;"/>
      </defs>
      <g>
       <use style="stroke:#000000;stroke-width:0.5;" x="44.965625" xlink:href="#md9ce5f2fb0" y="313.782125"/>
      </g>
     </g>
     <g id="line2d_18">
      <defs>
       <path d="M 0 0 
L -4 0 
" id="m22a108fbe7" style="stroke:#000000;stroke-width:0.5;"/>
      </defs>
      <g>
       <use style="stroke:#000000;stroke-width:0.5;" x="491.365625" xlink:href="#m22a108fbe7" y="313.782125"/>
      </g>
     </g>
     <g id="text_10">
      <text style="font-family:Bitstream Vera Sans;font-size:10.0px;font-style:normal;font-weight:400;text-anchor:end;" transform="rotate(-0.000000, 40.965625, 316.541500)" x="40.965625" y="316.5415">0</text>
     </g>
    </g>
    <g id="ytick_2">
     <g id="line2d_19">
      <g>
       <use style="stroke:#000000;stroke-width:0.5;" x="44.965625" xlink:href="#md9ce5f2fb0" y="267.282125"/>
      </g>
     </g>
     <g id="line2d_20">
      <g>
       <use style="stroke:#000000;stroke-width:0.5;" x="491.365625" xlink:href="#m22a108fbe7" y="267.282125"/>
      </g>
     </g>
     <g id="text_11">
      <text style="font-family:Bitstream Vera Sans;font-size:10.0px;font-style:normal;font-weight:400;text-anchor:end;" transform="rotate(-0.000000, 40.965625, 270.041500)" x="40.965625" y="270.0415">20</text>
     </g>
    </g>
    <g id="ytick_3">
     <g id="line2d_21">
      <g>
       <use style="stroke:#000000;stroke-width:0.5;" x="44.965625" xlink:href="#md9ce5f2fb0" y="220.782125"/>
      </g>
     </g>
     <g id="line2d_22">
      <g>
       <use style="stroke:#000000;stroke-width:0.5;" x="491.365625" xlink:href="#m22a108fbe7" y="220.782125"/>
      </g>
     </g>
     <g id="text_12">
      <text style="font-family:Bitstream Vera Sans;font-size:10.0px;font-style:normal;font-weight:400;text-anchor:end;" transform="rotate(-0.000000, 40.965625, 223.541500)" x="40.965625" y="223.5415">40</text>
     </g>
    </g>
    <g id="ytick_4">
     <g id="line2d_23">
      <g>
       <use style="stroke:#000000;stroke-width:0.5;" x="44.965625" xlink:href="#md9ce5f2fb0" y="174.282125"/>
      </g>
     </g>
     <g id="line2d_24">
      <g>
       <use style="stroke:#000000;stroke-width:0.5;" x="491.365625" xlink:href="#m22a108fbe7" y="174.282125"/>
      </g>
     </g>
     <g id="text_13">
      <text style="font-family:Bitstream Vera Sans;font-size:10.0px;font-style:normal;font-weight:400;text-anchor:end;" transform="rotate(-0.000000, 40.965625, 177.041500)" x="40.965625" y="177.0415">60</text>
     </g>
    </g>
    <g id="ytick_5">
     <g id="line2d_25">
      <g>
       <use style="stroke:#000000;stroke-width:0.5;" x="44.965625" xlink:href="#md9ce5f2fb0" y="127.782125"/>
      </g>
     </g>
     <g id="line2d_26">
      <g>
       <use style="stroke:#000000;stroke-width:0.5;" x="491.365625" xlink:href="#m22a108fbe7" y="127.782125"/>
      </g>
     </g>
     <g id="text_14">
      <text style="font-family:Bitstream Vera Sans;font-size:10.0px;font-style:normal;font-weight:400;text-anchor:end;" transform="rotate(-0.000000, 40.965625, 130.541500)" x="40.965625" y="130.5415">80</text>
     </g>
    </g>
    <g id="ytick_6">
     <g id="line2d_27">
      <g>
       <use style="stroke:#000000;stroke-width:0.5;" x="44.965625" xlink:href="#md9ce5f2fb0" y="81.282125"/>
      </g>
     </g>
     <g id="line2d_28">
      <g>
       <use style="stroke:#000000;stroke-width:0.5;" x="491.365625" xlink:href="#m22a108fbe7" y="81.282125"/>
      </g>
     </g>
     <g id="text_15">
      <text style="font-family:Bitstream Vera Sans;font-size:10.0px;font-style:normal;font-weight:400;text-anchor:end;" transform="rotate(-0.000000, 40.965625, 84.041500)" x="40.965625" y="84.0415">100</text>
     </g>
    </g>
    <g id="ytick_7">
     <g id="line2d_29">
      <g>
       <use style="stroke:#000000;stroke-width:0.5;" x="44.965625" xlink:href="#md9ce5f2fb0" y="34.782125"/>
      </g>
     </g>
     <g id="line2d_30">
      <g>
       <use style="stroke:#000000;stroke-width:0.5;" x="491.365625" xlink:href="#m22a108fbe7" y="34.782125"/>
      </g>
     </g>
     <g id="text_16">
      <text style="font-family:Bitstream Vera Sans;font-size:10.0px;font-style:normal;font-weight:400;text-anchor:end;" transform="rotate(-0.000000, 40.965625, 37.541500)" x="40.965625" y="37.5415">120</text>
     </g>
    </g>
    <g id="text_17">
     <text style="font-family:Bitstream Vera Sans;font-size:10.0px;font-style:normal;font-weight:400;text-anchor:middle;" transform="rotate(-90.000000, 14.798438, 174.282125)" x="14.7984375" y="174.282125">Number of ASOS and HSPF Rain-Snow Reports</text>
    </g>
   </g>
   <g id="text_18">
    <g id="patch_39">
     <path d="M 134.245625 72.205656 
L 329.805 72.205656 
Q 333.105 72.205656 333.105 68.905656 
L 333.105 45.942125 
Q 333.105 42.642125 329.805 42.642125 
L 134.245625 42.642125 
Q 130.945625 42.642125 130.945625 45.942125 
L 130.945625 68.905656 
Q 130.945625 72.205656 134.245625 72.205656 
z
" style="fill:#cccccc;opacity:0.5;stroke:#000000;stroke-linejoin:miter;"/>
    </g>
    <text style="font-family:Bitstream Vera Sans;font-size:11.0px;font-style:normal;font-weight:400;" transform="translate(134.245625 54.30040625)">HSPF Rain/Snow Report Ratio: 0.95</text>
    <text style="font-family:Bitstream Vera Sans;font-size:11.0px;font-style:normal;font-weight:400;" transform="translate(134.245625 66.618)">ASOS Rain/Snow Report Ratio: 1.08</text>
   </g>
   <g id="text_19">
    <!-- Romeoville/Lewis University (KLOT): TSNOW=32.0$^o$F -->
    <g transform="translate(110.605625 16.344375)">
     <text>
      <tspan style="font-family:cmmi10;font-size:8.4px;font-style:regular;font-weight:regular;" x="303.348196875" y="-5.4666875">o</tspan>
      <tspan style="font-family:Bitstream Vera Sans;font-size:12.0px;font-style:roman;font-weight:roman;" x="0.0 8.337890625 15.6796875 27.369140625 34.751953125 42.09375 49.1953125 52.529296875 55.86328125 59.197265625 66.580078125 70.623046875 77.30859375 84.69140625 94.505859375 97.83984375 104.091796875 107.90625 116.689453125 124.294921875 127.62890625 134.73046875 142.11328125 147.046875 153.298828125 156.6328125 161.337890625 168.439453125 172.25390625 176.935546875 184.8046875 191.490234375 200.935546875 208.265625 212.947265625 216.990234375 220.8046875 228.134765625 235.751953125 244.728515625 254.173828125 266.0390625 276.09375 283.728515625 291.36328125 295.177734375 308.178126562" y="-0.875">Romeoville/Lewis University (KLOT): TSNOW=32.0F</tspan>
     </text>
    </g>
    <text style="font-family:Bitstream Vera Sans;font-size:12.0px;font-style:normal;font-weight:400;" transform="translate(204.4746875 29.806125)">1/1/2006 - 9/30/2013</text>
   </g>
   <g id="legend_1">
    <g id="patch_40">
     <path d="M 373.08125 114.837125 
L 485.365625 114.837125 
L 485.365625 40.782125 
L 373.08125 40.782125 
z
" style="fill:#ffffff;stroke:#000000;stroke-linejoin:miter;"/>
    </g>
    <g id="patch_41">
     <path d="M 377.88125 54.70025 
L 401.88125 54.70025 
L 401.88125 46.30025 
L 377.88125 46.30025 
z
" style="fill:url(#h089b28235d);opacity:0.35;stroke:#000000;stroke-linejoin:miter;"/>
    </g>
    <g id="text_20">
     <text style="font-family:Bitstream Vera Sans;font-size:12.0px;font-style:normal;font-weight:400;text-anchor:start;" transform="rotate(-0.000000, 411.481250, 54.700250)" x="411.48125" y="54.70025">HSPF Snow</text>
    </g>
    <g id="patch_42">
     <path d="M 377.88125 72.314 
L 401.88125 72.314 
L 401.88125 63.914 
L 377.88125 63.914 
z
" style="fill:#0000ff;stroke:#000000;stroke-linejoin:miter;"/>
    </g>
    <g id="text_21">
     <text style="font-family:Bitstream Vera Sans;font-size:12.0px;font-style:normal;font-weight:400;text-anchor:start;" transform="rotate(-0.000000, 411.481250, 72.314000)" x="411.48125" y="72.314">ASOS Snow</text>
    </g>
    <g id="patch_43">
     <path d="M 377.88125 89.92775 
L 401.88125 89.92775 
L 401.88125 81.52775 
L 377.88125 81.52775 
z
" style="fill:url(#h9a0d51f29d);opacity:0.35;stroke:#000000;stroke-linejoin:miter;"/>
    </g>
    <g id="text_22">
     <text style="font-family:Bitstream Vera Sans;font-size:12.0px;font-style:normal;font-weight:400;text-anchor:start;" transform="rotate(-0.000000, 411.481250, 89.927750)" x="411.48125" y="89.92775">HSPF Rain</text>
    </g>
    <g id="patch_44">
     <path d="M 377.88125 107.5415 
L 401.88125 107.5415 
L 401.88125 99.1415 
L 377.88125 99.1415 
z
" style="fill:#ff0000;stroke:#000000;stroke-linejoin:miter;"/>
    </g>
    <g id="text_23">
     <text style="font-family:Bitstream Vera Sans;font-size:12.0px;font-style:normal;font-weight:400;text-anchor:start;" transform="rotate(-0.000000, 411.481250, 107.541500)" x="411.48125" y="107.5415">ASOS Rain</text>
    </g>
   </g>
  </g>
 </g>
 <defs>
  <clipPath id="p867206572f">
   <rect height="279.0" width="446.4" x="44.965625" y="34.782125"/>
  </clipPath>
 </defs>
 <defs>
  <pattern height="72" id="h9a0d51f29d" patternUnits="userSpaceOnUse" width="72" x="0" y="0">
   <rect fill="#ff0000" height="73" width="73" x="0" y="0"/>
   <path d="M -36 36 
L 36 -36 
M -30 42 
L 42 -30 
M -24 48 
L 48 -24 
M -18 54 
L 54 -18 
M -12 60 
L 60 -12 
M -6 66 
L 66 -6 
M 0 72 
L 72 0 
M 6 78 
L 78 6 
M 12 84 
L 84 12 
M 18 90 
L 90 18 
M 24 96 
L 96 24 
M 30 102 
L 102 30 
M 36 108 
L 108 36 
" style="fill:#000000;stroke:#000000;stroke-linecap:butt;stroke-linejoin:miter;stroke-width:1.0;"/>
  </pattern>
  <pattern height="72" id="h089b28235d" patternUnits="userSpaceOnUse" width="72" x="0" y="0">
   <rect fill="#0000ff" height="73" width="73" x="0" y="0"/>
   <path d="M -36 36 
L 36 -36 
M -30 42 
L 42 -30 
M -24 48 
L 48 -24 
M -18 54 
L 54 -18 
M -12 60 
L 60 -12 
M -6 66 
L 66 -6 
M 0 72 
L 72 0 
M 6 78 
L 78 6 
M 12 84 
L 84 12 
M 18 90 
L 90 18 
M 24 96 
L 96 24 
M 30 102 
L 102 30 
M 36 108 
L 108 36 
" style="fill:#000000;stroke:#000000;stroke-linecap:butt;stroke-linejoin:miter;stroke-width:1.0;"/>
  </pattern>
 </defs>
</svg>
