<?xml version="1.0" encoding="utf-8" standalone="no"?>
<!DOCTYPE svg PUBLIC "-//W3C//DTD SVG 1.1//EN"
  "http://www.w3.org/Graphics/SVG/1.1/DTD/svg11.dtd">
<!-- Created with matplotlib (http://matplotlib.org/) -->
<svg height="385pt" version="1.1" viewBox="0 0 495 385" width="495pt" xmlns="http://www.w3.org/2000/svg" xmlns:xlink="http://www.w3.org/1999/xlink">
 <defs>
  <style type="text/css">
*{stroke-linecap:butt;stroke-linejoin:round;stroke-miterlimit:100000;}
  </style>
 </defs>
 <g id="figure_1">
  <g id="patch_1">
   <path d="M 0 385.059598 
L 495.38125 385.059598 
L 495.38125 0 
L 0 0 
z
" style="fill:#ffffff;"/>
  </g>
  <g id="axes_1">
   <g id="patch_2">
    <path d="M 41.78125 313.782125 
L 488.18125 313.782125 
L 488.18125 34.782125 
L 41.78125 34.782125 
z
" style="fill:#ffffff;"/>
   </g>
   <g id="patch_3">
    <path clip-path="url(#p7cd91ef4fa)" d="M 41.78125 313.782125 
L 53.227404 313.782125 
L 53.227404 170.673014 
L 41.78125 170.673014 
z
" style="fill:url(#h5392629be1);opacity:0.35;stroke:#000000;stroke-linejoin:miter;"/>
   </g>
   <g id="patch_4">
    <path clip-path="url(#p7cd91ef4fa)" d="M 53.227404 313.782125 
L 64.673558 313.782125 
L 64.673558 204.881113 
L 53.227404 204.881113 
z
" style="fill:#0000ff;stroke:#000000;stroke-linejoin:miter;"/>
   </g>
   <g id="patch_5">
    <path clip-path="url(#p7cd91ef4fa)" d="M 99.012019 313.782125 
L 110.458173 313.782125 
L 110.458173 60.830494 
L 99.012019 60.830494 
z
" style="fill:url(#h5392629be1);opacity:0.35;stroke:#000000;stroke-linejoin:miter;"/>
   </g>
   <g id="patch_6">
    <path clip-path="url(#p7cd91ef4fa)" d="M 110.458173 313.782125 
L 121.904327 313.782125 
L 121.904327 145.252316 
L 110.458173 145.252316 
z
" style="fill:#0000ff;stroke:#000000;stroke-linejoin:miter;"/>
   </g>
   <g id="patch_7">
    <path clip-path="url(#p7cd91ef4fa)" d="M 156.242788 313.782125 
L 167.688942 313.782125 
L 167.688942 121.400798 
L 156.242788 121.400798 
z
" style="fill:url(#h5392629be1);opacity:0.35;stroke:#000000;stroke-linejoin:miter;"/>
   </g>
   <g id="patch_8">
    <path clip-path="url(#p7cd91ef4fa)" d="M 167.688942 313.782125 
L 179.135096 313.782125 
L 179.135096 228.418795 
L 167.688942 228.418795 
z
" style="fill:#0000ff;stroke:#000000;stroke-linejoin:miter;"/>
   </g>
   <g id="patch_9">
    <path clip-path="url(#p7cd91ef4fa)" d="M 213.473558 313.782125 
L 224.919712 313.782125 
L 224.919712 282.084712 
L 213.473558 282.084712 
z
" style="fill:url(#h5392629be1);opacity:0.35;stroke:#000000;stroke-linejoin:miter;"/>
   </g>
   <g id="patch_10">
    <path clip-path="url(#p7cd91ef4fa)" d="M 224.919712 313.782125 
L 236.365865 313.782125 
L 236.365865 247.248942 
L 224.919712 247.248942 
z
" style="fill:#0000ff;stroke:#000000;stroke-linejoin:miter;"/>
   </g>
   <g id="patch_11">
    <path clip-path="url(#p7cd91ef4fa)" d="M 270.704327 313.782125 
L 282.150481 313.782125 
L 282.150481 313.782125 
L 270.704327 313.782125 
z
" style="fill:url(#h5392629be1);opacity:0.35;stroke:#000000;stroke-linejoin:miter;"/>
   </g>
   <g id="patch_12">
    <path clip-path="url(#p7cd91ef4fa)" d="M 282.150481 313.782125 
L 293.596635 313.782125 
L 293.596635 276.749504 
L 282.150481 276.749504 
z
" style="fill:#0000ff;stroke:#000000;stroke-linejoin:miter;"/>
   </g>
   <g id="patch_13">
    <path clip-path="url(#p7cd91ef4fa)" d="M 327.935096 313.782125 
L 339.38125 313.782125 
L 339.38125 313.782125 
L 327.935096 313.782125 
z
" style="fill:url(#h5392629be1);opacity:0.35;stroke:#000000;stroke-linejoin:miter;"/>
   </g>
   <g id="patch_14">
    <path clip-path="url(#p7cd91ef4fa)" d="M 339.38125 313.782125 
L 350.827404 313.782125 
L 350.827404 278.004847 
L 339.38125 278.004847 
z
" style="fill:#0000ff;stroke:#000000;stroke-linejoin:miter;"/>
   </g>
   <g id="patch_15">
    <path clip-path="url(#p7cd91ef4fa)" d="M 385.165865 313.782125 
L 396.612019 313.782125 
L 396.612019 313.782125 
L 385.165865 313.782125 
z
" style="fill:url(#h5392629be1);opacity:0.35;stroke:#000000;stroke-linejoin:miter;"/>
   </g>
   <g id="patch_16">
    <path clip-path="url(#p7cd91ef4fa)" d="M 396.612019 313.782125 
L 408.058173 313.782125 
L 408.058173 281.143205 
L 396.612019 281.143205 
z
" style="fill:#0000ff;stroke:#000000;stroke-linejoin:miter;"/>
   </g>
   <g id="patch_17">
    <path clip-path="url(#p7cd91ef4fa)" d="M 442.396635 313.782125 
L 453.842788 313.782125 
L 453.842788 313.782125 
L 442.396635 313.782125 
z
" style="fill:url(#h5392629be1);opacity:0.35;stroke:#000000;stroke-linejoin:miter;"/>
   </g>
   <g id="patch_18">
    <path clip-path="url(#p7cd91ef4fa)" d="M 453.842788 313.782125 
L 465.288942 313.782125 
L 465.288942 299.031844 
L 453.842788 299.031844 
z
" style="fill:#0000ff;stroke:#000000;stroke-linejoin:miter;"/>
   </g>
   <g id="patch_19">
    <path clip-path="url(#p7cd91ef4fa)" d="M 64.673558 313.782125 
L 76.119712 313.782125 
L 76.119712 313.782125 
L 64.673558 313.782125 
z
" style="fill:url(#h3e459e339d);opacity:0.35;stroke:#000000;stroke-linejoin:miter;"/>
   </g>
   <g id="patch_20">
    <path clip-path="url(#p7cd91ef4fa)" d="M 76.119712 313.782125 
L 87.565865 313.782125 
L 87.565865 279.574026 
L 76.119712 279.574026 
z
" style="fill:#ff0000;stroke:#000000;stroke-linejoin:miter;"/>
   </g>
   <g id="patch_21">
    <path clip-path="url(#p7cd91ef4fa)" d="M 121.904327 313.782125 
L 133.350481 313.782125 
L 133.350481 313.782125 
L 121.904327 313.782125 
z
" style="fill:url(#h3e459e339d);opacity:0.35;stroke:#000000;stroke-linejoin:miter;"/>
   </g>
   <g id="patch_22">
    <path clip-path="url(#p7cd91ef4fa)" d="M 133.350481 313.782125 
L 144.796635 313.782125 
L 144.796635 229.360303 
L 133.350481 229.360303 
z
" style="fill:#ff0000;stroke:#000000;stroke-linejoin:miter;"/>
   </g>
   <g id="patch_23">
    <path clip-path="url(#p7cd91ef4fa)" d="M 179.135096 313.782125 
L 190.58125 313.782125 
L 190.58125 273.297311 
L 179.135096 273.297311 
z
" style="fill:url(#h3e459e339d);opacity:0.35;stroke:#000000;stroke-linejoin:miter;"/>
   </g>
   <g id="patch_24">
    <path clip-path="url(#p7cd91ef4fa)" d="M 190.58125 313.782125 
L 202.027404 313.782125 
L 202.027404 166.279313 
L 190.58125 166.279313 
z
" style="fill:#ff0000;stroke:#000000;stroke-linejoin:miter;"/>
   </g>
   <g id="patch_25">
    <path clip-path="url(#p7cd91ef4fa)" d="M 236.365865 313.782125 
L 247.812019 313.782125 
L 247.812019 204.567277 
L 236.365865 204.567277 
z
" style="fill:url(#h3e459e339d);opacity:0.35;stroke:#000000;stroke-linejoin:miter;"/>
   </g>
   <g id="patch_26">
    <path clip-path="url(#p7cd91ef4fa)" d="M 247.812019 313.782125 
L 259.258173 313.782125 
L 259.258173 239.403047 
L 247.812019 239.403047 
z
" style="fill:#ff0000;stroke:#000000;stroke-linejoin:miter;"/>
   </g>
   <g id="patch_27">
    <path clip-path="url(#p7cd91ef4fa)" d="M 293.596635 313.782125 
L 305.042788 313.782125 
L 305.042788 218.376051 
L 293.596635 218.376051 
z
" style="fill:url(#h3e459e339d);opacity:0.35;stroke:#000000;stroke-linejoin:miter;"/>
   </g>
   <g id="patch_28">
    <path clip-path="url(#p7cd91ef4fa)" d="M 305.042788 313.782125 
L 316.488942 313.782125 
L 316.488942 255.408672 
L 305.042788 255.408672 
z
" style="fill:#ff0000;stroke:#000000;stroke-linejoin:miter;"/>
   </g>
   <g id="patch_29">
    <path clip-path="url(#p7cd91ef4fa)" d="M 350.827404 313.782125 
L 362.273558 313.782125 
L 362.273558 168.162327 
L 350.827404 168.162327 
z
" style="fill:url(#h3e459e339d);opacity:0.35;stroke:#000000;stroke-linejoin:miter;"/>
   </g>
   <g id="patch_30">
    <path clip-path="url(#p7cd91ef4fa)" d="M 362.273558 313.782125 
L 373.719712 313.782125 
L 373.719712 203.939605 
L 362.273558 203.939605 
z
" style="fill:#ff0000;stroke:#000000;stroke-linejoin:miter;"/>
   </g>
   <g id="patch_31">
    <path clip-path="url(#p7cd91ef4fa)" d="M 408.058173 313.782125 
L 419.504327 313.782125 
L 419.504327 177.263565 
L 408.058173 177.263565 
z
" style="fill:url(#h3e459e339d);opacity:0.35;stroke:#000000;stroke-linejoin:miter;"/>
   </g>
   <g id="patch_32">
    <path clip-path="url(#p7cd91ef4fa)" d="M 419.504327 313.782125 
L 430.950481 313.782125 
L 430.950481 209.902485 
L 419.504327 209.902485 
z
" style="fill:#ff0000;stroke:#000000;stroke-linejoin:miter;"/>
   </g>
   <g id="patch_33">
    <path clip-path="url(#p7cd91ef4fa)" d="M 465.288942 313.782125 
L 476.735096 313.782125 
L 476.735096 236.578525 
L 465.288942 236.578525 
z
" style="fill:url(#h3e459e339d);opacity:0.35;stroke:#000000;stroke-linejoin:miter;"/>
   </g>
   <g id="patch_34">
    <path clip-path="url(#p7cd91ef4fa)" d="M 476.735096 313.782125 
L 488.18125 313.782125 
L 488.18125 251.328807 
L 476.735096 251.328807 
z
" style="fill:#ff0000;stroke:#000000;stroke-linejoin:miter;"/>
   </g>
   <g id="patch_35">
    <path d="M 41.78125 34.782125 
L 488.18125 34.782125 
" style="fill:none;stroke:#000000;stroke-linecap:square;stroke-linejoin:miter;"/>
   </g>
   <g id="patch_36">
    <path d="M 488.18125 313.782125 
L 488.18125 34.782125 
" style="fill:none;stroke:#000000;stroke-linecap:square;stroke-linejoin:miter;"/>
   </g>
   <g id="patch_37">
    <path d="M 41.78125 313.782125 
L 488.18125 313.782125 
" style="fill:none;stroke:#000000;stroke-linecap:square;stroke-linejoin:miter;"/>
   </g>
   <g id="patch_38">
    <path d="M 41.78125 313.782125 
L 41.78125 34.782125 
" style="fill:none;stroke:#000000;stroke-linecap:square;stroke-linejoin:miter;"/>
   </g>
   <g id="matplotlib.axis_1">
    <g id="xtick_1">
     <g id="line2d_1">
      <defs>
       <path d="M 0 0 
L 0 -4 
" id="m67494a1f03" style="stroke:#000000;stroke-width:0.5;"/>
      </defs>
      <g>
       <use style="stroke:#000000;stroke-width:0.5;" x="64.6735576923" xlink:href="#m67494a1f03" y="313.782125"/>
      </g>
     </g>
     <g id="line2d_2">
      <defs>
       <path d="M 0 0 
L 0 4 
" id="m77fb4aa1e6" style="stroke:#000000;stroke-width:0.5;"/>
      </defs>
      <g>
       <use style="stroke:#000000;stroke-width:0.5;" x="64.6735576923" xlink:href="#m77fb4aa1e6" y="34.782125"/>
      </g>
     </g>
     <g id="text_1">
      <text style="font-family:Bitstream Vera Sans;font-size:10.0px;font-style:normal;font-weight:400;" transform="translate(47.3577279608 361.689036694)rotate(-45.0)">31.0 - 31.4</text>
     </g>
    </g>
    <g id="xtick_2">
     <g id="line2d_3">
      <g>
       <use style="stroke:#000000;stroke-width:0.5;" x="121.904326923" xlink:href="#m67494a1f03" y="313.782125"/>
      </g>
     </g>
     <g id="line2d_4">
      <g>
       <use style="stroke:#000000;stroke-width:0.5;" x="121.904326923" xlink:href="#m77fb4aa1e6" y="34.782125"/>
      </g>
     </g>
     <g id="text_2">
      <text style="font-family:Bitstream Vera Sans;font-size:10.0px;font-style:normal;font-weight:400;" transform="translate(104.588497192 361.689036694)rotate(-45.0)">31.5 - 31.9</text>
     </g>
    </g>
    <g id="xtick_3">
     <g id="line2d_5">
      <g>
       <use style="stroke:#000000;stroke-width:0.5;" x="179.135096154" xlink:href="#m67494a1f03" y="313.782125"/>
      </g>
     </g>
     <g id="line2d_6">
      <g>
       <use style="stroke:#000000;stroke-width:0.5;" x="179.135096154" xlink:href="#m77fb4aa1e6" y="34.782125"/>
      </g>
     </g>
     <g id="text_3">
      <text style="font-family:Bitstream Vera Sans;font-size:10.0px;font-style:normal;font-weight:400;" transform="translate(161.819266422 361.689036694)rotate(-45.0)">32.0 - 32.4</text>
     </g>
    </g>
    <g id="xtick_4">
     <g id="line2d_7">
      <g>
       <use style="stroke:#000000;stroke-width:0.5;" x="236.365865385" xlink:href="#m67494a1f03" y="313.782125"/>
      </g>
     </g>
     <g id="line2d_8">
      <g>
       <use style="stroke:#000000;stroke-width:0.5;" x="236.365865385" xlink:href="#m77fb4aa1e6" y="34.782125"/>
      </g>
     </g>
     <g id="text_4">
      <text style="font-family:Bitstream Vera Sans;font-size:10.0px;font-style:normal;font-weight:400;" transform="translate(219.050035653 361.689036694)rotate(-45.0)">32.5 - 32.9</text>
     </g>
    </g>
    <g id="xtick_5">
     <g id="line2d_9">
      <g>
       <use style="stroke:#000000;stroke-width:0.5;" x="293.596634615" xlink:href="#m67494a1f03" y="313.782125"/>
      </g>
     </g>
     <g id="line2d_10">
      <g>
       <use style="stroke:#000000;stroke-width:0.5;" x="293.596634615" xlink:href="#m77fb4aa1e6" y="34.782125"/>
      </g>
     </g>
     <g id="text_5">
      <text style="font-family:Bitstream Vera Sans;font-size:10.0px;font-style:normal;font-weight:400;" transform="translate(276.280804884 361.689036694)rotate(-45.0)">33.0 - 33.4</text>
     </g>
    </g>
    <g id="xtick_6">
     <g id="line2d_11">
      <g>
       <use style="stroke:#000000;stroke-width:0.5;" x="350.827403846" xlink:href="#m67494a1f03" y="313.782125"/>
      </g>
     </g>
     <g id="line2d_12">
      <g>
       <use style="stroke:#000000;stroke-width:0.5;" x="350.827403846" xlink:href="#m77fb4aa1e6" y="34.782125"/>
      </g>
     </g>
     <g id="text_6">
      <text style="font-family:Bitstream Vera Sans;font-size:10.0px;font-style:normal;font-weight:400;" transform="translate(333.511574115 361.689036694)rotate(-45.0)">33.5 - 33.9</text>
     </g>
    </g>
    <g id="xtick_7">
     <g id="line2d_13">
      <g>
       <use style="stroke:#000000;stroke-width:0.5;" x="408.058173077" xlink:href="#m67494a1f03" y="313.782125"/>
      </g>
     </g>
     <g id="line2d_14">
      <g>
       <use style="stroke:#000000;stroke-width:0.5;" x="408.058173077" xlink:href="#m77fb4aa1e6" y="34.782125"/>
      </g>
     </g>
     <g id="text_7">
      <text style="font-family:Bitstream Vera Sans;font-size:10.0px;font-style:normal;font-weight:400;" transform="translate(390.742343345 361.689036694)rotate(-45.0)">34.0 - 34.4</text>
     </g>
    </g>
    <g id="xtick_8">
     <g id="line2d_15">
      <g>
       <use style="stroke:#000000;stroke-width:0.5;" x="465.288942308" xlink:href="#m67494a1f03" y="313.782125"/>
      </g>
     </g>
     <g id="line2d_16">
      <g>
       <use style="stroke:#000000;stroke-width:0.5;" x="465.288942308" xlink:href="#m77fb4aa1e6" y="34.782125"/>
      </g>
     </g>
     <g id="text_8">
      <text style="font-family:Bitstream Vera Sans;font-size:10.0px;font-style:normal;font-weight:400;" transform="translate(447.973112576 361.689036694)rotate(-45.0)">34.5 - 34.9</text>
     </g>
    </g>
    <g id="text_9">
     <!-- ANL Temperature ($^o$F) -->
     <g transform="translate(210.18125 375.759597828)">
      <text>
       <tspan style="font-family:cmmi10;font-size:7.0px;font-style:regular;font-weight:regular;" x="95.861453125" y="-4.23265625">o</tspan>
       <tspan style="font-family:Bitstream Vera Sans;font-size:10.0px;font-style:roman;font-weight:roman;" x="0.0 6.8408203125 14.3212890625 19.892578125 23.0712890625 29.1796875 35.33203125 45.0732421875 51.4208984375 57.5732421875 61.6845703125 67.8125 71.7333984375 78.0712890625 82.1826171875 88.3349609375 91.513671875 99.8863945313 105.638347656" y="-0.40625">ANL Temperature (F)</tspan>
      </text>
     </g>
    </g>
   </g>
   <g id="matplotlib.axis_2">
    <g id="ytick_1">
     <g id="line2d_17">
      <defs>
       <path d="M 0 0 
L 4 0 
" id="m5c1552b3b8" style="stroke:#000000;stroke-width:0.5;"/>
      </defs>
      <g>
       <use style="stroke:#000000;stroke-width:0.5;" x="41.78125" xlink:href="#m5c1552b3b8" y="313.782125"/>
      </g>
     </g>
     <g id="line2d_18">
      <defs>
       <path d="M 0 0 
L -4 0 
" id="m97432acd18" style="stroke:#000000;stroke-width:0.5;"/>
      </defs>
      <g>
       <use style="stroke:#000000;stroke-width:0.5;" x="488.18125" xlink:href="#m97432acd18" y="313.782125"/>
      </g>
     </g>
     <g id="text_10">
      <text style="font-family:Bitstream Vera Sans;font-size:10.0px;font-style:normal;font-weight:400;text-anchor:end;" transform="rotate(-0.000000, 37.781250, 316.541500)" x="37.78125" y="316.5415">0.0</text>
     </g>
    </g>
    <g id="ytick_2">
     <g id="line2d_19">
      <g>
       <use style="stroke:#000000;stroke-width:0.5;" x="41.78125" xlink:href="#m5c1552b3b8" y="273.924982143"/>
      </g>
     </g>
     <g id="line2d_20">
      <g>
       <use style="stroke:#000000;stroke-width:0.5;" x="488.18125" xlink:href="#m97432acd18" y="273.924982143"/>
      </g>
     </g>
     <g id="text_11">
      <text style="font-family:Bitstream Vera Sans;font-size:10.0px;font-style:normal;font-weight:400;text-anchor:end;" transform="rotate(-0.000000, 37.781250, 276.684357)" x="37.78125" y="276.684357143">0.5</text>
     </g>
    </g>
    <g id="ytick_3">
     <g id="line2d_21">
      <g>
       <use style="stroke:#000000;stroke-width:0.5;" x="41.78125" xlink:href="#m5c1552b3b8" y="234.067839286"/>
      </g>
     </g>
     <g id="line2d_22">
      <g>
       <use style="stroke:#000000;stroke-width:0.5;" x="488.18125" xlink:href="#m97432acd18" y="234.067839286"/>
      </g>
     </g>
     <g id="text_12">
      <text style="font-family:Bitstream Vera Sans;font-size:10.0px;font-style:normal;font-weight:400;text-anchor:end;" transform="rotate(-0.000000, 37.781250, 236.827214)" x="37.78125" y="236.827214286">1.0</text>
     </g>
    </g>
    <g id="ytick_4">
     <g id="line2d_23">
      <g>
       <use style="stroke:#000000;stroke-width:0.5;" x="41.78125" xlink:href="#m5c1552b3b8" y="194.210696429"/>
      </g>
     </g>
     <g id="line2d_24">
      <g>
       <use style="stroke:#000000;stroke-width:0.5;" x="488.18125" xlink:href="#m97432acd18" y="194.210696429"/>
      </g>
     </g>
     <g id="text_13">
      <text style="font-family:Bitstream Vera Sans;font-size:10.0px;font-style:normal;font-weight:400;text-anchor:end;" transform="rotate(-0.000000, 37.781250, 196.970071)" x="37.78125" y="196.970071429">1.5</text>
     </g>
    </g>
    <g id="ytick_5">
     <g id="line2d_25">
      <g>
       <use style="stroke:#000000;stroke-width:0.5;" x="41.78125" xlink:href="#m5c1552b3b8" y="154.353553571"/>
      </g>
     </g>
     <g id="line2d_26">
      <g>
       <use style="stroke:#000000;stroke-width:0.5;" x="488.18125" xlink:href="#m97432acd18" y="154.353553571"/>
      </g>
     </g>
     <g id="text_14">
      <text style="font-family:Bitstream Vera Sans;font-size:10.0px;font-style:normal;font-weight:400;text-anchor:end;" transform="rotate(-0.000000, 37.781250, 157.112929)" x="37.78125" y="157.112928571">2.0</text>
     </g>
    </g>
    <g id="ytick_6">
     <g id="line2d_27">
      <g>
       <use style="stroke:#000000;stroke-width:0.5;" x="41.78125" xlink:href="#m5c1552b3b8" y="114.496410714"/>
      </g>
     </g>
     <g id="line2d_28">
      <g>
       <use style="stroke:#000000;stroke-width:0.5;" x="488.18125" xlink:href="#m97432acd18" y="114.496410714"/>
      </g>
     </g>
     <g id="text_15">
      <text style="font-family:Bitstream Vera Sans;font-size:10.0px;font-style:normal;font-weight:400;text-anchor:end;" transform="rotate(-0.000000, 37.781250, 117.255786)" x="37.78125" y="117.255785714">2.5</text>
     </g>
    </g>
    <g id="ytick_7">
     <g id="line2d_29">
      <g>
       <use style="stroke:#000000;stroke-width:0.5;" x="41.78125" xlink:href="#m5c1552b3b8" y="74.6392678571"/>
      </g>
     </g>
     <g id="line2d_30">
      <g>
       <use style="stroke:#000000;stroke-width:0.5;" x="488.18125" xlink:href="#m97432acd18" y="74.6392678571"/>
      </g>
     </g>
     <g id="text_16">
      <text style="font-family:Bitstream Vera Sans;font-size:10.0px;font-style:normal;font-weight:400;text-anchor:end;" transform="rotate(-0.000000, 37.781250, 77.398643)" x="37.78125" y="77.3986428571">3.0</text>
     </g>
    </g>
    <g id="ytick_8">
     <g id="line2d_31">
      <g>
       <use style="stroke:#000000;stroke-width:0.5;" x="41.78125" xlink:href="#m5c1552b3b8" y="34.782125"/>
      </g>
     </g>
     <g id="line2d_32">
      <g>
       <use style="stroke:#000000;stroke-width:0.5;" x="488.18125" xlink:href="#m97432acd18" y="34.782125"/>
      </g>
     </g>
     <g id="text_17">
      <text style="font-family:Bitstream Vera Sans;font-size:10.0px;font-style:normal;font-weight:400;text-anchor:end;" transform="rotate(-0.000000, 37.781250, 37.541500)" x="37.78125" y="37.5415">3.5</text>
     </g>
    </g>
    <g id="text_18">
     <text style="font-family:Bitstream Vera Sans;font-size:10.0px;font-style:normal;font-weight:400;text-anchor:middle;" transform="rotate(-90.000000, 14.798438, 174.282125)" x="14.7984375" y="174.282125">Precipitation Depth (inches)</text>
    </g>
   </g>
   <g id="text_19">
    <g id="patch_39">
     <path d="M 131.06125 72.205656 
L 323.172812 72.205656 
Q 326.472813 72.205656 326.472813 68.905656 
L 326.472813 45.942125 
Q 326.472813 42.642125 323.172812 42.642125 
L 131.06125 42.642125 
Q 127.76125 42.642125 127.76125 45.942125 
L 127.76125 68.905656 
Q 127.76125 72.205656 131.06125 72.205656 
z
" style="fill:#cccccc;opacity:0.5;stroke:#000000;stroke-linejoin:miter;"/>
    </g>
    <text style="font-family:Bitstream Vera Sans;font-size:11.0px;font-style:normal;font-weight:400;" transform="translate(131.06125 54.30040625)">HSPF Rain/Snow Depth Ratio: 0.97</text>
    <text style="font-family:Bitstream Vera Sans;font-size:11.0px;font-style:normal;font-weight:400;" transform="translate(131.06125 66.618)">ASOS Rain/Snow Depth Ratio: 1.23</text>
   </g>
   <g id="text_20">
    <!-- Chicago O'Hare (KORD): TSNOW=32.0$^o$F -->
    <g transform="translate(143.12125 16.344375)">
     <text>
      <tspan style="font-family:cmmi10;font-size:8.4px;font-style:regular;font-weight:regular;" x="231.9517125" y="-5.4666875">o</tspan>
      <tspan style="font-family:Bitstream Vera Sans;font-size:12.0px;font-style:roman;font-weight:roman;" x="0.0 8.37890625 15.984375 19.318359375 25.916015625 33.26953125 40.88671875 48.228515625 52.04296875 61.48828125 64.787109375 73.810546875 81.1640625 86.09765625 93.48046875 97.294921875 101.9765625 109.845703125 119.291015625 127.62890625 136.869140625 141.55078125 145.59375 149.408203125 156.73828125 164.35546875 173.33203125 182.77734375 194.642578125 204.697265625 212.33203125 219.966796875 223.78125 236.781642188" y="-0.875">Chicago O'Hare (KORD): TSNOW=32.0F</tspan>
     </text>
    </g>
    <text style="font-family:Bitstream Vera Sans;font-size:12.0px;font-style:normal;font-weight:400;" transform="translate(201.2903125 29.806125)">1/1/2006 - 9/30/2013</text>
   </g>
   <g id="legend_1">
    <g id="patch_40">
     <path d="M 369.896875 114.837125 
L 482.18125 114.837125 
L 482.18125 40.782125 
L 369.896875 40.782125 
z
" style="fill:#ffffff;stroke:#000000;stroke-linejoin:miter;"/>
    </g>
    <g id="patch_41">
     <path d="M 374.696875 54.70025 
L 398.696875 54.70025 
L 398.696875 46.30025 
L 374.696875 46.30025 
z
" style="fill:url(#h5392629be1);opacity:0.35;stroke:#000000;stroke-linejoin:miter;"/>
    </g>
    <g id="text_21">
     <text style="font-family:Bitstream Vera Sans;font-size:12.0px;font-style:normal;font-weight:400;text-anchor:start;" transform="rotate(-0.000000, 408.296875, 54.700250)" x="408.296875" y="54.70025">HSPF Snow</text>
    </g>
    <g id="patch_42">
     <path d="M 374.696875 72.314 
L 398.696875 72.314 
L 398.696875 63.914 
L 374.696875 63.914 
z
" style="fill:#0000ff;stroke:#000000;stroke-linejoin:miter;"/>
    </g>
    <g id="text_22">
     <text style="font-family:Bitstream Vera Sans;font-size:12.0px;font-style:normal;font-weight:400;text-anchor:start;" transform="rotate(-0.000000, 408.296875, 72.314000)" x="408.296875" y="72.314">ASOS Snow</text>
    </g>
    <g id="patch_43">
     <path d="M 374.696875 89.92775 
L 398.696875 89.92775 
L 398.696875 81.52775 
L 374.696875 81.52775 
z
" style="fill:url(#h3e459e339d);opacity:0.35;stroke:#000000;stroke-linejoin:miter;"/>
    </g>
    <g id="text_23">
     <text style="font-family:Bitstream Vera Sans;font-size:12.0px;font-style:normal;font-weight:400;text-anchor:start;" transform="rotate(-0.000000, 408.296875, 89.927750)" x="408.296875" y="89.92775">HSPF Rain</text>
    </g>
    <g id="patch_44">
     <path d="M 374.696875 107.5415 
L 398.696875 107.5415 
L 398.696875 99.1415 
L 374.696875 99.1415 
z
" style="fill:#ff0000;stroke:#000000;stroke-linejoin:miter;"/>
    </g>
    <g id="text_24">
     <text style="font-family:Bitstream Vera Sans;font-size:12.0px;font-style:normal;font-weight:400;text-anchor:start;" transform="rotate(-0.000000, 408.296875, 107.541500)" x="408.296875" y="107.5415">ASOS Rain</text>
    </g>
   </g>
  </g>
 </g>
 <defs>
  <clipPath id="p7cd91ef4fa">
   <rect height="279.0" width="446.4" x="41.78125" y="34.782125"/>
  </clipPath>
 </defs>
 <defs>
  <pattern height="72" id="h3e459e339d" patternUnits="userSpaceOnUse" width="72" x="0" y="0">
   <rect fill="#ff0000" height="73" width="73" x="0" y="0"/>
   <path d="M -36 36 
L 36 -36 
M -30 42 
L 42 -30 
M -24 48 
L 48 -24 
M -18 54 
L 54 -18 
M -12 60 
L 60 -12 
M -6 66 
L 66 -6 
M 0 72 
L 72 0 
M 6 78 
L 78 6 
M 12 84 
L 84 12 
M 18 90 
L 90 18 
M 24 96 
L 96 24 
M 30 102 
L 102 30 
M 36 108 
L 108 36 
" style="fill:#000000;stroke:#000000;stroke-linecap:butt;stroke-linejoin:miter;stroke-width:1.0;"/>
  </pattern>
  <pattern height="72" id="h5392629be1" patternUnits="userSpaceOnUse" width="72" x="0" y="0">
   <rect fill="#0000ff" height="73" width="73" x="0" y="0"/>
   <path d="M -36 36 
L 36 -36 
M -30 42 
L 42 -30 
M -24 48 
L 48 -24 
M -18 54 
L 54 -18 
M -12 60 
L 60 -12 
M -6 66 
L 66 -6 
M 0 72 
L 72 0 
M 6 78 
L 78 6 
M 12 84 
L 84 12 
M 18 90 
L 90 18 
M 24 96 
L 96 24 
M 30 102 
L 102 30 
M 36 108 
L 108 36 
" style="fill:#000000;stroke:#000000;stroke-linecap:butt;stroke-linejoin:miter;stroke-width:1.0;"/>
  </pattern>
 </defs>
</svg>
