<?xml version="1.0" encoding="utf-8" standalone="no"?>
<!DOCTYPE svg PUBLIC "-//W3C//DTD SVG 1.1//EN"
  "http://www.w3.org/Graphics/SVG/1.1/DTD/svg11.dtd">
<!-- Created with matplotlib (http://matplotlib.org/) -->
<svg height="385pt" version="1.1" viewBox="0 0 495 385" width="495pt" xmlns="http://www.w3.org/2000/svg" xmlns:xlink="http://www.w3.org/1999/xlink">
 <defs>
  <style type="text/css">
*{stroke-linecap:butt;stroke-linejoin:round;stroke-miterlimit:100000;}
  </style>
 </defs>
 <g id="figure_1">
  <g id="patch_1">
   <path d="M 0 385.032973 
L 495.38125 385.032973 
L 495.38125 0 
L 0 0 
z
" style="fill:#ffffff;"/>
  </g>
  <g id="axes_1">
   <g id="patch_2">
    <path d="M 41.78125 313.7555 
L 488.18125 313.7555 
L 488.18125 34.7555 
L 41.78125 34.7555 
z
" style="fill:#ffffff;"/>
   </g>
   <g id="patch_3">
    <path clip-path="url(#pc4e15d59bf)" d="M 41.78125 313.7555 
L 53.227404 313.7555 
L 53.227404 209.624791 
L 41.78125 209.624791 
z
" style="fill:url(#h1599c8a3ec);opacity:0.35;stroke:#000000;stroke-linejoin:miter;"/>
   </g>
   <g id="patch_4">
    <path clip-path="url(#pc4e15d59bf)" d="M 53.227404 313.7555 
L 64.673558 313.7555 
L 64.673558 219.730303 
L 53.227404 219.730303 
z
" style="fill:#0000ff;stroke:#000000;stroke-linejoin:miter;"/>
   </g>
   <g id="patch_5">
    <path clip-path="url(#pc4e15d59bf)" d="M 99.012019 313.7555 
L 110.458173 313.7555 
L 110.458173 70.783846 
L 99.012019 70.783846 
z
" style="fill:url(#h1599c8a3ec);opacity:0.35;stroke:#000000;stroke-linejoin:miter;"/>
   </g>
   <g id="patch_6">
    <path clip-path="url(#pc4e15d59bf)" d="M 110.458173 313.7555 
L 121.904327 313.7555 
L 121.904327 146.79487 
L 110.458173 146.79487 
z
" style="fill:#0000ff;stroke:#000000;stroke-linejoin:miter;"/>
   </g>
   <g id="patch_7">
    <path clip-path="url(#pc4e15d59bf)" d="M 156.242788 313.7555 
L 167.688942 313.7555 
L 167.688942 46.618492 
L 156.242788 46.618492 
z
" style="fill:url(#h1599c8a3ec);opacity:0.35;stroke:#000000;stroke-linejoin:miter;"/>
   </g>
   <g id="patch_8">
    <path clip-path="url(#pc4e15d59bf)" d="M 167.688942 313.7555 
L 179.135096 313.7555 
L 179.135096 220.609043 
L 167.688942 220.609043 
z
" style="fill:#0000ff;stroke:#000000;stroke-linejoin:miter;"/>
   </g>
   <g id="patch_9">
    <path clip-path="url(#pc4e15d59bf)" d="M 213.473558 313.7555 
L 224.919712 313.7555 
L 224.919712 234.668886 
L 213.473558 234.668886 
z
" style="fill:url(#h1599c8a3ec);opacity:0.35;stroke:#000000;stroke-linejoin:miter;"/>
   </g>
   <g id="patch_10">
    <path clip-path="url(#pc4e15d59bf)" d="M 224.919712 313.7555 
L 236.365865 313.7555 
L 236.365865 264.546051 
L 224.919712 264.546051 
z
" style="fill:#0000ff;stroke:#000000;stroke-linejoin:miter;"/>
   </g>
   <g id="patch_11">
    <path clip-path="url(#pc4e15d59bf)" d="M 270.704327 313.7555 
L 282.150481 313.7555 
L 282.150481 290.908256 
L 270.704327 290.908256 
z
" style="fill:url(#h1599c8a3ec);opacity:0.35;stroke:#000000;stroke-linejoin:miter;"/>
   </g>
   <g id="patch_12">
    <path clip-path="url(#pc4e15d59bf)" d="M 282.150481 313.7555 
L 293.596635 313.7555 
L 293.596635 287.393295 
L 282.150481 287.393295 
z
" style="fill:#0000ff;stroke:#000000;stroke-linejoin:miter;"/>
   </g>
   <g id="patch_13">
    <path clip-path="url(#pc4e15d59bf)" d="M 327.935096 313.7555 
L 339.38125 313.7555 
L 339.38125 313.7555 
L 327.935096 313.7555 
z
" style="fill:url(#h1599c8a3ec);opacity:0.35;stroke:#000000;stroke-linejoin:miter;"/>
   </g>
   <g id="patch_14">
    <path clip-path="url(#pc4e15d59bf)" d="M 339.38125 313.7555 
L 350.827404 313.7555 
L 350.827404 293.544476 
L 339.38125 293.544476 
z
" style="fill:#0000ff;stroke:#000000;stroke-linejoin:miter;"/>
   </g>
   <g id="patch_15">
    <path clip-path="url(#pc4e15d59bf)" d="M 385.165865 313.7555 
L 396.612019 313.7555 
L 396.612019 313.7555 
L 385.165865 313.7555 
z
" style="fill:url(#h1599c8a3ec);opacity:0.35;stroke:#000000;stroke-linejoin:miter;"/>
   </g>
   <g id="patch_16">
    <path clip-path="url(#pc4e15d59bf)" d="M 396.612019 313.7555 
L 408.058173 313.7555 
L 408.058173 271.575972 
L 396.612019 271.575972 
z
" style="fill:#0000ff;stroke:#000000;stroke-linejoin:miter;"/>
   </g>
   <g id="patch_17">
    <path clip-path="url(#pc4e15d59bf)" d="M 442.396635 313.7555 
L 453.842788 313.7555 
L 453.842788 313.7555 
L 442.396635 313.7555 
z
" style="fill:url(#h1599c8a3ec);opacity:0.35;stroke:#000000;stroke-linejoin:miter;"/>
   </g>
   <g id="patch_18">
    <path clip-path="url(#pc4e15d59bf)" d="M 453.842788 313.7555 
L 465.288942 313.7555 
L 465.288942 297.938177 
L 453.842788 297.938177 
z
" style="fill:#0000ff;stroke:#000000;stroke-linejoin:miter;"/>
   </g>
   <g id="patch_19">
    <path clip-path="url(#pc4e15d59bf)" d="M 64.673558 313.7555 
L 76.119712 313.7555 
L 76.119712 313.7555 
L 64.673558 313.7555 
z
" style="fill:url(#h9bc52f3228);opacity:0.35;stroke:#000000;stroke-linejoin:miter;"/>
   </g>
   <g id="patch_20">
    <path clip-path="url(#pc4e15d59bf)" d="M 76.119712 313.7555 
L 87.565865 313.7555 
L 87.565865 303.649988 
L 76.119712 303.649988 
z
" style="fill:#ff0000;stroke:#000000;stroke-linejoin:miter;"/>
   </g>
   <g id="patch_21">
    <path clip-path="url(#pc4e15d59bf)" d="M 121.904327 313.7555 
L 133.350481 313.7555 
L 133.350481 313.7555 
L 121.904327 313.7555 
z
" style="fill:url(#h9bc52f3228);opacity:0.35;stroke:#000000;stroke-linejoin:miter;"/>
   </g>
   <g id="patch_22">
    <path clip-path="url(#pc4e15d59bf)" d="M 133.350481 313.7555 
L 144.796635 313.7555 
L 144.796635 237.744476 
L 133.350481 237.744476 
z
" style="fill:#ff0000;stroke:#000000;stroke-linejoin:miter;"/>
   </g>
   <g id="patch_23">
    <path clip-path="url(#pc4e15d59bf)" d="M 179.135096 313.7555 
L 190.58125 313.7555 
L 190.58125 313.7555 
L 179.135096 313.7555 
z
" style="fill:url(#h9bc52f3228);opacity:0.35;stroke:#000000;stroke-linejoin:miter;"/>
   </g>
   <g id="patch_24">
    <path clip-path="url(#pc4e15d59bf)" d="M 190.58125 313.7555 
L 202.027404 313.7555 
L 202.027404 139.764949 
L 190.58125 139.764949 
z
" style="fill:#ff0000;stroke:#000000;stroke-linejoin:miter;"/>
   </g>
   <g id="patch_25">
    <path clip-path="url(#pc4e15d59bf)" d="M 236.365865 313.7555 
L 247.812019 313.7555 
L 247.812019 226.760224 
L 236.365865 226.760224 
z
" style="fill:url(#h9bc52f3228);opacity:0.35;stroke:#000000;stroke-linejoin:miter;"/>
   </g>
   <g id="patch_26">
    <path clip-path="url(#pc4e15d59bf)" d="M 247.812019 313.7555 
L 259.258173 313.7555 
L 259.258173 196.883059 
L 247.812019 196.883059 
z
" style="fill:#ff0000;stroke:#000000;stroke-linejoin:miter;"/>
   </g>
   <g id="patch_27">
    <path clip-path="url(#pc4e15d59bf)" d="M 293.596635 313.7555 
L 305.042788 313.7555 
L 305.042788 239.062587 
L 293.596635 239.062587 
z
" style="fill:url(#h9bc52f3228);opacity:0.35;stroke:#000000;stroke-linejoin:miter;"/>
   </g>
   <g id="patch_28">
    <path clip-path="url(#pc4e15d59bf)" d="M 305.042788 313.7555 
L 316.488942 313.7555 
L 316.488942 242.577547 
L 305.042788 242.577547 
z
" style="fill:#ff0000;stroke:#000000;stroke-linejoin:miter;"/>
   </g>
   <g id="patch_29">
    <path clip-path="url(#pc4e15d59bf)" d="M 350.827404 313.7555 
L 362.273558 313.7555 
L 362.273558 189.413768 
L 350.827404 189.413768 
z
" style="fill:url(#h9bc52f3228);opacity:0.35;stroke:#000000;stroke-linejoin:miter;"/>
   </g>
   <g id="patch_30">
    <path clip-path="url(#pc4e15d59bf)" d="M 362.273558 313.7555 
L 373.719712 313.7555 
L 373.719712 209.624791 
L 362.273558 209.624791 
z
" style="fill:#ff0000;stroke:#000000;stroke-linejoin:miter;"/>
   </g>
   <g id="patch_31">
    <path clip-path="url(#pc4e15d59bf)" d="M 408.058173 313.7555 
L 419.504327 313.7555 
L 419.504327 185.898807 
L 408.058173 185.898807 
z
" style="fill:url(#h9bc52f3228);opacity:0.35;stroke:#000000;stroke-linejoin:miter;"/>
   </g>
   <g id="patch_32">
    <path clip-path="url(#pc4e15d59bf)" d="M 419.504327 313.7555 
L 430.950481 313.7555 
L 430.950481 228.078335 
L 419.504327 228.078335 
z
" style="fill:#ff0000;stroke:#000000;stroke-linejoin:miter;"/>
   </g>
   <g id="patch_33">
    <path clip-path="url(#pc4e15d59bf)" d="M 465.288942 313.7555 
L 476.735096 313.7555 
L 476.735096 190.292508 
L 465.288942 190.292508 
z
" style="fill:url(#h9bc52f3228);opacity:0.35;stroke:#000000;stroke-linejoin:miter;"/>
   </g>
   <g id="patch_34">
    <path clip-path="url(#pc4e15d59bf)" d="M 476.735096 313.7555 
L 488.18125 313.7555 
L 488.18125 206.109831 
L 476.735096 206.109831 
z
" style="fill:#ff0000;stroke:#000000;stroke-linejoin:miter;"/>
   </g>
   <g id="patch_35">
    <path d="M 41.78125 34.7555 
L 488.18125 34.7555 
" style="fill:none;stroke:#000000;stroke-linecap:square;stroke-linejoin:miter;"/>
   </g>
   <g id="patch_36">
    <path d="M 488.18125 313.7555 
L 488.18125 34.7555 
" style="fill:none;stroke:#000000;stroke-linecap:square;stroke-linejoin:miter;"/>
   </g>
   <g id="patch_37">
    <path d="M 41.78125 313.7555 
L 488.18125 313.7555 
" style="fill:none;stroke:#000000;stroke-linecap:square;stroke-linejoin:miter;"/>
   </g>
   <g id="patch_38">
    <path d="M 41.78125 313.7555 
L 41.78125 34.7555 
" style="fill:none;stroke:#000000;stroke-linecap:square;stroke-linejoin:miter;"/>
   </g>
   <g id="matplotlib.axis_1">
    <g id="xtick_1">
     <g id="line2d_1">
      <defs>
       <path d="M 0 0 
L 0 -4 
" id="m49e4bfb0c9" style="stroke:#000000;stroke-width:0.5;"/>
      </defs>
      <g>
       <use style="stroke:#000000;stroke-width:0.5;" x="64.6735576923" xlink:href="#m49e4bfb0c9" y="313.7555"/>
      </g>
     </g>
     <g id="line2d_2">
      <defs>
       <path d="M 0 0 
L 0 4 
" id="m4e739a84a0" style="stroke:#000000;stroke-width:0.5;"/>
      </defs>
      <g>
       <use style="stroke:#000000;stroke-width:0.5;" x="64.6735576923" xlink:href="#m4e739a84a0" y="34.7555"/>
      </g>
     </g>
     <g id="text_1">
      <text style="font-family:Bitstream Vera Sans;font-size:10.0px;font-style:normal;font-weight:400;" transform="translate(47.3577279608 361.662411694)rotate(-45.0)">31.0 - 31.4</text>
     </g>
    </g>
    <g id="xtick_2">
     <g id="line2d_3">
      <g>
       <use style="stroke:#000000;stroke-width:0.5;" x="121.904326923" xlink:href="#m49e4bfb0c9" y="313.7555"/>
      </g>
     </g>
     <g id="line2d_4">
      <g>
       <use style="stroke:#000000;stroke-width:0.5;" x="121.904326923" xlink:href="#m4e739a84a0" y="34.7555"/>
      </g>
     </g>
     <g id="text_2">
      <text style="font-family:Bitstream Vera Sans;font-size:10.0px;font-style:normal;font-weight:400;" transform="translate(104.588497192 361.662411694)rotate(-45.0)">31.5 - 31.9</text>
     </g>
    </g>
    <g id="xtick_3">
     <g id="line2d_5">
      <g>
       <use style="stroke:#000000;stroke-width:0.5;" x="179.135096154" xlink:href="#m49e4bfb0c9" y="313.7555"/>
      </g>
     </g>
     <g id="line2d_6">
      <g>
       <use style="stroke:#000000;stroke-width:0.5;" x="179.135096154" xlink:href="#m4e739a84a0" y="34.7555"/>
      </g>
     </g>
     <g id="text_3">
      <text style="font-family:Bitstream Vera Sans;font-size:10.0px;font-style:normal;font-weight:400;" transform="translate(161.819266422 361.662411694)rotate(-45.0)">32.0 - 32.4</text>
     </g>
    </g>
    <g id="xtick_4">
     <g id="line2d_7">
      <g>
       <use style="stroke:#000000;stroke-width:0.5;" x="236.365865385" xlink:href="#m49e4bfb0c9" y="313.7555"/>
      </g>
     </g>
     <g id="line2d_8">
      <g>
       <use style="stroke:#000000;stroke-width:0.5;" x="236.365865385" xlink:href="#m4e739a84a0" y="34.7555"/>
      </g>
     </g>
     <g id="text_4">
      <text style="font-family:Bitstream Vera Sans;font-size:10.0px;font-style:normal;font-weight:400;" transform="translate(219.050035653 361.662411694)rotate(-45.0)">32.5 - 32.9</text>
     </g>
    </g>
    <g id="xtick_5">
     <g id="line2d_9">
      <g>
       <use style="stroke:#000000;stroke-width:0.5;" x="293.596634615" xlink:href="#m49e4bfb0c9" y="313.7555"/>
      </g>
     </g>
     <g id="line2d_10">
      <g>
       <use style="stroke:#000000;stroke-width:0.5;" x="293.596634615" xlink:href="#m4e739a84a0" y="34.7555"/>
      </g>
     </g>
     <g id="text_5">
      <text style="font-family:Bitstream Vera Sans;font-size:10.0px;font-style:normal;font-weight:400;" transform="translate(276.280804884 361.662411694)rotate(-45.0)">33.0 - 33.4</text>
     </g>
    </g>
    <g id="xtick_6">
     <g id="line2d_11">
      <g>
       <use style="stroke:#000000;stroke-width:0.5;" x="350.827403846" xlink:href="#m49e4bfb0c9" y="313.7555"/>
      </g>
     </g>
     <g id="line2d_12">
      <g>
       <use style="stroke:#000000;stroke-width:0.5;" x="350.827403846" xlink:href="#m4e739a84a0" y="34.7555"/>
      </g>
     </g>
     <g id="text_6">
      <text style="font-family:Bitstream Vera Sans;font-size:10.0px;font-style:normal;font-weight:400;" transform="translate(333.511574115 361.662411694)rotate(-45.0)">33.5 - 33.9</text>
     </g>
    </g>
    <g id="xtick_7">
     <g id="line2d_13">
      <g>
       <use style="stroke:#000000;stroke-width:0.5;" x="408.058173077" xlink:href="#m49e4bfb0c9" y="313.7555"/>
      </g>
     </g>
     <g id="line2d_14">
      <g>
       <use style="stroke:#000000;stroke-width:0.5;" x="408.058173077" xlink:href="#m4e739a84a0" y="34.7555"/>
      </g>
     </g>
     <g id="text_7">
      <text style="font-family:Bitstream Vera Sans;font-size:10.0px;font-style:normal;font-weight:400;" transform="translate(390.742343345 361.662411694)rotate(-45.0)">34.0 - 34.4</text>
     </g>
    </g>
    <g id="xtick_8">
     <g id="line2d_15">
      <g>
       <use style="stroke:#000000;stroke-width:0.5;" x="465.288942308" xlink:href="#m49e4bfb0c9" y="313.7555"/>
      </g>
     </g>
     <g id="line2d_16">
      <g>
       <use style="stroke:#000000;stroke-width:0.5;" x="465.288942308" xlink:href="#m4e739a84a0" y="34.7555"/>
      </g>
     </g>
     <g id="text_8">
      <text style="font-family:Bitstream Vera Sans;font-size:10.0px;font-style:normal;font-weight:400;" transform="translate(447.973112576 361.662411694)rotate(-45.0)">34.5 - 34.9</text>
     </g>
    </g>
    <g id="text_9">
     <!-- ANL Temperature ($^o$F) -->
     <g transform="translate(210.18125 375.732972828)">
      <text>
       <tspan style="font-family:cmmi10;font-size:7.0px;font-style:regular;font-weight:regular;" x="95.861453125" y="-4.23265625">o</tspan>
       <tspan style="font-family:Bitstream Vera Sans;font-size:10.0px;font-style:roman;font-weight:roman;" x="0.0 6.8408203125 14.3212890625 19.892578125 23.0712890625 29.1796875 35.33203125 45.0732421875 51.4208984375 57.5732421875 61.6845703125 67.8125 71.7333984375 78.0712890625 82.1826171875 88.3349609375 91.513671875 99.8863945313 105.638347656" y="-0.40625">ANL Temperature (F)</tspan>
      </text>
     </g>
    </g>
   </g>
   <g id="matplotlib.axis_2">
    <g id="ytick_1">
     <g id="line2d_17">
      <defs>
       <path d="M 0 0 
L 4 0 
" id="m4efe4d64ce" style="stroke:#000000;stroke-width:0.5;"/>
      </defs>
      <g>
       <use style="stroke:#000000;stroke-width:0.5;" x="41.78125" xlink:href="#m4efe4d64ce" y="313.7555"/>
      </g>
     </g>
     <g id="line2d_18">
      <defs>
       <path d="M 0 0 
L -4 0 
" id="m591b1110b1" style="stroke:#000000;stroke-width:0.5;"/>
      </defs>
      <g>
       <use style="stroke:#000000;stroke-width:0.5;" x="488.18125" xlink:href="#m591b1110b1" y="313.7555"/>
      </g>
     </g>
     <g id="text_10">
      <text style="font-family:Bitstream Vera Sans;font-size:10.0px;font-style:normal;font-weight:400;text-anchor:end;" transform="rotate(-0.000000, 37.781250, 316.514875)" x="37.78125" y="316.514875">0.0</text>
     </g>
    </g>
    <g id="ytick_2">
     <g id="line2d_19">
      <g>
       <use style="stroke:#000000;stroke-width:0.5;" x="41.78125" xlink:href="#m4efe4d64ce" y="257.9555"/>
      </g>
     </g>
     <g id="line2d_20">
      <g>
       <use style="stroke:#000000;stroke-width:0.5;" x="488.18125" xlink:href="#m591b1110b1" y="257.9555"/>
      </g>
     </g>
     <g id="text_11">
      <text style="font-family:Bitstream Vera Sans;font-size:10.0px;font-style:normal;font-weight:400;text-anchor:end;" transform="rotate(-0.000000, 37.781250, 260.714875)" x="37.78125" y="260.714875">0.5</text>
     </g>
    </g>
    <g id="ytick_3">
     <g id="line2d_21">
      <g>
       <use style="stroke:#000000;stroke-width:0.5;" x="41.78125" xlink:href="#m4efe4d64ce" y="202.1555"/>
      </g>
     </g>
     <g id="line2d_22">
      <g>
       <use style="stroke:#000000;stroke-width:0.5;" x="488.18125" xlink:href="#m591b1110b1" y="202.1555"/>
      </g>
     </g>
     <g id="text_12">
      <text style="font-family:Bitstream Vera Sans;font-size:10.0px;font-style:normal;font-weight:400;text-anchor:end;" transform="rotate(-0.000000, 37.781250, 204.914875)" x="37.78125" y="204.914875">1.0</text>
     </g>
    </g>
    <g id="ytick_4">
     <g id="line2d_23">
      <g>
       <use style="stroke:#000000;stroke-width:0.5;" x="41.78125" xlink:href="#m4efe4d64ce" y="146.3555"/>
      </g>
     </g>
     <g id="line2d_24">
      <g>
       <use style="stroke:#000000;stroke-width:0.5;" x="488.18125" xlink:href="#m591b1110b1" y="146.3555"/>
      </g>
     </g>
     <g id="text_13">
      <text style="font-family:Bitstream Vera Sans;font-size:10.0px;font-style:normal;font-weight:400;text-anchor:end;" transform="rotate(-0.000000, 37.781250, 149.114875)" x="37.78125" y="149.114875">1.5</text>
     </g>
    </g>
    <g id="ytick_5">
     <g id="line2d_25">
      <g>
       <use style="stroke:#000000;stroke-width:0.5;" x="41.78125" xlink:href="#m4efe4d64ce" y="90.5555"/>
      </g>
     </g>
     <g id="line2d_26">
      <g>
       <use style="stroke:#000000;stroke-width:0.5;" x="488.18125" xlink:href="#m591b1110b1" y="90.5555"/>
      </g>
     </g>
     <g id="text_14">
      <text style="font-family:Bitstream Vera Sans;font-size:10.0px;font-style:normal;font-weight:400;text-anchor:end;" transform="rotate(-0.000000, 37.781250, 93.314875)" x="37.78125" y="93.314875">2.0</text>
     </g>
    </g>
    <g id="ytick_6">
     <g id="line2d_27">
      <g>
       <use style="stroke:#000000;stroke-width:0.5;" x="41.78125" xlink:href="#m4efe4d64ce" y="34.7555"/>
      </g>
     </g>
     <g id="line2d_28">
      <g>
       <use style="stroke:#000000;stroke-width:0.5;" x="488.18125" xlink:href="#m591b1110b1" y="34.7555"/>
      </g>
     </g>
     <g id="text_15">
      <text style="font-family:Bitstream Vera Sans;font-size:10.0px;font-style:normal;font-weight:400;text-anchor:end;" transform="rotate(-0.000000, 37.781250, 37.514875)" x="37.78125" y="37.514875">2.5</text>
     </g>
    </g>
    <g id="text_16">
     <text style="font-family:Bitstream Vera Sans;font-size:10.0px;font-style:normal;font-weight:400;text-anchor:middle;" transform="rotate(-90.000000, 14.798438, 174.255500)" x="14.7984375" y="174.2555">Precipitation Depth (inches)</text>
    </g>
   </g>
   <g id="text_17">
    <g id="patch_39">
     <path d="M 131.06125 72.179031 
L 323.172812 72.179031 
Q 326.472813 72.179031 326.472813 68.879031 
L 326.472813 45.9155 
Q 326.472813 42.6155 323.172812 42.6155 
L 131.06125 42.6155 
Q 127.76125 42.6155 127.76125 45.9155 
L 127.76125 68.879031 
Q 127.76125 72.179031 131.06125 72.179031 
z
" style="fill:#cccccc;opacity:0.5;stroke:#000000;stroke-linejoin:miter;"/>
    </g>
    <text style="font-family:Bitstream Vera Sans;font-size:11.0px;font-style:normal;font-weight:400;" transform="translate(131.06125 54.27378125)">HSPF Rain/Snow Depth Ratio: 0.75</text>
    <text style="font-family:Bitstream Vera Sans;font-size:11.0px;font-style:normal;font-weight:400;" transform="translate(131.06125 66.591375)">ASOS Rain/Snow Depth Ratio: 1.47</text>
   </g>
   <g id="text_18">
    <!-- Palwaukee (KPWK): TSNOW=32.5$^o$F -->
    <g transform="translate(157.64125 16.318125)">
     <text>
      <tspan style="font-family:cmmi10;font-size:8.4px;font-style:regular;font-weight:regular;" x="202.83061875" y="-5.4666875">o</tspan>
      <tspan style="font-family:Bitstream Vera Sans;font-size:12.0px;font-style:roman;font-weight:roman;" x="0.0 7.236328125 14.58984375 17.923828125 27.73828125 35.091796875 42.697265625 49.646484375 57.029296875 64.412109375 68.2265625 72.908203125 80.77734375 88.013671875 99.87890625 107.748046875 112.4296875 116.47265625 120.287109375 127.6171875 135.234375 144.2109375 153.65625 165.521484375 175.576171875 183.2109375 190.845703125 194.66015625 207.660548438" y="-0.875">Palwaukee (KPWK): TSNOW=32.5F</tspan>
     </text>
    </g>
    <text style="font-family:Bitstream Vera Sans;font-size:12.0px;font-style:normal;font-weight:400;" transform="translate(201.2903125 29.7555)">1/1/2006 - 9/30/2013</text>
   </g>
   <g id="legend_1">
    <g id="patch_40">
     <path d="M 369.896875 114.8105 
L 482.18125 114.8105 
L 482.18125 40.7555 
L 369.896875 40.7555 
z
" style="fill:#ffffff;stroke:#000000;stroke-linejoin:miter;"/>
    </g>
    <g id="patch_41">
     <path d="M 374.696875 54.673625 
L 398.696875 54.673625 
L 398.696875 46.273625 
L 374.696875 46.273625 
z
" style="fill:url(#h1599c8a3ec);opacity:0.35;stroke:#000000;stroke-linejoin:miter;"/>
    </g>
    <g id="text_19">
     <text style="font-family:Bitstream Vera Sans;font-size:12.0px;font-style:normal;font-weight:400;text-anchor:start;" transform="rotate(-0.000000, 408.296875, 54.673625)" x="408.296875" y="54.673625">HSPF Snow</text>
    </g>
    <g id="patch_42">
     <path d="M 374.696875 72.287375 
L 398.696875 72.287375 
L 398.696875 63.887375 
L 374.696875 63.887375 
z
" style="fill:#0000ff;stroke:#000000;stroke-linejoin:miter;"/>
    </g>
    <g id="text_20">
     <text style="font-family:Bitstream Vera Sans;font-size:12.0px;font-style:normal;font-weight:400;text-anchor:start;" transform="rotate(-0.000000, 408.296875, 72.287375)" x="408.296875" y="72.287375">ASOS Snow</text>
    </g>
    <g id="patch_43">
     <path d="M 374.696875 89.901125 
L 398.696875 89.901125 
L 398.696875 81.501125 
L 374.696875 81.501125 
z
" style="fill:url(#h9bc52f3228);opacity:0.35;stroke:#000000;stroke-linejoin:miter;"/>
    </g>
    <g id="text_21">
     <text style="font-family:Bitstream Vera Sans;font-size:12.0px;font-style:normal;font-weight:400;text-anchor:start;" transform="rotate(-0.000000, 408.296875, 89.901125)" x="408.296875" y="89.901125">HSPF Rain</text>
    </g>
    <g id="patch_44">
     <path d="M 374.696875 107.514875 
L 398.696875 107.514875 
L 398.696875 99.114875 
L 374.696875 99.114875 
z
" style="fill:#ff0000;stroke:#000000;stroke-linejoin:miter;"/>
    </g>
    <g id="text_22">
     <text style="font-family:Bitstream Vera Sans;font-size:12.0px;font-style:normal;font-weight:400;text-anchor:start;" transform="rotate(-0.000000, 408.296875, 107.514875)" x="408.296875" y="107.514875">ASOS Rain</text>
    </g>
   </g>
  </g>
 </g>
 <defs>
  <clipPath id="pc4e15d59bf">
   <rect height="279.0" width="446.4" x="41.78125" y="34.7555"/>
  </clipPath>
 </defs>
 <defs>
  <pattern height="72" id="h9bc52f3228" patternUnits="userSpaceOnUse" width="72" x="0" y="0">
   <rect fill="#ff0000" height="73" width="73" x="0" y="0"/>
   <path d="M -36 36 
L 36 -36 
M -30 42 
L 42 -30 
M -24 48 
L 48 -24 
M -18 54 
L 54 -18 
M -12 60 
L 60 -12 
M -6 66 
L 66 -6 
M 0 72 
L 72 0 
M 6 78 
L 78 6 
M 12 84 
L 84 12 
M 18 90 
L 90 18 
M 24 96 
L 96 24 
M 30 102 
L 102 30 
M 36 108 
L 108 36 
" style="fill:#000000;stroke:#000000;stroke-linecap:butt;stroke-linejoin:miter;stroke-width:1.0;"/>
  </pattern>
  <pattern height="72" id="h1599c8a3ec" patternUnits="userSpaceOnUse" width="72" x="0" y="0">
   <rect fill="#0000ff" height="73" width="73" x="0" y="0"/>
   <path d="M -36 36 
L 36 -36 
M -30 42 
L 42 -30 
M -24 48 
L 48 -24 
M -18 54 
L 54 -18 
M -12 60 
L 60 -12 
M -6 66 
L 66 -6 
M 0 72 
L 72 0 
M 6 78 
L 78 6 
M 12 84 
L 84 12 
M 18 90 
L 90 18 
M 24 96 
L 96 24 
M 30 102 
L 102 30 
M 36 108 
L 108 36 
" style="fill:#000000;stroke:#000000;stroke-linecap:butt;stroke-linejoin:miter;stroke-width:1.0;"/>
  </pattern>
 </defs>
</svg>
