<?xml version="1.0" encoding="utf-8" standalone="no"?>
<!DOCTYPE svg PUBLIC "-//W3C//DTD SVG 1.1//EN"
  "http://www.w3.org/Graphics/SVG/1.1/DTD/svg11.dtd">
<!-- Created with matplotlib (http://matplotlib.org/) -->
<svg height="385pt" version="1.1" viewBox="0 0 498 385" width="498pt" xmlns="http://www.w3.org/2000/svg" xmlns:xlink="http://www.w3.org/1999/xlink">
 <defs>
  <style type="text/css">
*{stroke-linecap:butt;stroke-linejoin:round;stroke-miterlimit:100000;}
  </style>
 </defs>
 <g id="figure_1">
  <g id="patch_1">
   <path d="M 0 385.032973 
L 498.565625 385.032973 
L 498.565625 0 
L 0 0 
z
" style="fill:#ffffff;"/>
  </g>
  <g id="axes_1">
   <g id="patch_2">
    <path d="M 44.965625 313.7555 
L 491.365625 313.7555 
L 491.365625 34.7555 
L 44.965625 34.7555 
z
" style="fill:#ffffff;"/>
   </g>
   <g id="patch_3">
    <path clip-path="url(#p5b79e073d4)" d="M 44.965625 313.7555 
L 56.411779 313.7555 
L 56.411779 197.5055 
L 44.965625 197.5055 
z
" style="fill:url(#hf6c545d40d);opacity:0.35;stroke:#000000;stroke-linejoin:miter;"/>
   </g>
   <g id="patch_4">
    <path clip-path="url(#p5b79e073d4)" d="M 56.411779 313.7555 
L 67.857933 313.7555 
L 67.857933 216.1055 
L 56.411779 216.1055 
z
" style="fill:#0000ff;stroke:#000000;stroke-linejoin:miter;"/>
   </g>
   <g id="patch_5">
    <path clip-path="url(#p5b79e073d4)" d="M 102.196394 313.7555 
L 113.642548 313.7555 
L 113.642548 71.9555 
L 102.196394 71.9555 
z
" style="fill:url(#hf6c545d40d);opacity:0.35;stroke:#000000;stroke-linejoin:miter;"/>
   </g>
   <g id="patch_6">
    <path clip-path="url(#p5b79e073d4)" d="M 113.642548 313.7555 
L 125.088702 313.7555 
L 125.088702 127.7555 
L 113.642548 127.7555 
z
" style="fill:#0000ff;stroke:#000000;stroke-linejoin:miter;"/>
   </g>
   <g id="patch_7">
    <path clip-path="url(#p5b79e073d4)" d="M 159.427163 313.7555 
L 170.873317 313.7555 
L 170.873317 130.0805 
L 159.427163 130.0805 
z
" style="fill:url(#hf6c545d40d);opacity:0.35;stroke:#000000;stroke-linejoin:miter;"/>
   </g>
   <g id="patch_8">
    <path clip-path="url(#p5b79e073d4)" d="M 170.873317 313.7555 
L 182.319471 313.7555 
L 182.319471 204.4805 
L 170.873317 204.4805 
z
" style="fill:#0000ff;stroke:#000000;stroke-linejoin:miter;"/>
   </g>
   <g id="patch_9">
    <path clip-path="url(#p5b79e073d4)" d="M 216.657933 313.7555 
L 228.104087 313.7555 
L 228.104087 232.3805 
L 216.657933 232.3805 
z
" style="fill:url(#hf6c545d40d);opacity:0.35;stroke:#000000;stroke-linejoin:miter;"/>
   </g>
   <g id="patch_10">
    <path clip-path="url(#p5b79e073d4)" d="M 228.104087 313.7555 
L 239.55024 313.7555 
L 239.55024 239.3555 
L 228.104087 239.3555 
z
" style="fill:#0000ff;stroke:#000000;stroke-linejoin:miter;"/>
   </g>
   <g id="patch_11">
    <path clip-path="url(#p5b79e073d4)" d="M 273.888702 313.7555 
L 285.334856 313.7555 
L 285.334856 264.9305 
L 273.888702 264.9305 
z
" style="fill:url(#hf6c545d40d);opacity:0.35;stroke:#000000;stroke-linejoin:miter;"/>
   </g>
   <g id="patch_12">
    <path clip-path="url(#p5b79e073d4)" d="M 285.334856 313.7555 
L 296.78101 313.7555 
L 296.78101 232.3805 
L 285.334856 232.3805 
z
" style="fill:#0000ff;stroke:#000000;stroke-linejoin:miter;"/>
   </g>
   <g id="patch_13">
    <path clip-path="url(#p5b79e073d4)" d="M 331.119471 313.7555 
L 342.565625 313.7555 
L 342.565625 313.7555 
L 331.119471 313.7555 
z
" style="fill:url(#hf6c545d40d);opacity:0.35;stroke:#000000;stroke-linejoin:miter;"/>
   </g>
   <g id="patch_14">
    <path clip-path="url(#p5b79e073d4)" d="M 342.565625 313.7555 
L 354.011779 313.7555 
L 354.011779 292.8305 
L 342.565625 292.8305 
z
" style="fill:#0000ff;stroke:#000000;stroke-linejoin:miter;"/>
   </g>
   <g id="patch_15">
    <path clip-path="url(#p5b79e073d4)" d="M 388.35024 313.7555 
L 399.796394 313.7555 
L 399.796394 313.7555 
L 388.35024 313.7555 
z
" style="fill:url(#hf6c545d40d);opacity:0.35;stroke:#000000;stroke-linejoin:miter;"/>
   </g>
   <g id="patch_16">
    <path clip-path="url(#p5b79e073d4)" d="M 399.796394 313.7555 
L 411.242548 313.7555 
L 411.242548 285.8555 
L 399.796394 285.8555 
z
" style="fill:#0000ff;stroke:#000000;stroke-linejoin:miter;"/>
   </g>
   <g id="patch_17">
    <path clip-path="url(#p5b79e073d4)" d="M 445.58101 313.7555 
L 457.027163 313.7555 
L 457.027163 313.7555 
L 445.58101 313.7555 
z
" style="fill:url(#hf6c545d40d);opacity:0.35;stroke:#000000;stroke-linejoin:miter;"/>
   </g>
   <g id="patch_18">
    <path clip-path="url(#p5b79e073d4)" d="M 457.027163 313.7555 
L 468.473317 313.7555 
L 468.473317 299.8055 
L 457.027163 299.8055 
z
" style="fill:#0000ff;stroke:#000000;stroke-linejoin:miter;"/>
   </g>
   <g id="patch_19">
    <path clip-path="url(#p5b79e073d4)" d="M 67.857933 313.7555 
L 79.304087 313.7555 
L 79.304087 313.7555 
L 67.857933 313.7555 
z
" style="fill:url(#h883896e7c9);opacity:0.35;stroke:#000000;stroke-linejoin:miter;"/>
   </g>
   <g id="patch_20">
    <path clip-path="url(#p5b79e073d4)" d="M 79.304087 313.7555 
L 90.75024 313.7555 
L 90.75024 295.1555 
L 79.304087 295.1555 
z
" style="fill:#ff0000;stroke:#000000;stroke-linejoin:miter;"/>
   </g>
   <g id="patch_21">
    <path clip-path="url(#p5b79e073d4)" d="M 125.088702 313.7555 
L 136.534856 313.7555 
L 136.534856 313.7555 
L 125.088702 313.7555 
z
" style="fill:url(#h883896e7c9);opacity:0.35;stroke:#000000;stroke-linejoin:miter;"/>
   </g>
   <g id="patch_22">
    <path clip-path="url(#p5b79e073d4)" d="M 136.534856 313.7555 
L 147.98101 313.7555 
L 147.98101 257.9555 
L 136.534856 257.9555 
z
" style="fill:#ff0000;stroke:#000000;stroke-linejoin:miter;"/>
   </g>
   <g id="patch_23">
    <path clip-path="url(#p5b79e073d4)" d="M 182.319471 313.7555 
L 193.765625 313.7555 
L 193.765625 313.7555 
L 182.319471 313.7555 
z
" style="fill:url(#h883896e7c9);opacity:0.35;stroke:#000000;stroke-linejoin:miter;"/>
   </g>
   <g id="patch_24">
    <path clip-path="url(#p5b79e073d4)" d="M 193.765625 313.7555 
L 205.211779 313.7555 
L 205.211779 239.3555 
L 193.765625 239.3555 
z
" style="fill:#ff0000;stroke:#000000;stroke-linejoin:miter;"/>
   </g>
   <g id="patch_25">
    <path clip-path="url(#p5b79e073d4)" d="M 239.55024 313.7555 
L 250.996394 313.7555 
L 250.996394 234.7055 
L 239.55024 234.7055 
z
" style="fill:url(#h883896e7c9);opacity:0.35;stroke:#000000;stroke-linejoin:miter;"/>
   </g>
   <g id="patch_26">
    <path clip-path="url(#p5b79e073d4)" d="M 250.996394 313.7555 
L 262.442548 313.7555 
L 262.442548 227.7305 
L 250.996394 227.7305 
z
" style="fill:#ff0000;stroke:#000000;stroke-linejoin:miter;"/>
   </g>
   <g id="patch_27">
    <path clip-path="url(#p5b79e073d4)" d="M 296.78101 313.7555 
L 308.227163 313.7555 
L 308.227163 216.1055 
L 296.78101 216.1055 
z
" style="fill:url(#h883896e7c9);opacity:0.35;stroke:#000000;stroke-linejoin:miter;"/>
   </g>
   <g id="patch_28">
    <path clip-path="url(#p5b79e073d4)" d="M 308.227163 313.7555 
L 319.673317 313.7555 
L 319.673317 248.6555 
L 308.227163 248.6555 
z
" style="fill:#ff0000;stroke:#000000;stroke-linejoin:miter;"/>
   </g>
   <g id="patch_29">
    <path clip-path="url(#p5b79e073d4)" d="M 354.011779 313.7555 
L 365.457933 313.7555 
L 365.457933 239.3555 
L 354.011779 239.3555 
z
" style="fill:url(#h883896e7c9);opacity:0.35;stroke:#000000;stroke-linejoin:miter;"/>
   </g>
   <g id="patch_30">
    <path clip-path="url(#p5b79e073d4)" d="M 365.457933 313.7555 
L 376.904087 313.7555 
L 376.904087 260.2805 
L 365.457933 260.2805 
z
" style="fill:#ff0000;stroke:#000000;stroke-linejoin:miter;"/>
   </g>
   <g id="patch_31">
    <path clip-path="url(#p5b79e073d4)" d="M 411.242548 313.7555 
L 422.688702 313.7555 
L 422.688702 232.3805 
L 411.242548 232.3805 
z
" style="fill:url(#h883896e7c9);opacity:0.35;stroke:#000000;stroke-linejoin:miter;"/>
   </g>
   <g id="patch_32">
    <path clip-path="url(#p5b79e073d4)" d="M 422.688702 313.7555 
L 434.134856 313.7555 
L 434.134856 260.2805 
L 422.688702 260.2805 
z
" style="fill:#ff0000;stroke:#000000;stroke-linejoin:miter;"/>
   </g>
   <g id="patch_33">
    <path clip-path="url(#p5b79e073d4)" d="M 468.473317 313.7555 
L 479.919471 313.7555 
L 479.919471 239.3555 
L 468.473317 239.3555 
z
" style="fill:url(#h883896e7c9);opacity:0.35;stroke:#000000;stroke-linejoin:miter;"/>
   </g>
   <g id="patch_34">
    <path clip-path="url(#p5b79e073d4)" d="M 479.919471 313.7555 
L 491.365625 313.7555 
L 491.365625 253.3055 
L 479.919471 253.3055 
z
" style="fill:#ff0000;stroke:#000000;stroke-linejoin:miter;"/>
   </g>
   <g id="patch_35">
    <path d="M 44.965625 34.7555 
L 491.365625 34.7555 
" style="fill:none;stroke:#000000;stroke-linecap:square;stroke-linejoin:miter;"/>
   </g>
   <g id="patch_36">
    <path d="M 491.365625 313.7555 
L 491.365625 34.7555 
" style="fill:none;stroke:#000000;stroke-linecap:square;stroke-linejoin:miter;"/>
   </g>
   <g id="patch_37">
    <path d="M 44.965625 313.7555 
L 491.365625 313.7555 
" style="fill:none;stroke:#000000;stroke-linecap:square;stroke-linejoin:miter;"/>
   </g>
   <g id="patch_38">
    <path d="M 44.965625 313.7555 
L 44.965625 34.7555 
" style="fill:none;stroke:#000000;stroke-linecap:square;stroke-linejoin:miter;"/>
   </g>
   <g id="matplotlib.axis_1">
    <g id="xtick_1">
     <g id="line2d_1">
      <defs>
       <path d="M 0 0 
L 0 -4 
" id="m42f27c7252" style="stroke:#000000;stroke-width:0.5;"/>
      </defs>
      <g>
       <use style="stroke:#000000;stroke-width:0.5;" x="67.8579326923" xlink:href="#m42f27c7252" y="313.7555"/>
      </g>
     </g>
     <g id="line2d_2">
      <defs>
       <path d="M 0 0 
L 0 4 
" id="mc1e5b5a3a7" style="stroke:#000000;stroke-width:0.5;"/>
      </defs>
      <g>
       <use style="stroke:#000000;stroke-width:0.5;" x="67.8579326923" xlink:href="#mc1e5b5a3a7" y="34.7555"/>
      </g>
     </g>
     <g id="text_1">
      <text style="font-family:Bitstream Vera Sans;font-size:10.0px;font-style:normal;font-weight:400;" transform="translate(50.5421029608 361.662411694)rotate(-45.0)">31.0 - 31.4</text>
     </g>
    </g>
    <g id="xtick_2">
     <g id="line2d_3">
      <g>
       <use style="stroke:#000000;stroke-width:0.5;" x="125.088701923" xlink:href="#m42f27c7252" y="313.7555"/>
      </g>
     </g>
     <g id="line2d_4">
      <g>
       <use style="stroke:#000000;stroke-width:0.5;" x="125.088701923" xlink:href="#mc1e5b5a3a7" y="34.7555"/>
      </g>
     </g>
     <g id="text_2">
      <text style="font-family:Bitstream Vera Sans;font-size:10.0px;font-style:normal;font-weight:400;" transform="translate(107.772872192 361.662411694)rotate(-45.0)">31.5 - 31.9</text>
     </g>
    </g>
    <g id="xtick_3">
     <g id="line2d_5">
      <g>
       <use style="stroke:#000000;stroke-width:0.5;" x="182.319471154" xlink:href="#m42f27c7252" y="313.7555"/>
      </g>
     </g>
     <g id="line2d_6">
      <g>
       <use style="stroke:#000000;stroke-width:0.5;" x="182.319471154" xlink:href="#mc1e5b5a3a7" y="34.7555"/>
      </g>
     </g>
     <g id="text_3">
      <text style="font-family:Bitstream Vera Sans;font-size:10.0px;font-style:normal;font-weight:400;" transform="translate(165.003641422 361.662411694)rotate(-45.0)">32.0 - 32.4</text>
     </g>
    </g>
    <g id="xtick_4">
     <g id="line2d_7">
      <g>
       <use style="stroke:#000000;stroke-width:0.5;" x="239.550240385" xlink:href="#m42f27c7252" y="313.7555"/>
      </g>
     </g>
     <g id="line2d_8">
      <g>
       <use style="stroke:#000000;stroke-width:0.5;" x="239.550240385" xlink:href="#mc1e5b5a3a7" y="34.7555"/>
      </g>
     </g>
     <g id="text_4">
      <text style="font-family:Bitstream Vera Sans;font-size:10.0px;font-style:normal;font-weight:400;" transform="translate(222.234410653 361.662411694)rotate(-45.0)">32.5 - 32.9</text>
     </g>
    </g>
    <g id="xtick_5">
     <g id="line2d_9">
      <g>
       <use style="stroke:#000000;stroke-width:0.5;" x="296.781009615" xlink:href="#m42f27c7252" y="313.7555"/>
      </g>
     </g>
     <g id="line2d_10">
      <g>
       <use style="stroke:#000000;stroke-width:0.5;" x="296.781009615" xlink:href="#mc1e5b5a3a7" y="34.7555"/>
      </g>
     </g>
     <g id="text_5">
      <text style="font-family:Bitstream Vera Sans;font-size:10.0px;font-style:normal;font-weight:400;" transform="translate(279.465179884 361.662411694)rotate(-45.0)">33.0 - 33.4</text>
     </g>
    </g>
    <g id="xtick_6">
     <g id="line2d_11">
      <g>
       <use style="stroke:#000000;stroke-width:0.5;" x="354.011778846" xlink:href="#m42f27c7252" y="313.7555"/>
      </g>
     </g>
     <g id="line2d_12">
      <g>
       <use style="stroke:#000000;stroke-width:0.5;" x="354.011778846" xlink:href="#mc1e5b5a3a7" y="34.7555"/>
      </g>
     </g>
     <g id="text_6">
      <text style="font-family:Bitstream Vera Sans;font-size:10.0px;font-style:normal;font-weight:400;" transform="translate(336.695949115 361.662411694)rotate(-45.0)">33.5 - 33.9</text>
     </g>
    </g>
    <g id="xtick_7">
     <g id="line2d_13">
      <g>
       <use style="stroke:#000000;stroke-width:0.5;" x="411.242548077" xlink:href="#m42f27c7252" y="313.7555"/>
      </g>
     </g>
     <g id="line2d_14">
      <g>
       <use style="stroke:#000000;stroke-width:0.5;" x="411.242548077" xlink:href="#mc1e5b5a3a7" y="34.7555"/>
      </g>
     </g>
     <g id="text_7">
      <text style="font-family:Bitstream Vera Sans;font-size:10.0px;font-style:normal;font-weight:400;" transform="translate(393.926718345 361.662411694)rotate(-45.0)">34.0 - 34.4</text>
     </g>
    </g>
    <g id="xtick_8">
     <g id="line2d_15">
      <g>
       <use style="stroke:#000000;stroke-width:0.5;" x="468.473317308" xlink:href="#m42f27c7252" y="313.7555"/>
      </g>
     </g>
     <g id="line2d_16">
      <g>
       <use style="stroke:#000000;stroke-width:0.5;" x="468.473317308" xlink:href="#mc1e5b5a3a7" y="34.7555"/>
      </g>
     </g>
     <g id="text_8">
      <text style="font-family:Bitstream Vera Sans;font-size:10.0px;font-style:normal;font-weight:400;" transform="translate(451.157487576 361.662411694)rotate(-45.0)">34.5 - 34.9</text>
     </g>
    </g>
    <g id="text_9">
     <!-- ANL Temperature ($^o$F) -->
     <g transform="translate(213.365625 375.732972828)">
      <text>
       <tspan style="font-family:cmmi10;font-size:7.0px;font-style:regular;font-weight:regular;" x="95.861453125" y="-4.23265625">o</tspan>
       <tspan style="font-family:Bitstream Vera Sans;font-size:10.0px;font-style:roman;font-weight:roman;" x="0.0 6.8408203125 14.3212890625 19.892578125 23.0712890625 29.1796875 35.33203125 45.0732421875 51.4208984375 57.5732421875 61.6845703125 67.8125 71.7333984375 78.0712890625 82.1826171875 88.3349609375 91.513671875 99.8863945313 105.638347656" y="-0.40625">ANL Temperature (F)</tspan>
      </text>
     </g>
    </g>
   </g>
   <g id="matplotlib.axis_2">
    <g id="ytick_1">
     <g id="line2d_17">
      <defs>
       <path d="M 0 0 
L 4 0 
" id="m880cb8fd68" style="stroke:#000000;stroke-width:0.5;"/>
      </defs>
      <g>
       <use style="stroke:#000000;stroke-width:0.5;" x="44.965625" xlink:href="#m880cb8fd68" y="313.7555"/>
      </g>
     </g>
     <g id="line2d_18">
      <defs>
       <path d="M 0 0 
L -4 0 
" id="m6e409a8b8d" style="stroke:#000000;stroke-width:0.5;"/>
      </defs>
      <g>
       <use style="stroke:#000000;stroke-width:0.5;" x="491.365625" xlink:href="#m6e409a8b8d" y="313.7555"/>
      </g>
     </g>
     <g id="text_10">
      <text style="font-family:Bitstream Vera Sans;font-size:10.0px;font-style:normal;font-weight:400;text-anchor:end;" transform="rotate(-0.000000, 40.965625, 316.514875)" x="40.965625" y="316.514875">0</text>
     </g>
    </g>
    <g id="ytick_2">
     <g id="line2d_19">
      <g>
       <use style="stroke:#000000;stroke-width:0.5;" x="44.965625" xlink:href="#m880cb8fd68" y="267.2555"/>
      </g>
     </g>
     <g id="line2d_20">
      <g>
       <use style="stroke:#000000;stroke-width:0.5;" x="491.365625" xlink:href="#m6e409a8b8d" y="267.2555"/>
      </g>
     </g>
     <g id="text_11">
      <text style="font-family:Bitstream Vera Sans;font-size:10.0px;font-style:normal;font-weight:400;text-anchor:end;" transform="rotate(-0.000000, 40.965625, 270.014875)" x="40.965625" y="270.014875">20</text>
     </g>
    </g>
    <g id="ytick_3">
     <g id="line2d_21">
      <g>
       <use style="stroke:#000000;stroke-width:0.5;" x="44.965625" xlink:href="#m880cb8fd68" y="220.7555"/>
      </g>
     </g>
     <g id="line2d_22">
      <g>
       <use style="stroke:#000000;stroke-width:0.5;" x="491.365625" xlink:href="#m6e409a8b8d" y="220.7555"/>
      </g>
     </g>
     <g id="text_12">
      <text style="font-family:Bitstream Vera Sans;font-size:10.0px;font-style:normal;font-weight:400;text-anchor:end;" transform="rotate(-0.000000, 40.965625, 223.514875)" x="40.965625" y="223.514875">40</text>
     </g>
    </g>
    <g id="ytick_4">
     <g id="line2d_23">
      <g>
       <use style="stroke:#000000;stroke-width:0.5;" x="44.965625" xlink:href="#m880cb8fd68" y="174.2555"/>
      </g>
     </g>
     <g id="line2d_24">
      <g>
       <use style="stroke:#000000;stroke-width:0.5;" x="491.365625" xlink:href="#m6e409a8b8d" y="174.2555"/>
      </g>
     </g>
     <g id="text_13">
      <text style="font-family:Bitstream Vera Sans;font-size:10.0px;font-style:normal;font-weight:400;text-anchor:end;" transform="rotate(-0.000000, 40.965625, 177.014875)" x="40.965625" y="177.014875">60</text>
     </g>
    </g>
    <g id="ytick_5">
     <g id="line2d_25">
      <g>
       <use style="stroke:#000000;stroke-width:0.5;" x="44.965625" xlink:href="#m880cb8fd68" y="127.7555"/>
      </g>
     </g>
     <g id="line2d_26">
      <g>
       <use style="stroke:#000000;stroke-width:0.5;" x="491.365625" xlink:href="#m6e409a8b8d" y="127.7555"/>
      </g>
     </g>
     <g id="text_14">
      <text style="font-family:Bitstream Vera Sans;font-size:10.0px;font-style:normal;font-weight:400;text-anchor:end;" transform="rotate(-0.000000, 40.965625, 130.514875)" x="40.965625" y="130.514875">80</text>
     </g>
    </g>
    <g id="ytick_6">
     <g id="line2d_27">
      <g>
       <use style="stroke:#000000;stroke-width:0.5;" x="44.965625" xlink:href="#m880cb8fd68" y="81.2555"/>
      </g>
     </g>
     <g id="line2d_28">
      <g>
       <use style="stroke:#000000;stroke-width:0.5;" x="491.365625" xlink:href="#m6e409a8b8d" y="81.2555"/>
      </g>
     </g>
     <g id="text_15">
      <text style="font-family:Bitstream Vera Sans;font-size:10.0px;font-style:normal;font-weight:400;text-anchor:end;" transform="rotate(-0.000000, 40.965625, 84.014875)" x="40.965625" y="84.014875">100</text>
     </g>
    </g>
    <g id="ytick_7">
     <g id="line2d_29">
      <g>
       <use style="stroke:#000000;stroke-width:0.5;" x="44.965625" xlink:href="#m880cb8fd68" y="34.7555"/>
      </g>
     </g>
     <g id="line2d_30">
      <g>
       <use style="stroke:#000000;stroke-width:0.5;" x="491.365625" xlink:href="#m6e409a8b8d" y="34.7555"/>
      </g>
     </g>
     <g id="text_16">
      <text style="font-family:Bitstream Vera Sans;font-size:10.0px;font-style:normal;font-weight:400;text-anchor:end;" transform="rotate(-0.000000, 40.965625, 37.514875)" x="40.965625" y="37.514875">120</text>
     </g>
    </g>
    <g id="text_17">
     <text style="font-family:Bitstream Vera Sans;font-size:10.0px;font-style:normal;font-weight:400;text-anchor:middle;" transform="rotate(-90.000000, 14.798438, 174.255500)" x="14.7984375" y="174.2555">Number of ASOS and HSPF Rain-Snow Reports</text>
    </g>
   </g>
   <g id="text_18">
    <g id="patch_39">
     <path d="M 134.245625 72.179031 
L 329.805 72.179031 
Q 333.105 72.179031 333.105 68.879031 
L 333.105 45.9155 
Q 333.105 42.6155 329.805 42.6155 
L 134.245625 42.6155 
Q 130.945625 42.6155 130.945625 45.9155 
L 130.945625 68.879031 
Q 130.945625 72.179031 134.245625 72.179031 
z
" style="fill:#cccccc;opacity:0.5;stroke:#000000;stroke-linejoin:miter;"/>
    </g>
    <text style="font-family:Bitstream Vera Sans;font-size:11.0px;font-style:normal;font-weight:400;" transform="translate(134.245625 54.27378125)">HSPF Rain/Snow Report Ratio: 0.61</text>
    <text style="font-family:Bitstream Vera Sans;font-size:11.0px;font-style:normal;font-weight:400;" transform="translate(134.245625 66.591375)">ASOS Rain/Snow Report Ratio: 0.76</text>
   </g>
   <g id="text_19">
    <!-- Palwaukee (KPWK): TSNOW=32.5$^o$F -->
    <g transform="translate(160.825625 16.318125)">
     <text>
      <tspan style="font-family:cmmi10;font-size:8.4px;font-style:regular;font-weight:regular;" x="202.83061875" y="-5.4666875">o</tspan>
      <tspan style="font-family:Bitstream Vera Sans;font-size:12.0px;font-style:roman;font-weight:roman;" x="0.0 7.236328125 14.58984375 17.923828125 27.73828125 35.091796875 42.697265625 49.646484375 57.029296875 64.412109375 68.2265625 72.908203125 80.77734375 88.013671875 99.87890625 107.748046875 112.4296875 116.47265625 120.287109375 127.6171875 135.234375 144.2109375 153.65625 165.521484375 175.576171875 183.2109375 190.845703125 194.66015625 207.660548438" y="-0.875">Palwaukee (KPWK): TSNOW=32.5F</tspan>
     </text>
    </g>
    <text style="font-family:Bitstream Vera Sans;font-size:12.0px;font-style:normal;font-weight:400;" transform="translate(204.4746875 29.7555)">1/1/2006 - 9/30/2013</text>
   </g>
   <g id="legend_1">
    <g id="patch_40">
     <path d="M 373.08125 114.8105 
L 485.365625 114.8105 
L 485.365625 40.7555 
L 373.08125 40.7555 
z
" style="fill:#ffffff;stroke:#000000;stroke-linejoin:miter;"/>
    </g>
    <g id="patch_41">
     <path d="M 377.88125 54.673625 
L 401.88125 54.673625 
L 401.88125 46.273625 
L 377.88125 46.273625 
z
" style="fill:url(#hf6c545d40d);opacity:0.35;stroke:#000000;stroke-linejoin:miter;"/>
    </g>
    <g id="text_20">
     <text style="font-family:Bitstream Vera Sans;font-size:12.0px;font-style:normal;font-weight:400;text-anchor:start;" transform="rotate(-0.000000, 411.481250, 54.673625)" x="411.48125" y="54.673625">HSPF Snow</text>
    </g>
    <g id="patch_42">
     <path d="M 377.88125 72.287375 
L 401.88125 72.287375 
L 401.88125 63.887375 
L 377.88125 63.887375 
z
" style="fill:#0000ff;stroke:#000000;stroke-linejoin:miter;"/>
    </g>
    <g id="text_21">
     <text style="font-family:Bitstream Vera Sans;font-size:12.0px;font-style:normal;font-weight:400;text-anchor:start;" transform="rotate(-0.000000, 411.481250, 72.287375)" x="411.48125" y="72.287375">ASOS Snow</text>
    </g>
    <g id="patch_43">
     <path d="M 377.88125 89.901125 
L 401.88125 89.901125 
L 401.88125 81.501125 
L 377.88125 81.501125 
z
" style="fill:url(#h883896e7c9);opacity:0.35;stroke:#000000;stroke-linejoin:miter;"/>
    </g>
    <g id="text_22">
     <text style="font-family:Bitstream Vera Sans;font-size:12.0px;font-style:normal;font-weight:400;text-anchor:start;" transform="rotate(-0.000000, 411.481250, 89.901125)" x="411.48125" y="89.901125">HSPF Rain</text>
    </g>
    <g id="patch_44">
     <path d="M 377.88125 107.514875 
L 401.88125 107.514875 
L 401.88125 99.114875 
L 377.88125 99.114875 
z
" style="fill:#ff0000;stroke:#000000;stroke-linejoin:miter;"/>
    </g>
    <g id="text_23">
     <text style="font-family:Bitstream Vera Sans;font-size:12.0px;font-style:normal;font-weight:400;text-anchor:start;" transform="rotate(-0.000000, 411.481250, 107.514875)" x="411.48125" y="107.514875">ASOS Rain</text>
    </g>
   </g>
  </g>
 </g>
 <defs>
  <clipPath id="p5b79e073d4">
   <rect height="279.0" width="446.4" x="44.965625" y="34.7555"/>
  </clipPath>
 </defs>
 <defs>
  <pattern height="72" id="h883896e7c9" patternUnits="userSpaceOnUse" width="72" x="0" y="0">
   <rect fill="#ff0000" height="73" width="73" x="0" y="0"/>
   <path d="M -36 36 
L 36 -36 
M -30 42 
L 42 -30 
M -24 48 
L 48 -24 
M -18 54 
L 54 -18 
M -12 60 
L 60 -12 
M -6 66 
L 66 -6 
M 0 72 
L 72 0 
M 6 78 
L 78 6 
M 12 84 
L 84 12 
M 18 90 
L 90 18 
M 24 96 
L 96 24 
M 30 102 
L 102 30 
M 36 108 
L 108 36 
" style="fill:#000000;stroke:#000000;stroke-linecap:butt;stroke-linejoin:miter;stroke-width:1.0;"/>
  </pattern>
  <pattern height="72" id="hf6c545d40d" patternUnits="userSpaceOnUse" width="72" x="0" y="0">
   <rect fill="#0000ff" height="73" width="73" x="0" y="0"/>
   <path d="M -36 36 
L 36 -36 
M -30 42 
L 42 -30 
M -24 48 
L 48 -24 
M -18 54 
L 54 -18 
M -12 60 
L 60 -12 
M -6 66 
L 66 -6 
M 0 72 
L 72 0 
M 6 78 
L 78 6 
M 12 84 
L 84 12 
M 18 90 
L 90 18 
M 24 96 
L 96 24 
M 30 102 
L 102 30 
M 36 108 
L 108 36 
" style="fill:#000000;stroke:#000000;stroke-linecap:butt;stroke-linejoin:miter;stroke-width:1.0;"/>
  </pattern>
 </defs>
</svg>
