<?xml version="1.0" encoding="utf-8" standalone="no"?>
<!DOCTYPE svg PUBLIC "-//W3C//DTD SVG 1.1//EN"
  "http://www.w3.org/Graphics/SVG/1.1/DTD/svg11.dtd">
<!-- Created with matplotlib (http://matplotlib.org/) -->
<svg height="351pt" version="1.1" viewBox="0 0 380 351" width="380pt" xmlns="http://www.w3.org/2000/svg" xmlns:xlink="http://www.w3.org/1999/xlink">
 <defs>
  <style type="text/css">
*{stroke-linecap:butt;stroke-linejoin:round;stroke-miterlimit:100000;}
  </style>
 </defs>
 <g id="figure_1">
  <g id="patch_1">
   <path d="M 0 351.788187 
L 380.802927 351.788187 
L 380.802927 0 
L 0 0 
z
" style="fill:#ffffff;"/>
  </g>
  <g id="axes_1">
   <g id="patch_2">
    <path d="M 38.603125 271.392875 
L 373.403125 271.392875 
L 373.403125 48.192875 
L 38.603125 48.192875 
z
" style="fill:#ffffff;"/>
   </g>
   <g id="patch_3">
    <path clip-path="url(#p31b2816247)" d="M 301.49458 271.392875 
L 306.907051 271.392875 
L 306.907051 246.592875 
L 301.49458 246.592875 
z
" style="fill:#0000ff;stroke:#000000;stroke-linejoin:miter;"/>
   </g>
   <g id="patch_4">
    <path clip-path="url(#p31b2816247)" d="M 316.958783 271.392875 
L 322.371254 271.392875 
L 322.371254 231.712875 
L 316.958783 231.712875 
z
" style="fill:#0000ff;stroke:#000000;stroke-linejoin:miter;"/>
   </g>
   <g id="patch_5">
    <path clip-path="url(#p31b2816247)" d="M 208.709361 271.392875 
L 214.121832 271.392875 
L 214.121832 77.952875 
L 208.709361 77.952875 
z
" style="fill:#0000ff;stroke:#000000;stroke-linejoin:miter;"/>
   </g>
   <g id="patch_6">
    <path clip-path="url(#p31b2816247)" d="M 224.173564 271.392875 
L 229.586035 271.392875 
L 229.586035 159.792875 
L 224.173564 159.792875 
z
" style="fill:#0000ff;stroke:#000000;stroke-linejoin:miter;"/>
   </g>
   <g id="patch_7">
    <path clip-path="url(#p31b2816247)" d="M 177.780954 271.392875 
L 183.193425 271.392875 
L 183.193425 164.752875 
L 177.780954 164.752875 
z
" style="fill:#0000ff;stroke:#000000;stroke-linejoin:miter;"/>
   </g>
   <g id="patch_8">
    <path clip-path="url(#p31b2816247)" d="M 193.245157 271.392875 
L 198.657628 271.392875 
L 198.657628 137.472875 
L 193.245157 137.472875 
z
" style="fill:#0000ff;stroke:#000000;stroke-linejoin:miter;"/>
   </g>
   <g id="patch_9">
    <path clip-path="url(#p31b2816247)" d="M 270.566173 271.392875 
L 275.978645 271.392875 
L 275.978645 172.192875 
L 270.566173 172.192875 
z
" style="fill:#0000ff;stroke:#000000;stroke-linejoin:miter;"/>
   </g>
   <g id="patch_10">
    <path clip-path="url(#p31b2816247)" d="M 286.030377 271.392875 
L 291.442848 271.392875 
L 291.442848 177.152875 
L 286.030377 177.152875 
z
" style="fill:#0000ff;stroke:#000000;stroke-linejoin:miter;"/>
   </g>
   <g id="patch_11">
    <path clip-path="url(#p31b2816247)" d="M 239.637767 271.392875 
L 245.050238 271.392875 
L 245.050238 48.192875 
L 239.637767 48.192875 
z
" style="fill:#0000ff;stroke:#000000;stroke-linejoin:miter;"/>
   </g>
   <g id="patch_12">
    <path clip-path="url(#p31b2816247)" d="M 255.10197 271.392875 
L 260.514441 271.392875 
L 260.514441 80.432875 
L 255.10197 80.432875 
z
" style="fill:#0000ff;stroke:#000000;stroke-linejoin:miter;"/>
   </g>
   <g id="patch_13">
    <path clip-path="url(#p31b2816247)" d="M 363.351393 271.392875 
L 368.763864 271.392875 
L 368.763864 263.952875 
L 363.351393 263.952875 
z
" style="fill:#0000ff;stroke:#000000;stroke-linejoin:miter;"/>
   </g>
   <g id="patch_14">
    <path clip-path="url(#p31b2816247)" d="M 347.88719 271.392875 
L 353.299661 271.392875 
L 353.299661 254.032875 
L 347.88719 254.032875 
z
" style="fill:#0000ff;stroke:#000000;stroke-linejoin:miter;"/>
   </g>
   <g id="patch_15">
    <path clip-path="url(#p31b2816247)" d="M 332.422986 271.392875 
L 337.835458 271.392875 
L 337.835458 256.512875 
L 332.422986 256.512875 
z
" style="fill:#0000ff;stroke:#000000;stroke-linejoin:miter;"/>
   </g>
   <g id="patch_16">
    <path clip-path="url(#p31b2816247)" d="M 38.603125 271.392875 
L 44.015596 271.392875 
L 44.015596 154.832875 
L 38.603125 154.832875 
z
" style="fill:#0000ff;stroke:#000000;stroke-linejoin:miter;"/>
   </g>
   <g id="patch_17">
    <path clip-path="url(#p31b2816247)" d="M 54.067328 271.392875 
L 59.479799 271.392875 
L 59.479799 179.632875 
L 54.067328 179.632875 
z
" style="fill:#0000ff;stroke:#000000;stroke-linejoin:miter;"/>
   </g>
   <g id="patch_18">
    <path clip-path="url(#p31b2816247)" d="M 69.531531 271.392875 
L 74.944003 271.392875 
L 74.944003 139.952875 
L 69.531531 139.952875 
z
" style="fill:#0000ff;stroke:#000000;stroke-linejoin:miter;"/>
   </g>
   <g id="patch_19">
    <path clip-path="url(#p31b2816247)" d="M 84.995735 271.392875 
L 90.408206 271.392875 
L 90.408206 177.152875 
L 84.995735 177.152875 
z
" style="fill:#0000ff;stroke:#000000;stroke-linejoin:miter;"/>
   </g>
   <g id="patch_20">
    <path clip-path="url(#p31b2816247)" d="M 100.459938 271.392875 
L 105.872409 271.392875 
L 105.872409 139.952875 
L 100.459938 139.952875 
z
" style="fill:#0000ff;stroke:#000000;stroke-linejoin:miter;"/>
   </g>
   <g id="patch_21">
    <path clip-path="url(#p31b2816247)" d="M 115.924141 271.392875 
L 121.336612 271.392875 
L 121.336612 120.112875 
L 115.924141 120.112875 
z
" style="fill:#0000ff;stroke:#000000;stroke-linejoin:miter;"/>
   </g>
   <g id="patch_22">
    <path clip-path="url(#p31b2816247)" d="M 131.388344 271.392875 
L 136.800816 271.392875 
L 136.800816 127.552875 
L 131.388344 127.552875 
z
" style="fill:#0000ff;stroke:#000000;stroke-linejoin:miter;"/>
   </g>
   <g id="patch_23">
    <path clip-path="url(#p31b2816247)" d="M 146.852548 271.392875 
L 152.265019 271.392875 
L 152.265019 152.352875 
L 146.852548 152.352875 
z
" style="fill:#0000ff;stroke:#000000;stroke-linejoin:miter;"/>
   </g>
   <g id="patch_24">
    <path clip-path="url(#p31b2816247)" d="M 162.316751 271.392875 
L 167.729222 271.392875 
L 167.729222 179.632875 
L 162.316751 179.632875 
z
" style="fill:#0000ff;stroke:#000000;stroke-linejoin:miter;"/>
   </g>
   <g id="patch_25">
    <path clip-path="url(#p31b2816247)" d="M 306.907051 271.392875 
L 312.319522 271.392875 
L 312.319522 211.872875 
L 306.907051 211.872875 
z
" style="fill:#ff0000;stroke:#000000;stroke-linejoin:miter;"/>
   </g>
   <g id="patch_26">
    <path clip-path="url(#p31b2816247)" d="M 322.371254 271.392875 
L 327.783725 271.392875 
L 327.783725 196.992875 
L 322.371254 196.992875 
z
" style="fill:#ff0000;stroke:#000000;stroke-linejoin:miter;"/>
   </g>
   <g id="patch_27">
    <path clip-path="url(#p31b2816247)" d="M 121.336612 271.392875 
L 126.749083 271.392875 
L 126.749083 263.952875 
L 121.336612 263.952875 
z
" style="fill:#ff0000;stroke:#000000;stroke-linejoin:miter;"/>
   </g>
   <g id="patch_28">
    <path clip-path="url(#p31b2816247)" d="M 214.121832 271.392875 
L 219.534303 271.392875 
L 219.534303 254.032875 
L 214.121832 254.032875 
z
" style="fill:#ff0000;stroke:#000000;stroke-linejoin:miter;"/>
   </g>
   <g id="patch_29">
    <path clip-path="url(#p31b2816247)" d="M 229.586035 271.392875 
L 234.998506 271.392875 
L 234.998506 246.592875 
L 229.586035 246.592875 
z
" style="fill:#ff0000;stroke:#000000;stroke-linejoin:miter;"/>
   </g>
   <g id="patch_30">
    <path clip-path="url(#p31b2816247)" d="M 183.193425 271.392875 
L 188.605896 271.392875 
L 188.605896 241.632875 
L 183.193425 241.632875 
z
" style="fill:#ff0000;stroke:#000000;stroke-linejoin:miter;"/>
   </g>
   <g id="patch_31">
    <path clip-path="url(#p31b2816247)" d="M 198.657628 271.392875 
L 204.0701 271.392875 
L 204.0701 256.512875 
L 198.657628 256.512875 
z
" style="fill:#ff0000;stroke:#000000;stroke-linejoin:miter;"/>
   </g>
   <g id="patch_32">
    <path clip-path="url(#p31b2816247)" d="M 275.978645 271.392875 
L 281.391116 271.392875 
L 281.391116 174.672875 
L 275.978645 174.672875 
z
" style="fill:#ff0000;stroke:#000000;stroke-linejoin:miter;"/>
   </g>
   <g id="patch_33">
    <path clip-path="url(#p31b2816247)" d="M 291.442848 271.392875 
L 296.855319 271.392875 
L 296.855319 201.952875 
L 291.442848 201.952875 
z
" style="fill:#ff0000;stroke:#000000;stroke-linejoin:miter;"/>
   </g>
   <g id="patch_34">
    <path clip-path="url(#p31b2816247)" d="M 245.050238 271.392875 
L 250.462709 271.392875 
L 250.462709 204.432875 
L 245.050238 204.432875 
z
" style="fill:#ff0000;stroke:#000000;stroke-linejoin:miter;"/>
   </g>
   <g id="patch_35">
    <path clip-path="url(#p31b2816247)" d="M 260.514441 271.392875 
L 265.926913 271.392875 
L 265.926913 179.632875 
L 260.514441 179.632875 
z
" style="fill:#ff0000;stroke:#000000;stroke-linejoin:miter;"/>
   </g>
   <g id="patch_36">
    <path clip-path="url(#p31b2816247)" d="M 44.015596 271.392875 
L 49.428067 271.392875 
L 49.428067 266.432875 
L 44.015596 266.432875 
z
" style="fill:#ff0000;stroke:#000000;stroke-linejoin:miter;"/>
   </g>
   <g id="patch_37">
    <path clip-path="url(#p31b2816247)" d="M 59.479799 271.392875 
L 64.89227 271.392875 
L 64.89227 268.912875 
L 59.479799 268.912875 
z
" style="fill:#ff0000;stroke:#000000;stroke-linejoin:miter;"/>
   </g>
   <g id="patch_38">
    <path clip-path="url(#p31b2816247)" d="M 136.800816 271.392875 
L 142.213287 271.392875 
L 142.213287 256.512875 
L 136.800816 256.512875 
z
" style="fill:#ff0000;stroke:#000000;stroke-linejoin:miter;"/>
   </g>
   <g id="patch_39">
    <path clip-path="url(#p31b2816247)" d="M 368.763864 271.392875 
L 374.176335 271.392875 
L 374.176335 189.552875 
L 368.763864 189.552875 
z
" style="fill:#ff0000;stroke:#000000;stroke-linejoin:miter;"/>
   </g>
   <g id="patch_40">
    <path clip-path="url(#p31b2816247)" d="M 353.299661 271.392875 
L 358.712132 271.392875 
L 358.712132 169.712875 
L 353.299661 169.712875 
z
" style="fill:#ff0000;stroke:#000000;stroke-linejoin:miter;"/>
   </g>
   <g id="patch_41">
    <path clip-path="url(#p31b2816247)" d="M 337.835458 271.392875 
L 343.247929 271.392875 
L 343.247929 194.512875 
L 337.835458 194.512875 
z
" style="fill:#ff0000;stroke:#000000;stroke-linejoin:miter;"/>
   </g>
   <g id="patch_42">
    <path clip-path="url(#p31b2816247)" d="M 152.265019 271.392875 
L 157.67749 271.392875 
L 157.67749 251.552875 
L 152.265019 251.552875 
z
" style="fill:#ff0000;stroke:#000000;stroke-linejoin:miter;"/>
   </g>
   <g id="patch_43">
    <path clip-path="url(#p31b2816247)" d="M 167.729222 271.392875 
L 173.141693 271.392875 
L 173.141693 258.992875 
L 167.729222 258.992875 
z
" style="fill:#ff0000;stroke:#000000;stroke-linejoin:miter;"/>
   </g>
   <g id="patch_44">
    <path clip-path="url(#p31b2816247)" d="M 74.944003 271.392875 
L 80.356474 271.392875 
L 80.356474 263.952875 
L 74.944003 263.952875 
z
" style="fill:#ff0000;stroke:#000000;stroke-linejoin:miter;"/>
   </g>
   <g id="patch_45">
    <path clip-path="url(#p31b2816247)" d="M 105.872409 271.392875 
L 111.28488 271.392875 
L 111.28488 254.032875 
L 105.872409 254.032875 
z
" style="fill:#ff0000;stroke:#000000;stroke-linejoin:miter;"/>
   </g>
   <g id="patch_46">
    <path d="M 38.603125 48.192875 
L 373.403125 48.192875 
" style="fill:none;stroke:#000000;stroke-linecap:square;stroke-linejoin:miter;"/>
   </g>
   <g id="patch_47">
    <path d="M 373.403125 271.392875 
L 373.403125 48.192875 
" style="fill:none;stroke:#000000;stroke-linecap:square;stroke-linejoin:miter;"/>
   </g>
   <g id="patch_48">
    <path d="M 38.603125 271.392875 
L 373.403125 271.392875 
" style="fill:none;stroke:#000000;stroke-linecap:square;stroke-linejoin:miter;"/>
   </g>
   <g id="patch_49">
    <path d="M 38.603125 271.392875 
L 38.603125 48.192875 
" style="fill:none;stroke:#000000;stroke-linecap:square;stroke-linejoin:miter;"/>
   </g>
   <g id="matplotlib.axis_1">
    <g id="xtick_1">
     <g id="line2d_1">
      <defs>
       <path d="M 0 0 
L 0 -4 
" id="m36f001f0ed" style="stroke:#000000;stroke-width:0.5;"/>
      </defs>
      <g>
       <use style="stroke:#000000;stroke-width:0.5;" x="44.0155961316" xlink:href="#m36f001f0ed" y="271.392875"/>
      </g>
     </g>
     <g id="line2d_2">
      <defs>
       <path d="M 0 0 
L 0 4 
" id="m27c7aa1a9c" style="stroke:#000000;stroke-width:0.5;"/>
      </defs>
      <g>
       <use style="stroke:#000000;stroke-width:0.5;" x="44.0155961316" xlink:href="#m27c7aa1a9c" y="48.192875"/>
      </g>
     </g>
     <g id="text_1">
      <!-- 25.0 - 25.4 -->
      <defs>
       <path d="M 19.1875 8.296875 
L 53.609375 8.296875 
L 53.609375 0 
L 7.328125 0 
L 7.328125 8.296875 
Q 12.9375 14.109375 22.625 23.890625 
Q 32.328125 33.6875 34.8125 36.53125 
Q 39.546875 41.84375 41.421875 45.53125 
Q 43.3125 49.21875 43.3125 52.78125 
Q 43.3125 58.59375 39.234375 62.25 
Q 35.15625 65.921875 28.609375 65.921875 
Q 23.96875 65.921875 18.8125 64.3125 
Q 13.671875 62.703125 7.8125 59.421875 
L 7.8125 69.390625 
Q 13.765625 71.78125 18.9375 73 
Q 24.125 74.21875 28.421875 74.21875 
Q 39.75 74.21875 46.484375 68.546875 
Q 53.21875 62.890625 53.21875 53.421875 
Q 53.21875 48.921875 51.53125 44.890625 
Q 49.859375 40.875 45.40625 35.40625 
Q 44.1875 33.984375 37.640625 27.21875 
Q 31.109375 20.453125 19.1875 8.296875 
" id="BitstreamVeraSans-Roman-32"/>
       <path id="BitstreamVeraSans-Roman-20"/>
       <path d="M 31.78125 66.40625 
Q 24.171875 66.40625 20.328125 58.90625 
Q 16.5 51.421875 16.5 36.375 
Q 16.5 21.390625 20.328125 13.890625 
Q 24.171875 6.390625 31.78125 6.390625 
Q 39.453125 6.390625 43.28125 13.890625 
Q 47.125 21.390625 47.125 36.375 
Q 47.125 51.421875 43.28125 58.90625 
Q 39.453125 66.40625 31.78125 66.40625 
M 31.78125 74.21875 
Q 44.046875 74.21875 50.515625 64.515625 
Q 56.984375 54.828125 56.984375 36.375 
Q 56.984375 17.96875 50.515625 8.265625 
Q 44.046875 -1.421875 31.78125 -1.421875 
Q 19.53125 -1.421875 13.0625 8.265625 
Q 6.59375 17.96875 6.59375 36.375 
Q 6.59375 54.828125 13.0625 64.515625 
Q 19.53125 74.21875 31.78125 74.21875 
" id="BitstreamVeraSans-Roman-30"/>
       <path d="M 37.796875 64.3125 
L 12.890625 25.390625 
L 37.796875 25.390625 
z
M 35.203125 72.90625 
L 47.609375 72.90625 
L 47.609375 25.390625 
L 58.015625 25.390625 
L 58.015625 17.1875 
L 47.609375 17.1875 
L 47.609375 0 
L 37.796875 0 
L 37.796875 17.1875 
L 4.890625 17.1875 
L 4.890625 26.703125 
z
" id="BitstreamVeraSans-Roman-34"/>
       <path d="M 10.796875 72.90625 
L 49.515625 72.90625 
L 49.515625 64.59375 
L 19.828125 64.59375 
L 19.828125 46.734375 
Q 21.96875 47.46875 24.109375 47.828125 
Q 26.265625 48.1875 28.421875 48.1875 
Q 40.625 48.1875 47.75 41.5 
Q 54.890625 34.8125 54.890625 23.390625 
Q 54.890625 11.625 47.5625 5.09375 
Q 40.234375 -1.421875 26.90625 -1.421875 
Q 22.3125 -1.421875 17.546875 -0.640625 
Q 12.796875 0.140625 7.71875 1.703125 
L 7.71875 11.625 
Q 12.109375 9.234375 16.796875 8.0625 
Q 21.484375 6.890625 26.703125 6.890625 
Q 35.15625 6.890625 40.078125 11.328125 
Q 45.015625 15.765625 45.015625 23.390625 
Q 45.015625 31 40.078125 35.4375 
Q 35.15625 39.890625 26.703125 39.890625 
Q 22.75 39.890625 18.8125 39.015625 
Q 14.890625 38.140625 10.796875 36.28125 
z
" id="BitstreamVeraSans-Roman-35"/>
       <path d="M 10.6875 12.40625 
L 21 12.40625 
L 21 0 
L 10.6875 0 
z
" id="BitstreamVeraSans-Roman-2e"/>
       <path d="M 4.890625 31.390625 
L 31.203125 31.390625 
L 31.203125 23.390625 
L 4.890625 23.390625 
z
" id="BitstreamVeraSans-Roman-2d"/>
      </defs>
      <g transform="translate(46.7749711316 329.8881875)rotate(-90.0)scale(0.1 -0.1)">
       <use xlink:href="#BitstreamVeraSans-Roman-32"/>
       <use x="63.623046875" xlink:href="#BitstreamVeraSans-Roman-35"/>
       <use x="127.24609375" xlink:href="#BitstreamVeraSans-Roman-2e"/>
       <use x="159.033203125" xlink:href="#BitstreamVeraSans-Roman-30"/>
       <use x="222.65625" xlink:href="#BitstreamVeraSans-Roman-20"/>
       <use x="254.443359375" xlink:href="#BitstreamVeraSans-Roman-2d"/>
       <use x="290.52734375" xlink:href="#BitstreamVeraSans-Roman-20"/>
       <use x="322.314453125" xlink:href="#BitstreamVeraSans-Roman-32"/>
       <use x="385.9375" xlink:href="#BitstreamVeraSans-Roman-35"/>
       <use x="449.560546875" xlink:href="#BitstreamVeraSans-Roman-2e"/>
       <use x="481.34765625" xlink:href="#BitstreamVeraSans-Roman-34"/>
      </g>
     </g>
    </g>
    <g id="xtick_2">
     <g id="line2d_3">
      <g>
       <use style="stroke:#000000;stroke-width:0.5;" x="59.4797993649" xlink:href="#m36f001f0ed" y="271.392875"/>
      </g>
     </g>
     <g id="line2d_4">
      <g>
       <use style="stroke:#000000;stroke-width:0.5;" x="59.4797993649" xlink:href="#m27c7aa1a9c" y="48.192875"/>
      </g>
     </g>
     <g id="text_2">
      <!-- 25.5 - 25.9 -->
      <defs>
       <path d="M 10.984375 1.515625 
L 10.984375 10.5 
Q 14.703125 8.734375 18.5 7.8125 
Q 22.3125 6.890625 25.984375 6.890625 
Q 35.75 6.890625 40.890625 13.453125 
Q 46.046875 20.015625 46.78125 33.40625 
Q 43.953125 29.203125 39.59375 26.953125 
Q 35.25 24.703125 29.984375 24.703125 
Q 19.046875 24.703125 12.671875 31.3125 
Q 6.296875 37.9375 6.296875 49.421875 
Q 6.296875 60.640625 12.9375 67.421875 
Q 19.578125 74.21875 30.609375 74.21875 
Q 43.265625 74.21875 49.921875 64.515625 
Q 56.59375 54.828125 56.59375 36.375 
Q 56.59375 19.140625 48.40625 8.859375 
Q 40.234375 -1.421875 26.421875 -1.421875 
Q 22.703125 -1.421875 18.890625 -0.6875 
Q 15.09375 0.046875 10.984375 1.515625 
M 30.609375 32.421875 
Q 37.25 32.421875 41.125 36.953125 
Q 45.015625 41.5 45.015625 49.421875 
Q 45.015625 57.28125 41.125 61.84375 
Q 37.25 66.40625 30.609375 66.40625 
Q 23.96875 66.40625 20.09375 61.84375 
Q 16.21875 57.28125 16.21875 49.421875 
Q 16.21875 41.5 20.09375 36.953125 
Q 23.96875 32.421875 30.609375 32.421875 
" id="BitstreamVeraSans-Roman-39"/>
      </defs>
      <g transform="translate(62.2391743649 329.8881875)rotate(-90.0)scale(0.1 -0.1)">
       <use xlink:href="#BitstreamVeraSans-Roman-32"/>
       <use x="63.623046875" xlink:href="#BitstreamVeraSans-Roman-35"/>
       <use x="127.24609375" xlink:href="#BitstreamVeraSans-Roman-2e"/>
       <use x="159.033203125" xlink:href="#BitstreamVeraSans-Roman-35"/>
       <use x="222.65625" xlink:href="#BitstreamVeraSans-Roman-20"/>
       <use x="254.443359375" xlink:href="#BitstreamVeraSans-Roman-2d"/>
       <use x="290.52734375" xlink:href="#BitstreamVeraSans-Roman-20"/>
       <use x="322.314453125" xlink:href="#BitstreamVeraSans-Roman-32"/>
       <use x="385.9375" xlink:href="#BitstreamVeraSans-Roman-35"/>
       <use x="449.560546875" xlink:href="#BitstreamVeraSans-Roman-2e"/>
       <use x="481.34765625" xlink:href="#BitstreamVeraSans-Roman-39"/>
      </g>
     </g>
    </g>
    <g id="xtick_3">
     <g id="line2d_5">
      <g>
       <use style="stroke:#000000;stroke-width:0.5;" x="74.9440025982" xlink:href="#m36f001f0ed" y="271.392875"/>
      </g>
     </g>
     <g id="line2d_6">
      <g>
       <use style="stroke:#000000;stroke-width:0.5;" x="74.9440025982" xlink:href="#m27c7aa1a9c" y="48.192875"/>
      </g>
     </g>
     <g id="text_3">
      <!-- 26.0 - 26.4 -->
      <defs>
       <path d="M 33.015625 40.375 
Q 26.375 40.375 22.484375 35.828125 
Q 18.609375 31.296875 18.609375 23.390625 
Q 18.609375 15.53125 22.484375 10.953125 
Q 26.375 6.390625 33.015625 6.390625 
Q 39.65625 6.390625 43.53125 10.953125 
Q 47.40625 15.53125 47.40625 23.390625 
Q 47.40625 31.296875 43.53125 35.828125 
Q 39.65625 40.375 33.015625 40.375 
M 52.59375 71.296875 
L 52.59375 62.3125 
Q 48.875 64.0625 45.09375 64.984375 
Q 41.3125 65.921875 37.59375 65.921875 
Q 27.828125 65.921875 22.671875 59.328125 
Q 17.53125 52.734375 16.796875 39.40625 
Q 19.671875 43.65625 24.015625 45.921875 
Q 28.375 48.1875 33.59375 48.1875 
Q 44.578125 48.1875 50.953125 41.515625 
Q 57.328125 34.859375 57.328125 23.390625 
Q 57.328125 12.15625 50.6875 5.359375 
Q 44.046875 -1.421875 33.015625 -1.421875 
Q 20.359375 -1.421875 13.671875 8.265625 
Q 6.984375 17.96875 6.984375 36.375 
Q 6.984375 53.65625 15.1875 63.9375 
Q 23.390625 74.21875 37.203125 74.21875 
Q 40.921875 74.21875 44.703125 73.484375 
Q 48.484375 72.75 52.59375 71.296875 
" id="BitstreamVeraSans-Roman-36"/>
      </defs>
      <g transform="translate(77.7033775982 329.8881875)rotate(-90.0)scale(0.1 -0.1)">
       <use xlink:href="#BitstreamVeraSans-Roman-32"/>
       <use x="63.623046875" xlink:href="#BitstreamVeraSans-Roman-36"/>
       <use x="127.24609375" xlink:href="#BitstreamVeraSans-Roman-2e"/>
       <use x="159.033203125" xlink:href="#BitstreamVeraSans-Roman-30"/>
       <use x="222.65625" xlink:href="#BitstreamVeraSans-Roman-20"/>
       <use x="254.443359375" xlink:href="#BitstreamVeraSans-Roman-2d"/>
       <use x="290.52734375" xlink:href="#BitstreamVeraSans-Roman-20"/>
       <use x="322.314453125" xlink:href="#BitstreamVeraSans-Roman-32"/>
       <use x="385.9375" xlink:href="#BitstreamVeraSans-Roman-36"/>
       <use x="449.560546875" xlink:href="#BitstreamVeraSans-Roman-2e"/>
       <use x="481.34765625" xlink:href="#BitstreamVeraSans-Roman-34"/>
      </g>
     </g>
    </g>
    <g id="xtick_4">
     <g id="line2d_7">
      <g>
       <use style="stroke:#000000;stroke-width:0.5;" x="90.4082058314" xlink:href="#m36f001f0ed" y="271.392875"/>
      </g>
     </g>
     <g id="line2d_8">
      <g>
       <use style="stroke:#000000;stroke-width:0.5;" x="90.4082058314" xlink:href="#m27c7aa1a9c" y="48.192875"/>
      </g>
     </g>
     <g id="text_4">
      <!-- 26.5 - 26.9 -->
      <g transform="translate(93.1675808314 329.8881875)rotate(-90.0)scale(0.1 -0.1)">
       <use xlink:href="#BitstreamVeraSans-Roman-32"/>
       <use x="63.623046875" xlink:href="#BitstreamVeraSans-Roman-36"/>
       <use x="127.24609375" xlink:href="#BitstreamVeraSans-Roman-2e"/>
       <use x="159.033203125" xlink:href="#BitstreamVeraSans-Roman-35"/>
       <use x="222.65625" xlink:href="#BitstreamVeraSans-Roman-20"/>
       <use x="254.443359375" xlink:href="#BitstreamVeraSans-Roman-2d"/>
       <use x="290.52734375" xlink:href="#BitstreamVeraSans-Roman-20"/>
       <use x="322.314453125" xlink:href="#BitstreamVeraSans-Roman-32"/>
       <use x="385.9375" xlink:href="#BitstreamVeraSans-Roman-36"/>
       <use x="449.560546875" xlink:href="#BitstreamVeraSans-Roman-2e"/>
       <use x="481.34765625" xlink:href="#BitstreamVeraSans-Roman-39"/>
      </g>
     </g>
    </g>
    <g id="xtick_5">
     <g id="line2d_9">
      <g>
       <use style="stroke:#000000;stroke-width:0.5;" x="105.872409065" xlink:href="#m36f001f0ed" y="271.392875"/>
      </g>
     </g>
     <g id="line2d_10">
      <g>
       <use style="stroke:#000000;stroke-width:0.5;" x="105.872409065" xlink:href="#m27c7aa1a9c" y="48.192875"/>
      </g>
     </g>
     <g id="text_5">
      <!-- 27.0 - 27.4 -->
      <defs>
       <path d="M 8.203125 72.90625 
L 55.078125 72.90625 
L 55.078125 68.703125 
L 28.609375 0 
L 18.3125 0 
L 43.21875 64.59375 
L 8.203125 64.59375 
z
" id="BitstreamVeraSans-Roman-37"/>
      </defs>
      <g transform="translate(108.631784065 329.8881875)rotate(-90.0)scale(0.1 -0.1)">
       <use xlink:href="#BitstreamVeraSans-Roman-32"/>
       <use x="63.623046875" xlink:href="#BitstreamVeraSans-Roman-37"/>
       <use x="127.24609375" xlink:href="#BitstreamVeraSans-Roman-2e"/>
       <use x="159.033203125" xlink:href="#BitstreamVeraSans-Roman-30"/>
       <use x="222.65625" xlink:href="#BitstreamVeraSans-Roman-20"/>
       <use x="254.443359375" xlink:href="#BitstreamVeraSans-Roman-2d"/>
       <use x="290.52734375" xlink:href="#BitstreamVeraSans-Roman-20"/>
       <use x="322.314453125" xlink:href="#BitstreamVeraSans-Roman-32"/>
       <use x="385.9375" xlink:href="#BitstreamVeraSans-Roman-37"/>
       <use x="449.560546875" xlink:href="#BitstreamVeraSans-Roman-2e"/>
       <use x="481.34765625" xlink:href="#BitstreamVeraSans-Roman-34"/>
      </g>
     </g>
    </g>
    <g id="xtick_6">
     <g id="line2d_11">
      <g>
       <use style="stroke:#000000;stroke-width:0.5;" x="121.336612298" xlink:href="#m36f001f0ed" y="271.392875"/>
      </g>
     </g>
     <g id="line2d_12">
      <g>
       <use style="stroke:#000000;stroke-width:0.5;" x="121.336612298" xlink:href="#m27c7aa1a9c" y="48.192875"/>
      </g>
     </g>
     <g id="text_6">
      <!-- 27.5 - 27.9 -->
      <g transform="translate(124.095987298 329.8881875)rotate(-90.0)scale(0.1 -0.1)">
       <use xlink:href="#BitstreamVeraSans-Roman-32"/>
       <use x="63.623046875" xlink:href="#BitstreamVeraSans-Roman-37"/>
       <use x="127.24609375" xlink:href="#BitstreamVeraSans-Roman-2e"/>
       <use x="159.033203125" xlink:href="#BitstreamVeraSans-Roman-35"/>
       <use x="222.65625" xlink:href="#BitstreamVeraSans-Roman-20"/>
       <use x="254.443359375" xlink:href="#BitstreamVeraSans-Roman-2d"/>
       <use x="290.52734375" xlink:href="#BitstreamVeraSans-Roman-20"/>
       <use x="322.314453125" xlink:href="#BitstreamVeraSans-Roman-32"/>
       <use x="385.9375" xlink:href="#BitstreamVeraSans-Roman-37"/>
       <use x="449.560546875" xlink:href="#BitstreamVeraSans-Roman-2e"/>
       <use x="481.34765625" xlink:href="#BitstreamVeraSans-Roman-39"/>
      </g>
     </g>
    </g>
    <g id="xtick_7">
     <g id="line2d_13">
      <g>
       <use style="stroke:#000000;stroke-width:0.5;" x="136.800815531" xlink:href="#m36f001f0ed" y="271.392875"/>
      </g>
     </g>
     <g id="line2d_14">
      <g>
       <use style="stroke:#000000;stroke-width:0.5;" x="136.800815531" xlink:href="#m27c7aa1a9c" y="48.192875"/>
      </g>
     </g>
     <g id="text_7">
      <!-- 28.0 - 28.4 -->
      <defs>
       <path d="M 31.78125 34.625 
Q 24.75 34.625 20.71875 30.859375 
Q 16.703125 27.09375 16.703125 20.515625 
Q 16.703125 13.921875 20.71875 10.15625 
Q 24.75 6.390625 31.78125 6.390625 
Q 38.8125 6.390625 42.859375 10.171875 
Q 46.921875 13.96875 46.921875 20.515625 
Q 46.921875 27.09375 42.890625 30.859375 
Q 38.875 34.625 31.78125 34.625 
M 21.921875 38.8125 
Q 15.578125 40.375 12.03125 44.71875 
Q 8.5 49.078125 8.5 55.328125 
Q 8.5 64.0625 14.71875 69.140625 
Q 20.953125 74.21875 31.78125 74.21875 
Q 42.671875 74.21875 48.875 69.140625 
Q 55.078125 64.0625 55.078125 55.328125 
Q 55.078125 49.078125 51.53125 44.71875 
Q 48 40.375 41.703125 38.8125 
Q 48.828125 37.15625 52.796875 32.3125 
Q 56.78125 27.484375 56.78125 20.515625 
Q 56.78125 9.90625 50.3125 4.234375 
Q 43.84375 -1.421875 31.78125 -1.421875 
Q 19.734375 -1.421875 13.25 4.234375 
Q 6.78125 9.90625 6.78125 20.515625 
Q 6.78125 27.484375 10.78125 32.3125 
Q 14.796875 37.15625 21.921875 38.8125 
M 18.3125 54.390625 
Q 18.3125 48.734375 21.84375 45.5625 
Q 25.390625 42.390625 31.78125 42.390625 
Q 38.140625 42.390625 41.71875 45.5625 
Q 45.3125 48.734375 45.3125 54.390625 
Q 45.3125 60.0625 41.71875 63.234375 
Q 38.140625 66.40625 31.78125 66.40625 
Q 25.390625 66.40625 21.84375 63.234375 
Q 18.3125 60.0625 18.3125 54.390625 
" id="BitstreamVeraSans-Roman-38"/>
      </defs>
      <g transform="translate(139.560190531 329.8881875)rotate(-90.0)scale(0.1 -0.1)">
       <use xlink:href="#BitstreamVeraSans-Roman-32"/>
       <use x="63.623046875" xlink:href="#BitstreamVeraSans-Roman-38"/>
       <use x="127.24609375" xlink:href="#BitstreamVeraSans-Roman-2e"/>
       <use x="159.033203125" xlink:href="#BitstreamVeraSans-Roman-30"/>
       <use x="222.65625" xlink:href="#BitstreamVeraSans-Roman-20"/>
       <use x="254.443359375" xlink:href="#BitstreamVeraSans-Roman-2d"/>
       <use x="290.52734375" xlink:href="#BitstreamVeraSans-Roman-20"/>
       <use x="322.314453125" xlink:href="#BitstreamVeraSans-Roman-32"/>
       <use x="385.9375" xlink:href="#BitstreamVeraSans-Roman-38"/>
       <use x="449.560546875" xlink:href="#BitstreamVeraSans-Roman-2e"/>
       <use x="481.34765625" xlink:href="#BitstreamVeraSans-Roman-34"/>
      </g>
     </g>
    </g>
    <g id="xtick_8">
     <g id="line2d_15">
      <g>
       <use style="stroke:#000000;stroke-width:0.5;" x="152.265018764" xlink:href="#m36f001f0ed" y="271.392875"/>
      </g>
     </g>
     <g id="line2d_16">
      <g>
       <use style="stroke:#000000;stroke-width:0.5;" x="152.265018764" xlink:href="#m27c7aa1a9c" y="48.192875"/>
      </g>
     </g>
     <g id="text_8">
      <!-- 28.5 - 28.9 -->
      <g transform="translate(155.024393764 329.8881875)rotate(-90.0)scale(0.1 -0.1)">
       <use xlink:href="#BitstreamVeraSans-Roman-32"/>
       <use x="63.623046875" xlink:href="#BitstreamVeraSans-Roman-38"/>
       <use x="127.24609375" xlink:href="#BitstreamVeraSans-Roman-2e"/>
       <use x="159.033203125" xlink:href="#BitstreamVeraSans-Roman-35"/>
       <use x="222.65625" xlink:href="#BitstreamVeraSans-Roman-20"/>
       <use x="254.443359375" xlink:href="#BitstreamVeraSans-Roman-2d"/>
       <use x="290.52734375" xlink:href="#BitstreamVeraSans-Roman-20"/>
       <use x="322.314453125" xlink:href="#BitstreamVeraSans-Roman-32"/>
       <use x="385.9375" xlink:href="#BitstreamVeraSans-Roman-38"/>
       <use x="449.560546875" xlink:href="#BitstreamVeraSans-Roman-2e"/>
       <use x="481.34765625" xlink:href="#BitstreamVeraSans-Roman-39"/>
      </g>
     </g>
    </g>
    <g id="xtick_9">
     <g id="line2d_17">
      <g>
       <use style="stroke:#000000;stroke-width:0.5;" x="167.729221998" xlink:href="#m36f001f0ed" y="271.392875"/>
      </g>
     </g>
     <g id="line2d_18">
      <g>
       <use style="stroke:#000000;stroke-width:0.5;" x="167.729221998" xlink:href="#m27c7aa1a9c" y="48.192875"/>
      </g>
     </g>
     <g id="text_9">
      <!-- 29.0 - 29.4 -->
      <g transform="translate(170.488596998 329.8881875)rotate(-90.0)scale(0.1 -0.1)">
       <use xlink:href="#BitstreamVeraSans-Roman-32"/>
       <use x="63.623046875" xlink:href="#BitstreamVeraSans-Roman-39"/>
       <use x="127.24609375" xlink:href="#BitstreamVeraSans-Roman-2e"/>
       <use x="159.033203125" xlink:href="#BitstreamVeraSans-Roman-30"/>
       <use x="222.65625" xlink:href="#BitstreamVeraSans-Roman-20"/>
       <use x="254.443359375" xlink:href="#BitstreamVeraSans-Roman-2d"/>
       <use x="290.52734375" xlink:href="#BitstreamVeraSans-Roman-20"/>
       <use x="322.314453125" xlink:href="#BitstreamVeraSans-Roman-32"/>
       <use x="385.9375" xlink:href="#BitstreamVeraSans-Roman-39"/>
       <use x="449.560546875" xlink:href="#BitstreamVeraSans-Roman-2e"/>
       <use x="481.34765625" xlink:href="#BitstreamVeraSans-Roman-34"/>
      </g>
     </g>
    </g>
    <g id="xtick_10">
     <g id="line2d_19">
      <g>
       <use style="stroke:#000000;stroke-width:0.5;" x="183.193425231" xlink:href="#m36f001f0ed" y="271.392875"/>
      </g>
     </g>
     <g id="line2d_20">
      <g>
       <use style="stroke:#000000;stroke-width:0.5;" x="183.193425231" xlink:href="#m27c7aa1a9c" y="48.192875"/>
      </g>
     </g>
     <g id="text_10">
      <!-- 29.5 - 29.9 -->
      <g transform="translate(185.952800231 329.8881875)rotate(-90.0)scale(0.1 -0.1)">
       <use xlink:href="#BitstreamVeraSans-Roman-32"/>
       <use x="63.623046875" xlink:href="#BitstreamVeraSans-Roman-39"/>
       <use x="127.24609375" xlink:href="#BitstreamVeraSans-Roman-2e"/>
       <use x="159.033203125" xlink:href="#BitstreamVeraSans-Roman-35"/>
       <use x="222.65625" xlink:href="#BitstreamVeraSans-Roman-20"/>
       <use x="254.443359375" xlink:href="#BitstreamVeraSans-Roman-2d"/>
       <use x="290.52734375" xlink:href="#BitstreamVeraSans-Roman-20"/>
       <use x="322.314453125" xlink:href="#BitstreamVeraSans-Roman-32"/>
       <use x="385.9375" xlink:href="#BitstreamVeraSans-Roman-39"/>
       <use x="449.560546875" xlink:href="#BitstreamVeraSans-Roman-2e"/>
       <use x="481.34765625" xlink:href="#BitstreamVeraSans-Roman-39"/>
      </g>
     </g>
    </g>
    <g id="xtick_11">
     <g id="line2d_21">
      <g>
       <use style="stroke:#000000;stroke-width:0.5;" x="198.657628464" xlink:href="#m36f001f0ed" y="271.392875"/>
      </g>
     </g>
     <g id="line2d_22">
      <g>
       <use style="stroke:#000000;stroke-width:0.5;" x="198.657628464" xlink:href="#m27c7aa1a9c" y="48.192875"/>
      </g>
     </g>
     <g id="text_11">
      <!-- 30.0 - 30.4 -->
      <defs>
       <path d="M 40.578125 39.3125 
Q 47.65625 37.796875 51.625 33 
Q 55.609375 28.21875 55.609375 21.1875 
Q 55.609375 10.40625 48.1875 4.484375 
Q 40.765625 -1.421875 27.09375 -1.421875 
Q 22.515625 -1.421875 17.65625 -0.515625 
Q 12.796875 0.390625 7.625 2.203125 
L 7.625 11.71875 
Q 11.71875 9.328125 16.59375 8.109375 
Q 21.484375 6.890625 26.8125 6.890625 
Q 36.078125 6.890625 40.9375 10.546875 
Q 45.796875 14.203125 45.796875 21.1875 
Q 45.796875 27.640625 41.28125 31.265625 
Q 36.765625 34.90625 28.71875 34.90625 
L 20.21875 34.90625 
L 20.21875 43.015625 
L 29.109375 43.015625 
Q 36.375 43.015625 40.234375 45.921875 
Q 44.09375 48.828125 44.09375 54.296875 
Q 44.09375 59.90625 40.109375 62.90625 
Q 36.140625 65.921875 28.71875 65.921875 
Q 24.65625 65.921875 20.015625 65.03125 
Q 15.375 64.15625 9.8125 62.3125 
L 9.8125 71.09375 
Q 15.4375 72.65625 20.34375 73.4375 
Q 25.25 74.21875 29.59375 74.21875 
Q 40.828125 74.21875 47.359375 69.109375 
Q 53.90625 64.015625 53.90625 55.328125 
Q 53.90625 49.265625 50.4375 45.09375 
Q 46.96875 40.921875 40.578125 39.3125 
" id="BitstreamVeraSans-Roman-33"/>
      </defs>
      <g transform="translate(201.417003464 329.8881875)rotate(-90.0)scale(0.1 -0.1)">
       <use xlink:href="#BitstreamVeraSans-Roman-33"/>
       <use x="63.623046875" xlink:href="#BitstreamVeraSans-Roman-30"/>
       <use x="127.24609375" xlink:href="#BitstreamVeraSans-Roman-2e"/>
       <use x="159.033203125" xlink:href="#BitstreamVeraSans-Roman-30"/>
       <use x="222.65625" xlink:href="#BitstreamVeraSans-Roman-20"/>
       <use x="254.443359375" xlink:href="#BitstreamVeraSans-Roman-2d"/>
       <use x="290.52734375" xlink:href="#BitstreamVeraSans-Roman-20"/>
       <use x="322.314453125" xlink:href="#BitstreamVeraSans-Roman-33"/>
       <use x="385.9375" xlink:href="#BitstreamVeraSans-Roman-30"/>
       <use x="449.560546875" xlink:href="#BitstreamVeraSans-Roman-2e"/>
       <use x="481.34765625" xlink:href="#BitstreamVeraSans-Roman-34"/>
      </g>
     </g>
    </g>
    <g id="xtick_12">
     <g id="line2d_23">
      <g>
       <use style="stroke:#000000;stroke-width:0.5;" x="214.121831697" xlink:href="#m36f001f0ed" y="271.392875"/>
      </g>
     </g>
     <g id="line2d_24">
      <g>
       <use style="stroke:#000000;stroke-width:0.5;" x="214.121831697" xlink:href="#m27c7aa1a9c" y="48.192875"/>
      </g>
     </g>
     <g id="text_12">
      <!-- 30.5 - 30.9 -->
      <g transform="translate(216.881206697 329.8881875)rotate(-90.0)scale(0.1 -0.1)">
       <use xlink:href="#BitstreamVeraSans-Roman-33"/>
       <use x="63.623046875" xlink:href="#BitstreamVeraSans-Roman-30"/>
       <use x="127.24609375" xlink:href="#BitstreamVeraSans-Roman-2e"/>
       <use x="159.033203125" xlink:href="#BitstreamVeraSans-Roman-35"/>
       <use x="222.65625" xlink:href="#BitstreamVeraSans-Roman-20"/>
       <use x="254.443359375" xlink:href="#BitstreamVeraSans-Roman-2d"/>
       <use x="290.52734375" xlink:href="#BitstreamVeraSans-Roman-20"/>
       <use x="322.314453125" xlink:href="#BitstreamVeraSans-Roman-33"/>
       <use x="385.9375" xlink:href="#BitstreamVeraSans-Roman-30"/>
       <use x="449.560546875" xlink:href="#BitstreamVeraSans-Roman-2e"/>
       <use x="481.34765625" xlink:href="#BitstreamVeraSans-Roman-39"/>
      </g>
     </g>
    </g>
    <g id="xtick_13">
     <g id="line2d_25">
      <g>
       <use style="stroke:#000000;stroke-width:0.5;" x="229.586034931" xlink:href="#m36f001f0ed" y="271.392875"/>
      </g>
     </g>
     <g id="line2d_26">
      <g>
       <use style="stroke:#000000;stroke-width:0.5;" x="229.586034931" xlink:href="#m27c7aa1a9c" y="48.192875"/>
      </g>
     </g>
     <g id="text_13">
      <!-- 31.0 - 31.4 -->
      <defs>
       <path d="M 12.40625 8.296875 
L 28.515625 8.296875 
L 28.515625 63.921875 
L 10.984375 60.40625 
L 10.984375 69.390625 
L 28.421875 72.90625 
L 38.28125 72.90625 
L 38.28125 8.296875 
L 54.390625 8.296875 
L 54.390625 0 
L 12.40625 0 
z
" id="BitstreamVeraSans-Roman-31"/>
      </defs>
      <g transform="translate(232.345409931 329.8881875)rotate(-90.0)scale(0.1 -0.1)">
       <use xlink:href="#BitstreamVeraSans-Roman-33"/>
       <use x="63.623046875" xlink:href="#BitstreamVeraSans-Roman-31"/>
       <use x="127.24609375" xlink:href="#BitstreamVeraSans-Roman-2e"/>
       <use x="159.033203125" xlink:href="#BitstreamVeraSans-Roman-30"/>
       <use x="222.65625" xlink:href="#BitstreamVeraSans-Roman-20"/>
       <use x="254.443359375" xlink:href="#BitstreamVeraSans-Roman-2d"/>
       <use x="290.52734375" xlink:href="#BitstreamVeraSans-Roman-20"/>
       <use x="322.314453125" xlink:href="#BitstreamVeraSans-Roman-33"/>
       <use x="385.9375" xlink:href="#BitstreamVeraSans-Roman-31"/>
       <use x="449.560546875" xlink:href="#BitstreamVeraSans-Roman-2e"/>
       <use x="481.34765625" xlink:href="#BitstreamVeraSans-Roman-34"/>
      </g>
     </g>
    </g>
    <g id="xtick_14">
     <g id="line2d_27">
      <g>
       <use style="stroke:#000000;stroke-width:0.5;" x="245.050238164" xlink:href="#m36f001f0ed" y="271.392875"/>
      </g>
     </g>
     <g id="line2d_28">
      <g>
       <use style="stroke:#000000;stroke-width:0.5;" x="245.050238164" xlink:href="#m27c7aa1a9c" y="48.192875"/>
      </g>
     </g>
     <g id="text_14">
      <!-- 31.5 - 31.9 -->
      <g transform="translate(247.809613164 329.8881875)rotate(-90.0)scale(0.1 -0.1)">
       <use xlink:href="#BitstreamVeraSans-Roman-33"/>
       <use x="63.623046875" xlink:href="#BitstreamVeraSans-Roman-31"/>
       <use x="127.24609375" xlink:href="#BitstreamVeraSans-Roman-2e"/>
       <use x="159.033203125" xlink:href="#BitstreamVeraSans-Roman-35"/>
       <use x="222.65625" xlink:href="#BitstreamVeraSans-Roman-20"/>
       <use x="254.443359375" xlink:href="#BitstreamVeraSans-Roman-2d"/>
       <use x="290.52734375" xlink:href="#BitstreamVeraSans-Roman-20"/>
       <use x="322.314453125" xlink:href="#BitstreamVeraSans-Roman-33"/>
       <use x="385.9375" xlink:href="#BitstreamVeraSans-Roman-31"/>
       <use x="449.560546875" xlink:href="#BitstreamVeraSans-Roman-2e"/>
       <use x="481.34765625" xlink:href="#BitstreamVeraSans-Roman-39"/>
      </g>
     </g>
    </g>
    <g id="xtick_15">
     <g id="line2d_29">
      <g>
       <use style="stroke:#000000;stroke-width:0.5;" x="260.514441397" xlink:href="#m36f001f0ed" y="271.392875"/>
      </g>
     </g>
     <g id="line2d_30">
      <g>
       <use style="stroke:#000000;stroke-width:0.5;" x="260.514441397" xlink:href="#m27c7aa1a9c" y="48.192875"/>
      </g>
     </g>
     <g id="text_15">
      <!-- 32.0 - 32.4 -->
      <g transform="translate(263.273816397 329.8881875)rotate(-90.0)scale(0.1 -0.1)">
       <use xlink:href="#BitstreamVeraSans-Roman-33"/>
       <use x="63.623046875" xlink:href="#BitstreamVeraSans-Roman-32"/>
       <use x="127.24609375" xlink:href="#BitstreamVeraSans-Roman-2e"/>
       <use x="159.033203125" xlink:href="#BitstreamVeraSans-Roman-30"/>
       <use x="222.65625" xlink:href="#BitstreamVeraSans-Roman-20"/>
       <use x="254.443359375" xlink:href="#BitstreamVeraSans-Roman-2d"/>
       <use x="290.52734375" xlink:href="#BitstreamVeraSans-Roman-20"/>
       <use x="322.314453125" xlink:href="#BitstreamVeraSans-Roman-33"/>
       <use x="385.9375" xlink:href="#BitstreamVeraSans-Roman-32"/>
       <use x="449.560546875" xlink:href="#BitstreamVeraSans-Roman-2e"/>
       <use x="481.34765625" xlink:href="#BitstreamVeraSans-Roman-34"/>
      </g>
     </g>
    </g>
    <g id="xtick_16">
     <g id="line2d_31">
      <g>
       <use style="stroke:#000000;stroke-width:0.5;" x="275.97864463" xlink:href="#m36f001f0ed" y="271.392875"/>
      </g>
     </g>
     <g id="line2d_32">
      <g>
       <use style="stroke:#000000;stroke-width:0.5;" x="275.97864463" xlink:href="#m27c7aa1a9c" y="48.192875"/>
      </g>
     </g>
     <g id="text_16">
      <!-- 32.5 - 32.9 -->
      <g transform="translate(278.73801963 329.8881875)rotate(-90.0)scale(0.1 -0.1)">
       <use xlink:href="#BitstreamVeraSans-Roman-33"/>
       <use x="63.623046875" xlink:href="#BitstreamVeraSans-Roman-32"/>
       <use x="127.24609375" xlink:href="#BitstreamVeraSans-Roman-2e"/>
       <use x="159.033203125" xlink:href="#BitstreamVeraSans-Roman-35"/>
       <use x="222.65625" xlink:href="#BitstreamVeraSans-Roman-20"/>
       <use x="254.443359375" xlink:href="#BitstreamVeraSans-Roman-2d"/>
       <use x="290.52734375" xlink:href="#BitstreamVeraSans-Roman-20"/>
       <use x="322.314453125" xlink:href="#BitstreamVeraSans-Roman-33"/>
       <use x="385.9375" xlink:href="#BitstreamVeraSans-Roman-32"/>
       <use x="449.560546875" xlink:href="#BitstreamVeraSans-Roman-2e"/>
       <use x="481.34765625" xlink:href="#BitstreamVeraSans-Roman-39"/>
      </g>
     </g>
    </g>
    <g id="xtick_17">
     <g id="line2d_33">
      <g>
       <use style="stroke:#000000;stroke-width:0.5;" x="291.442847864" xlink:href="#m36f001f0ed" y="271.392875"/>
      </g>
     </g>
     <g id="line2d_34">
      <g>
       <use style="stroke:#000000;stroke-width:0.5;" x="291.442847864" xlink:href="#m27c7aa1a9c" y="48.192875"/>
      </g>
     </g>
     <g id="text_17">
      <!-- 33.0 - 33.4 -->
      <g transform="translate(294.202222864 329.8881875)rotate(-90.0)scale(0.1 -0.1)">
       <use xlink:href="#BitstreamVeraSans-Roman-33"/>
       <use x="63.623046875" xlink:href="#BitstreamVeraSans-Roman-33"/>
       <use x="127.24609375" xlink:href="#BitstreamVeraSans-Roman-2e"/>
       <use x="159.033203125" xlink:href="#BitstreamVeraSans-Roman-30"/>
       <use x="222.65625" xlink:href="#BitstreamVeraSans-Roman-20"/>
       <use x="254.443359375" xlink:href="#BitstreamVeraSans-Roman-2d"/>
       <use x="290.52734375" xlink:href="#BitstreamVeraSans-Roman-20"/>
       <use x="322.314453125" xlink:href="#BitstreamVeraSans-Roman-33"/>
       <use x="385.9375" xlink:href="#BitstreamVeraSans-Roman-33"/>
       <use x="449.560546875" xlink:href="#BitstreamVeraSans-Roman-2e"/>
       <use x="481.34765625" xlink:href="#BitstreamVeraSans-Roman-34"/>
      </g>
     </g>
    </g>
    <g id="xtick_18">
     <g id="line2d_35">
      <g>
       <use style="stroke:#000000;stroke-width:0.5;" x="306.907051097" xlink:href="#m36f001f0ed" y="271.392875"/>
      </g>
     </g>
     <g id="line2d_36">
      <g>
       <use style="stroke:#000000;stroke-width:0.5;" x="306.907051097" xlink:href="#m27c7aa1a9c" y="48.192875"/>
      </g>
     </g>
     <g id="text_18">
      <!-- 33.5 - 33.9 -->
      <g transform="translate(309.666426097 329.8881875)rotate(-90.0)scale(0.1 -0.1)">
       <use xlink:href="#BitstreamVeraSans-Roman-33"/>
       <use x="63.623046875" xlink:href="#BitstreamVeraSans-Roman-33"/>
       <use x="127.24609375" xlink:href="#BitstreamVeraSans-Roman-2e"/>
       <use x="159.033203125" xlink:href="#BitstreamVeraSans-Roman-35"/>
       <use x="222.65625" xlink:href="#BitstreamVeraSans-Roman-20"/>
       <use x="254.443359375" xlink:href="#BitstreamVeraSans-Roman-2d"/>
       <use x="290.52734375" xlink:href="#BitstreamVeraSans-Roman-20"/>
       <use x="322.314453125" xlink:href="#BitstreamVeraSans-Roman-33"/>
       <use x="385.9375" xlink:href="#BitstreamVeraSans-Roman-33"/>
       <use x="449.560546875" xlink:href="#BitstreamVeraSans-Roman-2e"/>
       <use x="481.34765625" xlink:href="#BitstreamVeraSans-Roman-39"/>
      </g>
     </g>
    </g>
    <g id="xtick_19">
     <g id="line2d_37">
      <g>
       <use style="stroke:#000000;stroke-width:0.5;" x="322.37125433" xlink:href="#m36f001f0ed" y="271.392875"/>
      </g>
     </g>
     <g id="line2d_38">
      <g>
       <use style="stroke:#000000;stroke-width:0.5;" x="322.37125433" xlink:href="#m27c7aa1a9c" y="48.192875"/>
      </g>
     </g>
     <g id="text_19">
      <!-- 34.0 - 34.4 -->
      <g transform="translate(325.13062933 329.8881875)rotate(-90.0)scale(0.1 -0.1)">
       <use xlink:href="#BitstreamVeraSans-Roman-33"/>
       <use x="63.623046875" xlink:href="#BitstreamVeraSans-Roman-34"/>
       <use x="127.24609375" xlink:href="#BitstreamVeraSans-Roman-2e"/>
       <use x="159.033203125" xlink:href="#BitstreamVeraSans-Roman-30"/>
       <use x="222.65625" xlink:href="#BitstreamVeraSans-Roman-20"/>
       <use x="254.443359375" xlink:href="#BitstreamVeraSans-Roman-2d"/>
       <use x="290.52734375" xlink:href="#BitstreamVeraSans-Roman-20"/>
       <use x="322.314453125" xlink:href="#BitstreamVeraSans-Roman-33"/>
       <use x="385.9375" xlink:href="#BitstreamVeraSans-Roman-34"/>
       <use x="449.560546875" xlink:href="#BitstreamVeraSans-Roman-2e"/>
       <use x="481.34765625" xlink:href="#BitstreamVeraSans-Roman-34"/>
      </g>
     </g>
    </g>
    <g id="xtick_20">
     <g id="line2d_39">
      <g>
       <use style="stroke:#000000;stroke-width:0.5;" x="337.835457564" xlink:href="#m36f001f0ed" y="271.392875"/>
      </g>
     </g>
     <g id="line2d_40">
      <g>
       <use style="stroke:#000000;stroke-width:0.5;" x="337.835457564" xlink:href="#m27c7aa1a9c" y="48.192875"/>
      </g>
     </g>
     <g id="text_20">
      <!-- 34.5 - 34.9 -->
      <g transform="translate(340.594832564 329.8881875)rotate(-90.0)scale(0.1 -0.1)">
       <use xlink:href="#BitstreamVeraSans-Roman-33"/>
       <use x="63.623046875" xlink:href="#BitstreamVeraSans-Roman-34"/>
       <use x="127.24609375" xlink:href="#BitstreamVeraSans-Roman-2e"/>
       <use x="159.033203125" xlink:href="#BitstreamVeraSans-Roman-35"/>
       <use x="222.65625" xlink:href="#BitstreamVeraSans-Roman-20"/>
       <use x="254.443359375" xlink:href="#BitstreamVeraSans-Roman-2d"/>
       <use x="290.52734375" xlink:href="#BitstreamVeraSans-Roman-20"/>
       <use x="322.314453125" xlink:href="#BitstreamVeraSans-Roman-33"/>
       <use x="385.9375" xlink:href="#BitstreamVeraSans-Roman-34"/>
       <use x="449.560546875" xlink:href="#BitstreamVeraSans-Roman-2e"/>
       <use x="481.34765625" xlink:href="#BitstreamVeraSans-Roman-39"/>
      </g>
     </g>
    </g>
    <g id="xtick_21">
     <g id="line2d_41">
      <g>
       <use style="stroke:#000000;stroke-width:0.5;" x="353.299660797" xlink:href="#m36f001f0ed" y="271.392875"/>
      </g>
     </g>
     <g id="line2d_42">
      <g>
       <use style="stroke:#000000;stroke-width:0.5;" x="353.299660797" xlink:href="#m27c7aa1a9c" y="48.192875"/>
      </g>
     </g>
     <g id="text_21">
      <!-- 35.0 - 35.4 -->
      <g transform="translate(356.059035797 329.8881875)rotate(-90.0)scale(0.1 -0.1)">
       <use xlink:href="#BitstreamVeraSans-Roman-33"/>
       <use x="63.623046875" xlink:href="#BitstreamVeraSans-Roman-35"/>
       <use x="127.24609375" xlink:href="#BitstreamVeraSans-Roman-2e"/>
       <use x="159.033203125" xlink:href="#BitstreamVeraSans-Roman-30"/>
       <use x="222.65625" xlink:href="#BitstreamVeraSans-Roman-20"/>
       <use x="254.443359375" xlink:href="#BitstreamVeraSans-Roman-2d"/>
       <use x="290.52734375" xlink:href="#BitstreamVeraSans-Roman-20"/>
       <use x="322.314453125" xlink:href="#BitstreamVeraSans-Roman-33"/>
       <use x="385.9375" xlink:href="#BitstreamVeraSans-Roman-35"/>
       <use x="449.560546875" xlink:href="#BitstreamVeraSans-Roman-2e"/>
       <use x="481.34765625" xlink:href="#BitstreamVeraSans-Roman-34"/>
      </g>
     </g>
    </g>
    <g id="xtick_22">
     <g id="line2d_43">
      <g>
       <use style="stroke:#000000;stroke-width:0.5;" x="368.76386403" xlink:href="#m36f001f0ed" y="271.392875"/>
      </g>
     </g>
     <g id="line2d_44">
      <g>
       <use style="stroke:#000000;stroke-width:0.5;" x="368.76386403" xlink:href="#m27c7aa1a9c" y="48.192875"/>
      </g>
     </g>
     <g id="text_22">
      <!-- 35.5 - 35.9 -->
      <g transform="translate(371.52323903 329.8881875)rotate(-90.0)scale(0.1 -0.1)">
       <use xlink:href="#BitstreamVeraSans-Roman-33"/>
       <use x="63.623046875" xlink:href="#BitstreamVeraSans-Roman-35"/>
       <use x="127.24609375" xlink:href="#BitstreamVeraSans-Roman-2e"/>
       <use x="159.033203125" xlink:href="#BitstreamVeraSans-Roman-35"/>
       <use x="222.65625" xlink:href="#BitstreamVeraSans-Roman-20"/>
       <use x="254.443359375" xlink:href="#BitstreamVeraSans-Roman-2d"/>
       <use x="290.52734375" xlink:href="#BitstreamVeraSans-Roman-20"/>
       <use x="322.314453125" xlink:href="#BitstreamVeraSans-Roman-33"/>
       <use x="385.9375" xlink:href="#BitstreamVeraSans-Roman-35"/>
       <use x="449.560546875" xlink:href="#BitstreamVeraSans-Roman-2e"/>
       <use x="481.34765625" xlink:href="#BitstreamVeraSans-Roman-39"/>
      </g>
     </g>
    </g>
    <g id="text_23">
     <!-- ANL Temperature ($^o$F) -->
     <defs>
      <path d="M 9.8125 72.90625 
L 23.09375 72.90625 
L 55.421875 11.921875 
L 55.421875 72.90625 
L 64.984375 72.90625 
L 64.984375 0 
L 51.703125 0 
L 19.390625 60.984375 
L 19.390625 0 
L 9.8125 0 
z
" id="BitstreamVeraSans-Roman-4e"/>
      <path d="M 9.8125 72.90625 
L 19.671875 72.90625 
L 19.671875 8.296875 
L 55.171875 8.296875 
L 55.171875 0 
L 9.8125 0 
z
" id="BitstreamVeraSans-Roman-4c"/>
      <path d="M 20.125 -1.125 
Q 15.375 -1.125 11.6875 1.125 
Q 8.015625 3.375 6 7.171875 
Q 4 10.984375 4 15.828125 
Q 4 22.609375 7.78125 29.25 
Q 11.578125 35.890625 17.84375 40.03125 
Q 24.125 44.1875 31 44.1875 
Q 34.71875 44.1875 37.625 42.921875 
Q 40.53125 41.65625 42.671875 39.359375 
Q 44.828125 37.0625 45.96875 33.984375 
Q 47.125 30.90625 47.125 27.296875 
Q 47.125 22.078125 44.921875 17.015625 
Q 42.71875 11.96875 38.890625 7.84375 
Q 35.0625 3.71875 30.125 1.296875 
Q 25.203125 -1.125 20.125 -1.125 
M 20.3125 1.515625 
Q 24.75 1.515625 28.4375 4.53125 
Q 32.125 7.5625 34.484375 12.171875 
Q 36.859375 16.796875 38.125 21.921875 
Q 39.40625 27.046875 39.40625 31.203125 
Q 39.40625 35.546875 37.234375 38.578125 
Q 35.0625 41.609375 30.8125 41.609375 
Q 24.953125 41.609375 20.546875 36.59375 
Q 16.15625 31.59375 13.9375 24.625 
Q 11.71875 17.671875 11.71875 11.921875 
Q 11.71875 7.5625 13.9375 4.53125 
Q 16.15625 1.515625 20.3125 1.515625 
" id="Cmmi10-6f"/>
      <path d="M 8.015625 75.875 
L 15.828125 75.875 
Q 23.140625 64.359375 26.78125 53.3125 
Q 30.421875 42.28125 30.421875 31.390625 
Q 30.421875 20.453125 26.78125 9.375 
Q 23.140625 -1.703125 15.828125 -13.1875 
L 8.015625 -13.1875 
Q 14.5 -2 17.703125 9.0625 
Q 20.90625 20.125 20.90625 31.390625 
Q 20.90625 42.671875 17.703125 53.65625 
Q 14.5 64.65625 8.015625 75.875 
" id="BitstreamVeraSans-Roman-29"/>
      <path d="M 52 44.1875 
Q 55.375 50.25 60.0625 53.125 
Q 64.75 56 71.09375 56 
Q 79.640625 56 84.28125 50.015625 
Q 88.921875 44.046875 88.921875 33.015625 
L 88.921875 0 
L 79.890625 0 
L 79.890625 32.71875 
Q 79.890625 40.578125 77.09375 44.375 
Q 74.3125 48.1875 68.609375 48.1875 
Q 61.625 48.1875 57.5625 43.546875 
Q 53.515625 38.921875 53.515625 30.90625 
L 53.515625 0 
L 44.484375 0 
L 44.484375 32.71875 
Q 44.484375 40.625 41.703125 44.40625 
Q 38.921875 48.1875 33.109375 48.1875 
Q 26.21875 48.1875 22.15625 43.53125 
Q 18.109375 38.875 18.109375 30.90625 
L 18.109375 0 
L 9.078125 0 
L 9.078125 54.6875 
L 18.109375 54.6875 
L 18.109375 46.1875 
Q 21.1875 51.21875 25.484375 53.609375 
Q 29.78125 56 35.6875 56 
Q 41.65625 56 45.828125 52.96875 
Q 50 49.953125 52 44.1875 
" id="BitstreamVeraSans-Roman-6d"/>
      <path d="M 9.8125 72.90625 
L 51.703125 72.90625 
L 51.703125 64.59375 
L 19.671875 64.59375 
L 19.671875 43.109375 
L 48.578125 43.109375 
L 48.578125 34.8125 
L 19.671875 34.8125 
L 19.671875 0 
L 9.8125 0 
z
" id="BitstreamVeraSans-Roman-46"/>
      <path d="M -0.296875 72.90625 
L 61.375 72.90625 
L 61.375 64.59375 
L 35.5 64.59375 
L 35.5 0 
L 25.59375 0 
L 25.59375 64.59375 
L -0.296875 64.59375 
z
" id="BitstreamVeraSans-Roman-54"/>
      <path d="M 34.1875 63.1875 
L 20.796875 26.90625 
L 47.609375 26.90625 
z
M 28.609375 72.90625 
L 39.796875 72.90625 
L 67.578125 0 
L 57.328125 0 
L 50.6875 18.703125 
L 17.828125 18.703125 
L 11.1875 0 
L 0.78125 0 
z
" id="BitstreamVeraSans-Roman-41"/>
      <path d="M 31 75.875 
Q 24.46875 64.65625 21.28125 53.65625 
Q 18.109375 42.671875 18.109375 31.390625 
Q 18.109375 20.125 21.3125 9.0625 
Q 24.515625 -2 31 -13.1875 
L 23.1875 -13.1875 
Q 15.875 -1.703125 12.234375 9.375 
Q 8.59375 20.453125 8.59375 31.390625 
Q 8.59375 42.28125 12.203125 53.3125 
Q 15.828125 64.359375 23.1875 75.875 
z
" id="BitstreamVeraSans-Roman-28"/>
      <path d="M 56.203125 29.59375 
L 56.203125 25.203125 
L 14.890625 25.203125 
Q 15.484375 15.921875 20.484375 11.0625 
Q 25.484375 6.203125 34.421875 6.203125 
Q 39.59375 6.203125 44.453125 7.46875 
Q 49.3125 8.734375 54.109375 11.28125 
L 54.109375 2.78125 
Q 49.265625 0.734375 44.1875 -0.34375 
Q 39.109375 -1.421875 33.890625 -1.421875 
Q 20.796875 -1.421875 13.15625 6.1875 
Q 5.515625 13.8125 5.515625 26.8125 
Q 5.515625 40.234375 12.765625 48.109375 
Q 20.015625 56 32.328125 56 
Q 43.359375 56 49.78125 48.890625 
Q 56.203125 41.796875 56.203125 29.59375 
M 47.21875 32.234375 
Q 47.125 39.59375 43.09375 43.984375 
Q 39.0625 48.390625 32.421875 48.390625 
Q 24.90625 48.390625 20.390625 44.140625 
Q 15.875 39.890625 15.1875 32.171875 
z
" id="BitstreamVeraSans-Roman-65"/>
      <path d="M 34.28125 27.484375 
Q 23.390625 27.484375 19.1875 25 
Q 14.984375 22.515625 14.984375 16.5 
Q 14.984375 11.71875 18.140625 8.90625 
Q 21.296875 6.109375 26.703125 6.109375 
Q 34.1875 6.109375 38.703125 11.40625 
Q 43.21875 16.703125 43.21875 25.484375 
L 43.21875 27.484375 
z
M 52.203125 31.203125 
L 52.203125 0 
L 43.21875 0 
L 43.21875 8.296875 
Q 40.140625 3.328125 35.546875 0.953125 
Q 30.953125 -1.421875 24.3125 -1.421875 
Q 15.921875 -1.421875 10.953125 3.296875 
Q 6 8.015625 6 15.921875 
Q 6 25.140625 12.171875 29.828125 
Q 18.359375 34.515625 30.609375 34.515625 
L 43.21875 34.515625 
L 43.21875 35.40625 
Q 43.21875 41.609375 39.140625 45 
Q 35.0625 48.390625 27.6875 48.390625 
Q 23 48.390625 18.546875 47.265625 
Q 14.109375 46.140625 10.015625 43.890625 
L 10.015625 52.203125 
Q 14.9375 54.109375 19.578125 55.046875 
Q 24.21875 56 28.609375 56 
Q 40.484375 56 46.34375 49.84375 
Q 52.203125 43.703125 52.203125 31.203125 
" id="BitstreamVeraSans-Roman-61"/>
      <path d="M 8.5 21.578125 
L 8.5 54.6875 
L 17.484375 54.6875 
L 17.484375 21.921875 
Q 17.484375 14.15625 20.5 10.265625 
Q 23.53125 6.390625 29.59375 6.390625 
Q 36.859375 6.390625 41.078125 11.03125 
Q 45.3125 15.671875 45.3125 23.6875 
L 45.3125 54.6875 
L 54.296875 54.6875 
L 54.296875 0 
L 45.3125 0 
L 45.3125 8.40625 
Q 42.046875 3.421875 37.71875 1 
Q 33.40625 -1.421875 27.6875 -1.421875 
Q 18.265625 -1.421875 13.375 4.4375 
Q 8.5 10.296875 8.5 21.578125 
" id="BitstreamVeraSans-Roman-75"/>
      <path d="M 41.109375 46.296875 
Q 39.59375 47.171875 37.8125 47.578125 
Q 36.03125 48 33.890625 48 
Q 26.265625 48 22.1875 43.046875 
Q 18.109375 38.09375 18.109375 28.8125 
L 18.109375 0 
L 9.078125 0 
L 9.078125 54.6875 
L 18.109375 54.6875 
L 18.109375 46.1875 
Q 20.953125 51.171875 25.484375 53.578125 
Q 30.03125 56 36.53125 56 
Q 37.453125 56 38.578125 55.875 
Q 39.703125 55.765625 41.0625 55.515625 
z
" id="BitstreamVeraSans-Roman-72"/>
      <path d="M 18.3125 70.21875 
L 18.3125 54.6875 
L 36.8125 54.6875 
L 36.8125 47.703125 
L 18.3125 47.703125 
L 18.3125 18.015625 
Q 18.3125 11.328125 20.140625 9.421875 
Q 21.96875 7.515625 27.59375 7.515625 
L 36.8125 7.515625 
L 36.8125 0 
L 27.59375 0 
Q 17.1875 0 13.234375 3.875 
Q 9.28125 7.765625 9.28125 18.015625 
L 9.28125 47.703125 
L 2.6875 47.703125 
L 2.6875 54.6875 
L 9.28125 54.6875 
L 9.28125 70.21875 
z
" id="BitstreamVeraSans-Roman-74"/>
      <path d="M 18.109375 8.203125 
L 18.109375 -20.796875 
L 9.078125 -20.796875 
L 9.078125 54.6875 
L 18.109375 54.6875 
L 18.109375 46.390625 
Q 20.953125 51.265625 25.265625 53.625 
Q 29.59375 56 35.59375 56 
Q 45.5625 56 51.78125 48.09375 
Q 58.015625 40.1875 58.015625 27.296875 
Q 58.015625 14.40625 51.78125 6.484375 
Q 45.5625 -1.421875 35.59375 -1.421875 
Q 29.59375 -1.421875 25.265625 0.953125 
Q 20.953125 3.328125 18.109375 8.203125 
M 48.6875 27.296875 
Q 48.6875 37.203125 44.609375 42.84375 
Q 40.53125 48.484375 33.40625 48.484375 
Q 26.265625 48.484375 22.1875 42.84375 
Q 18.109375 37.203125 18.109375 27.296875 
Q 18.109375 17.390625 22.1875 11.75 
Q 26.265625 6.109375 33.40625 6.109375 
Q 40.53125 6.109375 44.609375 11.75 
Q 48.6875 17.390625 48.6875 27.296875 
" id="BitstreamVeraSans-Roman-70"/>
     </defs>
     <g transform="translate(151.203125 342.4881875)scale(0.1 -0.1)">
      <use transform="translate(0.0 0.125)" xlink:href="#BitstreamVeraSans-Roman-41"/>
      <use transform="translate(68.408203125 0.125)" xlink:href="#BitstreamVeraSans-Roman-4e"/>
      <use transform="translate(143.212890625 0.125)" xlink:href="#BitstreamVeraSans-Roman-4c"/>
      <use transform="translate(198.92578125 0.125)" xlink:href="#BitstreamVeraSans-Roman-20"/>
      <use transform="translate(230.712890625 0.125)" xlink:href="#BitstreamVeraSans-Roman-54"/>
      <use transform="translate(291.796875 0.125)" xlink:href="#BitstreamVeraSans-Roman-65"/>
      <use transform="translate(353.3203125 0.125)" xlink:href="#BitstreamVeraSans-Roman-6d"/>
      <use transform="translate(450.732421875 0.125)" xlink:href="#BitstreamVeraSans-Roman-70"/>
      <use transform="translate(514.208984375 0.125)" xlink:href="#BitstreamVeraSans-Roman-65"/>
      <use transform="translate(575.732421875 0.125)" xlink:href="#BitstreamVeraSans-Roman-72"/>
      <use transform="translate(616.845703125 0.125)" xlink:href="#BitstreamVeraSans-Roman-61"/>
      <use transform="translate(678.125 0.125)" xlink:href="#BitstreamVeraSans-Roman-74"/>
      <use transform="translate(717.333984375 0.125)" xlink:href="#BitstreamVeraSans-Roman-75"/>
      <use transform="translate(780.712890625 0.125)" xlink:href="#BitstreamVeraSans-Roman-72"/>
      <use transform="translate(821.826171875 0.125)" xlink:href="#BitstreamVeraSans-Roman-65"/>
      <use transform="translate(883.349609375 0.125)" xlink:href="#BitstreamVeraSans-Roman-20"/>
      <use transform="translate(915.13671875 0.125)" xlink:href="#BitstreamVeraSans-Roman-28"/>
      <use transform="translate(958.61453125 38.3890625)scale(0.7)" xlink:href="#Cmmi10-6f"/>
      <use transform="translate(998.863945313 0.125)" xlink:href="#BitstreamVeraSans-Roman-46"/>
      <use transform="translate(1056.38347656 0.125)" xlink:href="#BitstreamVeraSans-Roman-29"/>
     </g>
    </g>
   </g>
   <g id="matplotlib.axis_2">
    <g id="ytick_1">
     <g id="line2d_45">
      <defs>
       <path d="M 0 0 
L 4 0 
" id="m257c87993a" style="stroke:#000000;stroke-width:0.5;"/>
      </defs>
      <g>
       <use style="stroke:#000000;stroke-width:0.5;" x="38.603125" xlink:href="#m257c87993a" y="271.392875"/>
      </g>
     </g>
     <g id="line2d_46">
      <defs>
       <path d="M 0 0 
L -4 0 
" id="mf6f025d724" style="stroke:#000000;stroke-width:0.5;"/>
      </defs>
      <g>
       <use style="stroke:#000000;stroke-width:0.5;" x="373.403125" xlink:href="#mf6f025d724" y="271.392875"/>
      </g>
     </g>
     <g id="text_24">
      <!-- 0 -->
      <g transform="translate(28.240625 274.15225)scale(0.1 -0.1)">
       <use xlink:href="#BitstreamVeraSans-Roman-30"/>
      </g>
     </g>
    </g>
    <g id="ytick_2">
     <g id="line2d_47">
      <g>
       <use style="stroke:#000000;stroke-width:0.5;" x="38.603125" xlink:href="#m257c87993a" y="246.592875"/>
      </g>
     </g>
     <g id="line2d_48">
      <g>
       <use style="stroke:#000000;stroke-width:0.5;" x="373.403125" xlink:href="#mf6f025d724" y="246.592875"/>
      </g>
     </g>
     <g id="text_25">
      <!-- 10 -->
      <g transform="translate(21.878125 249.35225)scale(0.1 -0.1)">
       <use xlink:href="#BitstreamVeraSans-Roman-31"/>
       <use x="63.623046875" xlink:href="#BitstreamVeraSans-Roman-30"/>
      </g>
     </g>
    </g>
    <g id="ytick_3">
     <g id="line2d_49">
      <g>
       <use style="stroke:#000000;stroke-width:0.5;" x="38.603125" xlink:href="#m257c87993a" y="221.792875"/>
      </g>
     </g>
     <g id="line2d_50">
      <g>
       <use style="stroke:#000000;stroke-width:0.5;" x="373.403125" xlink:href="#mf6f025d724" y="221.792875"/>
      </g>
     </g>
     <g id="text_26">
      <!-- 20 -->
      <g transform="translate(21.878125 224.55225)scale(0.1 -0.1)">
       <use xlink:href="#BitstreamVeraSans-Roman-32"/>
       <use x="63.623046875" xlink:href="#BitstreamVeraSans-Roman-30"/>
      </g>
     </g>
    </g>
    <g id="ytick_4">
     <g id="line2d_51">
      <g>
       <use style="stroke:#000000;stroke-width:0.5;" x="38.603125" xlink:href="#m257c87993a" y="196.992875"/>
      </g>
     </g>
     <g id="line2d_52">
      <g>
       <use style="stroke:#000000;stroke-width:0.5;" x="373.403125" xlink:href="#mf6f025d724" y="196.992875"/>
      </g>
     </g>
     <g id="text_27">
      <!-- 30 -->
      <g transform="translate(21.878125 199.75225)scale(0.1 -0.1)">
       <use xlink:href="#BitstreamVeraSans-Roman-33"/>
       <use x="63.623046875" xlink:href="#BitstreamVeraSans-Roman-30"/>
      </g>
     </g>
    </g>
    <g id="ytick_5">
     <g id="line2d_53">
      <g>
       <use style="stroke:#000000;stroke-width:0.5;" x="38.603125" xlink:href="#m257c87993a" y="172.192875"/>
      </g>
     </g>
     <g id="line2d_54">
      <g>
       <use style="stroke:#000000;stroke-width:0.5;" x="373.403125" xlink:href="#mf6f025d724" y="172.192875"/>
      </g>
     </g>
     <g id="text_28">
      <!-- 40 -->
      <g transform="translate(21.878125 174.95225)scale(0.1 -0.1)">
       <use xlink:href="#BitstreamVeraSans-Roman-34"/>
       <use x="63.623046875" xlink:href="#BitstreamVeraSans-Roman-30"/>
      </g>
     </g>
    </g>
    <g id="ytick_6">
     <g id="line2d_55">
      <g>
       <use style="stroke:#000000;stroke-width:0.5;" x="38.603125" xlink:href="#m257c87993a" y="147.392875"/>
      </g>
     </g>
     <g id="line2d_56">
      <g>
       <use style="stroke:#000000;stroke-width:0.5;" x="373.403125" xlink:href="#mf6f025d724" y="147.392875"/>
      </g>
     </g>
     <g id="text_29">
      <!-- 50 -->
      <g transform="translate(21.878125 150.15225)scale(0.1 -0.1)">
       <use xlink:href="#BitstreamVeraSans-Roman-35"/>
       <use x="63.623046875" xlink:href="#BitstreamVeraSans-Roman-30"/>
      </g>
     </g>
    </g>
    <g id="ytick_7">
     <g id="line2d_57">
      <g>
       <use style="stroke:#000000;stroke-width:0.5;" x="38.603125" xlink:href="#m257c87993a" y="122.592875"/>
      </g>
     </g>
     <g id="line2d_58">
      <g>
       <use style="stroke:#000000;stroke-width:0.5;" x="373.403125" xlink:href="#mf6f025d724" y="122.592875"/>
      </g>
     </g>
     <g id="text_30">
      <!-- 60 -->
      <g transform="translate(21.878125 125.35225)scale(0.1 -0.1)">
       <use xlink:href="#BitstreamVeraSans-Roman-36"/>
       <use x="63.623046875" xlink:href="#BitstreamVeraSans-Roman-30"/>
      </g>
     </g>
    </g>
    <g id="ytick_8">
     <g id="line2d_59">
      <g>
       <use style="stroke:#000000;stroke-width:0.5;" x="38.603125" xlink:href="#m257c87993a" y="97.792875"/>
      </g>
     </g>
     <g id="line2d_60">
      <g>
       <use style="stroke:#000000;stroke-width:0.5;" x="373.403125" xlink:href="#mf6f025d724" y="97.792875"/>
      </g>
     </g>
     <g id="text_31">
      <!-- 70 -->
      <g transform="translate(21.878125 100.55225)scale(0.1 -0.1)">
       <use xlink:href="#BitstreamVeraSans-Roman-37"/>
       <use x="63.623046875" xlink:href="#BitstreamVeraSans-Roman-30"/>
      </g>
     </g>
    </g>
    <g id="ytick_9">
     <g id="line2d_61">
      <g>
       <use style="stroke:#000000;stroke-width:0.5;" x="38.603125" xlink:href="#m257c87993a" y="72.992875"/>
      </g>
     </g>
     <g id="line2d_62">
      <g>
       <use style="stroke:#000000;stroke-width:0.5;" x="373.403125" xlink:href="#mf6f025d724" y="72.992875"/>
      </g>
     </g>
     <g id="text_32">
      <!-- 80 -->
      <g transform="translate(21.878125 75.75225)scale(0.1 -0.1)">
       <use xlink:href="#BitstreamVeraSans-Roman-38"/>
       <use x="63.623046875" xlink:href="#BitstreamVeraSans-Roman-30"/>
      </g>
     </g>
    </g>
    <g id="ytick_10">
     <g id="line2d_63">
      <g>
       <use style="stroke:#000000;stroke-width:0.5;" x="38.603125" xlink:href="#m257c87993a" y="48.192875"/>
      </g>
     </g>
     <g id="line2d_64">
      <g>
       <use style="stroke:#000000;stroke-width:0.5;" x="373.403125" xlink:href="#mf6f025d724" y="48.192875"/>
      </g>
     </g>
     <g id="text_33">
      <!-- 90 -->
      <g transform="translate(21.878125 50.95225)scale(0.1 -0.1)">
       <use xlink:href="#BitstreamVeraSans-Roman-39"/>
       <use x="63.623046875" xlink:href="#BitstreamVeraSans-Roman-30"/>
      </g>
     </g>
    </g>
    <g id="text_34">
     <!-- Number of Hourly Observations -->
     <defs>
      <path d="M 39.40625 66.21875 
Q 28.65625 66.21875 22.328125 58.203125 
Q 16.015625 50.203125 16.015625 36.375 
Q 16.015625 22.609375 22.328125 14.59375 
Q 28.65625 6.59375 39.40625 6.59375 
Q 50.140625 6.59375 56.421875 14.59375 
Q 62.703125 22.609375 62.703125 36.375 
Q 62.703125 50.203125 56.421875 58.203125 
Q 50.140625 66.21875 39.40625 66.21875 
M 39.40625 74.21875 
Q 54.734375 74.21875 63.90625 63.9375 
Q 73.09375 53.65625 73.09375 36.375 
Q 73.09375 19.140625 63.90625 8.859375 
Q 54.734375 -1.421875 39.40625 -1.421875 
Q 24.03125 -1.421875 14.8125 8.828125 
Q 5.609375 19.09375 5.609375 36.375 
Q 5.609375 53.65625 14.8125 63.9375 
Q 24.03125 74.21875 39.40625 74.21875 
" id="BitstreamVeraSans-Roman-4f"/>
      <path d="M 54.890625 33.015625 
L 54.890625 0 
L 45.90625 0 
L 45.90625 32.71875 
Q 45.90625 40.484375 42.875 44.328125 
Q 39.84375 48.1875 33.796875 48.1875 
Q 26.515625 48.1875 22.3125 43.546875 
Q 18.109375 38.921875 18.109375 30.90625 
L 18.109375 0 
L 9.078125 0 
L 9.078125 54.6875 
L 18.109375 54.6875 
L 18.109375 46.1875 
Q 21.34375 51.125 25.703125 53.5625 
Q 30.078125 56 35.796875 56 
Q 45.21875 56 50.046875 50.171875 
Q 54.890625 44.34375 54.890625 33.015625 
" id="BitstreamVeraSans-Roman-6e"/>
      <path d="M 30.609375 48.390625 
Q 23.390625 48.390625 19.1875 42.75 
Q 14.984375 37.109375 14.984375 27.296875 
Q 14.984375 17.484375 19.15625 11.84375 
Q 23.34375 6.203125 30.609375 6.203125 
Q 37.796875 6.203125 41.984375 11.859375 
Q 46.1875 17.53125 46.1875 27.296875 
Q 46.1875 37.015625 41.984375 42.703125 
Q 37.796875 48.390625 30.609375 48.390625 
M 30.609375 56 
Q 42.328125 56 49.015625 48.375 
Q 55.71875 40.765625 55.71875 27.296875 
Q 55.71875 13.875 49.015625 6.21875 
Q 42.328125 -1.421875 30.609375 -1.421875 
Q 18.84375 -1.421875 12.171875 6.21875 
Q 5.515625 13.875 5.515625 27.296875 
Q 5.515625 40.765625 12.171875 48.375 
Q 18.84375 56 30.609375 56 
" id="BitstreamVeraSans-Roman-6f"/>
      <path d="M 9.421875 75.984375 
L 18.40625 75.984375 
L 18.40625 0 
L 9.421875 0 
z
" id="BitstreamVeraSans-Roman-6c"/>
      <path d="M 48.6875 27.296875 
Q 48.6875 37.203125 44.609375 42.84375 
Q 40.53125 48.484375 33.40625 48.484375 
Q 26.265625 48.484375 22.1875 42.84375 
Q 18.109375 37.203125 18.109375 27.296875 
Q 18.109375 17.390625 22.1875 11.75 
Q 26.265625 6.109375 33.40625 6.109375 
Q 40.53125 6.109375 44.609375 11.75 
Q 48.6875 17.390625 48.6875 27.296875 
M 18.109375 46.390625 
Q 20.953125 51.265625 25.265625 53.625 
Q 29.59375 56 35.59375 56 
Q 45.5625 56 51.78125 48.09375 
Q 58.015625 40.1875 58.015625 27.296875 
Q 58.015625 14.40625 51.78125 6.484375 
Q 45.5625 -1.421875 35.59375 -1.421875 
Q 29.59375 -1.421875 25.265625 0.953125 
Q 20.953125 3.328125 18.109375 8.203125 
L 18.109375 0 
L 9.078125 0 
L 9.078125 75.984375 
L 18.109375 75.984375 
z
" id="BitstreamVeraSans-Roman-62"/>
      <path d="M 32.171875 -5.078125 
Q 28.375 -14.84375 24.75 -17.8125 
Q 21.140625 -20.796875 15.09375 -20.796875 
L 7.90625 -20.796875 
L 7.90625 -13.28125 
L 13.1875 -13.28125 
Q 16.890625 -13.28125 18.9375 -11.515625 
Q 21 -9.765625 23.484375 -3.21875 
L 25.09375 0.875 
L 2.984375 54.6875 
L 12.5 54.6875 
L 29.59375 11.921875 
L 46.6875 54.6875 
L 56.203125 54.6875 
z
" id="BitstreamVeraSans-Roman-79"/>
      <path d="M 2.984375 54.6875 
L 12.5 54.6875 
L 29.59375 8.796875 
L 46.6875 54.6875 
L 56.203125 54.6875 
L 35.6875 0 
L 23.484375 0 
z
" id="BitstreamVeraSans-Roman-76"/>
      <path d="M 9.421875 54.6875 
L 18.40625 54.6875 
L 18.40625 0 
L 9.421875 0 
z
M 9.421875 75.984375 
L 18.40625 75.984375 
L 18.40625 64.59375 
L 9.421875 64.59375 
z
" id="BitstreamVeraSans-Roman-69"/>
      <path d="M 37.109375 75.984375 
L 37.109375 68.5 
L 28.515625 68.5 
Q 23.6875 68.5 21.796875 66.546875 
Q 19.921875 64.59375 19.921875 59.515625 
L 19.921875 54.6875 
L 34.71875 54.6875 
L 34.71875 47.703125 
L 19.921875 47.703125 
L 19.921875 0 
L 10.890625 0 
L 10.890625 47.703125 
L 2.296875 47.703125 
L 2.296875 54.6875 
L 10.890625 54.6875 
L 10.890625 58.5 
Q 10.890625 67.625 15.140625 71.796875 
Q 19.390625 75.984375 28.609375 75.984375 
z
" id="BitstreamVeraSans-Roman-66"/>
      <path d="M 44.28125 53.078125 
L 44.28125 44.578125 
Q 40.484375 46.53125 36.375 47.5 
Q 32.28125 48.484375 27.875 48.484375 
Q 21.1875 48.484375 17.84375 46.4375 
Q 14.5 44.390625 14.5 40.28125 
Q 14.5 37.15625 16.890625 35.375 
Q 19.28125 33.59375 26.515625 31.984375 
L 29.59375 31.296875 
Q 39.15625 29.25 43.1875 25.515625 
Q 47.21875 21.78125 47.21875 15.09375 
Q 47.21875 7.46875 41.1875 3.015625 
Q 35.15625 -1.421875 24.609375 -1.421875 
Q 20.21875 -1.421875 15.453125 -0.5625 
Q 10.6875 0.296875 5.421875 2 
L 5.421875 11.28125 
Q 10.40625 8.6875 15.234375 7.390625 
Q 20.0625 6.109375 24.8125 6.109375 
Q 31.15625 6.109375 34.5625 8.28125 
Q 37.984375 10.453125 37.984375 14.40625 
Q 37.984375 18.0625 35.515625 20.015625 
Q 33.0625 21.96875 24.703125 23.78125 
L 21.578125 24.515625 
Q 13.234375 26.265625 9.515625 29.90625 
Q 5.8125 33.546875 5.8125 39.890625 
Q 5.8125 47.609375 11.28125 51.796875 
Q 16.75 56 26.8125 56 
Q 31.78125 56 36.171875 55.265625 
Q 40.578125 54.546875 44.28125 53.078125 
" id="BitstreamVeraSans-Roman-73"/>
      <path d="M 9.8125 72.90625 
L 19.671875 72.90625 
L 19.671875 43.015625 
L 55.515625 43.015625 
L 55.515625 72.90625 
L 65.375 72.90625 
L 65.375 0 
L 55.515625 0 
L 55.515625 34.71875 
L 19.671875 34.71875 
L 19.671875 0 
L 9.8125 0 
z
" id="BitstreamVeraSans-Roman-48"/>
     </defs>
     <g transform="translate(14.7984375 238.9100625)rotate(-90.0)scale(0.1 -0.1)">
      <use xlink:href="#BitstreamVeraSans-Roman-4e"/>
      <use x="74.8046875" xlink:href="#BitstreamVeraSans-Roman-75"/>
      <use x="138.18359375" xlink:href="#BitstreamVeraSans-Roman-6d"/>
      <use x="235.595703125" xlink:href="#BitstreamVeraSans-Roman-62"/>
      <use x="299.072265625" xlink:href="#BitstreamVeraSans-Roman-65"/>
      <use x="360.595703125" xlink:href="#BitstreamVeraSans-Roman-72"/>
      <use x="401.708984375" xlink:href="#BitstreamVeraSans-Roman-20"/>
      <use x="433.49609375" xlink:href="#BitstreamVeraSans-Roman-6f"/>
      <use x="494.677734375" xlink:href="#BitstreamVeraSans-Roman-66"/>
      <use x="529.8828125" xlink:href="#BitstreamVeraSans-Roman-20"/>
      <use x="561.669921875" xlink:href="#BitstreamVeraSans-Roman-48"/>
      <use x="636.865234375" xlink:href="#BitstreamVeraSans-Roman-6f"/>
      <use x="698.046875" xlink:href="#BitstreamVeraSans-Roman-75"/>
      <use x="761.42578125" xlink:href="#BitstreamVeraSans-Roman-72"/>
      <use x="802.5390625" xlink:href="#BitstreamVeraSans-Roman-6c"/>
      <use x="830.322265625" xlink:href="#BitstreamVeraSans-Roman-79"/>
      <use x="889.501953125" xlink:href="#BitstreamVeraSans-Roman-20"/>
      <use x="921.2890625" xlink:href="#BitstreamVeraSans-Roman-4f"/>
      <use x="1000.0" xlink:href="#BitstreamVeraSans-Roman-62"/>
      <use x="1063.4765625" xlink:href="#BitstreamVeraSans-Roman-73"/>
      <use x="1115.57617188" xlink:href="#BitstreamVeraSans-Roman-65"/>
      <use x="1177.09960938" xlink:href="#BitstreamVeraSans-Roman-72"/>
      <use x="1218.21289062" xlink:href="#BitstreamVeraSans-Roman-76"/>
      <use x="1277.39257812" xlink:href="#BitstreamVeraSans-Roman-61"/>
      <use x="1338.671875" xlink:href="#BitstreamVeraSans-Roman-74"/>
      <use x="1377.88085938" xlink:href="#BitstreamVeraSans-Roman-69"/>
      <use x="1405.6640625" xlink:href="#BitstreamVeraSans-Roman-6f"/>
      <use x="1466.84570312" xlink:href="#BitstreamVeraSans-Roman-6e"/>
      <use x="1530.22460938" xlink:href="#BitstreamVeraSans-Roman-73"/>
     </g>
    </g>
   </g>
   <g id="text_35">
    <!-- KPWK: Palwaukee -->
    <defs>
     <path d="M 9.8125 72.90625 
L 19.671875 72.90625 
L 19.671875 42.09375 
L 52.390625 72.90625 
L 65.09375 72.90625 
L 28.90625 38.921875 
L 67.671875 0 
L 54.6875 0 
L 19.671875 35.109375 
L 19.671875 0 
L 9.8125 0 
z
" id="BitstreamVeraSans-Roman-4b"/>
     <path d="M 9.078125 75.984375 
L 18.109375 75.984375 
L 18.109375 31.109375 
L 44.921875 54.6875 
L 56.390625 54.6875 
L 27.390625 29.109375 
L 57.625 0 
L 45.90625 0 
L 18.109375 26.703125 
L 18.109375 0 
L 9.078125 0 
z
" id="BitstreamVeraSans-Roman-6b"/>
     <path d="M 19.671875 64.796875 
L 19.671875 37.40625 
L 32.078125 37.40625 
Q 38.96875 37.40625 42.71875 40.96875 
Q 46.484375 44.53125 46.484375 51.125 
Q 46.484375 57.671875 42.71875 61.234375 
Q 38.96875 64.796875 32.078125 64.796875 
z
M 9.8125 72.90625 
L 32.078125 72.90625 
Q 44.34375 72.90625 50.609375 67.359375 
Q 56.890625 61.8125 56.890625 51.125 
Q 56.890625 40.328125 50.609375 34.8125 
Q 44.34375 29.296875 32.078125 29.296875 
L 19.671875 29.296875 
L 19.671875 0 
L 9.8125 0 
z
" id="BitstreamVeraSans-Roman-50"/>
     <path d="M 11.71875 12.40625 
L 22.015625 12.40625 
L 22.015625 0 
L 11.71875 0 
z
M 11.71875 51.703125 
L 22.015625 51.703125 
L 22.015625 39.3125 
L 11.71875 39.3125 
z
" id="BitstreamVeraSans-Roman-3a"/>
     <path d="M 3.328125 72.90625 
L 13.28125 72.90625 
L 28.609375 11.28125 
L 43.890625 72.90625 
L 54.984375 72.90625 
L 70.3125 11.28125 
L 85.59375 72.90625 
L 95.609375 72.90625 
L 77.296875 0 
L 64.890625 0 
L 49.515625 63.28125 
L 33.984375 0 
L 21.578125 0 
z
" id="BitstreamVeraSans-Roman-57"/>
     <path d="M 4.203125 54.6875 
L 13.1875 54.6875 
L 24.421875 12.015625 
L 35.59375 54.6875 
L 46.1875 54.6875 
L 57.421875 12.015625 
L 68.609375 54.6875 
L 77.59375 54.6875 
L 63.28125 0 
L 52.6875 0 
L 40.921875 44.828125 
L 29.109375 0 
L 18.5 0 
z
" id="BitstreamVeraSans-Roman-77"/>
    </defs>
    <g transform="translate(152.4559375 16.318125)scale(0.12 -0.12)">
     <use xlink:href="#BitstreamVeraSans-Roman-4b"/>
     <use x="65.576171875" xlink:href="#BitstreamVeraSans-Roman-50"/>
     <use x="125.87890625" xlink:href="#BitstreamVeraSans-Roman-57"/>
     <use x="224.755859375" xlink:href="#BitstreamVeraSans-Roman-4b"/>
     <use x="290.33203125" xlink:href="#BitstreamVeraSans-Roman-3a"/>
     <use x="324.0234375" xlink:href="#BitstreamVeraSans-Roman-20"/>
     <use x="355.810546875" xlink:href="#BitstreamVeraSans-Roman-50"/>
     <use x="416.05078125" xlink:href="#BitstreamVeraSans-Roman-61"/>
     <use x="477.330078125" xlink:href="#BitstreamVeraSans-Roman-6c"/>
     <use x="505.11328125" xlink:href="#BitstreamVeraSans-Roman-77"/>
     <use x="586.900390625" xlink:href="#BitstreamVeraSans-Roman-61"/>
     <use x="648.1796875" xlink:href="#BitstreamVeraSans-Roman-75"/>
     <use x="711.55859375" xlink:href="#BitstreamVeraSans-Roman-6b"/>
     <use x="769.421875" xlink:href="#BitstreamVeraSans-Roman-65"/>
     <use x="830.9453125" xlink:href="#BitstreamVeraSans-Roman-65"/>
    </g>
    <!-- ASOS Precipitation Phase Observations &amp; -->
    <defs>
     <path d="M 53.515625 70.515625 
L 53.515625 60.890625 
Q 47.90625 63.578125 42.921875 64.890625 
Q 37.9375 66.21875 33.296875 66.21875 
Q 25.25 66.21875 20.875 63.09375 
Q 16.5 59.96875 16.5 54.203125 
Q 16.5 49.359375 19.40625 46.890625 
Q 22.3125 44.4375 30.421875 42.921875 
L 36.375 41.703125 
Q 47.40625 39.59375 52.65625 34.296875 
Q 57.90625 29 57.90625 20.125 
Q 57.90625 9.515625 50.796875 4.046875 
Q 43.703125 -1.421875 29.984375 -1.421875 
Q 24.8125 -1.421875 18.96875 -0.25 
Q 13.140625 0.921875 6.890625 3.21875 
L 6.890625 13.375 
Q 12.890625 10.015625 18.65625 8.296875 
Q 24.421875 6.59375 29.984375 6.59375 
Q 38.421875 6.59375 43.015625 9.90625 
Q 47.609375 13.234375 47.609375 19.390625 
Q 47.609375 24.75 44.3125 27.78125 
Q 41.015625 30.8125 33.5 32.328125 
L 27.484375 33.5 
Q 16.453125 35.6875 11.515625 40.375 
Q 6.59375 45.0625 6.59375 53.421875 
Q 6.59375 63.09375 13.40625 68.65625 
Q 20.21875 74.21875 32.171875 74.21875 
Q 37.3125 74.21875 42.625 73.28125 
Q 47.953125 72.359375 53.515625 70.515625 
" id="BitstreamVeraSans-Roman-53"/>
     <path d="M 54.890625 33.015625 
L 54.890625 0 
L 45.90625 0 
L 45.90625 32.71875 
Q 45.90625 40.484375 42.875 44.328125 
Q 39.84375 48.1875 33.796875 48.1875 
Q 26.515625 48.1875 22.3125 43.546875 
Q 18.109375 38.921875 18.109375 30.90625 
L 18.109375 0 
L 9.078125 0 
L 9.078125 75.984375 
L 18.109375 75.984375 
L 18.109375 46.1875 
Q 21.34375 51.125 25.703125 53.5625 
Q 30.078125 56 35.796875 56 
Q 45.21875 56 50.046875 50.171875 
Q 54.890625 44.34375 54.890625 33.015625 
" id="BitstreamVeraSans-Roman-68"/>
     <path d="M 48.78125 52.59375 
L 48.78125 44.1875 
Q 44.96875 46.296875 41.140625 47.34375 
Q 37.3125 48.390625 33.40625 48.390625 
Q 24.65625 48.390625 19.8125 42.84375 
Q 14.984375 37.3125 14.984375 27.296875 
Q 14.984375 17.28125 19.8125 11.734375 
Q 24.65625 6.203125 33.40625 6.203125 
Q 37.3125 6.203125 41.140625 7.25 
Q 44.96875 8.296875 48.78125 10.40625 
L 48.78125 2.09375 
Q 45.015625 0.34375 40.984375 -0.53125 
Q 36.96875 -1.421875 32.421875 -1.421875 
Q 20.0625 -1.421875 12.78125 6.34375 
Q 5.515625 14.109375 5.515625 27.296875 
Q 5.515625 40.671875 12.859375 48.328125 
Q 20.21875 56 33.015625 56 
Q 37.15625 56 41.109375 55.140625 
Q 45.0625 54.296875 48.78125 52.59375 
" id="BitstreamVeraSans-Roman-63"/>
     <path d="M 24.3125 39.203125 
Q 19.875 35.25 17.796875 31.3125 
Q 15.71875 27.390625 15.71875 23.09375 
Q 15.71875 15.96875 20.890625 11.234375 
Q 26.078125 6.5 33.890625 6.5 
Q 38.53125 6.5 42.578125 8.03125 
Q 46.625 9.578125 50.203125 12.703125 
z
M 31.203125 44.671875 
L 56 19.28125 
Q 58.890625 23.640625 60.5 28.59375 
Q 62.109375 33.546875 62.40625 39.109375 
L 71.484375 39.109375 
Q 70.90625 32.671875 68.359375 26.359375 
Q 65.828125 20.0625 61.28125 13.921875 
L 74.90625 0 
L 62.59375 0 
L 55.609375 7.171875 
Q 50.53125 2.828125 44.96875 0.703125 
Q 39.40625 -1.421875 33.015625 -1.421875 
Q 21.234375 -1.421875 13.765625 5.296875 
Q 6.296875 12.015625 6.296875 22.515625 
Q 6.296875 28.765625 9.5625 34.25 
Q 12.84375 39.75 19.390625 44.578125 
Q 17.046875 47.65625 15.8125 50.703125 
Q 14.59375 53.765625 14.59375 56.6875 
Q 14.59375 64.59375 20.015625 69.40625 
Q 25.4375 74.21875 34.421875 74.21875 
Q 38.484375 74.21875 42.5 73.34375 
Q 46.53125 72.46875 50.6875 70.703125 
L 50.6875 61.8125 
Q 46.4375 64.109375 42.578125 65.296875 
Q 38.71875 66.5 35.40625 66.5 
Q 30.28125 66.5 27.078125 63.78125 
Q 23.875 61.078125 23.875 56.78125 
Q 23.875 54.296875 25.3125 51.78125 
Q 26.765625 49.265625 31.203125 44.671875 
" id="BitstreamVeraSans-Roman-26"/>
    </defs>
    <g transform="translate(81.93625 29.7555)scale(0.12 -0.12)">
     <use xlink:href="#BitstreamVeraSans-Roman-41"/>
     <use x="68.408203125" xlink:href="#BitstreamVeraSans-Roman-53"/>
     <use x="131.884765625" xlink:href="#BitstreamVeraSans-Roman-4f"/>
     <use x="210.595703125" xlink:href="#BitstreamVeraSans-Roman-53"/>
     <use x="274.072265625" xlink:href="#BitstreamVeraSans-Roman-20"/>
     <use x="305.859375" xlink:href="#BitstreamVeraSans-Roman-50"/>
     <use x="366.146484375" xlink:href="#BitstreamVeraSans-Roman-72"/>
     <use x="407.228515625" xlink:href="#BitstreamVeraSans-Roman-65"/>
     <use x="468.751953125" xlink:href="#BitstreamVeraSans-Roman-63"/>
     <use x="523.732421875" xlink:href="#BitstreamVeraSans-Roman-69"/>
     <use x="551.515625" xlink:href="#BitstreamVeraSans-Roman-70"/>
     <use x="614.9921875" xlink:href="#BitstreamVeraSans-Roman-69"/>
     <use x="642.775390625" xlink:href="#BitstreamVeraSans-Roman-74"/>
     <use x="681.984375" xlink:href="#BitstreamVeraSans-Roman-61"/>
     <use x="743.263671875" xlink:href="#BitstreamVeraSans-Roman-74"/>
     <use x="782.47265625" xlink:href="#BitstreamVeraSans-Roman-69"/>
     <use x="810.255859375" xlink:href="#BitstreamVeraSans-Roman-6f"/>
     <use x="871.4375" xlink:href="#BitstreamVeraSans-Roman-6e"/>
     <use x="934.81640625" xlink:href="#BitstreamVeraSans-Roman-20"/>
     <use x="966.603515625" xlink:href="#BitstreamVeraSans-Roman-50"/>
     <use x="1026.90625" xlink:href="#BitstreamVeraSans-Roman-68"/>
     <use x="1090.28515625" xlink:href="#BitstreamVeraSans-Roman-61"/>
     <use x="1151.56445312" xlink:href="#BitstreamVeraSans-Roman-73"/>
     <use x="1203.6640625" xlink:href="#BitstreamVeraSans-Roman-65"/>
     <use x="1265.1875" xlink:href="#BitstreamVeraSans-Roman-20"/>
     <use x="1296.97460938" xlink:href="#BitstreamVeraSans-Roman-4f"/>
     <use x="1375.68554688" xlink:href="#BitstreamVeraSans-Roman-62"/>
     <use x="1439.16210938" xlink:href="#BitstreamVeraSans-Roman-73"/>
     <use x="1491.26171875" xlink:href="#BitstreamVeraSans-Roman-65"/>
     <use x="1552.78515625" xlink:href="#BitstreamVeraSans-Roman-72"/>
     <use x="1593.8984375" xlink:href="#BitstreamVeraSans-Roman-76"/>
     <use x="1653.078125" xlink:href="#BitstreamVeraSans-Roman-61"/>
     <use x="1714.35742188" xlink:href="#BitstreamVeraSans-Roman-74"/>
     <use x="1753.56640625" xlink:href="#BitstreamVeraSans-Roman-69"/>
     <use x="1781.34960938" xlink:href="#BitstreamVeraSans-Roman-6f"/>
     <use x="1842.53125" xlink:href="#BitstreamVeraSans-Roman-6e"/>
     <use x="1905.91015625" xlink:href="#BitstreamVeraSans-Roman-73"/>
     <use x="1958.00976562" xlink:href="#BitstreamVeraSans-Roman-20"/>
     <use x="1989.796875" xlink:href="#BitstreamVeraSans-Roman-26"/>
    </g>
    <!-- ANL Temperature Data (1/1/2006 - 9/30/2013) -->
    <defs>
     <path d="M 19.671875 64.796875 
L 19.671875 8.109375 
L 31.59375 8.109375 
Q 46.6875 8.109375 53.6875 14.9375 
Q 60.6875 21.78125 60.6875 36.53125 
Q 60.6875 51.171875 53.6875 57.984375 
Q 46.6875 64.796875 31.59375 64.796875 
z
M 9.8125 72.90625 
L 30.078125 72.90625 
Q 51.265625 72.90625 61.171875 64.09375 
Q 71.09375 55.28125 71.09375 36.53125 
Q 71.09375 17.671875 61.125 8.828125 
Q 51.171875 0 30.078125 0 
L 9.8125 0 
z
" id="BitstreamVeraSans-Roman-44"/>
     <path d="M 25.390625 72.90625 
L 33.6875 72.90625 
L 8.296875 -9.28125 
L 0 -9.28125 
z
" id="BitstreamVeraSans-Roman-2f"/>
    </defs>
    <g transform="translate(66.506875 43.192875)scale(0.12 -0.12)">
     <use xlink:href="#BitstreamVeraSans-Roman-41"/>
     <use x="68.408203125" xlink:href="#BitstreamVeraSans-Roman-4e"/>
     <use x="143.212890625" xlink:href="#BitstreamVeraSans-Roman-4c"/>
     <use x="198.92578125" xlink:href="#BitstreamVeraSans-Roman-20"/>
     <use x="230.712890625" xlink:href="#BitstreamVeraSans-Roman-54"/>
     <use x="291.53125" xlink:href="#BitstreamVeraSans-Roman-65"/>
     <use x="353.0546875" xlink:href="#BitstreamVeraSans-Roman-6d"/>
     <use x="450.466796875" xlink:href="#BitstreamVeraSans-Roman-70"/>
     <use x="513.943359375" xlink:href="#BitstreamVeraSans-Roman-65"/>
     <use x="575.466796875" xlink:href="#BitstreamVeraSans-Roman-72"/>
     <use x="616.580078125" xlink:href="#BitstreamVeraSans-Roman-61"/>
     <use x="677.859375" xlink:href="#BitstreamVeraSans-Roman-74"/>
     <use x="717.068359375" xlink:href="#BitstreamVeraSans-Roman-75"/>
     <use x="780.447265625" xlink:href="#BitstreamVeraSans-Roman-72"/>
     <use x="821.529296875" xlink:href="#BitstreamVeraSans-Roman-65"/>
     <use x="883.052734375" xlink:href="#BitstreamVeraSans-Roman-20"/>
     <use x="914.83984375" xlink:href="#BitstreamVeraSans-Roman-44"/>
     <use x="991.841796875" xlink:href="#BitstreamVeraSans-Roman-61"/>
     <use x="1053.12109375" xlink:href="#BitstreamVeraSans-Roman-74"/>
     <use x="1092.33007812" xlink:href="#BitstreamVeraSans-Roman-61"/>
     <use x="1153.609375" xlink:href="#BitstreamVeraSans-Roman-20"/>
     <use x="1185.39648438" xlink:href="#BitstreamVeraSans-Roman-28"/>
     <use x="1224.41015625" xlink:href="#BitstreamVeraSans-Roman-31"/>
     <use x="1288.03320312" xlink:href="#BitstreamVeraSans-Roman-2f"/>
     <use x="1321.72460938" xlink:href="#BitstreamVeraSans-Roman-31"/>
     <use x="1385.34765625" xlink:href="#BitstreamVeraSans-Roman-2f"/>
     <use x="1419.0390625" xlink:href="#BitstreamVeraSans-Roman-32"/>
     <use x="1482.66210938" xlink:href="#BitstreamVeraSans-Roman-30"/>
     <use x="1546.28515625" xlink:href="#BitstreamVeraSans-Roman-30"/>
     <use x="1609.90820312" xlink:href="#BitstreamVeraSans-Roman-36"/>
     <use x="1673.53125" xlink:href="#BitstreamVeraSans-Roman-20"/>
     <use x="1705.31835938" xlink:href="#BitstreamVeraSans-Roman-2d"/>
     <use x="1741.40234375" xlink:href="#BitstreamVeraSans-Roman-20"/>
     <use x="1773.18945312" xlink:href="#BitstreamVeraSans-Roman-39"/>
     <use x="1836.8125" xlink:href="#BitstreamVeraSans-Roman-2f"/>
     <use x="1870.50390625" xlink:href="#BitstreamVeraSans-Roman-33"/>
     <use x="1934.12695312" xlink:href="#BitstreamVeraSans-Roman-30"/>
     <use x="1997.75" xlink:href="#BitstreamVeraSans-Roman-2f"/>
     <use x="2031.44140625" xlink:href="#BitstreamVeraSans-Roman-32"/>
     <use x="2095.06445312" xlink:href="#BitstreamVeraSans-Roman-30"/>
     <use x="2158.6875" xlink:href="#BitstreamVeraSans-Roman-31"/>
     <use x="2222.31054688" xlink:href="#BitstreamVeraSans-Roman-33"/>
     <use x="2285.93359375" xlink:href="#BitstreamVeraSans-Roman-29"/>
    </g>
   </g>
   <g id="legend_1">
    <g id="patch_50">
     <path d="M 291.82375 93.020375 
L 367.403125 93.020375 
L 367.403125 54.192875 
L 291.82375 54.192875 
z
" style="fill:#ffffff;stroke:#000000;stroke-linejoin:miter;"/>
    </g>
    <g id="patch_51">
     <path d="M 296.62375 68.111 
L 320.62375 68.111 
L 320.62375 59.711 
L 296.62375 59.711 
z
" style="fill:#0000ff;stroke:#000000;stroke-linejoin:miter;"/>
    </g>
    <g id="text_36">
     <!-- Snow -->
     <g transform="translate(330.22375 68.111)scale(0.12 -0.12)">
      <use xlink:href="#BitstreamVeraSans-Roman-53"/>
      <use x="63.4765625" xlink:href="#BitstreamVeraSans-Roman-6e"/>
      <use x="126.85546875" xlink:href="#BitstreamVeraSans-Roman-6f"/>
      <use x="188.037109375" xlink:href="#BitstreamVeraSans-Roman-77"/>
     </g>
    </g>
    <g id="patch_52">
     <path d="M 296.62375 85.72475 
L 320.62375 85.72475 
L 320.62375 77.32475 
L 296.62375 77.32475 
z
" style="fill:#ff0000;stroke:#000000;stroke-linejoin:miter;"/>
    </g>
    <g id="text_37">
     <!-- Rain -->
     <defs>
      <path d="M 44.390625 34.1875 
Q 47.5625 33.109375 50.5625 29.59375 
Q 53.5625 26.078125 56.59375 19.921875 
L 66.609375 0 
L 56 0 
L 46.6875 18.703125 
Q 43.0625 26.03125 39.671875 28.421875 
Q 36.28125 30.8125 30.421875 30.8125 
L 19.671875 30.8125 
L 19.671875 0 
L 9.8125 0 
L 9.8125 72.90625 
L 32.078125 72.90625 
Q 44.578125 72.90625 50.734375 67.671875 
Q 56.890625 62.453125 56.890625 51.90625 
Q 56.890625 45.015625 53.6875 40.46875 
Q 50.484375 35.9375 44.390625 34.1875 
M 19.671875 64.796875 
L 19.671875 38.921875 
L 32.078125 38.921875 
Q 39.203125 38.921875 42.84375 42.21875 
Q 46.484375 45.515625 46.484375 51.90625 
Q 46.484375 58.296875 42.84375 61.546875 
Q 39.203125 64.796875 32.078125 64.796875 
z
" id="BitstreamVeraSans-Roman-52"/>
     </defs>
     <g transform="translate(330.22375 85.72475)scale(0.12 -0.12)">
      <use xlink:href="#BitstreamVeraSans-Roman-52"/>
      <use x="69.451171875" xlink:href="#BitstreamVeraSans-Roman-61"/>
      <use x="130.73046875" xlink:href="#BitstreamVeraSans-Roman-69"/>
      <use x="158.513671875" xlink:href="#BitstreamVeraSans-Roman-6e"/>
     </g>
    </g>
   </g>
  </g>
 </g>
 <defs>
  <clipPath id="p31b2816247">
   <rect height="223.2" width="334.8" x="38.603125" y="48.192875"/>
  </clipPath>
 </defs>
</svg>
